M48
;GenerationSoftware,Autodesk,EAGLE,9.6.2*%
;CreationDate,2020-12-19T08:38:02Z*%
FMAT,2
ICI,OFF
METRIC,TZ,000.000
T5C0.305
T4C0.787
T3C0.889
T2C1.100
T1C3.175
%
G90
M71
T1
X3810Y90170
X59690Y90170
X59690Y3810
X3810Y3810
T2
X53340Y72140
X53340Y80260
T3
X50224Y60224
X12700Y12700
X12700Y15240
X30480Y12700
X30480Y15240
X12700Y81280
X12700Y78740
X55304Y60224
X55304Y57684
X52764Y60224
X52764Y57684
X29904Y60224
X50224Y57684
X47684Y60224
X47684Y57684
X45144Y60224
X45144Y57684
X42604Y60224
X42604Y57684
X40064Y60224
X40064Y57684
X37524Y60224
X37524Y57684
X34984Y60224
X34984Y57684
X32444Y60224
X32444Y57684
X29904Y57684
X27364Y60224
X27364Y57684
X24824Y60224
X24824Y57684
X22284Y60224
X22284Y57684
X19744Y60224
X19744Y57684
X17204Y60224
X17204Y57684
X14664Y60224
X14664Y57684
X12124Y60224
X12124Y57684
X55304Y34824
X55304Y32284
X52764Y34824
X52764Y32284
X50224Y34824
X50224Y32284
X47684Y34824
X47684Y32284
X45144Y34824
X45144Y32284
X42604Y34824
X42604Y32284
X40064Y34824
X40064Y32284
X37524Y34824
X37524Y32284
X34984Y34824
X34984Y32284
X32444Y34824
X32444Y32284
X29904Y34824
X29904Y32284
X27364Y34824
X27364Y32284
X24824Y34824
X24824Y32284
X22284Y34824
X22284Y32284
X19744Y34824
X19744Y32284
X17204Y34824
X17204Y32284
X14664Y34824
X14664Y32284
X12124Y34824
X12124Y32284
X30480Y81280
X30480Y78740
T4
X25400Y15240
X25400Y76200
X25400Y78740
X25400Y81280
X25400Y83820
X17780Y5080
X25400Y5080
X25400Y7620
X25400Y10160
X25400Y88900
X17780Y81280
X25400Y17780
X25400Y20320
X25400Y22860
X17780Y22860
X17780Y20320
X17780Y17780
X17780Y15240
X17780Y12700
X17780Y10160
X17780Y7620
X25400Y86360
X17780Y88900
X17780Y86360
X17780Y83820
X25400Y12700
X17780Y78740
X17780Y76200
X17780Y73660
X17780Y71120
X25400Y71120
X25400Y73660
T5
X16510Y15240
X16510Y12700
X16510Y78740
X16510Y81280
X26924Y12700
X26670Y81280
X49276Y86106
X49276Y66548
X26670Y78740
X26924Y15240
M30