G04 EAGLE Gerber RS-274X export*
G75*
%MOMM*%
%FSLAX34Y34*%
%LPD*%
%INTop Copper*%
%IPPOS*%
%AMOC8*
5,1,8,0,0,1.08239X$1,22.5*%
G01*
%ADD10R,1.524000X1.524000*%
%ADD11P,1.649562X8X202.500000*%
%ADD12R,0.500000X0.600000*%
%ADD13R,3.390000X1.120000*%
%ADD14R,2.220000X2.440000*%
%ADD15C,1.651000*%
%ADD16R,1.295400X1.295400*%
%ADD17C,1.295400*%
%ADD18C,4.445000*%
%ADD19C,1.016000*%
%ADD20C,0.254000*%
%ADD21C,0.609600*%


D10*
X553040Y602240D03*
D11*
X553040Y576840D03*
X527640Y602240D03*
X527640Y576840D03*
X502240Y602240D03*
X502240Y576840D03*
X476840Y602240D03*
X476840Y576840D03*
X451440Y602240D03*
X451440Y576840D03*
X426040Y602240D03*
X426040Y576840D03*
X400640Y602240D03*
X400640Y576840D03*
X375240Y602240D03*
X375240Y576840D03*
X349840Y602240D03*
X349840Y576840D03*
X324440Y602240D03*
X324440Y576840D03*
X299040Y602240D03*
X299040Y576840D03*
X273640Y602240D03*
X273640Y576840D03*
X248240Y602240D03*
X248240Y576840D03*
X222840Y602240D03*
X222840Y576840D03*
X197440Y602240D03*
X197440Y576840D03*
X172040Y602240D03*
X172040Y576840D03*
X146640Y602240D03*
X146640Y576840D03*
X121240Y602240D03*
X121240Y576840D03*
D10*
X553040Y348240D03*
D11*
X553040Y322840D03*
X527640Y348240D03*
X527640Y322840D03*
X502240Y348240D03*
X502240Y322840D03*
X476840Y348240D03*
X476840Y322840D03*
X451440Y348240D03*
X451440Y322840D03*
X426040Y348240D03*
X426040Y322840D03*
X400640Y348240D03*
X400640Y322840D03*
X375240Y348240D03*
X375240Y322840D03*
X349840Y348240D03*
X349840Y322840D03*
X324440Y348240D03*
X324440Y322840D03*
X299040Y348240D03*
X299040Y322840D03*
X273640Y348240D03*
X273640Y322840D03*
X248240Y348240D03*
X248240Y322840D03*
X222840Y348240D03*
X222840Y322840D03*
X197440Y348240D03*
X197440Y322840D03*
X172040Y348240D03*
X172040Y322840D03*
X146640Y348240D03*
X146640Y322840D03*
X121240Y348240D03*
X121240Y322840D03*
D12*
X333930Y402590D03*
X323930Y402590D03*
D13*
X456600Y727000D03*
X456600Y797000D03*
X456600Y752000D03*
X456600Y772000D03*
D14*
X493400Y685300D03*
X493400Y838700D03*
D15*
X304800Y812800D03*
X304800Y787400D03*
X127000Y127000D03*
X127000Y152400D03*
X304800Y127000D03*
X304800Y152400D03*
X127000Y812800D03*
X127000Y787400D03*
D16*
X254000Y50800D03*
D17*
X254000Y76200D03*
X254000Y101600D03*
X254000Y127000D03*
X254000Y152400D03*
X254000Y177800D03*
X254000Y203200D03*
X254000Y228600D03*
X177800Y228600D03*
X177800Y203200D03*
X177800Y177800D03*
X177800Y152400D03*
X177800Y127000D03*
X177800Y101600D03*
X177800Y76200D03*
X177800Y50800D03*
D16*
X177800Y889000D03*
D17*
X177800Y863600D03*
X177800Y838200D03*
X177800Y812800D03*
X177800Y787400D03*
X177800Y762000D03*
X177800Y736600D03*
X177800Y711200D03*
X254000Y711200D03*
X254000Y736600D03*
X254000Y762000D03*
X254000Y787400D03*
X254000Y812800D03*
X254000Y838200D03*
X254000Y863600D03*
X254000Y889000D03*
D18*
X38100Y38100D03*
X596900Y38100D03*
X596900Y901700D03*
X38100Y901700D03*
D19*
X38100Y88900D03*
X596900Y88900D03*
X38100Y850900D03*
D20*
X254000Y127000D02*
X269240Y127000D01*
D21*
X269240Y127000D03*
X269240Y152400D03*
D20*
X177800Y152400D02*
X165100Y152400D01*
D21*
X165100Y152400D03*
X165100Y127000D03*
X165100Y787400D03*
X165100Y812800D03*
X266700Y812800D03*
X266700Y787400D03*
D20*
X493400Y685300D02*
X493400Y666120D01*
X492760Y665480D01*
D21*
X492760Y665480D03*
D20*
X493400Y838700D02*
X493400Y860420D01*
X492760Y861060D01*
D21*
X492760Y861060D03*
D20*
X177800Y787400D02*
X165100Y787400D01*
X167640Y878840D02*
X177800Y889000D01*
X167640Y878840D02*
X124460Y878840D01*
X76200Y830580D01*
X76200Y584200D01*
X96520Y563880D01*
X133680Y563880D01*
X146640Y576840D01*
X167640Y853440D02*
X177800Y863600D01*
X167640Y853440D02*
X121920Y853440D01*
X93980Y825500D01*
X93980Y629500D02*
X121240Y602240D01*
X93980Y629500D02*
X93980Y825500D01*
X139700Y838200D02*
X177800Y838200D01*
X139700Y838200D02*
X127000Y825500D01*
X127000Y812800D01*
X127000Y787400D02*
X127000Y774700D01*
X139700Y762000D01*
X177800Y762000D01*
X177800Y736600D02*
X175260Y736600D01*
X132670Y694010D01*
X132670Y588270D02*
X121240Y576840D01*
X132670Y588270D02*
X132670Y694010D01*
X146640Y602240D02*
X238633Y694233D01*
X254000Y852748D02*
X254000Y863600D01*
X254000Y852748D02*
X238633Y837381D01*
X238633Y694233D01*
X254000Y838200D02*
X292100Y838200D01*
X304800Y825500D02*
X304800Y812800D01*
X304800Y825500D02*
X292100Y838200D01*
X304800Y787400D02*
X304800Y774700D01*
X292100Y762000D01*
X254000Y762000D01*
X254000Y736600D02*
X254000Y725748D01*
X243713Y715461D01*
X243713Y673913D02*
X172040Y602240D01*
X243713Y673913D02*
X243713Y715461D01*
X254000Y711200D02*
X254000Y658800D01*
X208870Y597506D02*
X202175Y590810D01*
X208870Y613670D02*
X254000Y658800D01*
X186010Y590810D02*
X172040Y576840D01*
X208870Y597506D02*
X208870Y613670D01*
X202175Y590810D02*
X186010Y590810D01*
X456600Y727000D02*
X476840Y706760D01*
X476840Y602240D01*
X441010Y736410D02*
X456600Y752000D01*
X441010Y736410D02*
X438072Y736410D01*
X434592Y732930D01*
X434592Y609852D01*
X442205Y602240D01*
X451440Y602240D01*
X454220Y769620D02*
X456600Y772000D01*
X429260Y769620D02*
X424180Y764540D01*
X424180Y604100D01*
X426040Y602240D01*
X429260Y769620D02*
X454220Y769620D01*
X456600Y797000D02*
X410920Y797000D01*
X400640Y786720D02*
X400640Y602240D01*
X400640Y786720D02*
X410920Y797000D01*
X324440Y322840D02*
X324440Y208960D01*
X347980Y185420D01*
X347980Y101600D01*
X297180Y50800D02*
X254000Y50800D01*
X297180Y50800D02*
X347980Y101600D01*
X261620Y83820D02*
X254000Y76200D01*
X307340Y83820D02*
X330200Y106680D01*
X330200Y175260D01*
X299040Y206420D02*
X299040Y322840D01*
X307340Y83820D02*
X261620Y83820D01*
X330200Y175260D02*
X299040Y206420D01*
X273640Y222840D02*
X273640Y322840D01*
X273640Y222840D02*
X254000Y203200D01*
X177800Y76200D02*
X139700Y76200D01*
X99060Y116840D01*
X99060Y180340D01*
X134620Y336220D02*
X146640Y348240D01*
X134620Y215900D02*
X99060Y180340D01*
X134620Y215900D02*
X134620Y336220D01*
X127000Y114300D02*
X139700Y101600D01*
X127000Y114300D02*
X127000Y127000D01*
X139700Y101600D02*
X177800Y101600D01*
X177800Y177800D02*
X139700Y177800D01*
X127000Y165100D01*
X127000Y152400D01*
X146640Y234360D02*
X146640Y322840D01*
X146640Y234360D02*
X177800Y203200D01*
X177800Y317080D02*
X172040Y322840D01*
X177800Y317080D02*
X177800Y228600D01*
X254000Y177800D02*
X292100Y177800D01*
X304800Y165100D02*
X304800Y152400D01*
X304800Y165100D02*
X292100Y177800D01*
X292100Y101600D02*
X254000Y101600D01*
X304800Y114300D02*
X304800Y127000D01*
X304800Y114300D02*
X292100Y101600D01*
M02*
