G04 EAGLE Gerber RS-274X export*
G75*
%MOMM*%
%FSLAX34Y34*%
%LPD*%
%INBottom Copper*%
%IPPOS*%
%AMOC8*
5,1,8,0,0,1.08239X$1,22.5*%
G01*
%ADD10R,1.524000X1.524000*%
%ADD11P,1.649562X8X202.500000*%
%ADD12C,1.651000*%
%ADD13R,1.295400X1.295400*%
%ADD14C,1.295400*%
%ADD15C,4.445000*%
%ADD16C,0.609600*%


D10*
X553040Y602240D03*
D11*
X553040Y576840D03*
X527640Y602240D03*
X527640Y576840D03*
X502240Y602240D03*
X502240Y576840D03*
X476840Y602240D03*
X476840Y576840D03*
X451440Y602240D03*
X451440Y576840D03*
X426040Y602240D03*
X426040Y576840D03*
X400640Y602240D03*
X400640Y576840D03*
X375240Y602240D03*
X375240Y576840D03*
X349840Y602240D03*
X349840Y576840D03*
X324440Y602240D03*
X324440Y576840D03*
X299040Y602240D03*
X299040Y576840D03*
X273640Y602240D03*
X273640Y576840D03*
X248240Y602240D03*
X248240Y576840D03*
X222840Y602240D03*
X222840Y576840D03*
X197440Y602240D03*
X197440Y576840D03*
X172040Y602240D03*
X172040Y576840D03*
X146640Y602240D03*
X146640Y576840D03*
X121240Y602240D03*
X121240Y576840D03*
D10*
X553040Y348240D03*
D11*
X553040Y322840D03*
X527640Y348240D03*
X527640Y322840D03*
X502240Y348240D03*
X502240Y322840D03*
X476840Y348240D03*
X476840Y322840D03*
X451440Y348240D03*
X451440Y322840D03*
X426040Y348240D03*
X426040Y322840D03*
X400640Y348240D03*
X400640Y322840D03*
X375240Y348240D03*
X375240Y322840D03*
X349840Y348240D03*
X349840Y322840D03*
X324440Y348240D03*
X324440Y322840D03*
X299040Y348240D03*
X299040Y322840D03*
X273640Y348240D03*
X273640Y322840D03*
X248240Y348240D03*
X248240Y322840D03*
X222840Y348240D03*
X222840Y322840D03*
X197440Y348240D03*
X197440Y322840D03*
X172040Y348240D03*
X172040Y322840D03*
X146640Y348240D03*
X146640Y322840D03*
X121240Y348240D03*
X121240Y322840D03*
D12*
X304800Y812800D03*
X304800Y787400D03*
X127000Y127000D03*
X127000Y152400D03*
X304800Y127000D03*
X304800Y152400D03*
X127000Y812800D03*
X127000Y787400D03*
D13*
X254000Y50800D03*
D14*
X254000Y76200D03*
X254000Y101600D03*
X254000Y127000D03*
X254000Y152400D03*
X254000Y177800D03*
X254000Y203200D03*
X254000Y228600D03*
X177800Y228600D03*
X177800Y203200D03*
X177800Y177800D03*
X177800Y152400D03*
X177800Y127000D03*
X177800Y101600D03*
X177800Y76200D03*
X177800Y50800D03*
D13*
X177800Y889000D03*
D14*
X177800Y863600D03*
X177800Y838200D03*
X177800Y812800D03*
X177800Y787400D03*
X177800Y762000D03*
X177800Y736600D03*
X177800Y711200D03*
X254000Y711200D03*
X254000Y736600D03*
X254000Y762000D03*
X254000Y787400D03*
X254000Y812800D03*
X254000Y838200D03*
X254000Y863600D03*
X254000Y889000D03*
D15*
X38100Y38100D03*
X596900Y38100D03*
X596900Y901700D03*
X38100Y901700D03*
D16*
X269240Y127000D03*
X269240Y152400D03*
X165100Y152400D03*
X165100Y127000D03*
X165100Y787400D03*
X165100Y812800D03*
X266700Y812800D03*
X266700Y787400D03*
X492760Y665480D03*
X492760Y861060D03*
M02*
