G04 EAGLE Gerber RS-274X export*
G75*
%MOMM*%
%FSLAX34Y34*%
%LPD*%
%INCopper Layer 15*%
%IPPOS*%
%AMOC8*
5,1,8,0,0,1.08239X$1,22.5*%
G01*
%ADD10C,1.244600*%
%ADD11C,1.102363*%
%ADD12C,4.191000*%
%ADD13C,0.609600*%
%ADD14C,0.254000*%

G36*
X631308Y2556D02*
X631308Y2556D01*
X631427Y2563D01*
X631465Y2576D01*
X631506Y2581D01*
X631616Y2624D01*
X631729Y2661D01*
X631764Y2683D01*
X631801Y2698D01*
X631897Y2767D01*
X631998Y2831D01*
X632026Y2861D01*
X632059Y2884D01*
X632135Y2976D01*
X632216Y3063D01*
X632236Y3098D01*
X632261Y3129D01*
X632312Y3237D01*
X632370Y3341D01*
X632380Y3381D01*
X632397Y3417D01*
X632419Y3534D01*
X632449Y3649D01*
X632453Y3709D01*
X632457Y3729D01*
X632455Y3750D01*
X632459Y3810D01*
X632459Y935990D01*
X632444Y936108D01*
X632437Y936227D01*
X632424Y936265D01*
X632419Y936306D01*
X632376Y936416D01*
X632339Y936529D01*
X632317Y936564D01*
X632302Y936601D01*
X632233Y936697D01*
X632169Y936798D01*
X632139Y936826D01*
X632116Y936859D01*
X632024Y936935D01*
X631937Y937016D01*
X631902Y937036D01*
X631871Y937061D01*
X631763Y937112D01*
X631659Y937170D01*
X631619Y937180D01*
X631583Y937197D01*
X631466Y937219D01*
X631351Y937249D01*
X631291Y937253D01*
X631271Y937257D01*
X631250Y937255D01*
X631190Y937259D01*
X3810Y937259D01*
X3692Y937244D01*
X3573Y937237D01*
X3535Y937224D01*
X3494Y937219D01*
X3384Y937176D01*
X3271Y937139D01*
X3236Y937117D01*
X3199Y937102D01*
X3103Y937033D01*
X3002Y936969D01*
X2974Y936939D01*
X2941Y936916D01*
X2865Y936824D01*
X2784Y936737D01*
X2764Y936702D01*
X2739Y936671D01*
X2688Y936563D01*
X2630Y936459D01*
X2620Y936419D01*
X2603Y936383D01*
X2581Y936266D01*
X2551Y936151D01*
X2547Y936091D01*
X2543Y936071D01*
X2545Y936050D01*
X2541Y935990D01*
X2541Y3810D01*
X2556Y3692D01*
X2563Y3573D01*
X2576Y3535D01*
X2581Y3494D01*
X2624Y3384D01*
X2661Y3271D01*
X2683Y3236D01*
X2698Y3199D01*
X2767Y3103D01*
X2831Y3002D01*
X2861Y2974D01*
X2884Y2941D01*
X2976Y2865D01*
X3063Y2784D01*
X3098Y2764D01*
X3129Y2739D01*
X3237Y2688D01*
X3341Y2630D01*
X3381Y2620D01*
X3417Y2603D01*
X3534Y2581D01*
X3649Y2551D01*
X3709Y2547D01*
X3729Y2543D01*
X3750Y2545D01*
X3810Y2541D01*
X631190Y2541D01*
X631308Y2556D01*
G37*
%LPC*%
G36*
X592226Y878204D02*
X592226Y878204D01*
X583591Y881781D01*
X576981Y888391D01*
X573404Y897026D01*
X573404Y906374D01*
X576981Y915009D01*
X583591Y921619D01*
X592226Y925196D01*
X601574Y925196D01*
X610209Y921619D01*
X616819Y915009D01*
X620396Y906374D01*
X620396Y897026D01*
X616819Y888391D01*
X610209Y881781D01*
X601574Y878204D01*
X592226Y878204D01*
G37*
%LPD*%
%LPC*%
G36*
X33426Y878204D02*
X33426Y878204D01*
X24791Y881781D01*
X18181Y888391D01*
X14604Y897026D01*
X14604Y906374D01*
X18181Y915009D01*
X24791Y921619D01*
X33426Y925196D01*
X42774Y925196D01*
X51409Y921619D01*
X58019Y915009D01*
X61596Y906374D01*
X61596Y897026D01*
X58019Y888391D01*
X51409Y881781D01*
X42774Y878204D01*
X33426Y878204D01*
G37*
%LPD*%
%LPC*%
G36*
X33426Y14604D02*
X33426Y14604D01*
X24791Y18181D01*
X18181Y24791D01*
X14604Y33426D01*
X14604Y42774D01*
X18181Y51409D01*
X24791Y58019D01*
X33426Y61596D01*
X42774Y61596D01*
X51409Y58019D01*
X58019Y51409D01*
X61596Y42774D01*
X61596Y33426D01*
X58019Y24791D01*
X51409Y18181D01*
X42774Y14604D01*
X33426Y14604D01*
G37*
%LPD*%
%LPC*%
G36*
X592226Y14604D02*
X592226Y14604D01*
X583591Y18181D01*
X576981Y24791D01*
X573404Y33426D01*
X573404Y42774D01*
X576981Y51409D01*
X583591Y58019D01*
X592226Y61596D01*
X601574Y61596D01*
X610209Y58019D01*
X616819Y51409D01*
X620396Y42774D01*
X620396Y33426D01*
X616819Y24791D01*
X610209Y18181D01*
X601574Y14604D01*
X592226Y14604D01*
G37*
%LPD*%
%LPC*%
G36*
X252398Y144347D02*
X252398Y144347D01*
X249439Y145573D01*
X247173Y147839D01*
X245947Y150798D01*
X245947Y154002D01*
X247173Y156961D01*
X249439Y159227D01*
X252398Y160453D01*
X255602Y160453D01*
X258561Y159227D01*
X260832Y156956D01*
X260837Y156941D01*
X260906Y156831D01*
X260971Y156718D01*
X260991Y156697D01*
X261007Y156672D01*
X261102Y156583D01*
X261192Y156490D01*
X261217Y156474D01*
X261239Y156454D01*
X261352Y156391D01*
X261463Y156323D01*
X261491Y156315D01*
X261517Y156300D01*
X261643Y156268D01*
X261767Y156230D01*
X261796Y156228D01*
X261825Y156221D01*
X261986Y156211D01*
X264621Y156211D01*
X264720Y156223D01*
X264819Y156226D01*
X264877Y156243D01*
X264937Y156251D01*
X265029Y156287D01*
X265124Y156315D01*
X265176Y156345D01*
X265233Y156368D01*
X265313Y156426D01*
X265398Y156476D01*
X265473Y156542D01*
X265490Y156554D01*
X265498Y156564D01*
X265519Y156582D01*
X266074Y157138D01*
X268128Y157989D01*
X270352Y157989D01*
X272406Y157138D01*
X273978Y155566D01*
X274829Y153512D01*
X274829Y151288D01*
X273978Y149234D01*
X272406Y147662D01*
X270352Y146811D01*
X268128Y146811D01*
X266074Y147662D01*
X265519Y148218D01*
X265441Y148278D01*
X265368Y148346D01*
X265315Y148375D01*
X265268Y148412D01*
X265177Y148452D01*
X265090Y148500D01*
X265031Y148515D01*
X264976Y148539D01*
X264878Y148554D01*
X264782Y148579D01*
X264682Y148585D01*
X264662Y148589D01*
X264649Y148587D01*
X264621Y148589D01*
X261986Y148589D01*
X261956Y148586D01*
X261927Y148588D01*
X261799Y148566D01*
X261670Y148549D01*
X261643Y148539D01*
X261614Y148533D01*
X261495Y148480D01*
X261374Y148432D01*
X261351Y148415D01*
X261324Y148403D01*
X261222Y148322D01*
X261117Y148246D01*
X261098Y148223D01*
X261075Y148204D01*
X260997Y148100D01*
X260914Y148001D01*
X260902Y147974D01*
X260884Y147950D01*
X260832Y147844D01*
X258561Y145573D01*
X255602Y144347D01*
X252398Y144347D01*
G37*
%LPD*%
%LPC*%
G36*
X252398Y118947D02*
X252398Y118947D01*
X249439Y120173D01*
X247173Y122439D01*
X245947Y125398D01*
X245947Y128602D01*
X247173Y131561D01*
X249439Y133827D01*
X252398Y135053D01*
X255602Y135053D01*
X258561Y133827D01*
X260827Y131561D01*
X261781Y129258D01*
X261850Y129137D01*
X261915Y129014D01*
X261928Y128999D01*
X261938Y128982D01*
X262035Y128881D01*
X262129Y128779D01*
X262145Y128768D01*
X262160Y128753D01*
X262279Y128680D01*
X262394Y128604D01*
X262413Y128598D01*
X262431Y128587D01*
X262564Y128546D01*
X262695Y128501D01*
X262715Y128499D01*
X262735Y128493D01*
X262874Y128487D01*
X263012Y128476D01*
X263032Y128479D01*
X263052Y128478D01*
X263188Y128506D01*
X263326Y128530D01*
X263344Y128538D01*
X263364Y128542D01*
X263489Y128604D01*
X263615Y128661D01*
X263631Y128673D01*
X263649Y128682D01*
X263755Y128773D01*
X263864Y128859D01*
X263876Y128875D01*
X263891Y128889D01*
X263972Y129002D01*
X264055Y129113D01*
X264068Y129139D01*
X264075Y129149D01*
X264082Y129168D01*
X264126Y129258D01*
X264502Y130166D01*
X266074Y131738D01*
X268128Y132589D01*
X270352Y132589D01*
X272406Y131738D01*
X273978Y130166D01*
X274829Y128112D01*
X274829Y125888D01*
X273978Y123834D01*
X272406Y122262D01*
X270352Y121411D01*
X268128Y121411D01*
X266074Y122262D01*
X264502Y123834D01*
X264126Y124742D01*
X264057Y124863D01*
X263992Y124986D01*
X263979Y125001D01*
X263969Y125018D01*
X263872Y125118D01*
X263778Y125221D01*
X263761Y125232D01*
X263747Y125247D01*
X263629Y125319D01*
X263513Y125396D01*
X263493Y125402D01*
X263476Y125413D01*
X263343Y125454D01*
X263212Y125499D01*
X263192Y125501D01*
X263172Y125507D01*
X263033Y125513D01*
X262895Y125524D01*
X262875Y125521D01*
X262855Y125522D01*
X262718Y125494D01*
X262581Y125470D01*
X262563Y125462D01*
X262543Y125458D01*
X262418Y125396D01*
X262291Y125339D01*
X262276Y125327D01*
X262257Y125318D01*
X262152Y125228D01*
X262043Y125141D01*
X262031Y125125D01*
X262015Y125111D01*
X261935Y124998D01*
X261852Y124887D01*
X261839Y124861D01*
X261832Y124851D01*
X261825Y124832D01*
X261781Y124742D01*
X260827Y122439D01*
X258561Y120173D01*
X255602Y118947D01*
X252398Y118947D01*
G37*
%LPD*%
%LPC*%
G36*
X176198Y118947D02*
X176198Y118947D01*
X173239Y120173D01*
X170968Y122444D01*
X170963Y122459D01*
X170894Y122569D01*
X170829Y122682D01*
X170809Y122703D01*
X170793Y122728D01*
X170698Y122817D01*
X170608Y122910D01*
X170583Y122926D01*
X170561Y122946D01*
X170448Y123009D01*
X170337Y123077D01*
X170309Y123085D01*
X170283Y123100D01*
X170157Y123132D01*
X170033Y123170D01*
X170004Y123172D01*
X169975Y123179D01*
X169814Y123189D01*
X169719Y123189D01*
X169620Y123177D01*
X169521Y123174D01*
X169463Y123157D01*
X169403Y123149D01*
X169311Y123113D01*
X169216Y123085D01*
X169164Y123055D01*
X169107Y123032D01*
X169027Y122974D01*
X168942Y122924D01*
X168867Y122858D01*
X168850Y122846D01*
X168842Y122836D01*
X168821Y122818D01*
X168266Y122262D01*
X166212Y121411D01*
X163988Y121411D01*
X161934Y122262D01*
X160362Y123834D01*
X159511Y125888D01*
X159511Y128112D01*
X160362Y130166D01*
X161934Y131738D01*
X163988Y132589D01*
X166212Y132589D01*
X168266Y131738D01*
X168821Y131182D01*
X168899Y131122D01*
X168972Y131054D01*
X169025Y131025D01*
X169072Y130988D01*
X169163Y130948D01*
X169250Y130900D01*
X169309Y130885D01*
X169364Y130861D01*
X169462Y130846D01*
X169558Y130821D01*
X169658Y130815D01*
X169678Y130811D01*
X169691Y130813D01*
X169719Y130811D01*
X169814Y130811D01*
X169844Y130814D01*
X169873Y130812D01*
X170001Y130834D01*
X170130Y130851D01*
X170157Y130861D01*
X170186Y130867D01*
X170305Y130920D01*
X170426Y130968D01*
X170449Y130985D01*
X170476Y130997D01*
X170578Y131078D01*
X170683Y131154D01*
X170702Y131177D01*
X170725Y131196D01*
X170803Y131300D01*
X170886Y131399D01*
X170898Y131426D01*
X170916Y131450D01*
X170968Y131556D01*
X173239Y133827D01*
X176198Y135053D01*
X179402Y135053D01*
X182361Y133827D01*
X184627Y131561D01*
X185853Y128602D01*
X185853Y125398D01*
X184627Y122439D01*
X182361Y120173D01*
X179402Y118947D01*
X176198Y118947D01*
G37*
%LPD*%
%LPC*%
G36*
X252398Y779347D02*
X252398Y779347D01*
X249439Y780573D01*
X247173Y782839D01*
X245947Y785798D01*
X245947Y789002D01*
X247173Y791961D01*
X249439Y794227D01*
X252398Y795453D01*
X255602Y795453D01*
X258561Y794227D01*
X260832Y791956D01*
X260837Y791941D01*
X260906Y791831D01*
X260971Y791718D01*
X260991Y791697D01*
X261007Y791672D01*
X261102Y791583D01*
X261192Y791490D01*
X261217Y791474D01*
X261239Y791454D01*
X261352Y791391D01*
X261463Y791323D01*
X261491Y791315D01*
X261517Y791300D01*
X261643Y791268D01*
X261767Y791230D01*
X261796Y791228D01*
X261825Y791221D01*
X261986Y791211D01*
X262081Y791211D01*
X262180Y791223D01*
X262279Y791226D01*
X262337Y791243D01*
X262397Y791251D01*
X262489Y791287D01*
X262584Y791315D01*
X262636Y791345D01*
X262693Y791368D01*
X262773Y791426D01*
X262858Y791476D01*
X262933Y791542D01*
X262950Y791554D01*
X262958Y791564D01*
X262979Y791582D01*
X263534Y792138D01*
X265588Y792989D01*
X267812Y792989D01*
X269866Y792138D01*
X271438Y790566D01*
X272289Y788512D01*
X272289Y786288D01*
X271438Y784234D01*
X269866Y782662D01*
X267812Y781811D01*
X265588Y781811D01*
X263534Y782662D01*
X262979Y783218D01*
X262901Y783278D01*
X262828Y783346D01*
X262775Y783375D01*
X262728Y783412D01*
X262637Y783452D01*
X262550Y783500D01*
X262491Y783515D01*
X262436Y783539D01*
X262338Y783554D01*
X262242Y783579D01*
X262142Y783585D01*
X262122Y783589D01*
X262109Y783587D01*
X262081Y783589D01*
X261986Y783589D01*
X261956Y783586D01*
X261927Y783588D01*
X261799Y783566D01*
X261670Y783549D01*
X261643Y783539D01*
X261614Y783533D01*
X261495Y783480D01*
X261374Y783432D01*
X261351Y783415D01*
X261324Y783403D01*
X261222Y783322D01*
X261117Y783246D01*
X261098Y783223D01*
X261075Y783204D01*
X260997Y783100D01*
X260914Y783001D01*
X260902Y782974D01*
X260884Y782950D01*
X260832Y782844D01*
X258561Y780573D01*
X255602Y779347D01*
X252398Y779347D01*
G37*
%LPD*%
%LPC*%
G36*
X252398Y804747D02*
X252398Y804747D01*
X249439Y805973D01*
X247173Y808239D01*
X245947Y811198D01*
X245947Y814402D01*
X247173Y817361D01*
X249439Y819627D01*
X252398Y820853D01*
X255602Y820853D01*
X258561Y819627D01*
X260827Y817361D01*
X260841Y817327D01*
X260866Y817284D01*
X260882Y817237D01*
X260944Y817146D01*
X260999Y817050D01*
X261033Y817015D01*
X261061Y816974D01*
X261143Y816901D01*
X261220Y816822D01*
X261262Y816796D01*
X261299Y816763D01*
X261397Y816713D01*
X261491Y816656D01*
X261538Y816641D01*
X261583Y816618D01*
X261690Y816594D01*
X261795Y816562D01*
X261845Y816560D01*
X261893Y816549D01*
X262003Y816552D01*
X262113Y816547D01*
X262161Y816557D01*
X262211Y816558D01*
X262317Y816589D01*
X262424Y816611D01*
X262469Y816633D01*
X262516Y816647D01*
X262611Y816703D01*
X262710Y816751D01*
X262747Y816783D01*
X262790Y816808D01*
X262911Y816915D01*
X263534Y817538D01*
X265588Y818389D01*
X267812Y818389D01*
X269866Y817538D01*
X271438Y815966D01*
X272289Y813912D01*
X272289Y811688D01*
X271438Y809634D01*
X269866Y808062D01*
X267812Y807211D01*
X265588Y807211D01*
X263534Y808062D01*
X262911Y808685D01*
X262872Y808716D01*
X262838Y808752D01*
X262747Y808813D01*
X262660Y808880D01*
X262614Y808900D01*
X262573Y808927D01*
X262469Y808963D01*
X262368Y809006D01*
X262319Y809014D01*
X262272Y809030D01*
X262163Y809039D01*
X262054Y809056D01*
X262004Y809052D01*
X261955Y809056D01*
X261847Y809037D01*
X261737Y809027D01*
X261690Y809010D01*
X261642Y809001D01*
X261541Y808956D01*
X261438Y808919D01*
X261397Y808891D01*
X261352Y808871D01*
X261266Y808802D01*
X261175Y808740D01*
X261142Y808703D01*
X261103Y808672D01*
X261037Y808584D01*
X260964Y808502D01*
X260942Y808458D01*
X260912Y808418D01*
X260841Y808273D01*
X260827Y808239D01*
X258561Y805973D01*
X255602Y804747D01*
X252398Y804747D01*
G37*
%LPD*%
%LPC*%
G36*
X176198Y804747D02*
X176198Y804747D01*
X173239Y805973D01*
X170973Y808239D01*
X170959Y808273D01*
X170934Y808316D01*
X170918Y808363D01*
X170856Y808454D01*
X170801Y808550D01*
X170767Y808585D01*
X170739Y808626D01*
X170657Y808699D01*
X170580Y808778D01*
X170538Y808804D01*
X170501Y808837D01*
X170403Y808887D01*
X170309Y808944D01*
X170262Y808959D01*
X170217Y808982D01*
X170110Y809006D01*
X170005Y809038D01*
X169955Y809040D01*
X169907Y809051D01*
X169797Y809048D01*
X169687Y809053D01*
X169639Y809043D01*
X169589Y809042D01*
X169483Y809011D01*
X169376Y808989D01*
X169331Y808967D01*
X169284Y808953D01*
X169189Y808897D01*
X169090Y808849D01*
X169053Y808817D01*
X169010Y808792D01*
X168889Y808685D01*
X168266Y808062D01*
X166212Y807211D01*
X163988Y807211D01*
X161934Y808062D01*
X160362Y809634D01*
X159511Y811688D01*
X159511Y813912D01*
X160362Y815966D01*
X161934Y817538D01*
X163988Y818389D01*
X166212Y818389D01*
X168266Y817538D01*
X168889Y816915D01*
X168928Y816884D01*
X168962Y816848D01*
X169053Y816787D01*
X169140Y816720D01*
X169186Y816700D01*
X169227Y816673D01*
X169331Y816637D01*
X169432Y816594D01*
X169481Y816586D01*
X169528Y816570D01*
X169637Y816561D01*
X169746Y816544D01*
X169796Y816548D01*
X169845Y816544D01*
X169953Y816563D01*
X170063Y816573D01*
X170110Y816590D01*
X170158Y816599D01*
X170259Y816644D01*
X170362Y816681D01*
X170403Y816709D01*
X170448Y816729D01*
X170534Y816798D01*
X170625Y816860D01*
X170658Y816897D01*
X170697Y816928D01*
X170763Y817016D01*
X170836Y817098D01*
X170858Y817142D01*
X170888Y817182D01*
X170959Y817327D01*
X170973Y817361D01*
X173239Y819627D01*
X176198Y820853D01*
X179402Y820853D01*
X182361Y819627D01*
X184627Y817361D01*
X185853Y814402D01*
X185853Y811198D01*
X184627Y808239D01*
X182361Y805973D01*
X179402Y804747D01*
X176198Y804747D01*
G37*
%LPD*%
%LPC*%
G36*
X176198Y779347D02*
X176198Y779347D01*
X173239Y780573D01*
X170973Y782839D01*
X170959Y782873D01*
X170934Y782916D01*
X170918Y782963D01*
X170856Y783054D01*
X170801Y783150D01*
X170767Y783185D01*
X170739Y783226D01*
X170657Y783299D01*
X170580Y783378D01*
X170538Y783404D01*
X170501Y783437D01*
X170403Y783487D01*
X170309Y783544D01*
X170262Y783559D01*
X170217Y783582D01*
X170110Y783606D01*
X170005Y783638D01*
X169955Y783640D01*
X169907Y783651D01*
X169797Y783648D01*
X169687Y783653D01*
X169639Y783643D01*
X169589Y783642D01*
X169483Y783611D01*
X169376Y783589D01*
X169331Y783567D01*
X169284Y783553D01*
X169189Y783497D01*
X169090Y783449D01*
X169053Y783417D01*
X169010Y783392D01*
X168889Y783285D01*
X168266Y782662D01*
X166212Y781811D01*
X163988Y781811D01*
X161934Y782662D01*
X160362Y784234D01*
X159511Y786288D01*
X159511Y788512D01*
X160362Y790566D01*
X161934Y792138D01*
X163988Y792989D01*
X166212Y792989D01*
X168266Y792138D01*
X168889Y791515D01*
X168928Y791484D01*
X168962Y791448D01*
X169053Y791387D01*
X169140Y791320D01*
X169186Y791300D01*
X169227Y791273D01*
X169331Y791237D01*
X169432Y791194D01*
X169481Y791186D01*
X169528Y791170D01*
X169637Y791161D01*
X169746Y791144D01*
X169796Y791148D01*
X169845Y791144D01*
X169953Y791163D01*
X170063Y791173D01*
X170110Y791190D01*
X170158Y791199D01*
X170259Y791244D01*
X170362Y791281D01*
X170403Y791309D01*
X170448Y791329D01*
X170534Y791398D01*
X170625Y791460D01*
X170658Y791497D01*
X170697Y791528D01*
X170763Y791616D01*
X170836Y791698D01*
X170858Y791742D01*
X170888Y791782D01*
X170959Y791927D01*
X170973Y791961D01*
X173239Y794227D01*
X176198Y795453D01*
X179402Y795453D01*
X182361Y794227D01*
X184627Y791961D01*
X185853Y789002D01*
X185853Y785798D01*
X184627Y782839D01*
X182361Y780573D01*
X179402Y779347D01*
X176198Y779347D01*
G37*
%LPD*%
%LPC*%
G36*
X176198Y144347D02*
X176198Y144347D01*
X173239Y145573D01*
X170973Y147839D01*
X170959Y147873D01*
X170934Y147916D01*
X170918Y147963D01*
X170856Y148054D01*
X170801Y148150D01*
X170767Y148185D01*
X170739Y148226D01*
X170657Y148299D01*
X170580Y148378D01*
X170538Y148404D01*
X170501Y148437D01*
X170403Y148487D01*
X170309Y148544D01*
X170262Y148559D01*
X170217Y148582D01*
X170110Y148606D01*
X170005Y148638D01*
X169955Y148640D01*
X169907Y148651D01*
X169797Y148648D01*
X169687Y148653D01*
X169639Y148643D01*
X169589Y148642D01*
X169483Y148611D01*
X169376Y148589D01*
X169331Y148567D01*
X169284Y148553D01*
X169189Y148497D01*
X169090Y148449D01*
X169053Y148417D01*
X169010Y148392D01*
X168889Y148285D01*
X168266Y147662D01*
X166212Y146811D01*
X163988Y146811D01*
X161934Y147662D01*
X160362Y149234D01*
X159511Y151288D01*
X159511Y153512D01*
X160362Y155566D01*
X161934Y157138D01*
X163988Y157989D01*
X166212Y157989D01*
X168266Y157138D01*
X168889Y156515D01*
X168928Y156484D01*
X168962Y156448D01*
X169053Y156387D01*
X169140Y156320D01*
X169186Y156300D01*
X169227Y156273D01*
X169331Y156237D01*
X169432Y156194D01*
X169481Y156186D01*
X169528Y156170D01*
X169637Y156161D01*
X169746Y156144D01*
X169796Y156148D01*
X169845Y156144D01*
X169953Y156163D01*
X170063Y156173D01*
X170110Y156190D01*
X170158Y156199D01*
X170259Y156244D01*
X170362Y156281D01*
X170403Y156309D01*
X170448Y156329D01*
X170534Y156398D01*
X170625Y156460D01*
X170658Y156497D01*
X170697Y156528D01*
X170763Y156616D01*
X170836Y156698D01*
X170858Y156742D01*
X170888Y156782D01*
X170959Y156927D01*
X170973Y156961D01*
X173239Y159227D01*
X176198Y160453D01*
X179402Y160453D01*
X182361Y159227D01*
X184627Y156961D01*
X185853Y154002D01*
X185853Y150798D01*
X184627Y147839D01*
X182361Y145573D01*
X179402Y144347D01*
X176198Y144347D01*
G37*
%LPD*%
%LPC*%
G36*
X424297Y314076D02*
X424297Y314076D01*
X421076Y315410D01*
X418610Y317876D01*
X417276Y321097D01*
X417276Y324583D01*
X418610Y327804D01*
X421076Y330270D01*
X424297Y331604D01*
X427783Y331604D01*
X431004Y330270D01*
X433470Y327804D01*
X434804Y324583D01*
X434804Y321097D01*
X433470Y317876D01*
X431004Y315410D01*
X427783Y314076D01*
X424297Y314076D01*
G37*
%LPD*%
%LPC*%
G36*
X398897Y314076D02*
X398897Y314076D01*
X395676Y315410D01*
X393210Y317876D01*
X391876Y321097D01*
X391876Y324583D01*
X393210Y327804D01*
X395676Y330270D01*
X398897Y331604D01*
X402383Y331604D01*
X405604Y330270D01*
X408070Y327804D01*
X409404Y324583D01*
X409404Y321097D01*
X408070Y317876D01*
X405604Y315410D01*
X402383Y314076D01*
X398897Y314076D01*
G37*
%LPD*%
%LPC*%
G36*
X373497Y314076D02*
X373497Y314076D01*
X370276Y315410D01*
X367810Y317876D01*
X366476Y321097D01*
X366476Y324583D01*
X367810Y327804D01*
X370276Y330270D01*
X373497Y331604D01*
X376983Y331604D01*
X380204Y330270D01*
X382670Y327804D01*
X384004Y324583D01*
X384004Y321097D01*
X382670Y317876D01*
X380204Y315410D01*
X376983Y314076D01*
X373497Y314076D01*
G37*
%LPD*%
%LPC*%
G36*
X348097Y314076D02*
X348097Y314076D01*
X344876Y315410D01*
X342410Y317876D01*
X341076Y321097D01*
X341076Y324583D01*
X342410Y327804D01*
X344876Y330270D01*
X348097Y331604D01*
X351583Y331604D01*
X354804Y330270D01*
X357270Y327804D01*
X358604Y324583D01*
X358604Y321097D01*
X357270Y317876D01*
X354804Y315410D01*
X351583Y314076D01*
X348097Y314076D01*
G37*
%LPD*%
%LPC*%
G36*
X322697Y314076D02*
X322697Y314076D01*
X319476Y315410D01*
X317010Y317876D01*
X315676Y321097D01*
X315676Y324583D01*
X317010Y327804D01*
X319476Y330270D01*
X322697Y331604D01*
X326183Y331604D01*
X329404Y330270D01*
X331870Y327804D01*
X333204Y324583D01*
X333204Y321097D01*
X331870Y317876D01*
X329404Y315410D01*
X326183Y314076D01*
X322697Y314076D01*
G37*
%LPD*%
%LPC*%
G36*
X297297Y314076D02*
X297297Y314076D01*
X294076Y315410D01*
X291610Y317876D01*
X290276Y321097D01*
X290276Y324583D01*
X291610Y327804D01*
X294076Y330270D01*
X297297Y331604D01*
X300783Y331604D01*
X304004Y330270D01*
X306470Y327804D01*
X307804Y324583D01*
X307804Y321097D01*
X306470Y317876D01*
X304004Y315410D01*
X300783Y314076D01*
X297297Y314076D01*
G37*
%LPD*%
%LPC*%
G36*
X271897Y314076D02*
X271897Y314076D01*
X268676Y315410D01*
X266210Y317876D01*
X264876Y321097D01*
X264876Y324583D01*
X266210Y327804D01*
X268676Y330270D01*
X271897Y331604D01*
X275383Y331604D01*
X278604Y330270D01*
X281070Y327804D01*
X282404Y324583D01*
X282404Y321097D01*
X281070Y317876D01*
X278604Y315410D01*
X275383Y314076D01*
X271897Y314076D01*
G37*
%LPD*%
%LPC*%
G36*
X246497Y314076D02*
X246497Y314076D01*
X243276Y315410D01*
X240810Y317876D01*
X239476Y321097D01*
X239476Y324583D01*
X240810Y327804D01*
X243276Y330270D01*
X246497Y331604D01*
X249983Y331604D01*
X253204Y330270D01*
X255670Y327804D01*
X257004Y324583D01*
X257004Y321097D01*
X255670Y317876D01*
X253204Y315410D01*
X249983Y314076D01*
X246497Y314076D01*
G37*
%LPD*%
%LPC*%
G36*
X221097Y314076D02*
X221097Y314076D01*
X217876Y315410D01*
X215410Y317876D01*
X214076Y321097D01*
X214076Y324583D01*
X215410Y327804D01*
X217876Y330270D01*
X221097Y331604D01*
X224583Y331604D01*
X227804Y330270D01*
X230270Y327804D01*
X231604Y324583D01*
X231604Y321097D01*
X230270Y317876D01*
X227804Y315410D01*
X224583Y314076D01*
X221097Y314076D01*
G37*
%LPD*%
%LPC*%
G36*
X195697Y314076D02*
X195697Y314076D01*
X192476Y315410D01*
X190010Y317876D01*
X188676Y321097D01*
X188676Y324583D01*
X190010Y327804D01*
X192476Y330270D01*
X195697Y331604D01*
X199183Y331604D01*
X202404Y330270D01*
X204870Y327804D01*
X206204Y324583D01*
X206204Y321097D01*
X204870Y317876D01*
X202404Y315410D01*
X199183Y314076D01*
X195697Y314076D01*
G37*
%LPD*%
%LPC*%
G36*
X303057Y804036D02*
X303057Y804036D01*
X299836Y805370D01*
X297370Y807836D01*
X296036Y811057D01*
X296036Y814543D01*
X297370Y817764D01*
X299836Y820230D01*
X303057Y821564D01*
X306543Y821564D01*
X309764Y820230D01*
X312230Y817764D01*
X313564Y814543D01*
X313564Y811057D01*
X312230Y807836D01*
X309764Y805370D01*
X306543Y804036D01*
X303057Y804036D01*
G37*
%LPD*%
%LPC*%
G36*
X125257Y804036D02*
X125257Y804036D01*
X122036Y805370D01*
X119570Y807836D01*
X118236Y811057D01*
X118236Y814543D01*
X119570Y817764D01*
X122036Y820230D01*
X125257Y821564D01*
X128743Y821564D01*
X131964Y820230D01*
X134430Y817764D01*
X135764Y814543D01*
X135764Y811057D01*
X134430Y807836D01*
X131964Y805370D01*
X128743Y804036D01*
X125257Y804036D01*
G37*
%LPD*%
%LPC*%
G36*
X500497Y593476D02*
X500497Y593476D01*
X497276Y594810D01*
X494810Y597276D01*
X493476Y600497D01*
X493476Y603983D01*
X494810Y607204D01*
X497276Y609670D01*
X500497Y611004D01*
X503983Y611004D01*
X507204Y609670D01*
X509670Y607204D01*
X511004Y603983D01*
X511004Y600497D01*
X509670Y597276D01*
X507204Y594810D01*
X503983Y593476D01*
X500497Y593476D01*
G37*
%LPD*%
%LPC*%
G36*
X303057Y778636D02*
X303057Y778636D01*
X299836Y779970D01*
X297370Y782436D01*
X296036Y785657D01*
X296036Y789143D01*
X297370Y792364D01*
X299836Y794830D01*
X303057Y796164D01*
X306543Y796164D01*
X309764Y794830D01*
X312230Y792364D01*
X313564Y789143D01*
X313564Y785657D01*
X312230Y782436D01*
X309764Y779970D01*
X306543Y778636D01*
X303057Y778636D01*
G37*
%LPD*%
%LPC*%
G36*
X125257Y778636D02*
X125257Y778636D01*
X122036Y779970D01*
X119570Y782436D01*
X118236Y785657D01*
X118236Y789143D01*
X119570Y792364D01*
X122036Y794830D01*
X125257Y796164D01*
X128743Y796164D01*
X131964Y794830D01*
X134430Y792364D01*
X135764Y789143D01*
X135764Y785657D01*
X134430Y782436D01*
X131964Y779970D01*
X128743Y778636D01*
X125257Y778636D01*
G37*
%LPD*%
%LPC*%
G36*
X170297Y314076D02*
X170297Y314076D01*
X167076Y315410D01*
X164610Y317876D01*
X163276Y321097D01*
X163276Y324583D01*
X164610Y327804D01*
X167076Y330270D01*
X170297Y331604D01*
X173783Y331604D01*
X177004Y330270D01*
X179470Y327804D01*
X180804Y324583D01*
X180804Y321097D01*
X179470Y317876D01*
X177004Y315410D01*
X173783Y314076D01*
X170297Y314076D01*
G37*
%LPD*%
%LPC*%
G36*
X144897Y314076D02*
X144897Y314076D01*
X141676Y315410D01*
X139210Y317876D01*
X137876Y321097D01*
X137876Y324583D01*
X139210Y327804D01*
X141676Y330270D01*
X144897Y331604D01*
X148383Y331604D01*
X151604Y330270D01*
X154070Y327804D01*
X155404Y324583D01*
X155404Y321097D01*
X154070Y317876D01*
X151604Y315410D01*
X148383Y314076D01*
X144897Y314076D01*
G37*
%LPD*%
%LPC*%
G36*
X119497Y314076D02*
X119497Y314076D01*
X116276Y315410D01*
X113810Y317876D01*
X112476Y321097D01*
X112476Y324583D01*
X113810Y327804D01*
X116276Y330270D01*
X119497Y331604D01*
X122983Y331604D01*
X126204Y330270D01*
X128670Y327804D01*
X130004Y324583D01*
X130004Y321097D01*
X128670Y317876D01*
X126204Y315410D01*
X122983Y314076D01*
X119497Y314076D01*
G37*
%LPD*%
%LPC*%
G36*
X303057Y143636D02*
X303057Y143636D01*
X299836Y144970D01*
X297370Y147436D01*
X296036Y150657D01*
X296036Y154143D01*
X297370Y157364D01*
X299836Y159830D01*
X303057Y161164D01*
X306543Y161164D01*
X309764Y159830D01*
X312230Y157364D01*
X313564Y154143D01*
X313564Y150657D01*
X312230Y147436D01*
X309764Y144970D01*
X306543Y143636D01*
X303057Y143636D01*
G37*
%LPD*%
%LPC*%
G36*
X125257Y143636D02*
X125257Y143636D01*
X122036Y144970D01*
X119570Y147436D01*
X118236Y150657D01*
X118236Y154143D01*
X119570Y157364D01*
X122036Y159830D01*
X125257Y161164D01*
X128743Y161164D01*
X131964Y159830D01*
X134430Y157364D01*
X135764Y154143D01*
X135764Y150657D01*
X134430Y147436D01*
X131964Y144970D01*
X128743Y143636D01*
X125257Y143636D01*
G37*
%LPD*%
%LPC*%
G36*
X303057Y118236D02*
X303057Y118236D01*
X299836Y119570D01*
X297370Y122036D01*
X296036Y125257D01*
X296036Y128743D01*
X297370Y131964D01*
X299836Y134430D01*
X303057Y135764D01*
X306543Y135764D01*
X309764Y134430D01*
X312230Y131964D01*
X313564Y128743D01*
X313564Y125257D01*
X312230Y122036D01*
X309764Y119570D01*
X306543Y118236D01*
X303057Y118236D01*
G37*
%LPD*%
%LPC*%
G36*
X125257Y118236D02*
X125257Y118236D01*
X122036Y119570D01*
X119570Y122036D01*
X118236Y125257D01*
X118236Y128743D01*
X119570Y131964D01*
X122036Y134430D01*
X125257Y135764D01*
X128743Y135764D01*
X131964Y134430D01*
X134430Y131964D01*
X135764Y128743D01*
X135764Y125257D01*
X134430Y122036D01*
X131964Y119570D01*
X128743Y118236D01*
X125257Y118236D01*
G37*
%LPD*%
%LPC*%
G36*
X525897Y593476D02*
X525897Y593476D01*
X522676Y594810D01*
X520210Y597276D01*
X518876Y600497D01*
X518876Y603983D01*
X520210Y607204D01*
X522676Y609670D01*
X525897Y611004D01*
X529383Y611004D01*
X532604Y609670D01*
X535070Y607204D01*
X536404Y603983D01*
X536404Y600497D01*
X535070Y597276D01*
X532604Y594810D01*
X529383Y593476D01*
X525897Y593476D01*
G37*
%LPD*%
%LPC*%
G36*
X551297Y593476D02*
X551297Y593476D01*
X548076Y594810D01*
X545610Y597276D01*
X544276Y600497D01*
X544276Y603983D01*
X545610Y607204D01*
X548076Y609670D01*
X551297Y611004D01*
X554783Y611004D01*
X558004Y609670D01*
X560470Y607204D01*
X561804Y603983D01*
X561804Y600497D01*
X560470Y597276D01*
X558004Y594810D01*
X554783Y593476D01*
X551297Y593476D01*
G37*
%LPD*%
%LPC*%
G36*
X144897Y593476D02*
X144897Y593476D01*
X141676Y594810D01*
X139210Y597276D01*
X137876Y600497D01*
X137876Y603983D01*
X139210Y607204D01*
X141676Y609670D01*
X144897Y611004D01*
X148383Y611004D01*
X151604Y609670D01*
X154070Y607204D01*
X155404Y603983D01*
X155404Y600497D01*
X154070Y597276D01*
X151604Y594810D01*
X148383Y593476D01*
X144897Y593476D01*
G37*
%LPD*%
%LPC*%
G36*
X119497Y593476D02*
X119497Y593476D01*
X116276Y594810D01*
X113810Y597276D01*
X112476Y600497D01*
X112476Y603983D01*
X113810Y607204D01*
X116276Y609670D01*
X119497Y611004D01*
X122983Y611004D01*
X126204Y609670D01*
X128670Y607204D01*
X130004Y603983D01*
X130004Y600497D01*
X128670Y597276D01*
X126204Y594810D01*
X122983Y593476D01*
X119497Y593476D01*
G37*
%LPD*%
%LPC*%
G36*
X475097Y593476D02*
X475097Y593476D01*
X471876Y594810D01*
X469410Y597276D01*
X468076Y600497D01*
X468076Y603983D01*
X469410Y607204D01*
X471876Y609670D01*
X475097Y611004D01*
X478583Y611004D01*
X481804Y609670D01*
X484270Y607204D01*
X485604Y603983D01*
X485604Y600497D01*
X484270Y597276D01*
X481804Y594810D01*
X478583Y593476D01*
X475097Y593476D01*
G37*
%LPD*%
%LPC*%
G36*
X449697Y593476D02*
X449697Y593476D01*
X446476Y594810D01*
X444010Y597276D01*
X442676Y600497D01*
X442676Y603983D01*
X444010Y607204D01*
X446476Y609670D01*
X449697Y611004D01*
X453183Y611004D01*
X456404Y609670D01*
X458870Y607204D01*
X460204Y603983D01*
X460204Y600497D01*
X458870Y597276D01*
X456404Y594810D01*
X453183Y593476D01*
X449697Y593476D01*
G37*
%LPD*%
%LPC*%
G36*
X424297Y593476D02*
X424297Y593476D01*
X421076Y594810D01*
X418610Y597276D01*
X417276Y600497D01*
X417276Y603983D01*
X418610Y607204D01*
X421076Y609670D01*
X424297Y611004D01*
X427783Y611004D01*
X431004Y609670D01*
X433470Y607204D01*
X434804Y603983D01*
X434804Y600497D01*
X433470Y597276D01*
X431004Y594810D01*
X427783Y593476D01*
X424297Y593476D01*
G37*
%LPD*%
%LPC*%
G36*
X398897Y593476D02*
X398897Y593476D01*
X395676Y594810D01*
X393210Y597276D01*
X391876Y600497D01*
X391876Y603983D01*
X393210Y607204D01*
X395676Y609670D01*
X398897Y611004D01*
X402383Y611004D01*
X405604Y609670D01*
X408070Y607204D01*
X409404Y603983D01*
X409404Y600497D01*
X408070Y597276D01*
X405604Y594810D01*
X402383Y593476D01*
X398897Y593476D01*
G37*
%LPD*%
%LPC*%
G36*
X373497Y593476D02*
X373497Y593476D01*
X370276Y594810D01*
X367810Y597276D01*
X366476Y600497D01*
X366476Y603983D01*
X367810Y607204D01*
X370276Y609670D01*
X373497Y611004D01*
X376983Y611004D01*
X380204Y609670D01*
X382670Y607204D01*
X384004Y603983D01*
X384004Y600497D01*
X382670Y597276D01*
X380204Y594810D01*
X376983Y593476D01*
X373497Y593476D01*
G37*
%LPD*%
%LPC*%
G36*
X348097Y593476D02*
X348097Y593476D01*
X344876Y594810D01*
X342410Y597276D01*
X341076Y600497D01*
X341076Y603983D01*
X342410Y607204D01*
X344876Y609670D01*
X348097Y611004D01*
X351583Y611004D01*
X354804Y609670D01*
X357270Y607204D01*
X358604Y603983D01*
X358604Y600497D01*
X357270Y597276D01*
X354804Y594810D01*
X351583Y593476D01*
X348097Y593476D01*
G37*
%LPD*%
%LPC*%
G36*
X322697Y593476D02*
X322697Y593476D01*
X319476Y594810D01*
X317010Y597276D01*
X315676Y600497D01*
X315676Y603983D01*
X317010Y607204D01*
X319476Y609670D01*
X322697Y611004D01*
X326183Y611004D01*
X329404Y609670D01*
X331870Y607204D01*
X333204Y603983D01*
X333204Y600497D01*
X331870Y597276D01*
X329404Y594810D01*
X326183Y593476D01*
X322697Y593476D01*
G37*
%LPD*%
%LPC*%
G36*
X297297Y593476D02*
X297297Y593476D01*
X294076Y594810D01*
X291610Y597276D01*
X290276Y600497D01*
X290276Y603983D01*
X291610Y607204D01*
X294076Y609670D01*
X297297Y611004D01*
X300783Y611004D01*
X304004Y609670D01*
X306470Y607204D01*
X307804Y603983D01*
X307804Y600497D01*
X306470Y597276D01*
X304004Y594810D01*
X300783Y593476D01*
X297297Y593476D01*
G37*
%LPD*%
%LPC*%
G36*
X271897Y593476D02*
X271897Y593476D01*
X268676Y594810D01*
X266210Y597276D01*
X264876Y600497D01*
X264876Y603983D01*
X266210Y607204D01*
X268676Y609670D01*
X271897Y611004D01*
X275383Y611004D01*
X278604Y609670D01*
X281070Y607204D01*
X282404Y603983D01*
X282404Y600497D01*
X281070Y597276D01*
X278604Y594810D01*
X275383Y593476D01*
X271897Y593476D01*
G37*
%LPD*%
%LPC*%
G36*
X246497Y593476D02*
X246497Y593476D01*
X243276Y594810D01*
X240810Y597276D01*
X239476Y600497D01*
X239476Y603983D01*
X240810Y607204D01*
X243276Y609670D01*
X246497Y611004D01*
X249983Y611004D01*
X253204Y609670D01*
X255670Y607204D01*
X257004Y603983D01*
X257004Y600497D01*
X255670Y597276D01*
X253204Y594810D01*
X249983Y593476D01*
X246497Y593476D01*
G37*
%LPD*%
%LPC*%
G36*
X221097Y593476D02*
X221097Y593476D01*
X217876Y594810D01*
X215410Y597276D01*
X214076Y600497D01*
X214076Y603983D01*
X215410Y607204D01*
X217876Y609670D01*
X221097Y611004D01*
X224583Y611004D01*
X227804Y609670D01*
X230270Y607204D01*
X231604Y603983D01*
X231604Y600497D01*
X230270Y597276D01*
X227804Y594810D01*
X224583Y593476D01*
X221097Y593476D01*
G37*
%LPD*%
%LPC*%
G36*
X195697Y593476D02*
X195697Y593476D01*
X192476Y594810D01*
X190010Y597276D01*
X188676Y600497D01*
X188676Y603983D01*
X190010Y607204D01*
X192476Y609670D01*
X195697Y611004D01*
X199183Y611004D01*
X202404Y609670D01*
X204870Y607204D01*
X206204Y603983D01*
X206204Y600497D01*
X204870Y597276D01*
X202404Y594810D01*
X199183Y593476D01*
X195697Y593476D01*
G37*
%LPD*%
%LPC*%
G36*
X170297Y593476D02*
X170297Y593476D01*
X167076Y594810D01*
X164610Y597276D01*
X163276Y600497D01*
X163276Y603983D01*
X164610Y607204D01*
X167076Y609670D01*
X170297Y611004D01*
X173783Y611004D01*
X177004Y609670D01*
X179470Y607204D01*
X180804Y603983D01*
X180804Y600497D01*
X179470Y597276D01*
X177004Y594810D01*
X173783Y593476D01*
X170297Y593476D01*
G37*
%LPD*%
%LPC*%
G36*
X144897Y568076D02*
X144897Y568076D01*
X141676Y569410D01*
X139210Y571876D01*
X137876Y575097D01*
X137876Y578583D01*
X139210Y581804D01*
X141676Y584270D01*
X144897Y585604D01*
X148383Y585604D01*
X151604Y584270D01*
X154070Y581804D01*
X155404Y578583D01*
X155404Y575097D01*
X154070Y571876D01*
X151604Y569410D01*
X148383Y568076D01*
X144897Y568076D01*
G37*
%LPD*%
%LPC*%
G36*
X119497Y568076D02*
X119497Y568076D01*
X116276Y569410D01*
X113810Y571876D01*
X112476Y575097D01*
X112476Y578583D01*
X113810Y581804D01*
X116276Y584270D01*
X119497Y585604D01*
X122983Y585604D01*
X126204Y584270D01*
X128670Y581804D01*
X130004Y578583D01*
X130004Y575097D01*
X128670Y571876D01*
X126204Y569410D01*
X122983Y568076D01*
X119497Y568076D01*
G37*
%LPD*%
%LPC*%
G36*
X551297Y568076D02*
X551297Y568076D01*
X548076Y569410D01*
X545610Y571876D01*
X544276Y575097D01*
X544276Y578583D01*
X545610Y581804D01*
X548076Y584270D01*
X551297Y585604D01*
X554783Y585604D01*
X558004Y584270D01*
X560470Y581804D01*
X561804Y578583D01*
X561804Y575097D01*
X560470Y571876D01*
X558004Y569410D01*
X554783Y568076D01*
X551297Y568076D01*
G37*
%LPD*%
%LPC*%
G36*
X525897Y568076D02*
X525897Y568076D01*
X522676Y569410D01*
X520210Y571876D01*
X518876Y575097D01*
X518876Y578583D01*
X520210Y581804D01*
X522676Y584270D01*
X525897Y585604D01*
X529383Y585604D01*
X532604Y584270D01*
X535070Y581804D01*
X536404Y578583D01*
X536404Y575097D01*
X535070Y571876D01*
X532604Y569410D01*
X529383Y568076D01*
X525897Y568076D01*
G37*
%LPD*%
%LPC*%
G36*
X500497Y568076D02*
X500497Y568076D01*
X497276Y569410D01*
X494810Y571876D01*
X493476Y575097D01*
X493476Y578583D01*
X494810Y581804D01*
X497276Y584270D01*
X500497Y585604D01*
X503983Y585604D01*
X507204Y584270D01*
X509670Y581804D01*
X511004Y578583D01*
X511004Y575097D01*
X509670Y571876D01*
X507204Y569410D01*
X503983Y568076D01*
X500497Y568076D01*
G37*
%LPD*%
%LPC*%
G36*
X475097Y568076D02*
X475097Y568076D01*
X471876Y569410D01*
X469410Y571876D01*
X468076Y575097D01*
X468076Y578583D01*
X469410Y581804D01*
X471876Y584270D01*
X475097Y585604D01*
X478583Y585604D01*
X481804Y584270D01*
X484270Y581804D01*
X485604Y578583D01*
X485604Y575097D01*
X484270Y571876D01*
X481804Y569410D01*
X478583Y568076D01*
X475097Y568076D01*
G37*
%LPD*%
%LPC*%
G36*
X449697Y568076D02*
X449697Y568076D01*
X446476Y569410D01*
X444010Y571876D01*
X442676Y575097D01*
X442676Y578583D01*
X444010Y581804D01*
X446476Y584270D01*
X449697Y585604D01*
X453183Y585604D01*
X456404Y584270D01*
X458870Y581804D01*
X460204Y578583D01*
X460204Y575097D01*
X458870Y571876D01*
X456404Y569410D01*
X453183Y568076D01*
X449697Y568076D01*
G37*
%LPD*%
%LPC*%
G36*
X424297Y568076D02*
X424297Y568076D01*
X421076Y569410D01*
X418610Y571876D01*
X417276Y575097D01*
X417276Y578583D01*
X418610Y581804D01*
X421076Y584270D01*
X424297Y585604D01*
X427783Y585604D01*
X431004Y584270D01*
X433470Y581804D01*
X434804Y578583D01*
X434804Y575097D01*
X433470Y571876D01*
X431004Y569410D01*
X427783Y568076D01*
X424297Y568076D01*
G37*
%LPD*%
%LPC*%
G36*
X398897Y568076D02*
X398897Y568076D01*
X395676Y569410D01*
X393210Y571876D01*
X391876Y575097D01*
X391876Y578583D01*
X393210Y581804D01*
X395676Y584270D01*
X398897Y585604D01*
X402383Y585604D01*
X405604Y584270D01*
X408070Y581804D01*
X409404Y578583D01*
X409404Y575097D01*
X408070Y571876D01*
X405604Y569410D01*
X402383Y568076D01*
X398897Y568076D01*
G37*
%LPD*%
%LPC*%
G36*
X373497Y568076D02*
X373497Y568076D01*
X370276Y569410D01*
X367810Y571876D01*
X366476Y575097D01*
X366476Y578583D01*
X367810Y581804D01*
X370276Y584270D01*
X373497Y585604D01*
X376983Y585604D01*
X380204Y584270D01*
X382670Y581804D01*
X384004Y578583D01*
X384004Y575097D01*
X382670Y571876D01*
X380204Y569410D01*
X376983Y568076D01*
X373497Y568076D01*
G37*
%LPD*%
%LPC*%
G36*
X348097Y568076D02*
X348097Y568076D01*
X344876Y569410D01*
X342410Y571876D01*
X341076Y575097D01*
X341076Y578583D01*
X342410Y581804D01*
X344876Y584270D01*
X348097Y585604D01*
X351583Y585604D01*
X354804Y584270D01*
X357270Y581804D01*
X358604Y578583D01*
X358604Y575097D01*
X357270Y571876D01*
X354804Y569410D01*
X351583Y568076D01*
X348097Y568076D01*
G37*
%LPD*%
%LPC*%
G36*
X322697Y568076D02*
X322697Y568076D01*
X319476Y569410D01*
X317010Y571876D01*
X315676Y575097D01*
X315676Y578583D01*
X317010Y581804D01*
X319476Y584270D01*
X322697Y585604D01*
X326183Y585604D01*
X329404Y584270D01*
X331870Y581804D01*
X333204Y578583D01*
X333204Y575097D01*
X331870Y571876D01*
X329404Y569410D01*
X326183Y568076D01*
X322697Y568076D01*
G37*
%LPD*%
%LPC*%
G36*
X297297Y568076D02*
X297297Y568076D01*
X294076Y569410D01*
X291610Y571876D01*
X290276Y575097D01*
X290276Y578583D01*
X291610Y581804D01*
X294076Y584270D01*
X297297Y585604D01*
X300783Y585604D01*
X304004Y584270D01*
X306470Y581804D01*
X307804Y578583D01*
X307804Y575097D01*
X306470Y571876D01*
X304004Y569410D01*
X300783Y568076D01*
X297297Y568076D01*
G37*
%LPD*%
%LPC*%
G36*
X246497Y568076D02*
X246497Y568076D01*
X243276Y569410D01*
X240810Y571876D01*
X239476Y575097D01*
X239476Y578583D01*
X240810Y581804D01*
X243276Y584270D01*
X246497Y585604D01*
X249983Y585604D01*
X253204Y584270D01*
X255670Y581804D01*
X257004Y578583D01*
X257004Y575097D01*
X255670Y571876D01*
X253204Y569410D01*
X249983Y568076D01*
X246497Y568076D01*
G37*
%LPD*%
%LPC*%
G36*
X221097Y568076D02*
X221097Y568076D01*
X217876Y569410D01*
X215410Y571876D01*
X214076Y575097D01*
X214076Y578583D01*
X215410Y581804D01*
X217876Y584270D01*
X221097Y585604D01*
X224583Y585604D01*
X227804Y584270D01*
X230270Y581804D01*
X231604Y578583D01*
X231604Y575097D01*
X230270Y571876D01*
X227804Y569410D01*
X224583Y568076D01*
X221097Y568076D01*
G37*
%LPD*%
%LPC*%
G36*
X195697Y568076D02*
X195697Y568076D01*
X192476Y569410D01*
X190010Y571876D01*
X188676Y575097D01*
X188676Y578583D01*
X190010Y581804D01*
X192476Y584270D01*
X195697Y585604D01*
X199183Y585604D01*
X202404Y584270D01*
X204870Y581804D01*
X206204Y578583D01*
X206204Y575097D01*
X204870Y571876D01*
X202404Y569410D01*
X199183Y568076D01*
X195697Y568076D01*
G37*
%LPD*%
%LPC*%
G36*
X170297Y568076D02*
X170297Y568076D01*
X167076Y569410D01*
X164610Y571876D01*
X163276Y575097D01*
X163276Y578583D01*
X164610Y581804D01*
X167076Y584270D01*
X170297Y585604D01*
X173783Y585604D01*
X177004Y584270D01*
X179470Y581804D01*
X180804Y578583D01*
X180804Y575097D01*
X179470Y571876D01*
X177004Y569410D01*
X173783Y568076D01*
X170297Y568076D01*
G37*
%LPD*%
%LPC*%
G36*
X221097Y339476D02*
X221097Y339476D01*
X217876Y340810D01*
X215410Y343276D01*
X214076Y346497D01*
X214076Y349983D01*
X215410Y353204D01*
X217876Y355670D01*
X221097Y357004D01*
X224583Y357004D01*
X227804Y355670D01*
X230270Y353204D01*
X231604Y349983D01*
X231604Y346497D01*
X230270Y343276D01*
X227804Y340810D01*
X224583Y339476D01*
X221097Y339476D01*
G37*
%LPD*%
%LPC*%
G36*
X373497Y339476D02*
X373497Y339476D01*
X370276Y340810D01*
X367810Y343276D01*
X366476Y346497D01*
X366476Y349983D01*
X367810Y353204D01*
X370276Y355670D01*
X373497Y357004D01*
X376983Y357004D01*
X380204Y355670D01*
X382670Y353204D01*
X384004Y349983D01*
X384004Y346497D01*
X382670Y343276D01*
X380204Y340810D01*
X376983Y339476D01*
X373497Y339476D01*
G37*
%LPD*%
%LPC*%
G36*
X348097Y339476D02*
X348097Y339476D01*
X344876Y340810D01*
X342410Y343276D01*
X341076Y346497D01*
X341076Y349983D01*
X342410Y353204D01*
X344876Y355670D01*
X348097Y357004D01*
X351583Y357004D01*
X354804Y355670D01*
X357270Y353204D01*
X358604Y349983D01*
X358604Y346497D01*
X357270Y343276D01*
X354804Y340810D01*
X351583Y339476D01*
X348097Y339476D01*
G37*
%LPD*%
%LPC*%
G36*
X551297Y339476D02*
X551297Y339476D01*
X548076Y340810D01*
X545610Y343276D01*
X544276Y346497D01*
X544276Y349983D01*
X545610Y353204D01*
X548076Y355670D01*
X551297Y357004D01*
X554783Y357004D01*
X558004Y355670D01*
X560470Y353204D01*
X561804Y349983D01*
X561804Y346497D01*
X560470Y343276D01*
X558004Y340810D01*
X554783Y339476D01*
X551297Y339476D01*
G37*
%LPD*%
%LPC*%
G36*
X525897Y339476D02*
X525897Y339476D01*
X522676Y340810D01*
X520210Y343276D01*
X518876Y346497D01*
X518876Y349983D01*
X520210Y353204D01*
X522676Y355670D01*
X525897Y357004D01*
X529383Y357004D01*
X532604Y355670D01*
X535070Y353204D01*
X536404Y349983D01*
X536404Y346497D01*
X535070Y343276D01*
X532604Y340810D01*
X529383Y339476D01*
X525897Y339476D01*
G37*
%LPD*%
%LPC*%
G36*
X500497Y339476D02*
X500497Y339476D01*
X497276Y340810D01*
X494810Y343276D01*
X493476Y346497D01*
X493476Y349983D01*
X494810Y353204D01*
X497276Y355670D01*
X500497Y357004D01*
X503983Y357004D01*
X507204Y355670D01*
X509670Y353204D01*
X511004Y349983D01*
X511004Y346497D01*
X509670Y343276D01*
X507204Y340810D01*
X503983Y339476D01*
X500497Y339476D01*
G37*
%LPD*%
%LPC*%
G36*
X475097Y339476D02*
X475097Y339476D01*
X471876Y340810D01*
X469410Y343276D01*
X468076Y346497D01*
X468076Y349983D01*
X469410Y353204D01*
X471876Y355670D01*
X475097Y357004D01*
X478583Y357004D01*
X481804Y355670D01*
X484270Y353204D01*
X485604Y349983D01*
X485604Y346497D01*
X484270Y343276D01*
X481804Y340810D01*
X478583Y339476D01*
X475097Y339476D01*
G37*
%LPD*%
%LPC*%
G36*
X449697Y339476D02*
X449697Y339476D01*
X446476Y340810D01*
X444010Y343276D01*
X442676Y346497D01*
X442676Y349983D01*
X444010Y353204D01*
X446476Y355670D01*
X449697Y357004D01*
X453183Y357004D01*
X456404Y355670D01*
X458870Y353204D01*
X460204Y349983D01*
X460204Y346497D01*
X458870Y343276D01*
X456404Y340810D01*
X453183Y339476D01*
X449697Y339476D01*
G37*
%LPD*%
%LPC*%
G36*
X424297Y339476D02*
X424297Y339476D01*
X421076Y340810D01*
X418610Y343276D01*
X417276Y346497D01*
X417276Y349983D01*
X418610Y353204D01*
X421076Y355670D01*
X424297Y357004D01*
X427783Y357004D01*
X431004Y355670D01*
X433470Y353204D01*
X434804Y349983D01*
X434804Y346497D01*
X433470Y343276D01*
X431004Y340810D01*
X427783Y339476D01*
X424297Y339476D01*
G37*
%LPD*%
%LPC*%
G36*
X144897Y339476D02*
X144897Y339476D01*
X141676Y340810D01*
X139210Y343276D01*
X137876Y346497D01*
X137876Y349983D01*
X139210Y353204D01*
X141676Y355670D01*
X144897Y357004D01*
X148383Y357004D01*
X151604Y355670D01*
X154070Y353204D01*
X155404Y349983D01*
X155404Y346497D01*
X154070Y343276D01*
X151604Y340810D01*
X148383Y339476D01*
X144897Y339476D01*
G37*
%LPD*%
%LPC*%
G36*
X119497Y339476D02*
X119497Y339476D01*
X116276Y340810D01*
X113810Y343276D01*
X112476Y346497D01*
X112476Y349983D01*
X113810Y353204D01*
X116276Y355670D01*
X119497Y357004D01*
X122983Y357004D01*
X126204Y355670D01*
X128670Y353204D01*
X130004Y349983D01*
X130004Y346497D01*
X128670Y343276D01*
X126204Y340810D01*
X122983Y339476D01*
X119497Y339476D01*
G37*
%LPD*%
%LPC*%
G36*
X322697Y339476D02*
X322697Y339476D01*
X319476Y340810D01*
X317010Y343276D01*
X315676Y346497D01*
X315676Y349983D01*
X317010Y353204D01*
X319476Y355670D01*
X322697Y357004D01*
X326183Y357004D01*
X329404Y355670D01*
X331870Y353204D01*
X333204Y349983D01*
X333204Y346497D01*
X331870Y343276D01*
X329404Y340810D01*
X326183Y339476D01*
X322697Y339476D01*
G37*
%LPD*%
%LPC*%
G36*
X297297Y339476D02*
X297297Y339476D01*
X294076Y340810D01*
X291610Y343276D01*
X290276Y346497D01*
X290276Y349983D01*
X291610Y353204D01*
X294076Y355670D01*
X297297Y357004D01*
X300783Y357004D01*
X304004Y355670D01*
X306470Y353204D01*
X307804Y349983D01*
X307804Y346497D01*
X306470Y343276D01*
X304004Y340810D01*
X300783Y339476D01*
X297297Y339476D01*
G37*
%LPD*%
%LPC*%
G36*
X271897Y339476D02*
X271897Y339476D01*
X268676Y340810D01*
X266210Y343276D01*
X264876Y346497D01*
X264876Y349983D01*
X266210Y353204D01*
X268676Y355670D01*
X271897Y357004D01*
X275383Y357004D01*
X278604Y355670D01*
X281070Y353204D01*
X282404Y349983D01*
X282404Y346497D01*
X281070Y343276D01*
X278604Y340810D01*
X275383Y339476D01*
X271897Y339476D01*
G37*
%LPD*%
%LPC*%
G36*
X246497Y339476D02*
X246497Y339476D01*
X243276Y340810D01*
X240810Y343276D01*
X239476Y346497D01*
X239476Y349983D01*
X240810Y353204D01*
X243276Y355670D01*
X246497Y357004D01*
X249983Y357004D01*
X253204Y355670D01*
X255670Y353204D01*
X257004Y349983D01*
X257004Y346497D01*
X255670Y343276D01*
X253204Y340810D01*
X249983Y339476D01*
X246497Y339476D01*
G37*
%LPD*%
%LPC*%
G36*
X195697Y339476D02*
X195697Y339476D01*
X192476Y340810D01*
X190010Y343276D01*
X188676Y346497D01*
X188676Y349983D01*
X190010Y353204D01*
X192476Y355670D01*
X195697Y357004D01*
X199183Y357004D01*
X202404Y355670D01*
X204870Y353204D01*
X206204Y349983D01*
X206204Y346497D01*
X204870Y343276D01*
X202404Y340810D01*
X199183Y339476D01*
X195697Y339476D01*
G37*
%LPD*%
%LPC*%
G36*
X170297Y339476D02*
X170297Y339476D01*
X167076Y340810D01*
X164610Y343276D01*
X163276Y346497D01*
X163276Y349983D01*
X164610Y353204D01*
X167076Y355670D01*
X170297Y357004D01*
X173783Y357004D01*
X177004Y355670D01*
X179470Y353204D01*
X180804Y349983D01*
X180804Y346497D01*
X179470Y343276D01*
X177004Y340810D01*
X173783Y339476D01*
X170297Y339476D01*
G37*
%LPD*%
%LPC*%
G36*
X551297Y314076D02*
X551297Y314076D01*
X548076Y315410D01*
X545610Y317876D01*
X544276Y321097D01*
X544276Y324583D01*
X545610Y327804D01*
X548076Y330270D01*
X551297Y331604D01*
X554783Y331604D01*
X558004Y330270D01*
X560470Y327804D01*
X561804Y324583D01*
X561804Y321097D01*
X560470Y317876D01*
X558004Y315410D01*
X554783Y314076D01*
X551297Y314076D01*
G37*
%LPD*%
%LPC*%
G36*
X525897Y314076D02*
X525897Y314076D01*
X522676Y315410D01*
X520210Y317876D01*
X518876Y321097D01*
X518876Y324583D01*
X520210Y327804D01*
X522676Y330270D01*
X525897Y331604D01*
X529383Y331604D01*
X532604Y330270D01*
X535070Y327804D01*
X536404Y324583D01*
X536404Y321097D01*
X535070Y317876D01*
X532604Y315410D01*
X529383Y314076D01*
X525897Y314076D01*
G37*
%LPD*%
%LPC*%
G36*
X500497Y314076D02*
X500497Y314076D01*
X497276Y315410D01*
X494810Y317876D01*
X493476Y321097D01*
X493476Y324583D01*
X494810Y327804D01*
X497276Y330270D01*
X500497Y331604D01*
X503983Y331604D01*
X507204Y330270D01*
X509670Y327804D01*
X511004Y324583D01*
X511004Y321097D01*
X509670Y317876D01*
X507204Y315410D01*
X503983Y314076D01*
X500497Y314076D01*
G37*
%LPD*%
%LPC*%
G36*
X475097Y314076D02*
X475097Y314076D01*
X471876Y315410D01*
X469410Y317876D01*
X468076Y321097D01*
X468076Y324583D01*
X469410Y327804D01*
X471876Y330270D01*
X475097Y331604D01*
X478583Y331604D01*
X481804Y330270D01*
X484270Y327804D01*
X485604Y324583D01*
X485604Y321097D01*
X484270Y317876D01*
X481804Y315410D01*
X478583Y314076D01*
X475097Y314076D01*
G37*
%LPD*%
%LPC*%
G36*
X449697Y314076D02*
X449697Y314076D01*
X446476Y315410D01*
X444010Y317876D01*
X442676Y321097D01*
X442676Y324583D01*
X444010Y327804D01*
X446476Y330270D01*
X449697Y331604D01*
X453183Y331604D01*
X456404Y330270D01*
X458870Y327804D01*
X460204Y324583D01*
X460204Y321097D01*
X458870Y317876D01*
X456404Y315410D01*
X453183Y314076D01*
X449697Y314076D01*
G37*
%LPD*%
%LPC*%
G36*
X176198Y880947D02*
X176198Y880947D01*
X173239Y882173D01*
X170973Y884439D01*
X169747Y887398D01*
X169747Y890602D01*
X170973Y893561D01*
X173239Y895827D01*
X176198Y897053D01*
X179402Y897053D01*
X182361Y895827D01*
X184627Y893561D01*
X185853Y890602D01*
X185853Y887398D01*
X184627Y884439D01*
X182361Y882173D01*
X179402Y880947D01*
X176198Y880947D01*
G37*
%LPD*%
%LPC*%
G36*
X252398Y855547D02*
X252398Y855547D01*
X249439Y856773D01*
X247173Y859039D01*
X245947Y861998D01*
X245947Y865202D01*
X247173Y868161D01*
X249439Y870427D01*
X252398Y871653D01*
X255602Y871653D01*
X258561Y870427D01*
X260827Y868161D01*
X262053Y865202D01*
X262053Y861998D01*
X260827Y859039D01*
X258561Y856773D01*
X255602Y855547D01*
X252398Y855547D01*
G37*
%LPD*%
%LPC*%
G36*
X176198Y855547D02*
X176198Y855547D01*
X173239Y856773D01*
X170973Y859039D01*
X169747Y861998D01*
X169747Y865202D01*
X170973Y868161D01*
X173239Y870427D01*
X176198Y871653D01*
X179402Y871653D01*
X182361Y870427D01*
X184627Y868161D01*
X185853Y865202D01*
X185853Y861998D01*
X184627Y859039D01*
X182361Y856773D01*
X179402Y855547D01*
X176198Y855547D01*
G37*
%LPD*%
%LPC*%
G36*
X252398Y830147D02*
X252398Y830147D01*
X249439Y831373D01*
X247173Y833639D01*
X245947Y836598D01*
X245947Y839802D01*
X247173Y842761D01*
X249439Y845027D01*
X252398Y846253D01*
X255602Y846253D01*
X258561Y845027D01*
X260827Y842761D01*
X262053Y839802D01*
X262053Y836598D01*
X260827Y833639D01*
X258561Y831373D01*
X255602Y830147D01*
X252398Y830147D01*
G37*
%LPD*%
%LPC*%
G36*
X176198Y830147D02*
X176198Y830147D01*
X173239Y831373D01*
X170973Y833639D01*
X169747Y836598D01*
X169747Y839802D01*
X170973Y842761D01*
X173239Y845027D01*
X176198Y846253D01*
X179402Y846253D01*
X182361Y845027D01*
X184627Y842761D01*
X185853Y839802D01*
X185853Y836598D01*
X184627Y833639D01*
X182361Y831373D01*
X179402Y830147D01*
X176198Y830147D01*
G37*
%LPD*%
%LPC*%
G36*
X252398Y753947D02*
X252398Y753947D01*
X249439Y755173D01*
X247173Y757439D01*
X245947Y760398D01*
X245947Y763602D01*
X247173Y766561D01*
X249439Y768827D01*
X252398Y770053D01*
X255602Y770053D01*
X258561Y768827D01*
X260827Y766561D01*
X262053Y763602D01*
X262053Y760398D01*
X260827Y757439D01*
X258561Y755173D01*
X255602Y753947D01*
X252398Y753947D01*
G37*
%LPD*%
%LPC*%
G36*
X176198Y753947D02*
X176198Y753947D01*
X173239Y755173D01*
X170973Y757439D01*
X169747Y760398D01*
X169747Y763602D01*
X170973Y766561D01*
X173239Y768827D01*
X176198Y770053D01*
X179402Y770053D01*
X182361Y768827D01*
X184627Y766561D01*
X185853Y763602D01*
X185853Y760398D01*
X184627Y757439D01*
X182361Y755173D01*
X179402Y753947D01*
X176198Y753947D01*
G37*
%LPD*%
%LPC*%
G36*
X252398Y728547D02*
X252398Y728547D01*
X249439Y729773D01*
X247173Y732039D01*
X245947Y734998D01*
X245947Y738202D01*
X247173Y741161D01*
X249439Y743427D01*
X252398Y744653D01*
X255602Y744653D01*
X258561Y743427D01*
X260827Y741161D01*
X262053Y738202D01*
X262053Y734998D01*
X260827Y732039D01*
X258561Y729773D01*
X255602Y728547D01*
X252398Y728547D01*
G37*
%LPD*%
%LPC*%
G36*
X176198Y728547D02*
X176198Y728547D01*
X173239Y729773D01*
X170973Y732039D01*
X169747Y734998D01*
X169747Y738202D01*
X170973Y741161D01*
X173239Y743427D01*
X176198Y744653D01*
X179402Y744653D01*
X182361Y743427D01*
X184627Y741161D01*
X185853Y738202D01*
X185853Y734998D01*
X184627Y732039D01*
X182361Y729773D01*
X179402Y728547D01*
X176198Y728547D01*
G37*
%LPD*%
%LPC*%
G36*
X252398Y703147D02*
X252398Y703147D01*
X249439Y704373D01*
X247173Y706639D01*
X245947Y709598D01*
X245947Y712802D01*
X247173Y715761D01*
X249439Y718027D01*
X252398Y719253D01*
X255602Y719253D01*
X258561Y718027D01*
X260827Y715761D01*
X262053Y712802D01*
X262053Y709598D01*
X260827Y706639D01*
X258561Y704373D01*
X255602Y703147D01*
X252398Y703147D01*
G37*
%LPD*%
%LPC*%
G36*
X176198Y169747D02*
X176198Y169747D01*
X173239Y170973D01*
X170973Y173239D01*
X169747Y176198D01*
X169747Y179402D01*
X170973Y182361D01*
X173239Y184627D01*
X176198Y185853D01*
X179402Y185853D01*
X182361Y184627D01*
X184627Y182361D01*
X185853Y179402D01*
X185853Y176198D01*
X184627Y173239D01*
X182361Y170973D01*
X179402Y169747D01*
X176198Y169747D01*
G37*
%LPD*%
%LPC*%
G36*
X176198Y220547D02*
X176198Y220547D01*
X173239Y221773D01*
X170973Y224039D01*
X169747Y226998D01*
X169747Y230202D01*
X170973Y233161D01*
X173239Y235427D01*
X176198Y236653D01*
X179402Y236653D01*
X182361Y235427D01*
X184627Y233161D01*
X185853Y230202D01*
X185853Y226998D01*
X184627Y224039D01*
X182361Y221773D01*
X179402Y220547D01*
X176198Y220547D01*
G37*
%LPD*%
%LPC*%
G36*
X252398Y169747D02*
X252398Y169747D01*
X249439Y170973D01*
X247173Y173239D01*
X245947Y176198D01*
X245947Y179402D01*
X247173Y182361D01*
X249439Y184627D01*
X252398Y185853D01*
X255602Y185853D01*
X258561Y184627D01*
X260827Y182361D01*
X262053Y179402D01*
X262053Y176198D01*
X260827Y173239D01*
X258561Y170973D01*
X255602Y169747D01*
X252398Y169747D01*
G37*
%LPD*%
%LPC*%
G36*
X176198Y195147D02*
X176198Y195147D01*
X173239Y196373D01*
X170973Y198639D01*
X169747Y201598D01*
X169747Y204802D01*
X170973Y207761D01*
X173239Y210027D01*
X176198Y211253D01*
X179402Y211253D01*
X182361Y210027D01*
X184627Y207761D01*
X185853Y204802D01*
X185853Y201598D01*
X184627Y198639D01*
X182361Y196373D01*
X179402Y195147D01*
X176198Y195147D01*
G37*
%LPD*%
%LPC*%
G36*
X252398Y195147D02*
X252398Y195147D01*
X249439Y196373D01*
X247173Y198639D01*
X245947Y201598D01*
X245947Y204802D01*
X247173Y207761D01*
X249439Y210027D01*
X252398Y211253D01*
X255602Y211253D01*
X258561Y210027D01*
X260827Y207761D01*
X262053Y204802D01*
X262053Y201598D01*
X260827Y198639D01*
X258561Y196373D01*
X255602Y195147D01*
X252398Y195147D01*
G37*
%LPD*%
%LPC*%
G36*
X252398Y93547D02*
X252398Y93547D01*
X249439Y94773D01*
X247173Y97039D01*
X245947Y99998D01*
X245947Y103202D01*
X247173Y106161D01*
X249439Y108427D01*
X252398Y109653D01*
X255602Y109653D01*
X258561Y108427D01*
X260827Y106161D01*
X262053Y103202D01*
X262053Y99998D01*
X260827Y97039D01*
X258561Y94773D01*
X255602Y93547D01*
X252398Y93547D01*
G37*
%LPD*%
%LPC*%
G36*
X176198Y93547D02*
X176198Y93547D01*
X173239Y94773D01*
X170973Y97039D01*
X169747Y99998D01*
X169747Y103202D01*
X170973Y106161D01*
X173239Y108427D01*
X176198Y109653D01*
X179402Y109653D01*
X182361Y108427D01*
X184627Y106161D01*
X185853Y103202D01*
X185853Y99998D01*
X184627Y97039D01*
X182361Y94773D01*
X179402Y93547D01*
X176198Y93547D01*
G37*
%LPD*%
%LPC*%
G36*
X252398Y68147D02*
X252398Y68147D01*
X249439Y69373D01*
X247173Y71639D01*
X245947Y74598D01*
X245947Y77802D01*
X247173Y80761D01*
X249439Y83027D01*
X252398Y84253D01*
X255602Y84253D01*
X258561Y83027D01*
X260827Y80761D01*
X262053Y77802D01*
X262053Y74598D01*
X260827Y71639D01*
X258561Y69373D01*
X255602Y68147D01*
X252398Y68147D01*
G37*
%LPD*%
%LPC*%
G36*
X176198Y68147D02*
X176198Y68147D01*
X173239Y69373D01*
X170973Y71639D01*
X169747Y74598D01*
X169747Y77802D01*
X170973Y80761D01*
X173239Y83027D01*
X176198Y84253D01*
X179402Y84253D01*
X182361Y83027D01*
X184627Y80761D01*
X185853Y77802D01*
X185853Y74598D01*
X184627Y71639D01*
X182361Y69373D01*
X179402Y68147D01*
X176198Y68147D01*
G37*
%LPD*%
%LPC*%
G36*
X252398Y42747D02*
X252398Y42747D01*
X249439Y43973D01*
X247173Y46239D01*
X245947Y49198D01*
X245947Y52402D01*
X247173Y55361D01*
X249439Y57627D01*
X252398Y58853D01*
X255602Y58853D01*
X258561Y57627D01*
X260827Y55361D01*
X262053Y52402D01*
X262053Y49198D01*
X260827Y46239D01*
X258561Y43973D01*
X255602Y42747D01*
X252398Y42747D01*
G37*
%LPD*%
%LPC*%
G36*
X531801Y794559D02*
X531801Y794559D01*
X528845Y795783D01*
X526583Y798045D01*
X525359Y801001D01*
X525359Y804199D01*
X526583Y807155D01*
X528845Y809417D01*
X531801Y810641D01*
X534999Y810641D01*
X537955Y809417D01*
X540217Y807155D01*
X541441Y804199D01*
X541441Y801001D01*
X540217Y798045D01*
X537955Y795783D01*
X534999Y794559D01*
X531801Y794559D01*
G37*
%LPD*%
%LPC*%
G36*
X531801Y713359D02*
X531801Y713359D01*
X528845Y714583D01*
X526583Y716845D01*
X525359Y719801D01*
X525359Y722999D01*
X526583Y725955D01*
X528845Y728217D01*
X531801Y729441D01*
X534999Y729441D01*
X537955Y728217D01*
X540217Y725955D01*
X541441Y722999D01*
X541441Y719801D01*
X540217Y716845D01*
X537955Y714583D01*
X534999Y713359D01*
X531801Y713359D01*
G37*
%LPD*%
%LPC*%
G36*
X491648Y855471D02*
X491648Y855471D01*
X489594Y856322D01*
X488022Y857894D01*
X487171Y859948D01*
X487171Y862172D01*
X488022Y864226D01*
X489594Y865798D01*
X491648Y866649D01*
X493872Y866649D01*
X495926Y865798D01*
X497498Y864226D01*
X498349Y862172D01*
X498349Y859948D01*
X497498Y857894D01*
X495926Y856322D01*
X493872Y855471D01*
X491648Y855471D01*
G37*
%LPD*%
%LPC*%
G36*
X491648Y659891D02*
X491648Y659891D01*
X489594Y660742D01*
X488022Y662314D01*
X487171Y664368D01*
X487171Y666592D01*
X488022Y668646D01*
X489594Y670218D01*
X491648Y671069D01*
X493872Y671069D01*
X495926Y670218D01*
X497498Y668646D01*
X498349Y666592D01*
X498349Y664368D01*
X497498Y662314D01*
X495926Y660742D01*
X493872Y659891D01*
X491648Y659891D01*
G37*
%LPD*%
%LPC*%
G36*
X275862Y579062D02*
X275862Y579062D01*
X275862Y585333D01*
X276196Y585267D01*
X277791Y584606D01*
X279227Y583647D01*
X280447Y582427D01*
X281406Y580991D01*
X282067Y579396D01*
X282133Y579062D01*
X275862Y579062D01*
G37*
%LPD*%
%LPC*%
G36*
X402862Y350462D02*
X402862Y350462D01*
X402862Y356733D01*
X403196Y356667D01*
X404791Y356006D01*
X406227Y355047D01*
X407447Y353827D01*
X408406Y352391D01*
X409067Y350796D01*
X409133Y350462D01*
X402862Y350462D01*
G37*
%LPD*%
%LPC*%
G36*
X265147Y579062D02*
X265147Y579062D01*
X265213Y579396D01*
X265874Y580991D01*
X266833Y582427D01*
X268053Y583647D01*
X269489Y584606D01*
X271084Y585267D01*
X271418Y585333D01*
X271418Y579062D01*
X265147Y579062D01*
G37*
%LPD*%
%LPC*%
G36*
X392147Y350462D02*
X392147Y350462D01*
X392213Y350796D01*
X392874Y352391D01*
X393833Y353827D01*
X395053Y355047D01*
X396489Y356006D01*
X398084Y356667D01*
X398418Y356733D01*
X398418Y350462D01*
X392147Y350462D01*
G37*
%LPD*%
%LPC*%
G36*
X275862Y574618D02*
X275862Y574618D01*
X282133Y574618D01*
X282067Y574284D01*
X281406Y572689D01*
X280447Y571253D01*
X279227Y570033D01*
X277791Y569074D01*
X276196Y568413D01*
X275862Y568347D01*
X275862Y574618D01*
G37*
%LPD*%
%LPC*%
G36*
X402862Y346018D02*
X402862Y346018D01*
X409133Y346018D01*
X409067Y345684D01*
X408406Y344089D01*
X407447Y342653D01*
X406227Y341433D01*
X404791Y340474D01*
X403196Y339813D01*
X402862Y339747D01*
X402862Y346018D01*
G37*
%LPD*%
%LPC*%
G36*
X271084Y568413D02*
X271084Y568413D01*
X269489Y569074D01*
X268053Y570033D01*
X266833Y571253D01*
X265874Y572689D01*
X265213Y574284D01*
X265147Y574618D01*
X271418Y574618D01*
X271418Y568347D01*
X271084Y568413D01*
G37*
%LPD*%
%LPC*%
G36*
X398084Y339813D02*
X398084Y339813D01*
X396489Y340474D01*
X395053Y341433D01*
X393833Y342653D01*
X392874Y344089D01*
X392213Y345684D01*
X392147Y346018D01*
X398418Y346018D01*
X398418Y339747D01*
X398084Y339813D01*
G37*
%LPD*%
%LPC*%
G36*
X255968Y890968D02*
X255968Y890968D01*
X255968Y896819D01*
X256349Y896743D01*
X257814Y896136D01*
X259133Y895255D01*
X260255Y894133D01*
X261136Y892814D01*
X261743Y891349D01*
X261819Y890968D01*
X255968Y890968D01*
G37*
%LPD*%
%LPC*%
G36*
X255968Y230568D02*
X255968Y230568D01*
X255968Y236419D01*
X256349Y236343D01*
X257814Y235736D01*
X259133Y234855D01*
X260255Y233733D01*
X261136Y232414D01*
X261743Y230949D01*
X261819Y230568D01*
X255968Y230568D01*
G37*
%LPD*%
%LPC*%
G36*
X179768Y713168D02*
X179768Y713168D01*
X179768Y719019D01*
X180149Y718943D01*
X181614Y718336D01*
X182933Y717455D01*
X184055Y716333D01*
X184936Y715014D01*
X185543Y713549D01*
X185619Y713168D01*
X179768Y713168D01*
G37*
%LPD*%
%LPC*%
G36*
X179768Y52768D02*
X179768Y52768D01*
X179768Y58619D01*
X180149Y58543D01*
X181614Y57936D01*
X182933Y57055D01*
X184055Y55933D01*
X184936Y54614D01*
X185543Y53149D01*
X185619Y52768D01*
X179768Y52768D01*
G37*
%LPD*%
%LPC*%
G36*
X255968Y226632D02*
X255968Y226632D01*
X261819Y226632D01*
X261743Y226251D01*
X261136Y224786D01*
X260255Y223467D01*
X259133Y222345D01*
X257814Y221464D01*
X256349Y220857D01*
X255968Y220781D01*
X255968Y226632D01*
G37*
%LPD*%
%LPC*%
G36*
X246181Y890968D02*
X246181Y890968D01*
X246257Y891349D01*
X246864Y892814D01*
X247745Y894133D01*
X248867Y895255D01*
X250186Y896136D01*
X251651Y896743D01*
X252032Y896819D01*
X252032Y890968D01*
X246181Y890968D01*
G37*
%LPD*%
%LPC*%
G36*
X246181Y230568D02*
X246181Y230568D01*
X246257Y230949D01*
X246864Y232414D01*
X247745Y233733D01*
X248867Y234855D01*
X250186Y235736D01*
X251651Y236343D01*
X252032Y236419D01*
X252032Y230568D01*
X246181Y230568D01*
G37*
%LPD*%
%LPC*%
G36*
X169981Y713168D02*
X169981Y713168D01*
X170057Y713549D01*
X170664Y715014D01*
X171545Y716333D01*
X172667Y717455D01*
X173986Y718336D01*
X175451Y718943D01*
X175832Y719019D01*
X175832Y713168D01*
X169981Y713168D01*
G37*
%LPD*%
%LPC*%
G36*
X179768Y709232D02*
X179768Y709232D01*
X185619Y709232D01*
X185543Y708851D01*
X184936Y707386D01*
X184055Y706067D01*
X182933Y704945D01*
X181614Y704064D01*
X180149Y703457D01*
X179768Y703381D01*
X179768Y709232D01*
G37*
%LPD*%
%LPC*%
G36*
X255968Y887032D02*
X255968Y887032D01*
X261819Y887032D01*
X261743Y886651D01*
X261136Y885186D01*
X260255Y883867D01*
X259133Y882745D01*
X257814Y881864D01*
X256349Y881257D01*
X255968Y881181D01*
X255968Y887032D01*
G37*
%LPD*%
%LPC*%
G36*
X169981Y52768D02*
X169981Y52768D01*
X170057Y53149D01*
X170664Y54614D01*
X171545Y55933D01*
X172667Y57055D01*
X173986Y57936D01*
X175451Y58543D01*
X175832Y58619D01*
X175832Y52768D01*
X169981Y52768D01*
G37*
%LPD*%
%LPC*%
G36*
X179768Y48832D02*
X179768Y48832D01*
X185619Y48832D01*
X185543Y48451D01*
X184936Y46986D01*
X184055Y45667D01*
X182933Y44545D01*
X181614Y43664D01*
X180149Y43057D01*
X179768Y42981D01*
X179768Y48832D01*
G37*
%LPD*%
%LPC*%
G36*
X175451Y703457D02*
X175451Y703457D01*
X173986Y704064D01*
X172667Y704945D01*
X171545Y706067D01*
X170664Y707386D01*
X170057Y708851D01*
X169981Y709232D01*
X175832Y709232D01*
X175832Y703381D01*
X175451Y703457D01*
G37*
%LPD*%
%LPC*%
G36*
X251651Y881257D02*
X251651Y881257D01*
X250186Y881864D01*
X248867Y882745D01*
X247745Y883867D01*
X246864Y885186D01*
X246257Y886651D01*
X246181Y887032D01*
X252032Y887032D01*
X252032Y881181D01*
X251651Y881257D01*
G37*
%LPD*%
%LPC*%
G36*
X251651Y220857D02*
X251651Y220857D01*
X250186Y221464D01*
X248867Y222345D01*
X247745Y223467D01*
X246864Y224786D01*
X246257Y226251D01*
X246181Y226632D01*
X252032Y226632D01*
X252032Y220781D01*
X251651Y220857D01*
G37*
%LPD*%
%LPC*%
G36*
X175451Y43057D02*
X175451Y43057D01*
X173986Y43664D01*
X172667Y44545D01*
X171545Y45667D01*
X170664Y46986D01*
X170057Y48451D01*
X169981Y48832D01*
X175832Y48832D01*
X175832Y42981D01*
X175451Y43057D01*
G37*
%LPD*%
D10*
X553040Y602240D03*
X553040Y576840D03*
X527640Y602240D03*
X527640Y576840D03*
X502240Y602240D03*
X502240Y576840D03*
X476840Y602240D03*
X476840Y576840D03*
X451440Y602240D03*
X451440Y576840D03*
X426040Y602240D03*
X426040Y576840D03*
X400640Y602240D03*
X400640Y576840D03*
X375240Y602240D03*
X375240Y576840D03*
X349840Y602240D03*
X349840Y576840D03*
X324440Y602240D03*
X324440Y576840D03*
X299040Y602240D03*
X299040Y576840D03*
X273640Y602240D03*
X273640Y576840D03*
X248240Y602240D03*
X248240Y576840D03*
X222840Y602240D03*
X222840Y576840D03*
X197440Y602240D03*
X197440Y576840D03*
X172040Y602240D03*
X172040Y576840D03*
X146640Y602240D03*
X146640Y576840D03*
X121240Y602240D03*
X121240Y576840D03*
X553040Y348240D03*
X553040Y322840D03*
X527640Y348240D03*
X527640Y322840D03*
X502240Y348240D03*
X502240Y322840D03*
X476840Y348240D03*
X476840Y322840D03*
X451440Y348240D03*
X451440Y322840D03*
X426040Y348240D03*
X426040Y322840D03*
X400640Y348240D03*
X400640Y322840D03*
X375240Y348240D03*
X375240Y322840D03*
X349840Y348240D03*
X349840Y322840D03*
X324440Y348240D03*
X324440Y322840D03*
X299040Y348240D03*
X299040Y322840D03*
X273640Y348240D03*
X273640Y322840D03*
X248240Y348240D03*
X248240Y322840D03*
X222840Y348240D03*
X222840Y322840D03*
X197440Y348240D03*
X197440Y322840D03*
X172040Y348240D03*
X172040Y322840D03*
X146640Y348240D03*
X146640Y322840D03*
X121240Y348240D03*
X121240Y322840D03*
X304800Y812800D03*
X304800Y787400D03*
X127000Y127000D03*
X127000Y152400D03*
X304800Y127000D03*
X304800Y152400D03*
X127000Y812800D03*
X127000Y787400D03*
D11*
X254000Y50800D03*
X254000Y76200D03*
X254000Y101600D03*
X254000Y127000D03*
X254000Y152400D03*
X254000Y177800D03*
X254000Y203200D03*
X254000Y228600D03*
X177800Y228600D03*
X177800Y203200D03*
X177800Y177800D03*
X177800Y152400D03*
X177800Y127000D03*
X177800Y101600D03*
X177800Y76200D03*
X177800Y50800D03*
X177800Y889000D03*
X177800Y863600D03*
X177800Y838200D03*
X177800Y812800D03*
X177800Y787400D03*
X177800Y762000D03*
X177800Y736600D03*
X177800Y711200D03*
X254000Y711200D03*
X254000Y736600D03*
X254000Y762000D03*
X254000Y787400D03*
X254000Y812800D03*
X254000Y838200D03*
X254000Y863600D03*
X254000Y889000D03*
D12*
X38100Y38100D03*
X596900Y38100D03*
X596900Y901700D03*
X38100Y901700D03*
D13*
X269240Y127000D03*
D14*
X269240Y152400D02*
X254000Y152400D01*
D13*
X269240Y152400D03*
X165100Y152400D03*
D14*
X165100Y127000D02*
X177800Y127000D01*
D13*
X165100Y127000D03*
X165100Y787400D03*
X165100Y812800D03*
X266700Y812800D03*
D14*
X266700Y787400D02*
X254000Y787400D01*
D13*
X266700Y787400D03*
X492760Y665480D03*
X492760Y861060D03*
M02*
