G04 EAGLE Gerber RS-274X export*
G75*
%MOMM*%
%FSLAX34Y34*%
%LPD*%
%INCopper Layer 2*%
%IPPOS*%
%AMOC8*
5,1,8,0,0,1.08239X$1,22.5*%
G01*
%ADD10C,1.244600*%
%ADD11C,1.102363*%
%ADD12C,4.191000*%
%ADD13C,0.609600*%
%ADD14C,0.254000*%

G36*
X631308Y2556D02*
X631308Y2556D01*
X631427Y2563D01*
X631465Y2576D01*
X631506Y2581D01*
X631616Y2624D01*
X631729Y2661D01*
X631764Y2683D01*
X631801Y2698D01*
X631897Y2767D01*
X631998Y2831D01*
X632026Y2861D01*
X632059Y2884D01*
X632135Y2976D01*
X632216Y3063D01*
X632236Y3098D01*
X632261Y3129D01*
X632312Y3237D01*
X632370Y3341D01*
X632380Y3381D01*
X632397Y3417D01*
X632419Y3534D01*
X632449Y3649D01*
X632453Y3709D01*
X632457Y3729D01*
X632455Y3750D01*
X632459Y3810D01*
X632459Y935990D01*
X632444Y936108D01*
X632437Y936227D01*
X632424Y936265D01*
X632419Y936306D01*
X632376Y936416D01*
X632339Y936529D01*
X632317Y936564D01*
X632302Y936601D01*
X632233Y936697D01*
X632169Y936798D01*
X632139Y936826D01*
X632116Y936859D01*
X632024Y936935D01*
X631937Y937016D01*
X631902Y937036D01*
X631871Y937061D01*
X631763Y937112D01*
X631659Y937170D01*
X631619Y937180D01*
X631583Y937197D01*
X631466Y937219D01*
X631351Y937249D01*
X631291Y937253D01*
X631271Y937257D01*
X631250Y937255D01*
X631190Y937259D01*
X3810Y937259D01*
X3692Y937244D01*
X3573Y937237D01*
X3535Y937224D01*
X3494Y937219D01*
X3384Y937176D01*
X3271Y937139D01*
X3236Y937117D01*
X3199Y937102D01*
X3103Y937033D01*
X3002Y936969D01*
X2974Y936939D01*
X2941Y936916D01*
X2865Y936824D01*
X2784Y936737D01*
X2764Y936702D01*
X2739Y936671D01*
X2688Y936563D01*
X2630Y936459D01*
X2620Y936419D01*
X2603Y936383D01*
X2581Y936266D01*
X2551Y936151D01*
X2547Y936091D01*
X2543Y936071D01*
X2545Y936050D01*
X2541Y935990D01*
X2541Y3810D01*
X2556Y3692D01*
X2563Y3573D01*
X2576Y3535D01*
X2581Y3494D01*
X2624Y3384D01*
X2661Y3271D01*
X2683Y3236D01*
X2698Y3199D01*
X2767Y3103D01*
X2831Y3002D01*
X2861Y2974D01*
X2884Y2941D01*
X2976Y2865D01*
X3063Y2784D01*
X3098Y2764D01*
X3129Y2739D01*
X3237Y2688D01*
X3341Y2630D01*
X3381Y2620D01*
X3417Y2603D01*
X3534Y2581D01*
X3649Y2551D01*
X3709Y2547D01*
X3729Y2543D01*
X3750Y2545D01*
X3810Y2541D01*
X631190Y2541D01*
X631308Y2556D01*
G37*
%LPC*%
G36*
X592226Y878204D02*
X592226Y878204D01*
X583591Y881781D01*
X576981Y888391D01*
X573404Y897026D01*
X573404Y906374D01*
X576981Y915009D01*
X583591Y921619D01*
X592226Y925196D01*
X601574Y925196D01*
X610209Y921619D01*
X616819Y915009D01*
X620396Y906374D01*
X620396Y897026D01*
X616819Y888391D01*
X610209Y881781D01*
X601574Y878204D01*
X592226Y878204D01*
G37*
%LPD*%
%LPC*%
G36*
X33426Y878204D02*
X33426Y878204D01*
X24791Y881781D01*
X18181Y888391D01*
X14604Y897026D01*
X14604Y906374D01*
X18181Y915009D01*
X24791Y921619D01*
X33426Y925196D01*
X42774Y925196D01*
X51409Y921619D01*
X58019Y915009D01*
X61596Y906374D01*
X61596Y897026D01*
X58019Y888391D01*
X51409Y881781D01*
X42774Y878204D01*
X33426Y878204D01*
G37*
%LPD*%
%LPC*%
G36*
X33426Y14604D02*
X33426Y14604D01*
X24791Y18181D01*
X18181Y24791D01*
X14604Y33426D01*
X14604Y42774D01*
X18181Y51409D01*
X24791Y58019D01*
X33426Y61596D01*
X42774Y61596D01*
X51409Y58019D01*
X58019Y51409D01*
X61596Y42774D01*
X61596Y33426D01*
X58019Y24791D01*
X51409Y18181D01*
X42774Y14604D01*
X33426Y14604D01*
G37*
%LPD*%
%LPC*%
G36*
X592226Y14604D02*
X592226Y14604D01*
X583591Y18181D01*
X576981Y24791D01*
X573404Y33426D01*
X573404Y42774D01*
X576981Y51409D01*
X583591Y58019D01*
X592226Y61596D01*
X601574Y61596D01*
X610209Y58019D01*
X616819Y51409D01*
X620396Y42774D01*
X620396Y33426D01*
X616819Y24791D01*
X610209Y18181D01*
X601574Y14604D01*
X592226Y14604D01*
G37*
%LPD*%
%LPC*%
G36*
X221097Y568076D02*
X221097Y568076D01*
X217876Y569410D01*
X215410Y571876D01*
X214076Y575097D01*
X214076Y578583D01*
X215410Y581804D01*
X217876Y584270D01*
X221097Y585604D01*
X224583Y585604D01*
X227804Y584270D01*
X230270Y581804D01*
X231604Y578583D01*
X231604Y575097D01*
X230270Y571876D01*
X227804Y569410D01*
X224583Y568076D01*
X221097Y568076D01*
G37*
%LPD*%
%LPC*%
G36*
X195697Y568076D02*
X195697Y568076D01*
X192476Y569410D01*
X190010Y571876D01*
X188676Y575097D01*
X188676Y578583D01*
X190010Y581804D01*
X192476Y584270D01*
X195697Y585604D01*
X199183Y585604D01*
X202404Y584270D01*
X204870Y581804D01*
X206204Y578583D01*
X206204Y575097D01*
X204870Y571876D01*
X202404Y569410D01*
X199183Y568076D01*
X195697Y568076D01*
G37*
%LPD*%
%LPC*%
G36*
X170297Y568076D02*
X170297Y568076D01*
X167076Y569410D01*
X164610Y571876D01*
X163276Y575097D01*
X163276Y578583D01*
X164610Y581804D01*
X167076Y584270D01*
X170297Y585604D01*
X173783Y585604D01*
X177004Y584270D01*
X179470Y581804D01*
X180804Y578583D01*
X180804Y575097D01*
X179470Y571876D01*
X177004Y569410D01*
X173783Y568076D01*
X170297Y568076D01*
G37*
%LPD*%
%LPC*%
G36*
X144897Y568076D02*
X144897Y568076D01*
X141676Y569410D01*
X139210Y571876D01*
X137876Y575097D01*
X137876Y578583D01*
X139210Y581804D01*
X141676Y584270D01*
X144897Y585604D01*
X148383Y585604D01*
X151604Y584270D01*
X154070Y581804D01*
X155404Y578583D01*
X155404Y575097D01*
X154070Y571876D01*
X151604Y569410D01*
X148383Y568076D01*
X144897Y568076D01*
G37*
%LPD*%
%LPC*%
G36*
X303057Y804036D02*
X303057Y804036D01*
X299836Y805370D01*
X297370Y807836D01*
X296036Y811057D01*
X296036Y814543D01*
X297370Y817764D01*
X299836Y820230D01*
X303057Y821564D01*
X306543Y821564D01*
X309764Y820230D01*
X312230Y817764D01*
X313564Y814543D01*
X313564Y811057D01*
X312230Y807836D01*
X309764Y805370D01*
X306543Y804036D01*
X303057Y804036D01*
G37*
%LPD*%
%LPC*%
G36*
X125257Y804036D02*
X125257Y804036D01*
X122036Y805370D01*
X119570Y807836D01*
X118236Y811057D01*
X118236Y814543D01*
X119570Y817764D01*
X122036Y820230D01*
X125257Y821564D01*
X128743Y821564D01*
X131964Y820230D01*
X134430Y817764D01*
X135764Y814543D01*
X135764Y811057D01*
X134430Y807836D01*
X131964Y805370D01*
X128743Y804036D01*
X125257Y804036D01*
G37*
%LPD*%
%LPC*%
G36*
X348097Y314076D02*
X348097Y314076D01*
X344876Y315410D01*
X342410Y317876D01*
X341076Y321097D01*
X341076Y324583D01*
X342410Y327804D01*
X344876Y330270D01*
X348097Y331604D01*
X351583Y331604D01*
X354804Y330270D01*
X357270Y327804D01*
X358604Y324583D01*
X358604Y321097D01*
X357270Y317876D01*
X354804Y315410D01*
X351583Y314076D01*
X348097Y314076D01*
G37*
%LPD*%
%LPC*%
G36*
X373497Y314076D02*
X373497Y314076D01*
X370276Y315410D01*
X367810Y317876D01*
X366476Y321097D01*
X366476Y324583D01*
X367810Y327804D01*
X370276Y330270D01*
X373497Y331604D01*
X376983Y331604D01*
X380204Y330270D01*
X382670Y327804D01*
X384004Y324583D01*
X384004Y321097D01*
X382670Y317876D01*
X380204Y315410D01*
X376983Y314076D01*
X373497Y314076D01*
G37*
%LPD*%
%LPC*%
G36*
X398897Y314076D02*
X398897Y314076D01*
X395676Y315410D01*
X393210Y317876D01*
X391876Y321097D01*
X391876Y324583D01*
X393210Y327804D01*
X395676Y330270D01*
X398897Y331604D01*
X402383Y331604D01*
X405604Y330270D01*
X408070Y327804D01*
X409404Y324583D01*
X409404Y321097D01*
X408070Y317876D01*
X405604Y315410D01*
X402383Y314076D01*
X398897Y314076D01*
G37*
%LPD*%
%LPC*%
G36*
X424297Y314076D02*
X424297Y314076D01*
X421076Y315410D01*
X418610Y317876D01*
X417276Y321097D01*
X417276Y324583D01*
X418610Y327804D01*
X421076Y330270D01*
X424297Y331604D01*
X427783Y331604D01*
X431004Y330270D01*
X433470Y327804D01*
X434804Y324583D01*
X434804Y321097D01*
X433470Y317876D01*
X431004Y315410D01*
X427783Y314076D01*
X424297Y314076D01*
G37*
%LPD*%
%LPC*%
G36*
X449697Y314076D02*
X449697Y314076D01*
X446476Y315410D01*
X444010Y317876D01*
X442676Y321097D01*
X442676Y324583D01*
X444010Y327804D01*
X446476Y330270D01*
X449697Y331604D01*
X453183Y331604D01*
X456404Y330270D01*
X458870Y327804D01*
X460204Y324583D01*
X460204Y321097D01*
X458870Y317876D01*
X456404Y315410D01*
X453183Y314076D01*
X449697Y314076D01*
G37*
%LPD*%
%LPC*%
G36*
X475097Y314076D02*
X475097Y314076D01*
X471876Y315410D01*
X469410Y317876D01*
X468076Y321097D01*
X468076Y324583D01*
X469410Y327804D01*
X471876Y330270D01*
X475097Y331604D01*
X478583Y331604D01*
X481804Y330270D01*
X484270Y327804D01*
X485604Y324583D01*
X485604Y321097D01*
X484270Y317876D01*
X481804Y315410D01*
X478583Y314076D01*
X475097Y314076D01*
G37*
%LPD*%
%LPC*%
G36*
X500497Y314076D02*
X500497Y314076D01*
X497276Y315410D01*
X494810Y317876D01*
X493476Y321097D01*
X493476Y324583D01*
X494810Y327804D01*
X497276Y330270D01*
X500497Y331604D01*
X503983Y331604D01*
X507204Y330270D01*
X509670Y327804D01*
X511004Y324583D01*
X511004Y321097D01*
X509670Y317876D01*
X507204Y315410D01*
X503983Y314076D01*
X500497Y314076D01*
G37*
%LPD*%
%LPC*%
G36*
X525897Y314076D02*
X525897Y314076D01*
X522676Y315410D01*
X520210Y317876D01*
X518876Y321097D01*
X518876Y324583D01*
X520210Y327804D01*
X522676Y330270D01*
X525897Y331604D01*
X529383Y331604D01*
X532604Y330270D01*
X535070Y327804D01*
X536404Y324583D01*
X536404Y321097D01*
X535070Y317876D01*
X532604Y315410D01*
X529383Y314076D01*
X525897Y314076D01*
G37*
%LPD*%
%LPC*%
G36*
X119497Y593476D02*
X119497Y593476D01*
X116276Y594810D01*
X113810Y597276D01*
X112476Y600497D01*
X112476Y603983D01*
X113810Y607204D01*
X116276Y609670D01*
X119497Y611004D01*
X122983Y611004D01*
X126204Y609670D01*
X128670Y607204D01*
X130004Y603983D01*
X130004Y600497D01*
X128670Y597276D01*
X126204Y594810D01*
X122983Y593476D01*
X119497Y593476D01*
G37*
%LPD*%
%LPC*%
G36*
X303057Y778636D02*
X303057Y778636D01*
X299836Y779970D01*
X297370Y782436D01*
X296036Y785657D01*
X296036Y789143D01*
X297370Y792364D01*
X299836Y794830D01*
X303057Y796164D01*
X306543Y796164D01*
X309764Y794830D01*
X312230Y792364D01*
X313564Y789143D01*
X313564Y785657D01*
X312230Y782436D01*
X309764Y779970D01*
X306543Y778636D01*
X303057Y778636D01*
G37*
%LPD*%
%LPC*%
G36*
X125257Y778636D02*
X125257Y778636D01*
X122036Y779970D01*
X119570Y782436D01*
X118236Y785657D01*
X118236Y789143D01*
X119570Y792364D01*
X122036Y794830D01*
X125257Y796164D01*
X128743Y796164D01*
X131964Y794830D01*
X134430Y792364D01*
X135764Y789143D01*
X135764Y785657D01*
X134430Y782436D01*
X131964Y779970D01*
X128743Y778636D01*
X125257Y778636D01*
G37*
%LPD*%
%LPC*%
G36*
X551297Y314076D02*
X551297Y314076D01*
X548076Y315410D01*
X545610Y317876D01*
X544276Y321097D01*
X544276Y324583D01*
X545610Y327804D01*
X548076Y330270D01*
X551297Y331604D01*
X554783Y331604D01*
X558004Y330270D01*
X560470Y327804D01*
X561804Y324583D01*
X561804Y321097D01*
X560470Y317876D01*
X558004Y315410D01*
X554783Y314076D01*
X551297Y314076D01*
G37*
%LPD*%
%LPC*%
G36*
X119497Y314076D02*
X119497Y314076D01*
X116276Y315410D01*
X113810Y317876D01*
X112476Y321097D01*
X112476Y324583D01*
X113810Y327804D01*
X116276Y330270D01*
X119497Y331604D01*
X122983Y331604D01*
X126204Y330270D01*
X128670Y327804D01*
X130004Y324583D01*
X130004Y321097D01*
X128670Y317876D01*
X126204Y315410D01*
X122983Y314076D01*
X119497Y314076D01*
G37*
%LPD*%
%LPC*%
G36*
X144897Y314076D02*
X144897Y314076D01*
X141676Y315410D01*
X139210Y317876D01*
X137876Y321097D01*
X137876Y324583D01*
X139210Y327804D01*
X141676Y330270D01*
X144897Y331604D01*
X148383Y331604D01*
X151604Y330270D01*
X154070Y327804D01*
X155404Y324583D01*
X155404Y321097D01*
X154070Y317876D01*
X151604Y315410D01*
X148383Y314076D01*
X144897Y314076D01*
G37*
%LPD*%
%LPC*%
G36*
X119497Y339476D02*
X119497Y339476D01*
X116276Y340810D01*
X113810Y343276D01*
X112476Y346497D01*
X112476Y349983D01*
X113810Y353204D01*
X116276Y355670D01*
X119497Y357004D01*
X122983Y357004D01*
X126204Y355670D01*
X128670Y353204D01*
X130004Y349983D01*
X130004Y346497D01*
X128670Y343276D01*
X126204Y340810D01*
X122983Y339476D01*
X119497Y339476D01*
G37*
%LPD*%
%LPC*%
G36*
X144897Y339476D02*
X144897Y339476D01*
X141676Y340810D01*
X139210Y343276D01*
X137876Y346497D01*
X137876Y349983D01*
X139210Y353204D01*
X141676Y355670D01*
X144897Y357004D01*
X148383Y357004D01*
X151604Y355670D01*
X154070Y353204D01*
X155404Y349983D01*
X155404Y346497D01*
X154070Y343276D01*
X151604Y340810D01*
X148383Y339476D01*
X144897Y339476D01*
G37*
%LPD*%
%LPC*%
G36*
X170297Y339476D02*
X170297Y339476D01*
X167076Y340810D01*
X164610Y343276D01*
X163276Y346497D01*
X163276Y349983D01*
X164610Y353204D01*
X167076Y355670D01*
X170297Y357004D01*
X173783Y357004D01*
X177004Y355670D01*
X179470Y353204D01*
X180804Y349983D01*
X180804Y346497D01*
X179470Y343276D01*
X177004Y340810D01*
X173783Y339476D01*
X170297Y339476D01*
G37*
%LPD*%
%LPC*%
G36*
X195697Y339476D02*
X195697Y339476D01*
X192476Y340810D01*
X190010Y343276D01*
X188676Y346497D01*
X188676Y349983D01*
X190010Y353204D01*
X192476Y355670D01*
X195697Y357004D01*
X199183Y357004D01*
X202404Y355670D01*
X204870Y353204D01*
X206204Y349983D01*
X206204Y346497D01*
X204870Y343276D01*
X202404Y340810D01*
X199183Y339476D01*
X195697Y339476D01*
G37*
%LPD*%
%LPC*%
G36*
X221097Y339476D02*
X221097Y339476D01*
X217876Y340810D01*
X215410Y343276D01*
X214076Y346497D01*
X214076Y349983D01*
X215410Y353204D01*
X217876Y355670D01*
X221097Y357004D01*
X224583Y357004D01*
X227804Y355670D01*
X230270Y353204D01*
X231604Y349983D01*
X231604Y346497D01*
X230270Y343276D01*
X227804Y340810D01*
X224583Y339476D01*
X221097Y339476D01*
G37*
%LPD*%
%LPC*%
G36*
X119497Y568076D02*
X119497Y568076D01*
X116276Y569410D01*
X113810Y571876D01*
X112476Y575097D01*
X112476Y578583D01*
X113810Y581804D01*
X116276Y584270D01*
X119497Y585604D01*
X122983Y585604D01*
X126204Y584270D01*
X128670Y581804D01*
X130004Y578583D01*
X130004Y575097D01*
X128670Y571876D01*
X126204Y569410D01*
X122983Y568076D01*
X119497Y568076D01*
G37*
%LPD*%
%LPC*%
G36*
X500497Y339476D02*
X500497Y339476D01*
X497276Y340810D01*
X494810Y343276D01*
X493476Y346497D01*
X493476Y349983D01*
X494810Y353204D01*
X497276Y355670D01*
X500497Y357004D01*
X503983Y357004D01*
X507204Y355670D01*
X509670Y353204D01*
X511004Y349983D01*
X511004Y346497D01*
X509670Y343276D01*
X507204Y340810D01*
X503983Y339476D01*
X500497Y339476D01*
G37*
%LPD*%
%LPC*%
G36*
X525897Y339476D02*
X525897Y339476D01*
X522676Y340810D01*
X520210Y343276D01*
X518876Y346497D01*
X518876Y349983D01*
X520210Y353204D01*
X522676Y355670D01*
X525897Y357004D01*
X529383Y357004D01*
X532604Y355670D01*
X535070Y353204D01*
X536404Y349983D01*
X536404Y346497D01*
X535070Y343276D01*
X532604Y340810D01*
X529383Y339476D01*
X525897Y339476D01*
G37*
%LPD*%
%LPC*%
G36*
X551297Y339476D02*
X551297Y339476D01*
X548076Y340810D01*
X545610Y343276D01*
X544276Y346497D01*
X544276Y349983D01*
X545610Y353204D01*
X548076Y355670D01*
X551297Y357004D01*
X554783Y357004D01*
X558004Y355670D01*
X560470Y353204D01*
X561804Y349983D01*
X561804Y346497D01*
X560470Y343276D01*
X558004Y340810D01*
X554783Y339476D01*
X551297Y339476D01*
G37*
%LPD*%
%LPC*%
G36*
X246497Y339476D02*
X246497Y339476D01*
X243276Y340810D01*
X240810Y343276D01*
X239476Y346497D01*
X239476Y349983D01*
X240810Y353204D01*
X243276Y355670D01*
X246497Y357004D01*
X249983Y357004D01*
X253204Y355670D01*
X255670Y353204D01*
X257004Y349983D01*
X257004Y346497D01*
X255670Y343276D01*
X253204Y340810D01*
X249983Y339476D01*
X246497Y339476D01*
G37*
%LPD*%
%LPC*%
G36*
X322697Y339476D02*
X322697Y339476D01*
X319476Y340810D01*
X317010Y343276D01*
X315676Y346497D01*
X315676Y349983D01*
X317010Y353204D01*
X319476Y355670D01*
X322697Y357004D01*
X326183Y357004D01*
X329404Y355670D01*
X331870Y353204D01*
X333204Y349983D01*
X333204Y346497D01*
X331870Y343276D01*
X329404Y340810D01*
X326183Y339476D01*
X322697Y339476D01*
G37*
%LPD*%
%LPC*%
G36*
X348097Y339476D02*
X348097Y339476D01*
X344876Y340810D01*
X342410Y343276D01*
X341076Y346497D01*
X341076Y349983D01*
X342410Y353204D01*
X344876Y355670D01*
X348097Y357004D01*
X351583Y357004D01*
X354804Y355670D01*
X357270Y353204D01*
X358604Y349983D01*
X358604Y346497D01*
X357270Y343276D01*
X354804Y340810D01*
X351583Y339476D01*
X348097Y339476D01*
G37*
%LPD*%
%LPC*%
G36*
X144897Y593476D02*
X144897Y593476D01*
X141676Y594810D01*
X139210Y597276D01*
X137876Y600497D01*
X137876Y603983D01*
X139210Y607204D01*
X141676Y609670D01*
X144897Y611004D01*
X148383Y611004D01*
X151604Y609670D01*
X154070Y607204D01*
X155404Y603983D01*
X155404Y600497D01*
X154070Y597276D01*
X151604Y594810D01*
X148383Y593476D01*
X144897Y593476D01*
G37*
%LPD*%
%LPC*%
G36*
X271897Y339476D02*
X271897Y339476D01*
X268676Y340810D01*
X266210Y343276D01*
X264876Y346497D01*
X264876Y349983D01*
X266210Y353204D01*
X268676Y355670D01*
X271897Y357004D01*
X275383Y357004D01*
X278604Y355670D01*
X281070Y353204D01*
X282404Y349983D01*
X282404Y346497D01*
X281070Y343276D01*
X278604Y340810D01*
X275383Y339476D01*
X271897Y339476D01*
G37*
%LPD*%
%LPC*%
G36*
X551297Y593476D02*
X551297Y593476D01*
X548076Y594810D01*
X545610Y597276D01*
X544276Y600497D01*
X544276Y603983D01*
X545610Y607204D01*
X548076Y609670D01*
X551297Y611004D01*
X554783Y611004D01*
X558004Y609670D01*
X560470Y607204D01*
X561804Y603983D01*
X561804Y600497D01*
X560470Y597276D01*
X558004Y594810D01*
X554783Y593476D01*
X551297Y593476D01*
G37*
%LPD*%
%LPC*%
G36*
X525897Y593476D02*
X525897Y593476D01*
X522676Y594810D01*
X520210Y597276D01*
X518876Y600497D01*
X518876Y603983D01*
X520210Y607204D01*
X522676Y609670D01*
X525897Y611004D01*
X529383Y611004D01*
X532604Y609670D01*
X535070Y607204D01*
X536404Y603983D01*
X536404Y600497D01*
X535070Y597276D01*
X532604Y594810D01*
X529383Y593476D01*
X525897Y593476D01*
G37*
%LPD*%
%LPC*%
G36*
X500497Y593476D02*
X500497Y593476D01*
X497276Y594810D01*
X494810Y597276D01*
X493476Y600497D01*
X493476Y603983D01*
X494810Y607204D01*
X497276Y609670D01*
X500497Y611004D01*
X503983Y611004D01*
X507204Y609670D01*
X509670Y607204D01*
X511004Y603983D01*
X511004Y600497D01*
X509670Y597276D01*
X507204Y594810D01*
X503983Y593476D01*
X500497Y593476D01*
G37*
%LPD*%
%LPC*%
G36*
X475097Y593476D02*
X475097Y593476D01*
X471876Y594810D01*
X469410Y597276D01*
X468076Y600497D01*
X468076Y603983D01*
X469410Y607204D01*
X471876Y609670D01*
X475097Y611004D01*
X478583Y611004D01*
X481804Y609670D01*
X484270Y607204D01*
X485604Y603983D01*
X485604Y600497D01*
X484270Y597276D01*
X481804Y594810D01*
X478583Y593476D01*
X475097Y593476D01*
G37*
%LPD*%
%LPC*%
G36*
X449697Y593476D02*
X449697Y593476D01*
X446476Y594810D01*
X444010Y597276D01*
X442676Y600497D01*
X442676Y603983D01*
X444010Y607204D01*
X446476Y609670D01*
X449697Y611004D01*
X453183Y611004D01*
X456404Y609670D01*
X458870Y607204D01*
X460204Y603983D01*
X460204Y600497D01*
X458870Y597276D01*
X456404Y594810D01*
X453183Y593476D01*
X449697Y593476D01*
G37*
%LPD*%
%LPC*%
G36*
X424297Y593476D02*
X424297Y593476D01*
X421076Y594810D01*
X418610Y597276D01*
X417276Y600497D01*
X417276Y603983D01*
X418610Y607204D01*
X421076Y609670D01*
X424297Y611004D01*
X427783Y611004D01*
X431004Y609670D01*
X433470Y607204D01*
X434804Y603983D01*
X434804Y600497D01*
X433470Y597276D01*
X431004Y594810D01*
X427783Y593476D01*
X424297Y593476D01*
G37*
%LPD*%
%LPC*%
G36*
X398897Y593476D02*
X398897Y593476D01*
X395676Y594810D01*
X393210Y597276D01*
X391876Y600497D01*
X391876Y603983D01*
X393210Y607204D01*
X395676Y609670D01*
X398897Y611004D01*
X402383Y611004D01*
X405604Y609670D01*
X408070Y607204D01*
X409404Y603983D01*
X409404Y600497D01*
X408070Y597276D01*
X405604Y594810D01*
X402383Y593476D01*
X398897Y593476D01*
G37*
%LPD*%
%LPC*%
G36*
X348097Y593476D02*
X348097Y593476D01*
X344876Y594810D01*
X342410Y597276D01*
X341076Y600497D01*
X341076Y603983D01*
X342410Y607204D01*
X344876Y609670D01*
X348097Y611004D01*
X351583Y611004D01*
X354804Y609670D01*
X357270Y607204D01*
X358604Y603983D01*
X358604Y600497D01*
X357270Y597276D01*
X354804Y594810D01*
X351583Y593476D01*
X348097Y593476D01*
G37*
%LPD*%
%LPC*%
G36*
X322697Y593476D02*
X322697Y593476D01*
X319476Y594810D01*
X317010Y597276D01*
X315676Y600497D01*
X315676Y603983D01*
X317010Y607204D01*
X319476Y609670D01*
X322697Y611004D01*
X326183Y611004D01*
X329404Y609670D01*
X331870Y607204D01*
X333204Y603983D01*
X333204Y600497D01*
X331870Y597276D01*
X329404Y594810D01*
X326183Y593476D01*
X322697Y593476D01*
G37*
%LPD*%
%LPC*%
G36*
X297297Y593476D02*
X297297Y593476D01*
X294076Y594810D01*
X291610Y597276D01*
X290276Y600497D01*
X290276Y603983D01*
X291610Y607204D01*
X294076Y609670D01*
X297297Y611004D01*
X300783Y611004D01*
X304004Y609670D01*
X306470Y607204D01*
X307804Y603983D01*
X307804Y600497D01*
X306470Y597276D01*
X304004Y594810D01*
X300783Y593476D01*
X297297Y593476D01*
G37*
%LPD*%
%LPC*%
G36*
X271897Y593476D02*
X271897Y593476D01*
X268676Y594810D01*
X266210Y597276D01*
X264876Y600497D01*
X264876Y603983D01*
X266210Y607204D01*
X268676Y609670D01*
X271897Y611004D01*
X275383Y611004D01*
X278604Y609670D01*
X281070Y607204D01*
X282404Y603983D01*
X282404Y600497D01*
X281070Y597276D01*
X278604Y594810D01*
X275383Y593476D01*
X271897Y593476D01*
G37*
%LPD*%
%LPC*%
G36*
X246497Y593476D02*
X246497Y593476D01*
X243276Y594810D01*
X240810Y597276D01*
X239476Y600497D01*
X239476Y603983D01*
X240810Y607204D01*
X243276Y609670D01*
X246497Y611004D01*
X249983Y611004D01*
X253204Y609670D01*
X255670Y607204D01*
X257004Y603983D01*
X257004Y600497D01*
X255670Y597276D01*
X253204Y594810D01*
X249983Y593476D01*
X246497Y593476D01*
G37*
%LPD*%
%LPC*%
G36*
X221097Y593476D02*
X221097Y593476D01*
X217876Y594810D01*
X215410Y597276D01*
X214076Y600497D01*
X214076Y603983D01*
X215410Y607204D01*
X217876Y609670D01*
X221097Y611004D01*
X224583Y611004D01*
X227804Y609670D01*
X230270Y607204D01*
X231604Y603983D01*
X231604Y600497D01*
X230270Y597276D01*
X227804Y594810D01*
X224583Y593476D01*
X221097Y593476D01*
G37*
%LPD*%
%LPC*%
G36*
X195697Y593476D02*
X195697Y593476D01*
X192476Y594810D01*
X190010Y597276D01*
X188676Y600497D01*
X188676Y603983D01*
X190010Y607204D01*
X192476Y609670D01*
X195697Y611004D01*
X199183Y611004D01*
X202404Y609670D01*
X204870Y607204D01*
X206204Y603983D01*
X206204Y600497D01*
X204870Y597276D01*
X202404Y594810D01*
X199183Y593476D01*
X195697Y593476D01*
G37*
%LPD*%
%LPC*%
G36*
X170297Y593476D02*
X170297Y593476D01*
X167076Y594810D01*
X164610Y597276D01*
X163276Y600497D01*
X163276Y603983D01*
X164610Y607204D01*
X167076Y609670D01*
X170297Y611004D01*
X173783Y611004D01*
X177004Y609670D01*
X179470Y607204D01*
X180804Y603983D01*
X180804Y600497D01*
X179470Y597276D01*
X177004Y594810D01*
X173783Y593476D01*
X170297Y593476D01*
G37*
%LPD*%
%LPC*%
G36*
X398897Y339476D02*
X398897Y339476D01*
X395676Y340810D01*
X393210Y343276D01*
X391876Y346497D01*
X391876Y349983D01*
X393210Y353204D01*
X395676Y355670D01*
X398897Y357004D01*
X402383Y357004D01*
X405604Y355670D01*
X408070Y353204D01*
X409404Y349983D01*
X409404Y346497D01*
X408070Y343276D01*
X405604Y340810D01*
X402383Y339476D01*
X398897Y339476D01*
G37*
%LPD*%
%LPC*%
G36*
X424297Y339476D02*
X424297Y339476D01*
X421076Y340810D01*
X418610Y343276D01*
X417276Y346497D01*
X417276Y349983D01*
X418610Y353204D01*
X421076Y355670D01*
X424297Y357004D01*
X427783Y357004D01*
X431004Y355670D01*
X433470Y353204D01*
X434804Y349983D01*
X434804Y346497D01*
X433470Y343276D01*
X431004Y340810D01*
X427783Y339476D01*
X424297Y339476D01*
G37*
%LPD*%
%LPC*%
G36*
X449697Y339476D02*
X449697Y339476D01*
X446476Y340810D01*
X444010Y343276D01*
X442676Y346497D01*
X442676Y349983D01*
X444010Y353204D01*
X446476Y355670D01*
X449697Y357004D01*
X453183Y357004D01*
X456404Y355670D01*
X458870Y353204D01*
X460204Y349983D01*
X460204Y346497D01*
X458870Y343276D01*
X456404Y340810D01*
X453183Y339476D01*
X449697Y339476D01*
G37*
%LPD*%
%LPC*%
G36*
X475097Y339476D02*
X475097Y339476D01*
X471876Y340810D01*
X469410Y343276D01*
X468076Y346497D01*
X468076Y349983D01*
X469410Y353204D01*
X471876Y355670D01*
X475097Y357004D01*
X478583Y357004D01*
X481804Y355670D01*
X484270Y353204D01*
X485604Y349983D01*
X485604Y346497D01*
X484270Y343276D01*
X481804Y340810D01*
X478583Y339476D01*
X475097Y339476D01*
G37*
%LPD*%
%LPC*%
G36*
X551297Y568076D02*
X551297Y568076D01*
X548076Y569410D01*
X545610Y571876D01*
X544276Y575097D01*
X544276Y578583D01*
X545610Y581804D01*
X548076Y584270D01*
X551297Y585604D01*
X554783Y585604D01*
X558004Y584270D01*
X560470Y581804D01*
X561804Y578583D01*
X561804Y575097D01*
X560470Y571876D01*
X558004Y569410D01*
X554783Y568076D01*
X551297Y568076D01*
G37*
%LPD*%
%LPC*%
G36*
X271897Y568076D02*
X271897Y568076D01*
X268676Y569410D01*
X266210Y571876D01*
X264876Y575097D01*
X264876Y578583D01*
X266210Y581804D01*
X268676Y584270D01*
X271897Y585604D01*
X275383Y585604D01*
X278604Y584270D01*
X281070Y581804D01*
X282404Y578583D01*
X282404Y575097D01*
X281070Y571876D01*
X278604Y569410D01*
X275383Y568076D01*
X271897Y568076D01*
G37*
%LPD*%
%LPC*%
G36*
X500497Y568076D02*
X500497Y568076D01*
X497276Y569410D01*
X494810Y571876D01*
X493476Y575097D01*
X493476Y578583D01*
X494810Y581804D01*
X497276Y584270D01*
X500497Y585604D01*
X503983Y585604D01*
X507204Y584270D01*
X509670Y581804D01*
X511004Y578583D01*
X511004Y575097D01*
X509670Y571876D01*
X507204Y569410D01*
X503983Y568076D01*
X500497Y568076D01*
G37*
%LPD*%
%LPC*%
G36*
X475097Y568076D02*
X475097Y568076D01*
X471876Y569410D01*
X469410Y571876D01*
X468076Y575097D01*
X468076Y578583D01*
X469410Y581804D01*
X471876Y584270D01*
X475097Y585604D01*
X478583Y585604D01*
X481804Y584270D01*
X484270Y581804D01*
X485604Y578583D01*
X485604Y575097D01*
X484270Y571876D01*
X481804Y569410D01*
X478583Y568076D01*
X475097Y568076D01*
G37*
%LPD*%
%LPC*%
G36*
X449697Y568076D02*
X449697Y568076D01*
X446476Y569410D01*
X444010Y571876D01*
X442676Y575097D01*
X442676Y578583D01*
X444010Y581804D01*
X446476Y584270D01*
X449697Y585604D01*
X453183Y585604D01*
X456404Y584270D01*
X458870Y581804D01*
X460204Y578583D01*
X460204Y575097D01*
X458870Y571876D01*
X456404Y569410D01*
X453183Y568076D01*
X449697Y568076D01*
G37*
%LPD*%
%LPC*%
G36*
X424297Y568076D02*
X424297Y568076D01*
X421076Y569410D01*
X418610Y571876D01*
X417276Y575097D01*
X417276Y578583D01*
X418610Y581804D01*
X421076Y584270D01*
X424297Y585604D01*
X427783Y585604D01*
X431004Y584270D01*
X433470Y581804D01*
X434804Y578583D01*
X434804Y575097D01*
X433470Y571876D01*
X431004Y569410D01*
X427783Y568076D01*
X424297Y568076D01*
G37*
%LPD*%
%LPC*%
G36*
X398897Y568076D02*
X398897Y568076D01*
X395676Y569410D01*
X393210Y571876D01*
X391876Y575097D01*
X391876Y578583D01*
X393210Y581804D01*
X395676Y584270D01*
X398897Y585604D01*
X402383Y585604D01*
X405604Y584270D01*
X408070Y581804D01*
X409404Y578583D01*
X409404Y575097D01*
X408070Y571876D01*
X405604Y569410D01*
X402383Y568076D01*
X398897Y568076D01*
G37*
%LPD*%
%LPC*%
G36*
X348097Y568076D02*
X348097Y568076D01*
X344876Y569410D01*
X342410Y571876D01*
X341076Y575097D01*
X341076Y578583D01*
X342410Y581804D01*
X344876Y584270D01*
X348097Y585604D01*
X351583Y585604D01*
X354804Y584270D01*
X357270Y581804D01*
X358604Y578583D01*
X358604Y575097D01*
X357270Y571876D01*
X354804Y569410D01*
X351583Y568076D01*
X348097Y568076D01*
G37*
%LPD*%
%LPC*%
G36*
X322697Y568076D02*
X322697Y568076D01*
X319476Y569410D01*
X317010Y571876D01*
X315676Y575097D01*
X315676Y578583D01*
X317010Y581804D01*
X319476Y584270D01*
X322697Y585604D01*
X326183Y585604D01*
X329404Y584270D01*
X331870Y581804D01*
X333204Y578583D01*
X333204Y575097D01*
X331870Y571876D01*
X329404Y569410D01*
X326183Y568076D01*
X322697Y568076D01*
G37*
%LPD*%
%LPC*%
G36*
X322697Y314076D02*
X322697Y314076D01*
X319476Y315410D01*
X317010Y317876D01*
X315676Y321097D01*
X315676Y324583D01*
X317010Y327804D01*
X319476Y330270D01*
X322697Y331604D01*
X326183Y331604D01*
X329404Y330270D01*
X331870Y327804D01*
X333204Y324583D01*
X333204Y321097D01*
X331870Y317876D01*
X329404Y315410D01*
X326183Y314076D01*
X322697Y314076D01*
G37*
%LPD*%
%LPC*%
G36*
X297297Y314076D02*
X297297Y314076D01*
X294076Y315410D01*
X291610Y317876D01*
X290276Y321097D01*
X290276Y324583D01*
X291610Y327804D01*
X294076Y330270D01*
X297297Y331604D01*
X300783Y331604D01*
X304004Y330270D01*
X306470Y327804D01*
X307804Y324583D01*
X307804Y321097D01*
X306470Y317876D01*
X304004Y315410D01*
X300783Y314076D01*
X297297Y314076D01*
G37*
%LPD*%
%LPC*%
G36*
X525897Y568076D02*
X525897Y568076D01*
X522676Y569410D01*
X520210Y571876D01*
X518876Y575097D01*
X518876Y578583D01*
X520210Y581804D01*
X522676Y584270D01*
X525897Y585604D01*
X529383Y585604D01*
X532604Y584270D01*
X535070Y581804D01*
X536404Y578583D01*
X536404Y575097D01*
X535070Y571876D01*
X532604Y569410D01*
X529383Y568076D01*
X525897Y568076D01*
G37*
%LPD*%
%LPC*%
G36*
X246497Y314076D02*
X246497Y314076D01*
X243276Y315410D01*
X240810Y317876D01*
X239476Y321097D01*
X239476Y324583D01*
X240810Y327804D01*
X243276Y330270D01*
X246497Y331604D01*
X249983Y331604D01*
X253204Y330270D01*
X255670Y327804D01*
X257004Y324583D01*
X257004Y321097D01*
X255670Y317876D01*
X253204Y315410D01*
X249983Y314076D01*
X246497Y314076D01*
G37*
%LPD*%
%LPC*%
G36*
X221097Y314076D02*
X221097Y314076D01*
X217876Y315410D01*
X215410Y317876D01*
X214076Y321097D01*
X214076Y324583D01*
X215410Y327804D01*
X217876Y330270D01*
X221097Y331604D01*
X224583Y331604D01*
X227804Y330270D01*
X230270Y327804D01*
X231604Y324583D01*
X231604Y321097D01*
X230270Y317876D01*
X227804Y315410D01*
X224583Y314076D01*
X221097Y314076D01*
G37*
%LPD*%
%LPC*%
G36*
X195697Y314076D02*
X195697Y314076D01*
X192476Y315410D01*
X190010Y317876D01*
X188676Y321097D01*
X188676Y324583D01*
X190010Y327804D01*
X192476Y330270D01*
X195697Y331604D01*
X199183Y331604D01*
X202404Y330270D01*
X204870Y327804D01*
X206204Y324583D01*
X206204Y321097D01*
X204870Y317876D01*
X202404Y315410D01*
X199183Y314076D01*
X195697Y314076D01*
G37*
%LPD*%
%LPC*%
G36*
X170297Y314076D02*
X170297Y314076D01*
X167076Y315410D01*
X164610Y317876D01*
X163276Y321097D01*
X163276Y324583D01*
X164610Y327804D01*
X167076Y330270D01*
X170297Y331604D01*
X173783Y331604D01*
X177004Y330270D01*
X179470Y327804D01*
X180804Y324583D01*
X180804Y321097D01*
X179470Y317876D01*
X177004Y315410D01*
X173783Y314076D01*
X170297Y314076D01*
G37*
%LPD*%
%LPC*%
G36*
X303057Y143636D02*
X303057Y143636D01*
X299836Y144970D01*
X297370Y147436D01*
X296036Y150657D01*
X296036Y154143D01*
X297370Y157364D01*
X299836Y159830D01*
X303057Y161164D01*
X306543Y161164D01*
X309764Y159830D01*
X312230Y157364D01*
X313564Y154143D01*
X313564Y150657D01*
X312230Y147436D01*
X309764Y144970D01*
X306543Y143636D01*
X303057Y143636D01*
G37*
%LPD*%
%LPC*%
G36*
X125257Y143636D02*
X125257Y143636D01*
X122036Y144970D01*
X119570Y147436D01*
X118236Y150657D01*
X118236Y154143D01*
X119570Y157364D01*
X122036Y159830D01*
X125257Y161164D01*
X128743Y161164D01*
X131964Y159830D01*
X134430Y157364D01*
X135764Y154143D01*
X135764Y150657D01*
X134430Y147436D01*
X131964Y144970D01*
X128743Y143636D01*
X125257Y143636D01*
G37*
%LPD*%
%LPC*%
G36*
X303057Y118236D02*
X303057Y118236D01*
X299836Y119570D01*
X297370Y122036D01*
X296036Y125257D01*
X296036Y128743D01*
X297370Y131964D01*
X299836Y134430D01*
X303057Y135764D01*
X306543Y135764D01*
X309764Y134430D01*
X312230Y131964D01*
X313564Y128743D01*
X313564Y125257D01*
X312230Y122036D01*
X309764Y119570D01*
X306543Y118236D01*
X303057Y118236D01*
G37*
%LPD*%
%LPC*%
G36*
X125257Y118236D02*
X125257Y118236D01*
X122036Y119570D01*
X119570Y122036D01*
X118236Y125257D01*
X118236Y128743D01*
X119570Y131964D01*
X122036Y134430D01*
X125257Y135764D01*
X128743Y135764D01*
X131964Y134430D01*
X134430Y131964D01*
X135764Y128743D01*
X135764Y125257D01*
X134430Y122036D01*
X131964Y119570D01*
X128743Y118236D01*
X125257Y118236D01*
G37*
%LPD*%
%LPC*%
G36*
X246497Y568076D02*
X246497Y568076D01*
X243276Y569410D01*
X240810Y571876D01*
X239476Y575097D01*
X239476Y578583D01*
X240810Y581804D01*
X243276Y584270D01*
X246497Y585604D01*
X249983Y585604D01*
X253204Y584270D01*
X255670Y581804D01*
X257004Y578583D01*
X257004Y575097D01*
X255670Y571876D01*
X253204Y569410D01*
X249983Y568076D01*
X246497Y568076D01*
G37*
%LPD*%
%LPC*%
G36*
X271897Y314076D02*
X271897Y314076D01*
X268676Y315410D01*
X266210Y317876D01*
X264876Y321097D01*
X264876Y324583D01*
X266210Y327804D01*
X268676Y330270D01*
X271897Y331604D01*
X275383Y331604D01*
X278604Y330270D01*
X281070Y327804D01*
X282404Y324583D01*
X282404Y321097D01*
X281070Y317876D01*
X278604Y315410D01*
X275383Y314076D01*
X271897Y314076D01*
G37*
%LPD*%
%LPC*%
G36*
X252398Y880947D02*
X252398Y880947D01*
X249439Y882173D01*
X247173Y884439D01*
X245947Y887398D01*
X245947Y890602D01*
X247173Y893561D01*
X249439Y895827D01*
X252398Y897053D01*
X255602Y897053D01*
X258561Y895827D01*
X260827Y893561D01*
X262053Y890602D01*
X262053Y887398D01*
X260827Y884439D01*
X258561Y882173D01*
X255602Y880947D01*
X252398Y880947D01*
G37*
%LPD*%
%LPC*%
G36*
X176198Y880947D02*
X176198Y880947D01*
X173239Y882173D01*
X170973Y884439D01*
X169747Y887398D01*
X169747Y890602D01*
X170973Y893561D01*
X173239Y895827D01*
X176198Y897053D01*
X179402Y897053D01*
X182361Y895827D01*
X184627Y893561D01*
X185853Y890602D01*
X185853Y887398D01*
X184627Y884439D01*
X182361Y882173D01*
X179402Y880947D01*
X176198Y880947D01*
G37*
%LPD*%
%LPC*%
G36*
X252398Y855547D02*
X252398Y855547D01*
X249439Y856773D01*
X247173Y859039D01*
X245947Y861998D01*
X245947Y865202D01*
X247173Y868161D01*
X249439Y870427D01*
X252398Y871653D01*
X255602Y871653D01*
X258561Y870427D01*
X260827Y868161D01*
X262053Y865202D01*
X262053Y861998D01*
X260827Y859039D01*
X258561Y856773D01*
X255602Y855547D01*
X252398Y855547D01*
G37*
%LPD*%
%LPC*%
G36*
X176198Y855547D02*
X176198Y855547D01*
X173239Y856773D01*
X170973Y859039D01*
X169747Y861998D01*
X169747Y865202D01*
X170973Y868161D01*
X173239Y870427D01*
X176198Y871653D01*
X179402Y871653D01*
X182361Y870427D01*
X184627Y868161D01*
X185853Y865202D01*
X185853Y861998D01*
X184627Y859039D01*
X182361Y856773D01*
X179402Y855547D01*
X176198Y855547D01*
G37*
%LPD*%
%LPC*%
G36*
X252398Y830147D02*
X252398Y830147D01*
X249439Y831373D01*
X247173Y833639D01*
X245947Y836598D01*
X245947Y839802D01*
X247173Y842761D01*
X249439Y845027D01*
X252398Y846253D01*
X255602Y846253D01*
X258561Y845027D01*
X260827Y842761D01*
X262053Y839802D01*
X262053Y836598D01*
X260827Y833639D01*
X258561Y831373D01*
X255602Y830147D01*
X252398Y830147D01*
G37*
%LPD*%
%LPC*%
G36*
X176198Y830147D02*
X176198Y830147D01*
X173239Y831373D01*
X170973Y833639D01*
X169747Y836598D01*
X169747Y839802D01*
X170973Y842761D01*
X173239Y845027D01*
X176198Y846253D01*
X179402Y846253D01*
X182361Y845027D01*
X184627Y842761D01*
X185853Y839802D01*
X185853Y836598D01*
X184627Y833639D01*
X182361Y831373D01*
X179402Y830147D01*
X176198Y830147D01*
G37*
%LPD*%
%LPC*%
G36*
X252398Y753947D02*
X252398Y753947D01*
X249439Y755173D01*
X247173Y757439D01*
X245947Y760398D01*
X245947Y763602D01*
X247173Y766561D01*
X249439Y768827D01*
X252398Y770053D01*
X255602Y770053D01*
X258561Y768827D01*
X260827Y766561D01*
X262053Y763602D01*
X262053Y760398D01*
X260827Y757439D01*
X258561Y755173D01*
X255602Y753947D01*
X252398Y753947D01*
G37*
%LPD*%
%LPC*%
G36*
X252398Y220547D02*
X252398Y220547D01*
X249439Y221773D01*
X247173Y224039D01*
X245947Y226998D01*
X245947Y230202D01*
X247173Y233161D01*
X249439Y235427D01*
X252398Y236653D01*
X255602Y236653D01*
X258561Y235427D01*
X260827Y233161D01*
X262053Y230202D01*
X262053Y226998D01*
X260827Y224039D01*
X258561Y221773D01*
X255602Y220547D01*
X252398Y220547D01*
G37*
%LPD*%
%LPC*%
G36*
X176198Y220547D02*
X176198Y220547D01*
X173239Y221773D01*
X170973Y224039D01*
X169747Y226998D01*
X169747Y230202D01*
X170973Y233161D01*
X173239Y235427D01*
X176198Y236653D01*
X179402Y236653D01*
X182361Y235427D01*
X184627Y233161D01*
X185853Y230202D01*
X185853Y226998D01*
X184627Y224039D01*
X182361Y221773D01*
X179402Y220547D01*
X176198Y220547D01*
G37*
%LPD*%
%LPC*%
G36*
X252398Y195147D02*
X252398Y195147D01*
X249439Y196373D01*
X247173Y198639D01*
X245947Y201598D01*
X245947Y204802D01*
X247173Y207761D01*
X249439Y210027D01*
X252398Y211253D01*
X255602Y211253D01*
X258561Y210027D01*
X260827Y207761D01*
X262053Y204802D01*
X262053Y201598D01*
X260827Y198639D01*
X258561Y196373D01*
X255602Y195147D01*
X252398Y195147D01*
G37*
%LPD*%
%LPC*%
G36*
X176198Y195147D02*
X176198Y195147D01*
X173239Y196373D01*
X170973Y198639D01*
X169747Y201598D01*
X169747Y204802D01*
X170973Y207761D01*
X173239Y210027D01*
X176198Y211253D01*
X179402Y211253D01*
X182361Y210027D01*
X184627Y207761D01*
X185853Y204802D01*
X185853Y201598D01*
X184627Y198639D01*
X182361Y196373D01*
X179402Y195147D01*
X176198Y195147D01*
G37*
%LPD*%
%LPC*%
G36*
X252398Y169747D02*
X252398Y169747D01*
X249439Y170973D01*
X247173Y173239D01*
X245947Y176198D01*
X245947Y179402D01*
X247173Y182361D01*
X249439Y184627D01*
X252398Y185853D01*
X255602Y185853D01*
X258561Y184627D01*
X260827Y182361D01*
X262053Y179402D01*
X262053Y176198D01*
X260827Y173239D01*
X258561Y170973D01*
X255602Y169747D01*
X252398Y169747D01*
G37*
%LPD*%
%LPC*%
G36*
X176198Y169747D02*
X176198Y169747D01*
X173239Y170973D01*
X170973Y173239D01*
X169747Y176198D01*
X169747Y179402D01*
X170973Y182361D01*
X173239Y184627D01*
X176198Y185853D01*
X179402Y185853D01*
X182361Y184627D01*
X184627Y182361D01*
X185853Y179402D01*
X185853Y176198D01*
X184627Y173239D01*
X182361Y170973D01*
X179402Y169747D01*
X176198Y169747D01*
G37*
%LPD*%
%LPC*%
G36*
X176198Y753947D02*
X176198Y753947D01*
X173239Y755173D01*
X170973Y757439D01*
X169747Y760398D01*
X169747Y763602D01*
X170973Y766561D01*
X173239Y768827D01*
X176198Y770053D01*
X179402Y770053D01*
X182361Y768827D01*
X184627Y766561D01*
X185853Y763602D01*
X185853Y760398D01*
X184627Y757439D01*
X182361Y755173D01*
X179402Y753947D01*
X176198Y753947D01*
G37*
%LPD*%
%LPC*%
G36*
X252398Y728547D02*
X252398Y728547D01*
X249439Y729773D01*
X247173Y732039D01*
X245947Y734998D01*
X245947Y738202D01*
X247173Y741161D01*
X249439Y743427D01*
X252398Y744653D01*
X255602Y744653D01*
X258561Y743427D01*
X260827Y741161D01*
X262053Y738202D01*
X262053Y734998D01*
X260827Y732039D01*
X258561Y729773D01*
X255602Y728547D01*
X252398Y728547D01*
G37*
%LPD*%
%LPC*%
G36*
X176198Y728547D02*
X176198Y728547D01*
X173239Y729773D01*
X170973Y732039D01*
X169747Y734998D01*
X169747Y738202D01*
X170973Y741161D01*
X173239Y743427D01*
X176198Y744653D01*
X179402Y744653D01*
X182361Y743427D01*
X184627Y741161D01*
X185853Y738202D01*
X185853Y734998D01*
X184627Y732039D01*
X182361Y729773D01*
X179402Y728547D01*
X176198Y728547D01*
G37*
%LPD*%
%LPC*%
G36*
X252398Y703147D02*
X252398Y703147D01*
X249439Y704373D01*
X247173Y706639D01*
X245947Y709598D01*
X245947Y712802D01*
X247173Y715761D01*
X249439Y718027D01*
X252398Y719253D01*
X255602Y719253D01*
X258561Y718027D01*
X260827Y715761D01*
X262053Y712802D01*
X262053Y709598D01*
X260827Y706639D01*
X258561Y704373D01*
X255602Y703147D01*
X252398Y703147D01*
G37*
%LPD*%
%LPC*%
G36*
X252398Y93547D02*
X252398Y93547D01*
X249439Y94773D01*
X247173Y97039D01*
X245947Y99998D01*
X245947Y103202D01*
X247173Y106161D01*
X249439Y108427D01*
X252398Y109653D01*
X255602Y109653D01*
X258561Y108427D01*
X260827Y106161D01*
X262053Y103202D01*
X262053Y99998D01*
X260827Y97039D01*
X258561Y94773D01*
X255602Y93547D01*
X252398Y93547D01*
G37*
%LPD*%
%LPC*%
G36*
X176198Y93547D02*
X176198Y93547D01*
X173239Y94773D01*
X170973Y97039D01*
X169747Y99998D01*
X169747Y103202D01*
X170973Y106161D01*
X173239Y108427D01*
X176198Y109653D01*
X179402Y109653D01*
X182361Y108427D01*
X184627Y106161D01*
X185853Y103202D01*
X185853Y99998D01*
X184627Y97039D01*
X182361Y94773D01*
X179402Y93547D01*
X176198Y93547D01*
G37*
%LPD*%
%LPC*%
G36*
X252398Y68147D02*
X252398Y68147D01*
X249439Y69373D01*
X247173Y71639D01*
X245947Y74598D01*
X245947Y77802D01*
X247173Y80761D01*
X249439Y83027D01*
X252398Y84253D01*
X255602Y84253D01*
X258561Y83027D01*
X260827Y80761D01*
X262053Y77802D01*
X262053Y74598D01*
X260827Y71639D01*
X258561Y69373D01*
X255602Y68147D01*
X252398Y68147D01*
G37*
%LPD*%
%LPC*%
G36*
X176198Y68147D02*
X176198Y68147D01*
X173239Y69373D01*
X170973Y71639D01*
X169747Y74598D01*
X169747Y77802D01*
X170973Y80761D01*
X173239Y83027D01*
X176198Y84253D01*
X179402Y84253D01*
X182361Y83027D01*
X184627Y80761D01*
X185853Y77802D01*
X185853Y74598D01*
X184627Y71639D01*
X182361Y69373D01*
X179402Y68147D01*
X176198Y68147D01*
G37*
%LPD*%
%LPC*%
G36*
X176198Y703147D02*
X176198Y703147D01*
X173239Y704373D01*
X170973Y706639D01*
X169747Y709598D01*
X169747Y712802D01*
X170973Y715761D01*
X173239Y718027D01*
X176198Y719253D01*
X179402Y719253D01*
X182361Y718027D01*
X184627Y715761D01*
X185853Y712802D01*
X185853Y709598D01*
X184627Y706639D01*
X182361Y704373D01*
X179402Y703147D01*
X176198Y703147D01*
G37*
%LPD*%
%LPC*%
G36*
X176198Y42747D02*
X176198Y42747D01*
X173239Y43973D01*
X170973Y46239D01*
X169747Y49198D01*
X169747Y52402D01*
X170973Y55361D01*
X173239Y57627D01*
X176198Y58853D01*
X179402Y58853D01*
X182361Y57627D01*
X184627Y55361D01*
X185853Y52402D01*
X185853Y49198D01*
X184627Y46239D01*
X182361Y43973D01*
X179402Y42747D01*
X176198Y42747D01*
G37*
%LPD*%
%LPC*%
G36*
X252398Y42747D02*
X252398Y42747D01*
X249439Y43973D01*
X247173Y46239D01*
X245947Y49198D01*
X245947Y52402D01*
X247173Y55361D01*
X249439Y57627D01*
X252398Y58853D01*
X255602Y58853D01*
X258561Y57627D01*
X260827Y55361D01*
X262053Y52402D01*
X262053Y49198D01*
X260827Y46239D01*
X258561Y43973D01*
X255602Y42747D01*
X252398Y42747D01*
G37*
%LPD*%
%LPC*%
G36*
X531801Y794559D02*
X531801Y794559D01*
X528845Y795783D01*
X526583Y798045D01*
X525359Y801001D01*
X525359Y804199D01*
X526583Y807155D01*
X528845Y809417D01*
X531801Y810641D01*
X534999Y810641D01*
X537955Y809417D01*
X540217Y807155D01*
X541441Y804199D01*
X541441Y801001D01*
X540217Y798045D01*
X537955Y795783D01*
X534999Y794559D01*
X531801Y794559D01*
G37*
%LPD*%
%LPC*%
G36*
X531801Y713359D02*
X531801Y713359D01*
X528845Y714583D01*
X526583Y716845D01*
X525359Y719801D01*
X525359Y722999D01*
X526583Y725955D01*
X528845Y728217D01*
X531801Y729441D01*
X534999Y729441D01*
X537955Y728217D01*
X540217Y725955D01*
X541441Y722999D01*
X541441Y719801D01*
X540217Y716845D01*
X537955Y714583D01*
X534999Y713359D01*
X531801Y713359D01*
G37*
%LPD*%
%LPC*%
G36*
X377462Y604462D02*
X377462Y604462D01*
X377462Y610733D01*
X377796Y610667D01*
X379391Y610006D01*
X380827Y609047D01*
X382047Y607827D01*
X383006Y606391D01*
X383667Y604796D01*
X383733Y604462D01*
X377462Y604462D01*
G37*
%LPD*%
%LPC*%
G36*
X301262Y350462D02*
X301262Y350462D01*
X301262Y356733D01*
X301596Y356667D01*
X303191Y356006D01*
X304627Y355047D01*
X305847Y353827D01*
X306806Y352391D01*
X307467Y350796D01*
X307533Y350462D01*
X301262Y350462D01*
G37*
%LPD*%
%LPC*%
G36*
X301262Y579062D02*
X301262Y579062D01*
X301262Y585333D01*
X301596Y585267D01*
X303191Y584606D01*
X304627Y583647D01*
X305847Y582427D01*
X306806Y580991D01*
X307467Y579396D01*
X307533Y579062D01*
X301262Y579062D01*
G37*
%LPD*%
%LPC*%
G36*
X377462Y579062D02*
X377462Y579062D01*
X377462Y585333D01*
X377796Y585267D01*
X379391Y584606D01*
X380827Y583647D01*
X382047Y582427D01*
X383006Y580991D01*
X383667Y579396D01*
X383733Y579062D01*
X377462Y579062D01*
G37*
%LPD*%
%LPC*%
G36*
X377462Y350462D02*
X377462Y350462D01*
X377462Y356733D01*
X377796Y356667D01*
X379391Y356006D01*
X380827Y355047D01*
X382047Y353827D01*
X383006Y352391D01*
X383667Y350796D01*
X383733Y350462D01*
X377462Y350462D01*
G37*
%LPD*%
%LPC*%
G36*
X377462Y346018D02*
X377462Y346018D01*
X383733Y346018D01*
X383667Y345684D01*
X383006Y344089D01*
X382047Y342653D01*
X380827Y341433D01*
X379391Y340474D01*
X377796Y339813D01*
X377462Y339747D01*
X377462Y346018D01*
G37*
%LPD*%
%LPC*%
G36*
X366747Y604462D02*
X366747Y604462D01*
X366813Y604796D01*
X367474Y606391D01*
X368433Y607827D01*
X369653Y609047D01*
X371089Y610006D01*
X372684Y610667D01*
X373018Y610733D01*
X373018Y604462D01*
X366747Y604462D01*
G37*
%LPD*%
%LPC*%
G36*
X377462Y574618D02*
X377462Y574618D01*
X383733Y574618D01*
X383667Y574284D01*
X383006Y572689D01*
X382047Y571253D01*
X380827Y570033D01*
X379391Y569074D01*
X377796Y568413D01*
X377462Y568347D01*
X377462Y574618D01*
G37*
%LPD*%
%LPC*%
G36*
X301262Y574618D02*
X301262Y574618D01*
X307533Y574618D01*
X307467Y574284D01*
X306806Y572689D01*
X305847Y571253D01*
X304627Y570033D01*
X303191Y569074D01*
X301596Y568413D01*
X301262Y568347D01*
X301262Y574618D01*
G37*
%LPD*%
%LPC*%
G36*
X290547Y579062D02*
X290547Y579062D01*
X290613Y579396D01*
X291274Y580991D01*
X292233Y582427D01*
X293453Y583647D01*
X294889Y584606D01*
X296484Y585267D01*
X296818Y585333D01*
X296818Y579062D01*
X290547Y579062D01*
G37*
%LPD*%
%LPC*%
G36*
X366747Y579062D02*
X366747Y579062D01*
X366813Y579396D01*
X367474Y580991D01*
X368433Y582427D01*
X369653Y583647D01*
X371089Y584606D01*
X372684Y585267D01*
X373018Y585333D01*
X373018Y579062D01*
X366747Y579062D01*
G37*
%LPD*%
%LPC*%
G36*
X377462Y600018D02*
X377462Y600018D01*
X383733Y600018D01*
X383667Y599684D01*
X383006Y598089D01*
X382047Y596653D01*
X380827Y595433D01*
X379391Y594474D01*
X377796Y593813D01*
X377462Y593747D01*
X377462Y600018D01*
G37*
%LPD*%
%LPC*%
G36*
X290547Y350462D02*
X290547Y350462D01*
X290613Y350796D01*
X291274Y352391D01*
X292233Y353827D01*
X293453Y355047D01*
X294889Y356006D01*
X296484Y356667D01*
X296818Y356733D01*
X296818Y350462D01*
X290547Y350462D01*
G37*
%LPD*%
%LPC*%
G36*
X366747Y350462D02*
X366747Y350462D01*
X366813Y350796D01*
X367474Y352391D01*
X368433Y353827D01*
X369653Y355047D01*
X371089Y356006D01*
X372684Y356667D01*
X373018Y356733D01*
X373018Y350462D01*
X366747Y350462D01*
G37*
%LPD*%
%LPC*%
G36*
X301262Y346018D02*
X301262Y346018D01*
X307533Y346018D01*
X307467Y345684D01*
X306806Y344089D01*
X305847Y342653D01*
X304627Y341433D01*
X303191Y340474D01*
X301596Y339813D01*
X301262Y339747D01*
X301262Y346018D01*
G37*
%LPD*%
%LPC*%
G36*
X372684Y339813D02*
X372684Y339813D01*
X371089Y340474D01*
X369653Y341433D01*
X368433Y342653D01*
X367474Y344089D01*
X366813Y345684D01*
X366747Y346018D01*
X373018Y346018D01*
X373018Y339747D01*
X372684Y339813D01*
G37*
%LPD*%
%LPC*%
G36*
X372684Y568413D02*
X372684Y568413D01*
X371089Y569074D01*
X369653Y570033D01*
X368433Y571253D01*
X367474Y572689D01*
X366813Y574284D01*
X366747Y574618D01*
X373018Y574618D01*
X373018Y568347D01*
X372684Y568413D01*
G37*
%LPD*%
%LPC*%
G36*
X372684Y593813D02*
X372684Y593813D01*
X371089Y594474D01*
X369653Y595433D01*
X368433Y596653D01*
X367474Y598089D01*
X366813Y599684D01*
X366747Y600018D01*
X373018Y600018D01*
X373018Y593747D01*
X372684Y593813D01*
G37*
%LPD*%
%LPC*%
G36*
X296484Y568413D02*
X296484Y568413D01*
X294889Y569074D01*
X293453Y570033D01*
X292233Y571253D01*
X291274Y572689D01*
X290613Y574284D01*
X290547Y574618D01*
X296818Y574618D01*
X296818Y568347D01*
X296484Y568413D01*
G37*
%LPD*%
%LPC*%
G36*
X296484Y339813D02*
X296484Y339813D01*
X294889Y340474D01*
X293453Y341433D01*
X292233Y342653D01*
X291274Y344089D01*
X290613Y345684D01*
X290547Y346018D01*
X296818Y346018D01*
X296818Y339747D01*
X296484Y339813D01*
G37*
%LPD*%
%LPC*%
G36*
X179768Y789368D02*
X179768Y789368D01*
X179768Y795219D01*
X180149Y795143D01*
X181614Y794536D01*
X182933Y793655D01*
X184055Y792533D01*
X184936Y791214D01*
X185543Y789749D01*
X185619Y789368D01*
X179768Y789368D01*
G37*
%LPD*%
%LPC*%
G36*
X255968Y128968D02*
X255968Y128968D01*
X255968Y134819D01*
X256349Y134743D01*
X257814Y134136D01*
X259133Y133255D01*
X260255Y132133D01*
X261136Y130814D01*
X261743Y129349D01*
X261819Y128968D01*
X255968Y128968D01*
G37*
%LPD*%
%LPC*%
G36*
X255968Y154368D02*
X255968Y154368D01*
X255968Y160219D01*
X256349Y160143D01*
X257814Y159536D01*
X259133Y158655D01*
X260255Y157533D01*
X261136Y156214D01*
X261743Y154749D01*
X261819Y154368D01*
X255968Y154368D01*
G37*
%LPD*%
%LPC*%
G36*
X179768Y814768D02*
X179768Y814768D01*
X179768Y820619D01*
X180149Y820543D01*
X181614Y819936D01*
X182933Y819055D01*
X184055Y817933D01*
X184936Y816614D01*
X185543Y815149D01*
X185619Y814768D01*
X179768Y814768D01*
G37*
%LPD*%
%LPC*%
G36*
X255968Y814768D02*
X255968Y814768D01*
X255968Y820619D01*
X256349Y820543D01*
X257814Y819936D01*
X259133Y819055D01*
X260255Y817933D01*
X261136Y816614D01*
X261743Y815149D01*
X261819Y814768D01*
X255968Y814768D01*
G37*
%LPD*%
%LPC*%
G36*
X179768Y154368D02*
X179768Y154368D01*
X179768Y160219D01*
X180149Y160143D01*
X181614Y159536D01*
X182933Y158655D01*
X184055Y157533D01*
X184936Y156214D01*
X185543Y154749D01*
X185619Y154368D01*
X179768Y154368D01*
G37*
%LPD*%
%LPC*%
G36*
X179768Y128968D02*
X179768Y128968D01*
X179768Y134819D01*
X180149Y134743D01*
X181614Y134136D01*
X182933Y133255D01*
X184055Y132133D01*
X184936Y130814D01*
X185543Y129349D01*
X185619Y128968D01*
X179768Y128968D01*
G37*
%LPD*%
%LPC*%
G36*
X255968Y789368D02*
X255968Y789368D01*
X255968Y795219D01*
X256349Y795143D01*
X257814Y794536D01*
X259133Y793655D01*
X260255Y792533D01*
X261136Y791214D01*
X261743Y789749D01*
X261819Y789368D01*
X255968Y789368D01*
G37*
%LPD*%
%LPC*%
G36*
X255968Y150432D02*
X255968Y150432D01*
X261819Y150432D01*
X261743Y150051D01*
X261136Y148586D01*
X260255Y147267D01*
X259133Y146145D01*
X257814Y145264D01*
X256349Y144657D01*
X255968Y144581D01*
X255968Y150432D01*
G37*
%LPD*%
%LPC*%
G36*
X255968Y785432D02*
X255968Y785432D01*
X261819Y785432D01*
X261743Y785051D01*
X261136Y783586D01*
X260255Y782267D01*
X259133Y781145D01*
X257814Y780264D01*
X256349Y779657D01*
X255968Y779581D01*
X255968Y785432D01*
G37*
%LPD*%
%LPC*%
G36*
X169981Y128968D02*
X169981Y128968D01*
X170057Y129349D01*
X170664Y130814D01*
X171545Y132133D01*
X172667Y133255D01*
X173986Y134136D01*
X175451Y134743D01*
X175832Y134819D01*
X175832Y128968D01*
X169981Y128968D01*
G37*
%LPD*%
%LPC*%
G36*
X246181Y789368D02*
X246181Y789368D01*
X246257Y789749D01*
X246864Y791214D01*
X247745Y792533D01*
X248867Y793655D01*
X250186Y794536D01*
X251651Y795143D01*
X252032Y795219D01*
X252032Y789368D01*
X246181Y789368D01*
G37*
%LPD*%
%LPC*%
G36*
X246181Y128968D02*
X246181Y128968D01*
X246257Y129349D01*
X246864Y130814D01*
X247745Y132133D01*
X248867Y133255D01*
X250186Y134136D01*
X251651Y134743D01*
X252032Y134819D01*
X252032Y128968D01*
X246181Y128968D01*
G37*
%LPD*%
%LPC*%
G36*
X169981Y789368D02*
X169981Y789368D01*
X170057Y789749D01*
X170664Y791214D01*
X171545Y792533D01*
X172667Y793655D01*
X173986Y794536D01*
X175451Y795143D01*
X175832Y795219D01*
X175832Y789368D01*
X169981Y789368D01*
G37*
%LPD*%
%LPC*%
G36*
X255968Y125032D02*
X255968Y125032D01*
X261819Y125032D01*
X261743Y124651D01*
X261136Y123186D01*
X260255Y121867D01*
X259133Y120745D01*
X257814Y119864D01*
X256349Y119257D01*
X255968Y119181D01*
X255968Y125032D01*
G37*
%LPD*%
%LPC*%
G36*
X179768Y125032D02*
X179768Y125032D01*
X185619Y125032D01*
X185543Y124651D01*
X184936Y123186D01*
X184055Y121867D01*
X182933Y120745D01*
X181614Y119864D01*
X180149Y119257D01*
X179768Y119181D01*
X179768Y125032D01*
G37*
%LPD*%
%LPC*%
G36*
X179768Y810832D02*
X179768Y810832D01*
X185619Y810832D01*
X185543Y810451D01*
X184936Y808986D01*
X184055Y807667D01*
X182933Y806545D01*
X181614Y805664D01*
X180149Y805057D01*
X179768Y804981D01*
X179768Y810832D01*
G37*
%LPD*%
%LPC*%
G36*
X179768Y785432D02*
X179768Y785432D01*
X185619Y785432D01*
X185543Y785051D01*
X184936Y783586D01*
X184055Y782267D01*
X182933Y781145D01*
X181614Y780264D01*
X180149Y779657D01*
X179768Y779581D01*
X179768Y785432D01*
G37*
%LPD*%
%LPC*%
G36*
X169981Y814768D02*
X169981Y814768D01*
X170057Y815149D01*
X170664Y816614D01*
X171545Y817933D01*
X172667Y819055D01*
X173986Y819936D01*
X175451Y820543D01*
X175832Y820619D01*
X175832Y814768D01*
X169981Y814768D01*
G37*
%LPD*%
%LPC*%
G36*
X246181Y814768D02*
X246181Y814768D01*
X246257Y815149D01*
X246864Y816614D01*
X247745Y817933D01*
X248867Y819055D01*
X250186Y819936D01*
X251651Y820543D01*
X252032Y820619D01*
X252032Y814768D01*
X246181Y814768D01*
G37*
%LPD*%
%LPC*%
G36*
X255968Y810832D02*
X255968Y810832D01*
X261819Y810832D01*
X261743Y810451D01*
X261136Y808986D01*
X260255Y807667D01*
X259133Y806545D01*
X257814Y805664D01*
X256349Y805057D01*
X255968Y804981D01*
X255968Y810832D01*
G37*
%LPD*%
%LPC*%
G36*
X169981Y154368D02*
X169981Y154368D01*
X170057Y154749D01*
X170664Y156214D01*
X171545Y157533D01*
X172667Y158655D01*
X173986Y159536D01*
X175451Y160143D01*
X175832Y160219D01*
X175832Y154368D01*
X169981Y154368D01*
G37*
%LPD*%
%LPC*%
G36*
X246181Y154368D02*
X246181Y154368D01*
X246257Y154749D01*
X246864Y156214D01*
X247745Y157533D01*
X248867Y158655D01*
X250186Y159536D01*
X251651Y160143D01*
X252032Y160219D01*
X252032Y154368D01*
X246181Y154368D01*
G37*
%LPD*%
%LPC*%
G36*
X179768Y150432D02*
X179768Y150432D01*
X185619Y150432D01*
X185543Y150051D01*
X184936Y148586D01*
X184055Y147267D01*
X182933Y146145D01*
X181614Y145264D01*
X180149Y144657D01*
X179768Y144581D01*
X179768Y150432D01*
G37*
%LPD*%
%LPC*%
G36*
X175451Y779657D02*
X175451Y779657D01*
X173986Y780264D01*
X172667Y781145D01*
X171545Y782267D01*
X170664Y783586D01*
X170057Y785051D01*
X169981Y785432D01*
X175832Y785432D01*
X175832Y779581D01*
X175451Y779657D01*
G37*
%LPD*%
%LPC*%
G36*
X251651Y144657D02*
X251651Y144657D01*
X250186Y145264D01*
X248867Y146145D01*
X247745Y147267D01*
X246864Y148586D01*
X246257Y150051D01*
X246181Y150432D01*
X252032Y150432D01*
X252032Y144581D01*
X251651Y144657D01*
G37*
%LPD*%
%LPC*%
G36*
X251651Y805057D02*
X251651Y805057D01*
X250186Y805664D01*
X248867Y806545D01*
X247745Y807667D01*
X246864Y808986D01*
X246257Y810451D01*
X246181Y810832D01*
X252032Y810832D01*
X252032Y804981D01*
X251651Y805057D01*
G37*
%LPD*%
%LPC*%
G36*
X175451Y144657D02*
X175451Y144657D01*
X173986Y145264D01*
X172667Y146145D01*
X171545Y147267D01*
X170664Y148586D01*
X170057Y150051D01*
X169981Y150432D01*
X175832Y150432D01*
X175832Y144581D01*
X175451Y144657D01*
G37*
%LPD*%
%LPC*%
G36*
X251651Y779657D02*
X251651Y779657D01*
X250186Y780264D01*
X248867Y781145D01*
X247745Y782267D01*
X246864Y783586D01*
X246257Y785051D01*
X246181Y785432D01*
X252032Y785432D01*
X252032Y779581D01*
X251651Y779657D01*
G37*
%LPD*%
%LPC*%
G36*
X251651Y119257D02*
X251651Y119257D01*
X250186Y119864D01*
X248867Y120745D01*
X247745Y121867D01*
X246864Y123186D01*
X246257Y124651D01*
X246181Y125032D01*
X252032Y125032D01*
X252032Y119181D01*
X251651Y119257D01*
G37*
%LPD*%
%LPC*%
G36*
X175451Y805057D02*
X175451Y805057D01*
X173986Y805664D01*
X172667Y806545D01*
X171545Y807667D01*
X170664Y808986D01*
X170057Y810451D01*
X169981Y810832D01*
X175832Y810832D01*
X175832Y804981D01*
X175451Y805057D01*
G37*
%LPD*%
%LPC*%
G36*
X175451Y119257D02*
X175451Y119257D01*
X173986Y119864D01*
X172667Y120745D01*
X171545Y121867D01*
X170664Y123186D01*
X170057Y124651D01*
X169981Y125032D01*
X175832Y125032D01*
X175832Y119181D01*
X175451Y119257D01*
G37*
%LPD*%
D10*
X553040Y602240D03*
X553040Y576840D03*
X527640Y602240D03*
X527640Y576840D03*
X502240Y602240D03*
X502240Y576840D03*
X476840Y602240D03*
X476840Y576840D03*
X451440Y602240D03*
X451440Y576840D03*
X426040Y602240D03*
X426040Y576840D03*
X400640Y602240D03*
X400640Y576840D03*
X375240Y602240D03*
X375240Y576840D03*
X349840Y602240D03*
X349840Y576840D03*
X324440Y602240D03*
X324440Y576840D03*
X299040Y602240D03*
X299040Y576840D03*
X273640Y602240D03*
X273640Y576840D03*
X248240Y602240D03*
X248240Y576840D03*
X222840Y602240D03*
X222840Y576840D03*
X197440Y602240D03*
X197440Y576840D03*
X172040Y602240D03*
X172040Y576840D03*
X146640Y602240D03*
X146640Y576840D03*
X121240Y602240D03*
X121240Y576840D03*
X553040Y348240D03*
X553040Y322840D03*
X527640Y348240D03*
X527640Y322840D03*
X502240Y348240D03*
X502240Y322840D03*
X476840Y348240D03*
X476840Y322840D03*
X451440Y348240D03*
X451440Y322840D03*
X426040Y348240D03*
X426040Y322840D03*
X400640Y348240D03*
X400640Y322840D03*
X375240Y348240D03*
X375240Y322840D03*
X349840Y348240D03*
X349840Y322840D03*
X324440Y348240D03*
X324440Y322840D03*
X299040Y348240D03*
X299040Y322840D03*
X273640Y348240D03*
X273640Y322840D03*
X248240Y348240D03*
X248240Y322840D03*
X222840Y348240D03*
X222840Y322840D03*
X197440Y348240D03*
X197440Y322840D03*
X172040Y348240D03*
X172040Y322840D03*
X146640Y348240D03*
X146640Y322840D03*
X121240Y348240D03*
X121240Y322840D03*
X304800Y812800D03*
X304800Y787400D03*
X127000Y127000D03*
X127000Y152400D03*
X304800Y127000D03*
X304800Y152400D03*
X127000Y812800D03*
X127000Y787400D03*
D11*
X254000Y50800D03*
X254000Y76200D03*
X254000Y101600D03*
X254000Y127000D03*
X254000Y152400D03*
X254000Y177800D03*
X254000Y203200D03*
X254000Y228600D03*
X177800Y228600D03*
X177800Y203200D03*
X177800Y177800D03*
X177800Y152400D03*
X177800Y127000D03*
X177800Y101600D03*
X177800Y76200D03*
X177800Y50800D03*
X177800Y889000D03*
X177800Y863600D03*
X177800Y838200D03*
X177800Y812800D03*
X177800Y787400D03*
X177800Y762000D03*
X177800Y736600D03*
X177800Y711200D03*
X254000Y711200D03*
X254000Y736600D03*
X254000Y762000D03*
X254000Y787400D03*
X254000Y812800D03*
X254000Y838200D03*
X254000Y863600D03*
X254000Y889000D03*
D12*
X38100Y38100D03*
X596900Y38100D03*
X596900Y901700D03*
X38100Y901700D03*
D13*
X269240Y127000D03*
X269240Y152400D03*
X165100Y152400D03*
X165100Y127000D03*
X165100Y787400D03*
D14*
X165100Y812800D02*
X177800Y812800D01*
D13*
X165100Y812800D03*
D14*
X254000Y812800D02*
X266700Y812800D01*
D13*
X266700Y812800D03*
X266700Y787400D03*
X492760Y665480D03*
X492760Y861060D03*
M02*
