G04 EAGLE Gerber RS-274X export*
G75*
%MOMM*%
%FSLAX34Y34*%
%LPD*%
%IN*%
%IPPOS*%
%AMOC8*
5,1,8,0,0,1.08239X$1,22.5*%
G01*
%ADD10C,0.254000*%


D10*
X0Y0D02*
X635000Y0D01*
X635000Y939800D01*
X0Y939800D01*
X0Y0D01*
X533709Y726900D02*
X534323Y726831D01*
X534925Y726693D01*
X535508Y726489D01*
X536065Y726221D01*
X536588Y725893D01*
X537071Y725508D01*
X537508Y725071D01*
X537893Y724588D01*
X538221Y724065D01*
X538489Y723508D01*
X538693Y722925D01*
X538831Y722323D01*
X538900Y721709D01*
X538900Y721091D01*
X538831Y720477D01*
X538693Y719875D01*
X538489Y719292D01*
X538221Y718735D01*
X537893Y718212D01*
X537508Y717729D01*
X537071Y717293D01*
X536588Y716907D01*
X536065Y716579D01*
X535508Y716311D01*
X534925Y716107D01*
X534323Y715969D01*
X533709Y715900D01*
X533091Y715900D01*
X532477Y715969D01*
X531875Y716107D01*
X531292Y716311D01*
X530735Y716579D01*
X530212Y716907D01*
X529729Y717293D01*
X529293Y717729D01*
X528907Y718212D01*
X528579Y718735D01*
X528311Y719292D01*
X528107Y719875D01*
X527969Y720477D01*
X527900Y721091D01*
X527900Y721709D01*
X527969Y722323D01*
X528107Y722925D01*
X528311Y723508D01*
X528579Y724065D01*
X528907Y724588D01*
X529293Y725071D01*
X529729Y725508D01*
X530212Y725893D01*
X530735Y726221D01*
X531292Y726489D01*
X531875Y726693D01*
X532477Y726831D01*
X533091Y726900D01*
X533709Y726900D01*
X533709Y808100D02*
X534323Y808031D01*
X534925Y807893D01*
X535508Y807689D01*
X536065Y807421D01*
X536588Y807093D01*
X537071Y806708D01*
X537508Y806271D01*
X537893Y805788D01*
X538221Y805265D01*
X538489Y804708D01*
X538693Y804125D01*
X538831Y803523D01*
X538900Y802909D01*
X538900Y802291D01*
X538831Y801677D01*
X538693Y801075D01*
X538489Y800492D01*
X538221Y799935D01*
X537893Y799412D01*
X537508Y798929D01*
X537071Y798493D01*
X536588Y798107D01*
X536065Y797779D01*
X535508Y797511D01*
X534925Y797307D01*
X534323Y797169D01*
X533709Y797100D01*
X533091Y797100D01*
X532477Y797169D01*
X531875Y797307D01*
X531292Y797511D01*
X530735Y797779D01*
X530212Y798107D01*
X529729Y798493D01*
X529293Y798929D01*
X528907Y799412D01*
X528579Y799935D01*
X528311Y800492D01*
X528107Y801075D01*
X527969Y801677D01*
X527900Y802291D01*
X527900Y802909D01*
X527969Y803523D01*
X528107Y804125D01*
X528311Y804708D01*
X528579Y805265D01*
X528907Y805788D01*
X529293Y806271D01*
X529729Y806708D01*
X530212Y807093D01*
X530735Y807421D01*
X531292Y807689D01*
X531875Y807893D01*
X532477Y808031D01*
X533091Y808100D01*
X533709Y808100D01*
M02*
