G04 EAGLE Gerber RS-274X export*
G75*
%MOMM*%
%FSLAX34Y34*%
%LPD*%
%INSilkscreen Top*%
%IPPOS*%
%AMOC8*
5,1,8,0,0,1.08239X$1,22.5*%
G01*
%ADD10C,0.152400*%
%ADD11R,0.678181X0.084838*%
%ADD12R,1.353819X0.084581*%
%ADD13R,1.694181X0.084581*%
%ADD14R,2.202181X0.084838*%
%ADD15R,2.540000X0.084581*%
%ADD16R,2.877819X0.084581*%
%ADD17R,3.218181X0.084838*%
%ADD18R,3.556000X0.084581*%
%ADD19R,3.726181X0.084581*%
%ADD20R,4.064000X0.084838*%
%ADD21R,4.401819X0.084581*%
%ADD22R,4.572000X0.084581*%
%ADD23R,4.909819X0.084838*%
%ADD24R,5.080000X0.084581*%
%ADD25R,5.417819X0.084581*%
%ADD26R,5.588000X0.084838*%
%ADD27R,5.758181X0.084581*%
%ADD28R,6.096000X0.084581*%
%ADD29R,6.266181X0.084838*%
%ADD30R,2.623819X0.084581*%
%ADD31R,0.083819X0.084581*%
%ADD32R,2.794000X0.084581*%
%ADD33R,2.707638X0.084581*%
%ADD34R,3.131819X0.084838*%
%ADD35R,0.340363X0.084838*%
%ADD36R,2.880362X0.084838*%
%ADD37R,3.302000X0.084581*%
%ADD38R,0.254000X0.084581*%
%ADD39R,0.421637X0.084581*%
%ADD40R,2.202181X0.084581*%
%ADD41R,3.472181X0.084581*%
%ADD42R,0.337819X0.084581*%
%ADD43R,2.286000X0.084581*%
%ADD44R,3.556000X0.084838*%
%ADD45R,0.337819X0.084838*%
%ADD46R,0.083819X0.084838*%
%ADD47R,0.254000X0.084838*%
%ADD48R,1.778000X0.084838*%
%ADD49R,4.318000X0.084581*%
%ADD50R,0.170181X0.084581*%
%ADD51R,1.945638X0.084581*%
%ADD52R,3.810000X0.084581*%
%ADD53R,0.086363X0.084581*%
%ADD54R,2.032000X0.084581*%
%ADD55R,3.810000X0.084838*%
%ADD56R,0.086363X0.084838*%
%ADD57R,0.170181X0.084838*%
%ADD58R,2.286000X0.084838*%
%ADD59R,0.167637X0.084581*%
%ADD60R,0.167637X0.084838*%
%ADD61R,2.372362X0.084838*%
%ADD62R,3.639819X0.084581*%
%ADD63R,3.642363X0.084838*%
%ADD64R,2.877819X0.084838*%
%ADD65R,2.964181X0.084581*%
%ADD66R,3.723638X0.084581*%
%ADD67R,3.131819X0.084581*%
%ADD68R,3.639819X0.084838*%
%ADD69R,0.424181X0.084581*%
%ADD70R,3.218181X0.084581*%
%ADD71R,2.710181X0.084581*%
%ADD72R,2.964181X0.084838*%
%ADD73R,2.626362X0.084838*%
%ADD74R,2.880362X0.084581*%
%ADD75R,2.710181X0.084838*%
%ADD76R,2.456181X0.084838*%
%ADD77R,2.626362X0.084581*%
%ADD78R,2.453638X0.084581*%
%ADD79R,2.456181X0.084581*%
%ADD80R,0.340363X0.084581*%
%ADD81R,0.594363X0.084838*%
%ADD82R,0.508000X0.084838*%
%ADD83R,2.369819X0.084581*%
%ADD84R,0.424181X0.084838*%
%ADD85R,0.591819X0.084581*%
%ADD86R,0.678181X0.084581*%
%ADD87R,0.675638X0.084581*%
%ADD88R,2.115819X0.084581*%
%ADD89R,0.675638X0.084838*%
%ADD90R,2.032000X0.084838*%
%ADD91R,0.848363X0.084581*%
%ADD92R,1.778000X0.084581*%
%ADD93R,0.845819X0.084581*%
%ADD94R,0.932181X0.084581*%
%ADD95R,1.948181X0.084581*%
%ADD96R,0.929638X0.084581*%
%ADD97R,1.099819X0.084838*%
%ADD98R,1.524000X0.084838*%
%ADD99R,1.694181X0.084838*%
%ADD100R,1.102363X0.084838*%
%ADD101R,1.186181X0.084581*%
%ADD102R,1.440181X0.084581*%
%ADD103R,1.691638X0.084581*%
%ADD104R,1.607819X0.084581*%
%ADD105R,0.845819X0.084838*%
%ADD106R,1.270000X0.084838*%
%ADD107R,0.848363X0.084838*%
%ADD108R,1.270000X0.084581*%
%ADD109R,1.524000X0.084581*%
%ADD110R,4.234181X0.084581*%
%ADD111R,3.893819X0.084581*%
%ADD112R,3.385819X0.084581*%
%ADD113R,3.048000X0.084838*%
%ADD114R,2.540000X0.084838*%
%ADD115R,0.594363X0.084581*%
%ADD116R,0.762000X0.084838*%
%ADD117R,1.861819X0.084581*%
%ADD118R,1.016000X0.084581*%
%ADD119R,1.183638X0.084581*%
%ADD120R,1.440181X0.084838*%
%ADD121R,1.016000X0.084838*%
%ADD122R,1.437638X0.084838*%
%ADD123R,1.610363X0.084581*%
%ADD124R,1.691638X0.084838*%
%ADD125R,1.864363X0.084581*%
%ADD126R,1.948181X0.084838*%
%ADD127R,1.945638X0.084838*%
%ADD128R,2.372362X0.084581*%
%ADD129R,2.794000X0.084838*%
%ADD130R,3.134362X0.084581*%
%ADD131R,3.302000X0.084838*%
%ADD132R,3.388362X0.084581*%
%ADD133R,3.893819X0.084838*%
%ADD134R,3.896363X0.084838*%
%ADD135R,3.980181X0.084581*%
%ADD136R,4.064000X0.084581*%
%ADD137R,4.147819X0.084838*%
%ADD138R,1.186181X0.084838*%
%ADD139R,4.150362X0.084838*%
%ADD140R,4.401819X0.084838*%
%ADD141R,4.404363X0.084838*%
%ADD142R,4.488181X0.084581*%
%ADD143R,0.508000X0.084581*%
%ADD144R,1.861819X0.084838*%
%ADD145R,1.607819X0.084838*%
%ADD146R,0.762000X0.084581*%
%ADD147R,2.369819X0.084838*%
%ADD148R,1.102363X0.084581*%
%ADD149R,1.356363X0.084838*%
%ADD150R,1.356363X0.084581*%
%ADD151R,2.115819X0.084838*%
%ADD152R,1.353819X0.084838*%
%ADD153R,4.826000X0.084838*%
%ADD154R,4.826000X0.084581*%
%ADD155R,4.912363X0.084581*%
%ADD156R,4.993638X0.084581*%
%ADD157R,5.080000X0.084838*%
%ADD158R,0.591819X0.084838*%
%ADD159R,5.588000X0.084581*%
%ADD160R,5.504181X0.084581*%
%ADD161R,5.334000X0.084838*%
%ADD162R,5.163819X0.084581*%
%ADD163R,1.099819X0.084581*%
%ADD164R,1.864363X0.084838*%
%ADD165R,5.420363X0.084581*%
%ADD166R,4.996181X0.084838*%
%ADD167R,4.996181X0.084581*%
%ADD168R,5.247638X0.084581*%
%ADD169R,5.842000X0.084581*%
%ADD170R,2.118362X0.084838*%
%ADD171R,12.870181X0.084581*%
%ADD172R,12.700000X0.084838*%
%ADD173R,12.700000X0.084581*%
%ADD174R,12.529819X0.084581*%
%ADD175R,12.192000X0.084838*%
%ADD176R,11.684000X0.084581*%
%ADD177R,11.005819X0.084581*%
%ADD178R,10.330181X0.084838*%
%ADD179R,9.652000X0.084581*%
%ADD180R,8.806181X0.084581*%
%ADD181R,7.957819X0.084838*%
%ADD182R,7.112000X0.084581*%
%ADD183R,5.925819X0.084581*%
%ADD184R,4.572000X0.084838*%
%ADD185R,0.508000X0.508000*%
%ADD186C,0.254000*%
%ADD187C,0.127000*%
%ADD188C,0.200000*%
%ADD189C,0.101600*%
%ADD190C,0.076200*%


D10*
X432562Y253238D02*
X436287Y242062D01*
X440013Y253238D01*
X444472Y247029D02*
X444472Y244546D01*
X444471Y247029D02*
X444473Y247128D01*
X444479Y247226D01*
X444489Y247325D01*
X444502Y247422D01*
X444520Y247520D01*
X444541Y247616D01*
X444567Y247712D01*
X444596Y247806D01*
X444628Y247899D01*
X444665Y247991D01*
X444705Y248081D01*
X444749Y248170D01*
X444796Y248257D01*
X444846Y248342D01*
X444900Y248424D01*
X444957Y248505D01*
X445017Y248583D01*
X445081Y248659D01*
X445147Y248732D01*
X445216Y248803D01*
X445288Y248871D01*
X445363Y248935D01*
X445440Y248997D01*
X445519Y249056D01*
X445601Y249111D01*
X445685Y249164D01*
X445770Y249212D01*
X445858Y249258D01*
X445948Y249300D01*
X446039Y249338D01*
X446131Y249372D01*
X446225Y249403D01*
X446320Y249430D01*
X446416Y249454D01*
X446513Y249473D01*
X446610Y249489D01*
X446708Y249501D01*
X446807Y249509D01*
X446906Y249513D01*
X447004Y249513D01*
X447103Y249509D01*
X447202Y249501D01*
X447300Y249489D01*
X447397Y249473D01*
X447494Y249454D01*
X447590Y249430D01*
X447685Y249403D01*
X447779Y249372D01*
X447871Y249338D01*
X447962Y249300D01*
X448052Y249258D01*
X448140Y249212D01*
X448225Y249164D01*
X448309Y249111D01*
X448391Y249056D01*
X448470Y248997D01*
X448547Y248935D01*
X448622Y248871D01*
X448694Y248803D01*
X448763Y248732D01*
X448829Y248659D01*
X448893Y248583D01*
X448953Y248505D01*
X449010Y248424D01*
X449064Y248342D01*
X449114Y248257D01*
X449161Y248170D01*
X449205Y248081D01*
X449245Y247991D01*
X449282Y247899D01*
X449314Y247806D01*
X449343Y247712D01*
X449369Y247616D01*
X449390Y247520D01*
X449408Y247422D01*
X449421Y247325D01*
X449431Y247226D01*
X449437Y247128D01*
X449439Y247029D01*
X449439Y244546D01*
X449437Y244447D01*
X449431Y244349D01*
X449421Y244250D01*
X449408Y244153D01*
X449390Y244055D01*
X449369Y243959D01*
X449343Y243863D01*
X449314Y243769D01*
X449282Y243676D01*
X449245Y243584D01*
X449205Y243494D01*
X449161Y243405D01*
X449114Y243318D01*
X449064Y243233D01*
X449010Y243151D01*
X448953Y243070D01*
X448893Y242992D01*
X448829Y242916D01*
X448763Y242843D01*
X448694Y242772D01*
X448622Y242704D01*
X448547Y242640D01*
X448470Y242578D01*
X448391Y242519D01*
X448309Y242464D01*
X448225Y242411D01*
X448140Y242363D01*
X448052Y242317D01*
X447962Y242275D01*
X447871Y242237D01*
X447779Y242203D01*
X447685Y242172D01*
X447590Y242145D01*
X447494Y242121D01*
X447397Y242102D01*
X447300Y242086D01*
X447202Y242074D01*
X447103Y242066D01*
X447004Y242062D01*
X446906Y242062D01*
X446807Y242066D01*
X446708Y242074D01*
X446610Y242086D01*
X446513Y242102D01*
X446416Y242121D01*
X446320Y242145D01*
X446225Y242172D01*
X446131Y242203D01*
X446039Y242237D01*
X445948Y242275D01*
X445858Y242317D01*
X445770Y242363D01*
X445685Y242411D01*
X445601Y242464D01*
X445519Y242519D01*
X445440Y242578D01*
X445363Y242640D01*
X445288Y242704D01*
X445216Y242772D01*
X445147Y242843D01*
X445081Y242916D01*
X445017Y242992D01*
X444957Y243070D01*
X444900Y243151D01*
X444846Y243233D01*
X444796Y243318D01*
X444749Y243405D01*
X444705Y243494D01*
X444665Y243584D01*
X444628Y243676D01*
X444596Y243769D01*
X444567Y243863D01*
X444541Y243959D01*
X444520Y244055D01*
X444502Y244153D01*
X444489Y244250D01*
X444479Y244349D01*
X444473Y244447D01*
X444471Y244546D01*
X454194Y242062D02*
X454194Y249513D01*
X453884Y252617D02*
X453884Y253238D01*
X454505Y253238D01*
X454505Y252617D01*
X453884Y252617D01*
X460829Y242062D02*
X463313Y242062D01*
X460829Y242062D02*
X460745Y242064D01*
X460662Y242069D01*
X460579Y242079D01*
X460496Y242092D01*
X460414Y242109D01*
X460333Y242129D01*
X460253Y242153D01*
X460174Y242181D01*
X460097Y242212D01*
X460021Y242246D01*
X459946Y242284D01*
X459873Y242326D01*
X459803Y242370D01*
X459734Y242418D01*
X459667Y242468D01*
X459603Y242522D01*
X459542Y242578D01*
X459482Y242638D01*
X459426Y242699D01*
X459372Y242763D01*
X459322Y242830D01*
X459274Y242899D01*
X459230Y242969D01*
X459188Y243042D01*
X459150Y243117D01*
X459116Y243193D01*
X459085Y243270D01*
X459057Y243349D01*
X459033Y243429D01*
X459013Y243510D01*
X458996Y243592D01*
X458983Y243675D01*
X458973Y243758D01*
X458968Y243841D01*
X458966Y243925D01*
X458966Y247650D01*
X458968Y247734D01*
X458974Y247817D01*
X458983Y247900D01*
X458996Y247983D01*
X459013Y248065D01*
X459033Y248146D01*
X459057Y248226D01*
X459085Y248305D01*
X459116Y248382D01*
X459150Y248458D01*
X459188Y248533D01*
X459230Y248606D01*
X459274Y248676D01*
X459322Y248745D01*
X459372Y248812D01*
X459426Y248876D01*
X459482Y248937D01*
X459542Y248997D01*
X459603Y249053D01*
X459667Y249107D01*
X459734Y249157D01*
X459803Y249205D01*
X459873Y249249D01*
X459946Y249291D01*
X460021Y249329D01*
X460097Y249363D01*
X460174Y249394D01*
X460253Y249422D01*
X460333Y249446D01*
X460414Y249466D01*
X460496Y249483D01*
X460579Y249496D01*
X460662Y249506D01*
X460745Y249511D01*
X460829Y249513D01*
X463313Y249513D01*
X469575Y242062D02*
X472680Y242062D01*
X469575Y242062D02*
X469491Y242064D01*
X469408Y242069D01*
X469325Y242079D01*
X469242Y242092D01*
X469160Y242109D01*
X469079Y242129D01*
X468999Y242153D01*
X468920Y242181D01*
X468843Y242212D01*
X468767Y242246D01*
X468692Y242284D01*
X468619Y242326D01*
X468549Y242370D01*
X468480Y242418D01*
X468413Y242468D01*
X468349Y242522D01*
X468288Y242578D01*
X468228Y242638D01*
X468172Y242699D01*
X468118Y242763D01*
X468068Y242830D01*
X468020Y242899D01*
X467976Y242969D01*
X467934Y243042D01*
X467896Y243117D01*
X467862Y243193D01*
X467831Y243270D01*
X467803Y243349D01*
X467779Y243429D01*
X467759Y243510D01*
X467742Y243592D01*
X467729Y243675D01*
X467719Y243758D01*
X467714Y243841D01*
X467712Y243925D01*
X467713Y243925D02*
X467713Y247029D01*
X467712Y247029D02*
X467714Y247128D01*
X467720Y247226D01*
X467730Y247325D01*
X467743Y247422D01*
X467761Y247520D01*
X467782Y247616D01*
X467808Y247712D01*
X467837Y247806D01*
X467869Y247899D01*
X467906Y247991D01*
X467946Y248081D01*
X467990Y248170D01*
X468037Y248257D01*
X468087Y248342D01*
X468141Y248424D01*
X468198Y248505D01*
X468258Y248583D01*
X468322Y248659D01*
X468388Y248732D01*
X468457Y248803D01*
X468529Y248871D01*
X468604Y248935D01*
X468681Y248997D01*
X468760Y249056D01*
X468842Y249111D01*
X468926Y249164D01*
X469011Y249212D01*
X469099Y249258D01*
X469189Y249300D01*
X469280Y249338D01*
X469372Y249372D01*
X469466Y249403D01*
X469561Y249430D01*
X469657Y249454D01*
X469754Y249473D01*
X469851Y249489D01*
X469949Y249501D01*
X470048Y249509D01*
X470147Y249513D01*
X470245Y249513D01*
X470344Y249509D01*
X470443Y249501D01*
X470541Y249489D01*
X470638Y249473D01*
X470735Y249454D01*
X470831Y249430D01*
X470926Y249403D01*
X471020Y249372D01*
X471112Y249338D01*
X471203Y249300D01*
X471293Y249258D01*
X471381Y249212D01*
X471466Y249164D01*
X471550Y249111D01*
X471632Y249056D01*
X471711Y248997D01*
X471788Y248935D01*
X471863Y248871D01*
X471935Y248803D01*
X472004Y248732D01*
X472070Y248659D01*
X472134Y248583D01*
X472194Y248505D01*
X472251Y248424D01*
X472305Y248342D01*
X472355Y248257D01*
X472402Y248170D01*
X472446Y248081D01*
X472486Y247991D01*
X472523Y247899D01*
X472555Y247806D01*
X472584Y247712D01*
X472610Y247616D01*
X472631Y247520D01*
X472649Y247422D01*
X472662Y247325D01*
X472672Y247226D01*
X472678Y247128D01*
X472680Y247029D01*
X472680Y245787D01*
X467713Y245787D01*
X477901Y246408D02*
X485352Y246408D01*
X493156Y242062D02*
X495639Y242062D01*
X493156Y242062D02*
X493058Y242064D01*
X492961Y242070D01*
X492864Y242079D01*
X492767Y242093D01*
X492671Y242110D01*
X492576Y242131D01*
X492482Y242155D01*
X492388Y242184D01*
X492296Y242216D01*
X492205Y242251D01*
X492116Y242290D01*
X492028Y242333D01*
X491942Y242379D01*
X491858Y242428D01*
X491776Y242481D01*
X491696Y242536D01*
X491618Y242595D01*
X491543Y242657D01*
X491470Y242722D01*
X491400Y242790D01*
X491332Y242860D01*
X491267Y242933D01*
X491205Y243008D01*
X491146Y243086D01*
X491091Y243166D01*
X491038Y243248D01*
X490989Y243332D01*
X490943Y243418D01*
X490900Y243506D01*
X490861Y243595D01*
X490826Y243686D01*
X490794Y243778D01*
X490765Y243872D01*
X490741Y243966D01*
X490720Y244061D01*
X490703Y244157D01*
X490689Y244254D01*
X490680Y244351D01*
X490674Y244448D01*
X490672Y244546D01*
X490672Y250754D01*
X490674Y250852D01*
X490680Y250949D01*
X490689Y251046D01*
X490703Y251143D01*
X490720Y251239D01*
X490741Y251334D01*
X490765Y251428D01*
X490794Y251522D01*
X490826Y251614D01*
X490861Y251705D01*
X490900Y251794D01*
X490943Y251882D01*
X490989Y251968D01*
X491038Y252052D01*
X491091Y252134D01*
X491146Y252214D01*
X491205Y252292D01*
X491267Y252367D01*
X491332Y252440D01*
X491400Y252510D01*
X491470Y252578D01*
X491543Y252643D01*
X491618Y252705D01*
X491696Y252764D01*
X491776Y252819D01*
X491858Y252872D01*
X491942Y252921D01*
X492028Y252967D01*
X492116Y253010D01*
X492205Y253049D01*
X492296Y253084D01*
X492388Y253116D01*
X492482Y253145D01*
X492576Y253169D01*
X492671Y253190D01*
X492767Y253207D01*
X492864Y253221D01*
X492961Y253230D01*
X493058Y253236D01*
X493156Y253238D01*
X495639Y253238D01*
X500098Y247029D02*
X500098Y244546D01*
X500097Y247029D02*
X500099Y247128D01*
X500105Y247226D01*
X500115Y247325D01*
X500128Y247422D01*
X500146Y247520D01*
X500167Y247616D01*
X500193Y247712D01*
X500222Y247806D01*
X500254Y247899D01*
X500291Y247991D01*
X500331Y248081D01*
X500375Y248170D01*
X500422Y248257D01*
X500472Y248342D01*
X500526Y248424D01*
X500583Y248505D01*
X500643Y248583D01*
X500707Y248659D01*
X500773Y248732D01*
X500842Y248803D01*
X500914Y248871D01*
X500989Y248935D01*
X501066Y248997D01*
X501145Y249056D01*
X501227Y249111D01*
X501311Y249164D01*
X501396Y249212D01*
X501484Y249258D01*
X501574Y249300D01*
X501665Y249338D01*
X501757Y249372D01*
X501851Y249403D01*
X501946Y249430D01*
X502042Y249454D01*
X502139Y249473D01*
X502236Y249489D01*
X502334Y249501D01*
X502433Y249509D01*
X502532Y249513D01*
X502630Y249513D01*
X502729Y249509D01*
X502828Y249501D01*
X502926Y249489D01*
X503023Y249473D01*
X503120Y249454D01*
X503216Y249430D01*
X503311Y249403D01*
X503405Y249372D01*
X503497Y249338D01*
X503588Y249300D01*
X503678Y249258D01*
X503766Y249212D01*
X503851Y249164D01*
X503935Y249111D01*
X504017Y249056D01*
X504096Y248997D01*
X504173Y248935D01*
X504248Y248871D01*
X504320Y248803D01*
X504389Y248732D01*
X504455Y248659D01*
X504519Y248583D01*
X504579Y248505D01*
X504636Y248424D01*
X504690Y248342D01*
X504740Y248257D01*
X504787Y248170D01*
X504831Y248081D01*
X504871Y247991D01*
X504908Y247899D01*
X504940Y247806D01*
X504969Y247712D01*
X504995Y247616D01*
X505016Y247520D01*
X505034Y247422D01*
X505047Y247325D01*
X505057Y247226D01*
X505063Y247128D01*
X505065Y247029D01*
X505065Y244546D01*
X505063Y244447D01*
X505057Y244349D01*
X505047Y244250D01*
X505034Y244153D01*
X505016Y244055D01*
X504995Y243959D01*
X504969Y243863D01*
X504940Y243769D01*
X504908Y243676D01*
X504871Y243584D01*
X504831Y243494D01*
X504787Y243405D01*
X504740Y243318D01*
X504690Y243233D01*
X504636Y243151D01*
X504579Y243070D01*
X504519Y242992D01*
X504455Y242916D01*
X504389Y242843D01*
X504320Y242772D01*
X504248Y242704D01*
X504173Y242640D01*
X504096Y242578D01*
X504017Y242519D01*
X503935Y242464D01*
X503851Y242411D01*
X503766Y242363D01*
X503678Y242317D01*
X503588Y242275D01*
X503497Y242237D01*
X503405Y242203D01*
X503311Y242172D01*
X503216Y242145D01*
X503120Y242121D01*
X503023Y242102D01*
X502926Y242086D01*
X502828Y242074D01*
X502729Y242066D01*
X502630Y242062D01*
X502532Y242062D01*
X502433Y242066D01*
X502334Y242074D01*
X502236Y242086D01*
X502139Y242102D01*
X502042Y242121D01*
X501946Y242145D01*
X501851Y242172D01*
X501757Y242203D01*
X501665Y242237D01*
X501574Y242275D01*
X501484Y242317D01*
X501396Y242363D01*
X501311Y242411D01*
X501227Y242464D01*
X501145Y242519D01*
X501066Y242578D01*
X500989Y242640D01*
X500914Y242704D01*
X500842Y242772D01*
X500773Y242843D01*
X500707Y242916D01*
X500643Y242992D01*
X500583Y243070D01*
X500526Y243151D01*
X500472Y243233D01*
X500422Y243318D01*
X500375Y243405D01*
X500331Y243494D01*
X500291Y243584D01*
X500254Y243676D01*
X500222Y243769D01*
X500193Y243863D01*
X500167Y243959D01*
X500146Y244055D01*
X500128Y244153D01*
X500115Y244250D01*
X500105Y244349D01*
X500099Y244447D01*
X500097Y244546D01*
X510385Y242062D02*
X510385Y249513D01*
X513489Y249513D01*
X513573Y249511D01*
X513656Y249506D01*
X513739Y249496D01*
X513822Y249483D01*
X513904Y249466D01*
X513985Y249446D01*
X514065Y249422D01*
X514144Y249394D01*
X514221Y249363D01*
X514297Y249329D01*
X514372Y249291D01*
X514445Y249249D01*
X514515Y249205D01*
X514584Y249157D01*
X514651Y249107D01*
X514715Y249053D01*
X514776Y248997D01*
X514836Y248937D01*
X514892Y248876D01*
X514946Y248812D01*
X514996Y248745D01*
X515044Y248676D01*
X515088Y248606D01*
X515130Y248533D01*
X515168Y248458D01*
X515202Y248382D01*
X515233Y248305D01*
X515261Y248226D01*
X515285Y248146D01*
X515305Y248065D01*
X515322Y247983D01*
X515335Y247900D01*
X515345Y247817D01*
X515350Y247734D01*
X515352Y247650D01*
X515352Y242062D01*
X519653Y249513D02*
X523378Y249513D01*
X520895Y253238D02*
X520895Y243925D01*
X520894Y243925D02*
X520896Y243841D01*
X520901Y243758D01*
X520911Y243675D01*
X520924Y243592D01*
X520941Y243510D01*
X520961Y243429D01*
X520985Y243349D01*
X521013Y243270D01*
X521044Y243193D01*
X521078Y243117D01*
X521116Y243042D01*
X521158Y242969D01*
X521202Y242899D01*
X521250Y242830D01*
X521300Y242763D01*
X521354Y242699D01*
X521410Y242638D01*
X521470Y242578D01*
X521531Y242522D01*
X521595Y242468D01*
X521662Y242418D01*
X521731Y242370D01*
X521801Y242326D01*
X521874Y242284D01*
X521949Y242246D01*
X522025Y242212D01*
X522102Y242181D01*
X522181Y242153D01*
X522261Y242129D01*
X522342Y242109D01*
X522424Y242092D01*
X522507Y242079D01*
X522590Y242069D01*
X522673Y242064D01*
X522757Y242062D01*
X523378Y242062D01*
X528375Y242062D02*
X528375Y249513D01*
X532100Y249513D01*
X532100Y248271D01*
X535912Y247029D02*
X535912Y244546D01*
X535911Y247029D02*
X535913Y247128D01*
X535919Y247226D01*
X535929Y247325D01*
X535942Y247422D01*
X535960Y247520D01*
X535981Y247616D01*
X536007Y247712D01*
X536036Y247806D01*
X536068Y247899D01*
X536105Y247991D01*
X536145Y248081D01*
X536189Y248170D01*
X536236Y248257D01*
X536286Y248342D01*
X536340Y248424D01*
X536397Y248505D01*
X536457Y248583D01*
X536521Y248659D01*
X536587Y248732D01*
X536656Y248803D01*
X536728Y248871D01*
X536803Y248935D01*
X536880Y248997D01*
X536959Y249056D01*
X537041Y249111D01*
X537125Y249164D01*
X537210Y249212D01*
X537298Y249258D01*
X537388Y249300D01*
X537479Y249338D01*
X537571Y249372D01*
X537665Y249403D01*
X537760Y249430D01*
X537856Y249454D01*
X537953Y249473D01*
X538050Y249489D01*
X538148Y249501D01*
X538247Y249509D01*
X538346Y249513D01*
X538444Y249513D01*
X538543Y249509D01*
X538642Y249501D01*
X538740Y249489D01*
X538837Y249473D01*
X538934Y249454D01*
X539030Y249430D01*
X539125Y249403D01*
X539219Y249372D01*
X539311Y249338D01*
X539402Y249300D01*
X539492Y249258D01*
X539580Y249212D01*
X539665Y249164D01*
X539749Y249111D01*
X539831Y249056D01*
X539910Y248997D01*
X539987Y248935D01*
X540062Y248871D01*
X540134Y248803D01*
X540203Y248732D01*
X540269Y248659D01*
X540333Y248583D01*
X540393Y248505D01*
X540450Y248424D01*
X540504Y248342D01*
X540554Y248257D01*
X540601Y248170D01*
X540645Y248081D01*
X540685Y247991D01*
X540722Y247899D01*
X540754Y247806D01*
X540783Y247712D01*
X540809Y247616D01*
X540830Y247520D01*
X540848Y247422D01*
X540861Y247325D01*
X540871Y247226D01*
X540877Y247128D01*
X540879Y247029D01*
X540879Y244546D01*
X540877Y244447D01*
X540871Y244349D01*
X540861Y244250D01*
X540848Y244153D01*
X540830Y244055D01*
X540809Y243959D01*
X540783Y243863D01*
X540754Y243769D01*
X540722Y243676D01*
X540685Y243584D01*
X540645Y243494D01*
X540601Y243405D01*
X540554Y243318D01*
X540504Y243233D01*
X540450Y243151D01*
X540393Y243070D01*
X540333Y242992D01*
X540269Y242916D01*
X540203Y242843D01*
X540134Y242772D01*
X540062Y242704D01*
X539987Y242640D01*
X539910Y242578D01*
X539831Y242519D01*
X539749Y242464D01*
X539665Y242411D01*
X539580Y242363D01*
X539492Y242317D01*
X539402Y242275D01*
X539311Y242237D01*
X539219Y242203D01*
X539125Y242172D01*
X539030Y242145D01*
X538934Y242121D01*
X538837Y242102D01*
X538740Y242086D01*
X538642Y242074D01*
X538543Y242066D01*
X538444Y242062D01*
X538346Y242062D01*
X538247Y242066D01*
X538148Y242074D01*
X538050Y242086D01*
X537953Y242102D01*
X537856Y242121D01*
X537760Y242145D01*
X537665Y242172D01*
X537571Y242203D01*
X537479Y242237D01*
X537388Y242275D01*
X537298Y242317D01*
X537210Y242363D01*
X537125Y242411D01*
X537041Y242464D01*
X536959Y242519D01*
X536880Y242578D01*
X536803Y242640D01*
X536728Y242704D01*
X536656Y242772D01*
X536587Y242843D01*
X536521Y242916D01*
X536457Y242992D01*
X536397Y243070D01*
X536340Y243151D01*
X536286Y243233D01*
X536236Y243318D01*
X536189Y243405D01*
X536145Y243494D01*
X536105Y243584D01*
X536068Y243676D01*
X536036Y243769D01*
X536007Y243863D01*
X535981Y243959D01*
X535960Y244055D01*
X535942Y244153D01*
X535929Y244250D01*
X535919Y244349D01*
X535913Y244447D01*
X535911Y244546D01*
X545909Y243925D02*
X545909Y253238D01*
X545909Y243925D02*
X545911Y243841D01*
X545916Y243758D01*
X545926Y243675D01*
X545939Y243592D01*
X545956Y243510D01*
X545976Y243429D01*
X546000Y243349D01*
X546028Y243270D01*
X546059Y243193D01*
X546093Y243117D01*
X546131Y243042D01*
X546173Y242969D01*
X546217Y242899D01*
X546265Y242830D01*
X546315Y242763D01*
X546369Y242699D01*
X546425Y242638D01*
X546485Y242578D01*
X546546Y242522D01*
X546610Y242468D01*
X546677Y242418D01*
X546746Y242370D01*
X546816Y242326D01*
X546889Y242284D01*
X546964Y242246D01*
X547040Y242212D01*
X547117Y242181D01*
X547196Y242153D01*
X547276Y242129D01*
X547357Y242109D01*
X547439Y242092D01*
X547522Y242079D01*
X547605Y242069D01*
X547688Y242064D01*
X547772Y242062D01*
X552005Y243925D02*
X552005Y253238D01*
X552005Y243925D02*
X552007Y243841D01*
X552012Y243758D01*
X552022Y243675D01*
X552035Y243592D01*
X552052Y243510D01*
X552072Y243429D01*
X552096Y243349D01*
X552124Y243270D01*
X552155Y243193D01*
X552189Y243117D01*
X552227Y243042D01*
X552269Y242969D01*
X552313Y242899D01*
X552361Y242830D01*
X552411Y242763D01*
X552465Y242699D01*
X552521Y242638D01*
X552581Y242578D01*
X552642Y242522D01*
X552706Y242468D01*
X552773Y242418D01*
X552842Y242370D01*
X552912Y242326D01*
X552985Y242284D01*
X553060Y242246D01*
X553136Y242212D01*
X553213Y242181D01*
X553292Y242153D01*
X553372Y242129D01*
X553453Y242109D01*
X553535Y242092D01*
X553618Y242079D01*
X553701Y242069D01*
X553784Y242064D01*
X553868Y242062D01*
X559872Y242062D02*
X562977Y242062D01*
X559872Y242062D02*
X559788Y242064D01*
X559705Y242069D01*
X559622Y242079D01*
X559539Y242092D01*
X559457Y242109D01*
X559376Y242129D01*
X559296Y242153D01*
X559217Y242181D01*
X559140Y242212D01*
X559064Y242246D01*
X558989Y242284D01*
X558916Y242326D01*
X558846Y242370D01*
X558777Y242418D01*
X558710Y242468D01*
X558646Y242522D01*
X558585Y242578D01*
X558525Y242638D01*
X558469Y242699D01*
X558415Y242763D01*
X558365Y242830D01*
X558317Y242899D01*
X558273Y242969D01*
X558231Y243042D01*
X558193Y243117D01*
X558159Y243193D01*
X558128Y243270D01*
X558100Y243349D01*
X558076Y243429D01*
X558056Y243510D01*
X558039Y243592D01*
X558026Y243675D01*
X558016Y243758D01*
X558011Y243841D01*
X558009Y243925D01*
X558009Y247029D01*
X558011Y247128D01*
X558017Y247226D01*
X558027Y247325D01*
X558040Y247422D01*
X558058Y247520D01*
X558079Y247616D01*
X558105Y247712D01*
X558134Y247806D01*
X558166Y247899D01*
X558203Y247991D01*
X558243Y248081D01*
X558287Y248170D01*
X558334Y248257D01*
X558384Y248342D01*
X558438Y248424D01*
X558495Y248505D01*
X558555Y248583D01*
X558619Y248659D01*
X558685Y248732D01*
X558754Y248803D01*
X558826Y248871D01*
X558901Y248935D01*
X558978Y248997D01*
X559057Y249056D01*
X559139Y249111D01*
X559223Y249164D01*
X559308Y249212D01*
X559396Y249258D01*
X559486Y249300D01*
X559577Y249338D01*
X559669Y249372D01*
X559763Y249403D01*
X559858Y249430D01*
X559954Y249454D01*
X560051Y249473D01*
X560148Y249489D01*
X560246Y249501D01*
X560345Y249509D01*
X560444Y249513D01*
X560542Y249513D01*
X560641Y249509D01*
X560740Y249501D01*
X560838Y249489D01*
X560935Y249473D01*
X561032Y249454D01*
X561128Y249430D01*
X561223Y249403D01*
X561317Y249372D01*
X561409Y249338D01*
X561500Y249300D01*
X561590Y249258D01*
X561678Y249212D01*
X561763Y249164D01*
X561847Y249111D01*
X561929Y249056D01*
X562008Y248997D01*
X562085Y248935D01*
X562160Y248871D01*
X562232Y248803D01*
X562301Y248732D01*
X562367Y248659D01*
X562431Y248583D01*
X562491Y248505D01*
X562548Y248424D01*
X562602Y248342D01*
X562652Y248257D01*
X562699Y248170D01*
X562743Y248081D01*
X562783Y247991D01*
X562820Y247899D01*
X562852Y247806D01*
X562881Y247712D01*
X562907Y247616D01*
X562928Y247520D01*
X562946Y247422D01*
X562959Y247325D01*
X562969Y247226D01*
X562975Y247128D01*
X562977Y247029D01*
X562977Y245787D01*
X558009Y245787D01*
X572809Y242062D02*
X572809Y253238D01*
X572809Y242062D02*
X569704Y242062D01*
X569620Y242064D01*
X569537Y242069D01*
X569454Y242079D01*
X569371Y242092D01*
X569289Y242109D01*
X569208Y242129D01*
X569128Y242153D01*
X569049Y242181D01*
X568972Y242212D01*
X568896Y242246D01*
X568821Y242284D01*
X568748Y242326D01*
X568678Y242370D01*
X568609Y242418D01*
X568542Y242468D01*
X568478Y242522D01*
X568417Y242578D01*
X568357Y242638D01*
X568301Y242699D01*
X568247Y242763D01*
X568197Y242830D01*
X568149Y242899D01*
X568105Y242969D01*
X568063Y243042D01*
X568025Y243117D01*
X567991Y243193D01*
X567960Y243270D01*
X567932Y243349D01*
X567908Y243429D01*
X567888Y243510D01*
X567871Y243592D01*
X567858Y243675D01*
X567848Y243758D01*
X567843Y243841D01*
X567841Y243925D01*
X567842Y243925D02*
X567842Y247650D01*
X567841Y247650D02*
X567843Y247734D01*
X567849Y247817D01*
X567858Y247900D01*
X567871Y247983D01*
X567888Y248065D01*
X567908Y248146D01*
X567932Y248226D01*
X567960Y248305D01*
X567991Y248382D01*
X568025Y248458D01*
X568063Y248533D01*
X568105Y248606D01*
X568149Y248676D01*
X568197Y248745D01*
X568247Y248812D01*
X568301Y248876D01*
X568357Y248937D01*
X568417Y248997D01*
X568478Y249053D01*
X568542Y249107D01*
X568609Y249157D01*
X568678Y249205D01*
X568748Y249249D01*
X568821Y249291D01*
X568896Y249329D01*
X568972Y249363D01*
X569049Y249394D01*
X569128Y249422D01*
X569208Y249446D01*
X569289Y249466D01*
X569371Y249483D01*
X569454Y249496D01*
X569537Y249506D01*
X569620Y249511D01*
X569704Y249513D01*
X572809Y249513D01*
X586881Y242062D02*
X589365Y242062D01*
X586881Y242062D02*
X586783Y242064D01*
X586686Y242070D01*
X586589Y242079D01*
X586492Y242093D01*
X586396Y242110D01*
X586301Y242131D01*
X586207Y242155D01*
X586113Y242184D01*
X586021Y242216D01*
X585930Y242251D01*
X585841Y242290D01*
X585753Y242333D01*
X585667Y242379D01*
X585583Y242428D01*
X585501Y242481D01*
X585421Y242536D01*
X585343Y242595D01*
X585268Y242657D01*
X585195Y242722D01*
X585125Y242790D01*
X585057Y242860D01*
X584992Y242933D01*
X584930Y243008D01*
X584871Y243086D01*
X584816Y243166D01*
X584763Y243248D01*
X584714Y243332D01*
X584668Y243418D01*
X584625Y243506D01*
X584586Y243595D01*
X584551Y243686D01*
X584519Y243778D01*
X584490Y243872D01*
X584466Y243966D01*
X584445Y244061D01*
X584428Y244157D01*
X584414Y244254D01*
X584405Y244351D01*
X584399Y244448D01*
X584397Y244546D01*
X584398Y244546D02*
X584398Y250754D01*
X584400Y250852D01*
X584406Y250949D01*
X584415Y251046D01*
X584429Y251143D01*
X584446Y251239D01*
X584467Y251334D01*
X584491Y251428D01*
X584520Y251522D01*
X584552Y251614D01*
X584587Y251705D01*
X584626Y251794D01*
X584669Y251882D01*
X584715Y251968D01*
X584764Y252052D01*
X584817Y252134D01*
X584872Y252214D01*
X584931Y252292D01*
X584993Y252367D01*
X585058Y252440D01*
X585126Y252510D01*
X585196Y252578D01*
X585269Y252643D01*
X585344Y252705D01*
X585422Y252764D01*
X585502Y252819D01*
X585584Y252872D01*
X585668Y252921D01*
X585754Y252967D01*
X585842Y253010D01*
X585931Y253049D01*
X586022Y253084D01*
X586114Y253116D01*
X586208Y253145D01*
X586302Y253169D01*
X586397Y253190D01*
X586493Y253207D01*
X586590Y253221D01*
X586687Y253230D01*
X586784Y253236D01*
X586882Y253238D01*
X586881Y253238D02*
X589365Y253238D01*
X595923Y246408D02*
X598717Y246408D01*
X595923Y246408D02*
X595831Y246406D01*
X595739Y246400D01*
X595647Y246390D01*
X595556Y246377D01*
X595465Y246359D01*
X595375Y246338D01*
X595287Y246313D01*
X595199Y246284D01*
X595113Y246251D01*
X595028Y246215D01*
X594945Y246175D01*
X594863Y246132D01*
X594784Y246085D01*
X594706Y246035D01*
X594631Y245982D01*
X594558Y245926D01*
X594487Y245866D01*
X594419Y245804D01*
X594354Y245739D01*
X594292Y245671D01*
X594232Y245600D01*
X594176Y245527D01*
X594123Y245452D01*
X594073Y245374D01*
X594026Y245295D01*
X593983Y245213D01*
X593943Y245130D01*
X593907Y245045D01*
X593874Y244959D01*
X593845Y244871D01*
X593820Y244783D01*
X593799Y244693D01*
X593781Y244602D01*
X593768Y244511D01*
X593758Y244419D01*
X593752Y244327D01*
X593750Y244235D01*
X593752Y244143D01*
X593758Y244051D01*
X593768Y243959D01*
X593781Y243868D01*
X593799Y243777D01*
X593820Y243687D01*
X593845Y243599D01*
X593874Y243511D01*
X593907Y243425D01*
X593943Y243340D01*
X593983Y243257D01*
X594026Y243175D01*
X594073Y243096D01*
X594123Y243018D01*
X594176Y242943D01*
X594232Y242870D01*
X594292Y242799D01*
X594354Y242731D01*
X594419Y242666D01*
X594487Y242604D01*
X594558Y242544D01*
X594631Y242488D01*
X594706Y242435D01*
X594784Y242385D01*
X594863Y242338D01*
X594945Y242295D01*
X595028Y242255D01*
X595113Y242219D01*
X595199Y242186D01*
X595287Y242157D01*
X595375Y242132D01*
X595465Y242111D01*
X595556Y242093D01*
X595647Y242080D01*
X595739Y242070D01*
X595831Y242064D01*
X595923Y242062D01*
X598717Y242062D01*
X598717Y247650D01*
X598715Y247734D01*
X598710Y247817D01*
X598700Y247900D01*
X598687Y247983D01*
X598670Y248065D01*
X598650Y248146D01*
X598626Y248226D01*
X598598Y248305D01*
X598567Y248382D01*
X598533Y248458D01*
X598495Y248533D01*
X598453Y248606D01*
X598409Y248676D01*
X598361Y248745D01*
X598311Y248812D01*
X598257Y248876D01*
X598201Y248937D01*
X598141Y248997D01*
X598080Y249053D01*
X598016Y249107D01*
X597949Y249157D01*
X597880Y249205D01*
X597810Y249249D01*
X597737Y249291D01*
X597662Y249329D01*
X597586Y249363D01*
X597509Y249394D01*
X597430Y249422D01*
X597350Y249446D01*
X597269Y249466D01*
X597187Y249483D01*
X597104Y249496D01*
X597021Y249506D01*
X596938Y249511D01*
X596854Y249513D01*
X594371Y249513D01*
X604574Y249513D02*
X604574Y242062D01*
X604574Y249513D02*
X608300Y249513D01*
X608300Y248271D01*
X432562Y234188D02*
X432562Y223012D01*
X432562Y234188D02*
X435666Y234188D01*
X435777Y234186D01*
X435887Y234180D01*
X435998Y234170D01*
X436108Y234156D01*
X436217Y234139D01*
X436326Y234117D01*
X436434Y234092D01*
X436540Y234062D01*
X436646Y234029D01*
X436751Y233992D01*
X436854Y233952D01*
X436955Y233907D01*
X437055Y233860D01*
X437154Y233808D01*
X437250Y233753D01*
X437344Y233695D01*
X437436Y233634D01*
X437526Y233569D01*
X437614Y233501D01*
X437699Y233430D01*
X437781Y233356D01*
X437861Y233279D01*
X437938Y233199D01*
X438012Y233117D01*
X438083Y233032D01*
X438151Y232944D01*
X438216Y232854D01*
X438277Y232762D01*
X438335Y232668D01*
X438390Y232572D01*
X438442Y232473D01*
X438489Y232373D01*
X438534Y232272D01*
X438574Y232169D01*
X438611Y232064D01*
X438644Y231958D01*
X438674Y231852D01*
X438699Y231744D01*
X438721Y231635D01*
X438738Y231526D01*
X438752Y231416D01*
X438762Y231305D01*
X438768Y231195D01*
X438770Y231084D01*
X438768Y230973D01*
X438762Y230863D01*
X438752Y230752D01*
X438738Y230642D01*
X438721Y230533D01*
X438699Y230424D01*
X438674Y230316D01*
X438644Y230210D01*
X438611Y230104D01*
X438574Y229999D01*
X438534Y229896D01*
X438489Y229795D01*
X438442Y229695D01*
X438390Y229596D01*
X438335Y229500D01*
X438277Y229406D01*
X438216Y229314D01*
X438151Y229224D01*
X438083Y229136D01*
X438012Y229051D01*
X437938Y228969D01*
X437861Y228889D01*
X437781Y228812D01*
X437699Y228738D01*
X437614Y228667D01*
X437526Y228599D01*
X437436Y228534D01*
X437344Y228473D01*
X437250Y228415D01*
X437154Y228360D01*
X437055Y228308D01*
X436955Y228261D01*
X436854Y228216D01*
X436751Y228176D01*
X436646Y228139D01*
X436540Y228106D01*
X436434Y228076D01*
X436326Y228051D01*
X436217Y228029D01*
X436108Y228012D01*
X435998Y227998D01*
X435887Y227988D01*
X435777Y227982D01*
X435666Y227980D01*
X435666Y227979D02*
X432562Y227979D01*
X436287Y227979D02*
X438771Y223012D01*
X445622Y223012D02*
X448726Y223012D01*
X445622Y223012D02*
X445538Y223014D01*
X445455Y223019D01*
X445372Y223029D01*
X445289Y223042D01*
X445207Y223059D01*
X445126Y223079D01*
X445046Y223103D01*
X444967Y223131D01*
X444890Y223162D01*
X444814Y223196D01*
X444739Y223234D01*
X444666Y223276D01*
X444596Y223320D01*
X444527Y223368D01*
X444460Y223418D01*
X444396Y223472D01*
X444335Y223528D01*
X444275Y223588D01*
X444219Y223649D01*
X444165Y223713D01*
X444115Y223780D01*
X444067Y223849D01*
X444023Y223919D01*
X443981Y223992D01*
X443943Y224067D01*
X443909Y224143D01*
X443878Y224220D01*
X443850Y224299D01*
X443826Y224379D01*
X443806Y224460D01*
X443789Y224542D01*
X443776Y224625D01*
X443766Y224708D01*
X443761Y224791D01*
X443759Y224875D01*
X443759Y227979D01*
X443758Y227979D02*
X443760Y228078D01*
X443766Y228176D01*
X443776Y228275D01*
X443789Y228372D01*
X443807Y228470D01*
X443828Y228566D01*
X443854Y228662D01*
X443883Y228756D01*
X443915Y228849D01*
X443952Y228941D01*
X443992Y229031D01*
X444036Y229120D01*
X444083Y229207D01*
X444133Y229292D01*
X444187Y229374D01*
X444244Y229455D01*
X444304Y229533D01*
X444368Y229609D01*
X444434Y229682D01*
X444503Y229753D01*
X444575Y229821D01*
X444650Y229885D01*
X444727Y229947D01*
X444806Y230006D01*
X444888Y230061D01*
X444972Y230114D01*
X445057Y230162D01*
X445145Y230208D01*
X445235Y230250D01*
X445326Y230288D01*
X445418Y230322D01*
X445512Y230353D01*
X445607Y230380D01*
X445703Y230404D01*
X445800Y230423D01*
X445897Y230439D01*
X445995Y230451D01*
X446094Y230459D01*
X446193Y230463D01*
X446291Y230463D01*
X446390Y230459D01*
X446489Y230451D01*
X446587Y230439D01*
X446684Y230423D01*
X446781Y230404D01*
X446877Y230380D01*
X446972Y230353D01*
X447066Y230322D01*
X447158Y230288D01*
X447249Y230250D01*
X447339Y230208D01*
X447427Y230162D01*
X447512Y230114D01*
X447596Y230061D01*
X447678Y230006D01*
X447757Y229947D01*
X447834Y229885D01*
X447909Y229821D01*
X447981Y229753D01*
X448050Y229682D01*
X448116Y229609D01*
X448180Y229533D01*
X448240Y229455D01*
X448297Y229374D01*
X448351Y229292D01*
X448401Y229207D01*
X448448Y229120D01*
X448492Y229031D01*
X448532Y228941D01*
X448569Y228849D01*
X448601Y228756D01*
X448630Y228662D01*
X448656Y228566D01*
X448677Y228470D01*
X448695Y228372D01*
X448708Y228275D01*
X448718Y228176D01*
X448724Y228078D01*
X448726Y227979D01*
X448726Y226737D01*
X443759Y226737D01*
X453284Y230463D02*
X455767Y223012D01*
X458251Y230463D01*
X462315Y223633D02*
X462315Y223012D01*
X462315Y223633D02*
X462936Y223633D01*
X462936Y223012D01*
X462315Y223012D01*
X473618Y231704D02*
X476722Y234188D01*
X476722Y223012D01*
X473618Y223012D02*
X479827Y223012D01*
X484413Y223012D02*
X484413Y223633D01*
X485034Y223633D01*
X485034Y223012D01*
X484413Y223012D01*
X489620Y228600D02*
X489623Y228820D01*
X489630Y229040D01*
X489644Y229259D01*
X489662Y229478D01*
X489686Y229697D01*
X489714Y229915D01*
X489748Y230132D01*
X489787Y230348D01*
X489832Y230564D01*
X489881Y230778D01*
X489936Y230991D01*
X489995Y231203D01*
X490060Y231413D01*
X490130Y231621D01*
X490204Y231828D01*
X490284Y232033D01*
X490368Y232236D01*
X490457Y232437D01*
X490551Y232636D01*
X490584Y232725D01*
X490620Y232813D01*
X490660Y232899D01*
X490703Y232984D01*
X490750Y233066D01*
X490801Y233147D01*
X490854Y233225D01*
X490911Y233301D01*
X490971Y233375D01*
X491034Y233446D01*
X491099Y233515D01*
X491168Y233581D01*
X491239Y233643D01*
X491313Y233703D01*
X491389Y233760D01*
X491467Y233814D01*
X491548Y233864D01*
X491630Y233911D01*
X491715Y233954D01*
X491801Y233994D01*
X491889Y234031D01*
X491978Y234063D01*
X492068Y234092D01*
X492160Y234118D01*
X492252Y234139D01*
X492346Y234157D01*
X492440Y234170D01*
X492534Y234180D01*
X492629Y234186D01*
X492724Y234188D01*
X492819Y234186D01*
X492914Y234180D01*
X493008Y234170D01*
X493102Y234157D01*
X493196Y234139D01*
X493288Y234118D01*
X493380Y234092D01*
X493470Y234063D01*
X493559Y234031D01*
X493647Y233994D01*
X493733Y233954D01*
X493818Y233911D01*
X493900Y233864D01*
X493981Y233814D01*
X494059Y233760D01*
X494135Y233703D01*
X494209Y233643D01*
X494280Y233581D01*
X494349Y233515D01*
X494414Y233446D01*
X494477Y233375D01*
X494537Y233301D01*
X494594Y233225D01*
X494647Y233147D01*
X494698Y233066D01*
X494745Y232983D01*
X494788Y232899D01*
X494828Y232813D01*
X494864Y232725D01*
X494897Y232636D01*
X494898Y232636D02*
X494992Y232437D01*
X495081Y232236D01*
X495165Y232033D01*
X495245Y231828D01*
X495319Y231621D01*
X495389Y231413D01*
X495454Y231203D01*
X495513Y230991D01*
X495568Y230778D01*
X495617Y230564D01*
X495662Y230348D01*
X495701Y230132D01*
X495735Y229915D01*
X495763Y229697D01*
X495787Y229478D01*
X495805Y229259D01*
X495819Y229040D01*
X495826Y228820D01*
X495829Y228600D01*
X489620Y228600D02*
X489623Y228380D01*
X489630Y228160D01*
X489644Y227941D01*
X489662Y227722D01*
X489686Y227503D01*
X489714Y227285D01*
X489748Y227068D01*
X489787Y226852D01*
X489832Y226636D01*
X489881Y226422D01*
X489936Y226209D01*
X489995Y225998D01*
X490060Y225787D01*
X490130Y225579D01*
X490204Y225372D01*
X490284Y225167D01*
X490368Y224964D01*
X490457Y224763D01*
X490551Y224564D01*
X490584Y224475D01*
X490620Y224387D01*
X490660Y224301D01*
X490703Y224216D01*
X490750Y224134D01*
X490801Y224053D01*
X490854Y223975D01*
X490911Y223899D01*
X490971Y223825D01*
X491034Y223754D01*
X491099Y223685D01*
X491168Y223619D01*
X491239Y223557D01*
X491313Y223497D01*
X491389Y223440D01*
X491467Y223386D01*
X491548Y223336D01*
X491630Y223289D01*
X491715Y223246D01*
X491801Y223206D01*
X491889Y223169D01*
X491978Y223137D01*
X492068Y223108D01*
X492160Y223082D01*
X492252Y223061D01*
X492346Y223043D01*
X492440Y223030D01*
X492534Y223020D01*
X492629Y223014D01*
X492724Y223012D01*
X494898Y224564D02*
X494992Y224763D01*
X495081Y224964D01*
X495165Y225167D01*
X495245Y225372D01*
X495319Y225579D01*
X495389Y225787D01*
X495454Y225997D01*
X495513Y226209D01*
X495568Y226422D01*
X495617Y226636D01*
X495662Y226852D01*
X495701Y227068D01*
X495735Y227285D01*
X495763Y227503D01*
X495787Y227722D01*
X495805Y227941D01*
X495819Y228160D01*
X495826Y228380D01*
X495829Y228600D01*
X494897Y224564D02*
X494864Y224475D01*
X494828Y224387D01*
X494788Y224301D01*
X494745Y224216D01*
X494698Y224134D01*
X494647Y224053D01*
X494594Y223975D01*
X494537Y223899D01*
X494477Y223825D01*
X494414Y223754D01*
X494349Y223685D01*
X494280Y223619D01*
X494209Y223557D01*
X494135Y223497D01*
X494059Y223440D01*
X493981Y223386D01*
X493900Y223336D01*
X493818Y223289D01*
X493733Y223246D01*
X493647Y223206D01*
X493559Y223169D01*
X493470Y223137D01*
X493380Y223108D01*
X493288Y223082D01*
X493196Y223061D01*
X493102Y223043D01*
X493008Y223030D01*
X492914Y223020D01*
X492819Y223014D01*
X492724Y223012D01*
X490241Y225496D02*
X495208Y231704D01*
X436287Y215138D02*
X436287Y206446D01*
X436288Y206446D02*
X436286Y206348D01*
X436280Y206251D01*
X436271Y206154D01*
X436257Y206057D01*
X436240Y205961D01*
X436219Y205866D01*
X436195Y205772D01*
X436166Y205678D01*
X436134Y205586D01*
X436099Y205495D01*
X436060Y205406D01*
X436017Y205318D01*
X435971Y205232D01*
X435922Y205148D01*
X435869Y205066D01*
X435814Y204986D01*
X435755Y204908D01*
X435693Y204833D01*
X435628Y204760D01*
X435560Y204690D01*
X435490Y204622D01*
X435417Y204557D01*
X435342Y204495D01*
X435264Y204436D01*
X435184Y204381D01*
X435102Y204328D01*
X435018Y204279D01*
X434932Y204233D01*
X434844Y204190D01*
X434755Y204151D01*
X434664Y204116D01*
X434572Y204084D01*
X434478Y204055D01*
X434384Y204031D01*
X434289Y204010D01*
X434193Y203993D01*
X434096Y203979D01*
X433999Y203970D01*
X433901Y203964D01*
X433804Y203962D01*
X432562Y203962D01*
X442212Y203962D02*
X442212Y215138D01*
X442212Y210171D02*
X448421Y210171D01*
X448421Y215138D02*
X448421Y203962D01*
X454616Y203962D02*
X454616Y215138D01*
X460825Y215138D02*
X454616Y208308D01*
X457100Y210792D02*
X460825Y203962D01*
D11*
X498648Y31324D03*
D12*
X498648Y32171D03*
D13*
X498648Y33017D03*
D14*
X498648Y33864D03*
D15*
X498636Y34711D03*
D16*
X498648Y35557D03*
D17*
X498648Y36404D03*
D18*
X498636Y37251D03*
D19*
X498648Y38097D03*
D20*
X498636Y38944D03*
D21*
X498648Y39791D03*
D22*
X498636Y40637D03*
D23*
X498648Y41484D03*
D24*
X498636Y42331D03*
D25*
X498648Y43177D03*
D26*
X498636Y44024D03*
D27*
X498648Y44871D03*
D28*
X498636Y45717D03*
D29*
X498648Y46564D03*
D30*
X479598Y47411D03*
D31*
X497378Y47411D03*
D30*
X517698Y47411D03*
D32*
X479586Y48257D03*
D31*
X498217Y48257D03*
D33*
X518118Y48257D03*
D34*
X480437Y49104D03*
D35*
X500338Y49104D03*
D36*
X518118Y49104D03*
D37*
X480449Y49951D03*
D38*
X500769Y49951D03*
D39*
X506688Y49951D03*
D40*
X522347Y49951D03*
D41*
X480437Y50797D03*
D42*
X501188Y50797D03*
D38*
X505849Y50797D03*
D43*
X522766Y50797D03*
D44*
X480018Y51644D03*
D45*
X501188Y51644D03*
D46*
X505837Y51644D03*
D47*
X512606Y51644D03*
D48*
X526169Y51644D03*
D49*
X482126Y52491D03*
D38*
X505849Y52491D03*
D50*
X511348Y52491D03*
D51*
X527008Y52491D03*
D52*
X479586Y53337D03*
D50*
X501188Y53337D03*
X503728Y53337D03*
D53*
X506688Y53337D03*
D50*
X509647Y53337D03*
D54*
X526576Y53337D03*
D55*
X478748Y54184D03*
D47*
X502446Y54184D03*
D56*
X506688Y54184D03*
D57*
X508808Y54184D03*
D58*
X526169Y54184D03*
D52*
X477909Y55031D03*
D38*
X501608Y55031D03*
X507526Y55031D03*
X514308Y55031D03*
D40*
X527427Y55031D03*
D52*
X477046Y55877D03*
D50*
X501188Y55877D03*
X507107Y55877D03*
D59*
X513038Y55877D03*
D43*
X527846Y55877D03*
D55*
X476208Y56724D03*
D60*
X500338Y56724D03*
D57*
X506268Y56724D03*
X511348Y56724D03*
D61*
X528278Y56724D03*
D52*
X475369Y57571D03*
D50*
X499487Y57571D03*
D59*
X505418Y57571D03*
X510498Y57571D03*
D15*
X528278Y57571D03*
D52*
X474506Y58417D03*
D53*
X499068Y58417D03*
D31*
X504998Y58417D03*
D50*
X509647Y58417D03*
D33*
X528278Y58417D03*
D55*
X473668Y59264D03*
D46*
X498217Y59264D03*
D56*
X504148Y59264D03*
D57*
X508808Y59264D03*
D36*
X528278Y59264D03*
D62*
X471978Y60111D03*
D50*
X491867Y60111D03*
X503728Y60111D03*
D59*
X507958Y60111D03*
X513038Y60111D03*
D32*
X529548Y60111D03*
D18*
X471559Y60957D03*
D53*
X491448Y60957D03*
D31*
X503297Y60957D03*
X507538Y60957D03*
D50*
X512187Y60957D03*
D32*
X529548Y60957D03*
D63*
X471128Y61804D03*
D57*
X491028Y61804D03*
D60*
X502878Y61804D03*
D57*
X507107Y61804D03*
X511348Y61804D03*
D64*
X529967Y61804D03*
D62*
X470277Y62651D03*
D31*
X490597Y62651D03*
X502458Y62651D03*
D53*
X506688Y62651D03*
D31*
X510917Y62651D03*
D65*
X530398Y62651D03*
D66*
X469858Y63497D03*
D31*
X490597Y63497D03*
X502458Y63497D03*
D50*
X506268Y63497D03*
D59*
X510498Y63497D03*
D67*
X530398Y63497D03*
D68*
X469438Y64344D03*
D60*
X490178Y64344D03*
D56*
X501608Y64344D03*
D46*
X505837Y64344D03*
X510078Y64344D03*
D34*
X530398Y64344D03*
D69*
X452497Y65191D03*
D70*
X471547Y65191D03*
D31*
X489758Y65191D03*
D53*
X501608Y65191D03*
X509228Y65191D03*
D33*
X528278Y65191D03*
D39*
X544788Y65191D03*
D69*
X451658Y66037D03*
D67*
X471978Y66037D03*
D31*
X489758Y66037D03*
D53*
X501608Y66037D03*
X509228Y66037D03*
D71*
X527427Y66037D03*
D69*
X545638Y66037D03*
D45*
X451227Y66884D03*
D72*
X471978Y66884D03*
D46*
X489758Y66884D03*
D56*
X501608Y66884D03*
X509228Y66884D03*
D73*
X527008Y66884D03*
D35*
X546058Y66884D03*
D39*
X450808Y67731D03*
D74*
X472398Y67731D03*
D31*
X489758Y67731D03*
D50*
X501188Y67731D03*
D15*
X526576Y67731D03*
D69*
X546477Y67731D03*
X449957Y68577D03*
D32*
X472829Y68577D03*
D31*
X489758Y68577D03*
D50*
X501188Y68577D03*
D15*
X525738Y68577D03*
D39*
X547328Y68577D03*
D35*
X449538Y69424D03*
D75*
X473248Y69424D03*
D57*
X489327Y69424D03*
D46*
X500757Y69424D03*
D76*
X525318Y69424D03*
D45*
X547747Y69424D03*
D69*
X449118Y70271D03*
D77*
X473668Y70271D03*
D50*
X489327Y70271D03*
D31*
X497378Y70271D03*
X500757Y70271D03*
D78*
X524468Y70271D03*
D69*
X548178Y70271D03*
D42*
X448687Y71117D03*
D15*
X474099Y71117D03*
D50*
X489327Y71117D03*
D38*
X497366Y71117D03*
D50*
X501188Y71117D03*
D79*
X523617Y71117D03*
D80*
X548598Y71117D03*
D45*
X447848Y71964D03*
D76*
X474518Y71964D03*
D81*
X491448Y71964D03*
D56*
X496528Y71964D03*
D46*
X498217Y71964D03*
D82*
X502878Y71964D03*
D76*
X522778Y71964D03*
D45*
X549448Y71964D03*
D69*
X447417Y72811D03*
D71*
X476627Y72811D03*
D50*
X496108Y72811D03*
D53*
X499068Y72811D03*
D38*
X505849Y72811D03*
D78*
X521928Y72811D03*
D39*
X549868Y72811D03*
D80*
X446998Y73657D03*
D83*
X475788Y73657D03*
D53*
X488908Y73657D03*
D31*
X495677Y73657D03*
D53*
X499068Y73657D03*
D32*
X519388Y73657D03*
D42*
X550287Y73657D03*
D84*
X446578Y74504D03*
D14*
X475788Y74504D03*
D56*
X488908Y74504D03*
D60*
X495258Y74504D03*
D46*
X499918Y74504D03*
X505837Y74504D03*
D76*
X520238Y74504D03*
D84*
X550718Y74504D03*
D69*
X446578Y75351D03*
D54*
X475776Y75351D03*
D53*
X488908Y75351D03*
D31*
X494838Y75351D03*
X499918Y75351D03*
X505837Y75351D03*
D43*
X520226Y75351D03*
D69*
X550718Y75351D03*
D85*
X446578Y76197D03*
D51*
X476208Y76197D03*
D86*
X491867Y76197D03*
D87*
X502878Y76197D03*
D88*
X520238Y76197D03*
D85*
X550718Y76197D03*
D89*
X446998Y77044D03*
D48*
X476208Y77044D03*
D57*
X489327Y77044D03*
X494407Y77044D03*
D60*
X500338Y77044D03*
X505418Y77044D03*
D90*
X519819Y77044D03*
D11*
X550287Y77044D03*
D91*
X446998Y77891D03*
D92*
X477046Y77891D03*
D53*
X488908Y77891D03*
D50*
X491867Y77891D03*
D59*
X495258Y77891D03*
D50*
X499487Y77891D03*
D59*
X502878Y77891D03*
D31*
X505837Y77891D03*
D51*
X519388Y77891D03*
D93*
X550287Y77891D03*
D94*
X447417Y78737D03*
D92*
X477909Y78737D03*
D53*
X488908Y78737D03*
D50*
X491028Y78737D03*
D69*
X497378Y78737D03*
D53*
X501608Y78737D03*
D31*
X505837Y78737D03*
D95*
X518537Y78737D03*
D96*
X549868Y78737D03*
D97*
X447417Y79584D03*
D98*
X477478Y79584D03*
D35*
X487638Y79584D03*
D46*
X490597Y79584D03*
X495677Y79584D03*
D56*
X499068Y79584D03*
X501608Y79584D03*
D45*
X507107Y79584D03*
D99*
X518968Y79584D03*
D100*
X549868Y79584D03*
D101*
X447848Y80431D03*
D102*
X477897Y80431D03*
D50*
X488488Y80431D03*
D31*
X495677Y80431D03*
D53*
X499068Y80431D03*
X501608Y80431D03*
D50*
X506268Y80431D03*
D103*
X518118Y80431D03*
D101*
X549448Y80431D03*
D42*
X443607Y81277D03*
D93*
X450388Y81277D03*
D12*
X478328Y81277D03*
D50*
X489327Y81277D03*
D59*
X495258Y81277D03*
D50*
X499487Y81277D03*
D59*
X505418Y81277D03*
D104*
X517698Y81277D03*
D93*
X546908Y81277D03*
D80*
X553678Y81277D03*
D45*
X442768Y82124D03*
D105*
X451227Y82124D03*
D106*
X478748Y82124D03*
D60*
X490178Y82124D03*
D47*
X494826Y82124D03*
X499906Y82124D03*
D57*
X504567Y82124D03*
D98*
X517279Y82124D03*
D107*
X546058Y82124D03*
D45*
X554528Y82124D03*
D42*
X442768Y82971D03*
D91*
X452078Y82971D03*
D108*
X479586Y82971D03*
D39*
X491448Y82971D03*
D59*
X495258Y82971D03*
D31*
X499918Y82971D03*
D69*
X503297Y82971D03*
D109*
X516416Y82971D03*
D93*
X545207Y82971D03*
D42*
X554528Y82971D03*
D80*
X441918Y83817D03*
D93*
X452928Y83817D03*
D109*
X481719Y83817D03*
D31*
X494838Y83817D03*
X497378Y83817D03*
X499918Y83817D03*
D92*
X514308Y83817D03*
D93*
X544368Y83817D03*
D42*
X555367Y83817D03*
D35*
X441918Y84664D03*
D105*
X453767Y84664D03*
D106*
X481288Y84664D03*
D57*
X494407Y84664D03*
D47*
X497366Y84664D03*
D60*
X500338Y84664D03*
D98*
X514739Y84664D03*
D107*
X543518Y84664D03*
D45*
X555367Y84664D03*
D80*
X441918Y85511D03*
D91*
X454618Y85511D03*
D108*
X482126Y85511D03*
D94*
X497378Y85511D03*
D102*
X513457Y85511D03*
D93*
X542667Y85511D03*
D42*
X555367Y85511D03*
X441067Y86357D03*
D93*
X455468Y86357D03*
D110*
X498648Y86357D03*
D93*
X541828Y86357D03*
D80*
X556218Y86357D03*
D45*
X441067Y87204D03*
D105*
X456307Y87204D03*
D20*
X498636Y87204D03*
D107*
X540978Y87204D03*
D35*
X556218Y87204D03*
D42*
X441067Y88051D03*
D91*
X457158Y88051D03*
D111*
X498648Y88051D03*
D93*
X540127Y88051D03*
D80*
X556218Y88051D03*
D42*
X440228Y88897D03*
D93*
X458008Y88897D03*
D19*
X498648Y88897D03*
D93*
X539288Y88897D03*
D42*
X557068Y88897D03*
D45*
X440228Y89744D03*
D105*
X458847Y89744D03*
D44*
X498636Y89744D03*
D107*
X538438Y89744D03*
D45*
X557068Y89744D03*
D42*
X440228Y90591D03*
D91*
X459698Y90591D03*
D112*
X498648Y90591D03*
D93*
X537587Y90591D03*
D42*
X557068Y90591D03*
D80*
X439378Y91437D03*
D93*
X460548Y91437D03*
D70*
X498648Y91437D03*
D93*
X536748Y91437D03*
D42*
X557907Y91437D03*
D35*
X439378Y92284D03*
D105*
X461387Y92284D03*
D113*
X498636Y92284D03*
D107*
X535898Y92284D03*
D45*
X557907Y92284D03*
D80*
X439378Y93131D03*
D91*
X462238Y93131D03*
D16*
X498648Y93131D03*
D93*
X535047Y93131D03*
D42*
X557907Y93131D03*
D69*
X438958Y93977D03*
D93*
X463088Y93977D03*
D71*
X498648Y93977D03*
D93*
X534208Y93977D03*
D69*
X558338Y93977D03*
D82*
X439378Y94824D03*
D105*
X463927Y94824D03*
D114*
X498636Y94824D03*
D107*
X533358Y94824D03*
D82*
X557919Y94824D03*
D85*
X439797Y95671D03*
D91*
X464778Y95671D03*
D83*
X498648Y95671D03*
D93*
X532507Y95671D03*
D115*
X557488Y95671D03*
D86*
X440228Y96517D03*
D93*
X465628Y96517D03*
D40*
X498648Y96517D03*
D93*
X531668Y96517D03*
D86*
X557068Y96517D03*
D116*
X440648Y97364D03*
D105*
X466467Y97364D03*
D90*
X498636Y97364D03*
D107*
X530818Y97364D03*
D116*
X556649Y97364D03*
D96*
X440648Y98211D03*
D91*
X467318Y98211D03*
D117*
X498648Y98211D03*
D93*
X529967Y98211D03*
D94*
X556637Y98211D03*
D118*
X441079Y99057D03*
D93*
X468168Y99057D03*
D13*
X498648Y99057D03*
D93*
X529128Y99057D03*
D118*
X556218Y99057D03*
D97*
X441498Y99904D03*
D105*
X469007Y99904D03*
D98*
X498636Y99904D03*
D107*
X528278Y99904D03*
D97*
X555798Y99904D03*
D119*
X441918Y100751D03*
D91*
X469858Y100751D03*
D12*
X498648Y100751D03*
D93*
X527427Y100751D03*
D101*
X555367Y100751D03*
D108*
X442349Y101597D03*
D93*
X470708Y101597D03*
D101*
X498648Y101597D03*
D93*
X526588Y101597D03*
D108*
X554948Y101597D03*
D120*
X442337Y102444D03*
D105*
X471547Y102444D03*
D121*
X498636Y102444D03*
D107*
X525738Y102444D03*
D122*
X554948Y102444D03*
D109*
X442756Y103291D03*
D91*
X472398Y103291D03*
D93*
X498648Y103291D03*
X524887Y103291D03*
D109*
X554516Y103291D03*
D123*
X443188Y104137D03*
D93*
X473248Y104137D03*
D86*
X498648Y104137D03*
D93*
X524048Y104137D03*
D104*
X554097Y104137D03*
D99*
X443607Y104984D03*
D105*
X474087Y104984D03*
D82*
X498636Y104984D03*
D107*
X523198Y104984D03*
D124*
X553678Y104984D03*
D92*
X444026Y105831D03*
D91*
X474938Y105831D03*
D42*
X498648Y105831D03*
D93*
X522347Y105831D03*
D92*
X553246Y105831D03*
D125*
X444458Y106677D03*
D93*
X475788Y106677D03*
D50*
X498648Y106677D03*
D93*
X521508Y106677D03*
D117*
X552827Y106677D03*
D126*
X444877Y107524D03*
D105*
X476627Y107524D03*
D107*
X520658Y107524D03*
D127*
X552408Y107524D03*
D54*
X445296Y108371D03*
D91*
X477478Y108371D03*
D93*
X519807Y108371D03*
D54*
X551976Y108371D03*
D40*
X445308Y109217D03*
D93*
X478328Y109217D03*
X518968Y109217D03*
D40*
X551988Y109217D03*
D58*
X445728Y110064D03*
D105*
X479167Y110064D03*
D107*
X518118Y110064D03*
D58*
X551569Y110064D03*
D83*
X446147Y110911D03*
D91*
X480018Y110911D03*
D93*
X517267Y110911D03*
D128*
X551138Y110911D03*
D79*
X446578Y111757D03*
D93*
X480868Y111757D03*
X516428Y111757D03*
D79*
X550718Y111757D03*
D114*
X446998Y112604D03*
D105*
X481707Y112604D03*
D107*
X515578Y112604D03*
D114*
X550299Y112604D03*
D30*
X447417Y113451D03*
D91*
X482558Y113451D03*
D93*
X514727Y113451D03*
D77*
X549868Y113451D03*
D71*
X447848Y114297D03*
D93*
X483408Y114297D03*
X513888Y114297D03*
D71*
X549448Y114297D03*
D129*
X448268Y115144D03*
D105*
X484247Y115144D03*
D107*
X513038Y115144D03*
D129*
X549029Y115144D03*
D16*
X448687Y115991D03*
D91*
X485098Y115991D03*
D93*
X512187Y115991D03*
D74*
X548598Y115991D03*
D65*
X449118Y116837D03*
D93*
X485948Y116837D03*
X511348Y116837D03*
D65*
X548178Y116837D03*
D113*
X449538Y117684D03*
D105*
X486787Y117684D03*
D107*
X510498Y117684D03*
D113*
X547759Y117684D03*
D67*
X449957Y118531D03*
D91*
X487638Y118531D03*
D93*
X509647Y118531D03*
D130*
X547328Y118531D03*
D70*
X450388Y119377D03*
D93*
X488488Y119377D03*
X508808Y119377D03*
D70*
X546908Y119377D03*
D131*
X450808Y120224D03*
D105*
X489327Y120224D03*
D107*
X507958Y120224D03*
D131*
X546489Y120224D03*
D112*
X451227Y121071D03*
D91*
X490178Y121071D03*
D93*
X507107Y121071D03*
D132*
X546058Y121071D03*
D41*
X451658Y121917D03*
D93*
X491028Y121917D03*
X506268Y121917D03*
D41*
X545638Y121917D03*
D68*
X452497Y122764D03*
D105*
X491867Y122764D03*
D107*
X505418Y122764D03*
D63*
X544788Y122764D03*
D19*
X452928Y123611D03*
D91*
X492718Y123611D03*
D93*
X504567Y123611D03*
D19*
X544368Y123611D03*
D52*
X453348Y124457D03*
D93*
X493568Y124457D03*
X503728Y124457D03*
D52*
X543949Y124457D03*
D133*
X453767Y125304D03*
D99*
X498648Y125304D03*
D134*
X543518Y125304D03*
D135*
X454198Y126151D03*
D109*
X498636Y126151D03*
D135*
X543098Y126151D03*
D136*
X454618Y126997D03*
D12*
X498648Y126997D03*
D136*
X542679Y126997D03*
D137*
X455037Y127844D03*
D138*
X498648Y127844D03*
D139*
X542248Y127844D03*
D110*
X455468Y128691D03*
D118*
X498636Y128691D03*
D110*
X541828Y128691D03*
D49*
X455888Y129537D03*
D93*
X498648Y129537D03*
D49*
X541409Y129537D03*
D140*
X456307Y130384D03*
D11*
X498648Y130384D03*
D141*
X540978Y130384D03*
D142*
X456738Y131231D03*
D143*
X498636Y131231D03*
D142*
X540558Y131231D03*
D22*
X457158Y132077D03*
D42*
X498648Y132077D03*
D22*
X540139Y132077D03*
D144*
X443607Y132924D03*
D60*
X454618Y132924D03*
X457158Y132924D03*
X459698Y132924D03*
D57*
X463088Y132924D03*
D145*
X472817Y132924D03*
D57*
X498648Y132924D03*
D138*
X522347Y132924D03*
D56*
X529548Y132924D03*
D57*
X532507Y132924D03*
X535047Y132924D03*
D60*
X538438Y132924D03*
D58*
X551569Y132924D03*
D117*
X443607Y133771D03*
D31*
X457577Y133771D03*
D13*
X473248Y133771D03*
D108*
X521928Y133771D03*
D31*
X532938Y133771D03*
D43*
X551569Y133771D03*
D88*
X444877Y134617D03*
D38*
X459266Y134617D03*
D117*
X473248Y134617D03*
D104*
X522778Y134617D03*
D42*
X534208Y134617D03*
D79*
X550718Y134617D03*
D58*
X445728Y135464D03*
D45*
X460548Y135464D03*
D127*
X473668Y135464D03*
D48*
X522766Y135464D03*
D47*
X535466Y135464D03*
D61*
X551138Y135464D03*
D43*
X445728Y136311D03*
D38*
X460968Y136311D03*
D42*
X466467Y136311D03*
D108*
X477909Y136311D03*
D95*
X522778Y136311D03*
D80*
X535898Y136311D03*
D69*
X541397Y136311D03*
D123*
X554948Y136311D03*
D83*
X446147Y137157D03*
D42*
X461387Y137157D03*
D50*
X465628Y137157D03*
D39*
X473668Y137157D03*
D146*
X481288Y137157D03*
D54*
X522359Y137157D03*
D42*
X536748Y137157D03*
D59*
X540978Y137157D03*
D69*
X549017Y137157D03*
D118*
X557919Y137157D03*
D147*
X446147Y138004D03*
D45*
X461387Y138004D03*
D57*
X465628Y138004D03*
D60*
X472398Y138004D03*
D105*
X481707Y138004D03*
D14*
X522347Y138004D03*
D84*
X536317Y138004D03*
D60*
X540978Y138004D03*
D47*
X547328Y138004D03*
D121*
X557919Y138004D03*
D32*
X448268Y138851D03*
D80*
X464778Y138851D03*
D50*
X470708Y138851D03*
D118*
X481719Y138851D03*
D67*
X526157Y138851D03*
D59*
X546058Y138851D03*
D148*
X557488Y138851D03*
D79*
X446578Y139697D03*
D53*
X460968Y139697D03*
D50*
X463927Y139697D03*
D31*
X466898Y139697D03*
D59*
X469858Y139697D03*
D101*
X481707Y139697D03*
D83*
X521508Y139697D03*
D31*
X536317Y139697D03*
D59*
X538438Y139697D03*
D50*
X541828Y139697D03*
X544368Y139697D03*
D101*
X557068Y139697D03*
D58*
X445728Y140544D03*
D47*
X461806Y140544D03*
X467749Y140544D03*
D122*
X481288Y140544D03*
D61*
X520658Y140544D03*
D47*
X537168Y140544D03*
X543086Y140544D03*
D149*
X556218Y140544D03*
D40*
X445308Y141391D03*
D50*
X461387Y141391D03*
D59*
X467318Y141391D03*
D50*
X474087Y141391D03*
D108*
X482989Y141391D03*
D83*
X519807Y141391D03*
D50*
X536748Y141391D03*
D38*
X542248Y141391D03*
X549029Y141391D03*
D148*
X557488Y141391D03*
D88*
X444877Y142237D03*
D50*
X460548Y142237D03*
X466467Y142237D03*
D59*
X472398Y142237D03*
D12*
X483408Y142237D03*
D83*
X518968Y142237D03*
D59*
X535898Y142237D03*
D50*
X541828Y142237D03*
X547747Y142237D03*
D148*
X557488Y142237D03*
D90*
X444458Y143084D03*
D46*
X460117Y143084D03*
D56*
X466048Y143084D03*
D57*
X471547Y143084D03*
D98*
X483396Y143084D03*
D61*
X518118Y143084D03*
D57*
X535047Y143084D03*
D60*
X540978Y143084D03*
X546058Y143084D03*
D138*
X557068Y143084D03*
D95*
X444038Y143931D03*
D31*
X459278Y143931D03*
X465197Y143931D03*
X470277Y143931D03*
D123*
X483828Y143931D03*
D83*
X517267Y143931D03*
D53*
X534628Y143931D03*
D50*
X540127Y143931D03*
X545207Y143931D03*
D108*
X556649Y143931D03*
D95*
X444038Y144777D03*
D50*
X458847Y144777D03*
D59*
X464778Y144777D03*
D31*
X469438Y144777D03*
D117*
X483408Y144777D03*
D83*
X516428Y144777D03*
D31*
X533777Y144777D03*
D53*
X539708Y144777D03*
D50*
X544368Y144777D03*
D150*
X556218Y144777D03*
D144*
X443607Y145624D03*
D56*
X458428Y145624D03*
D57*
X463927Y145624D03*
D56*
X468588Y145624D03*
D57*
X474087Y145624D03*
D48*
X484666Y145624D03*
D76*
X515997Y145624D03*
D57*
X539288Y145624D03*
D60*
X543518Y145624D03*
D57*
X549448Y145624D03*
D138*
X557068Y145624D03*
D104*
X442337Y146471D03*
D31*
X451658Y146471D03*
D53*
X463508Y146471D03*
D50*
X468168Y146471D03*
X473248Y146471D03*
D125*
X485098Y146471D03*
D40*
X513888Y146471D03*
D53*
X527008Y146471D03*
D31*
X538857Y146471D03*
X543098Y146471D03*
D50*
X547747Y146471D03*
D101*
X557068Y146471D03*
D109*
X441918Y147317D03*
D31*
X451658Y147317D03*
D50*
X463088Y147317D03*
D59*
X467318Y147317D03*
X472398Y147317D03*
D95*
X485517Y147317D03*
D43*
X513469Y147317D03*
D50*
X526588Y147317D03*
D31*
X538018Y147317D03*
D50*
X542667Y147317D03*
D53*
X547328Y147317D03*
D108*
X556649Y147317D03*
D120*
X441498Y148164D03*
D56*
X450808Y148164D03*
D46*
X462657Y148164D03*
X466898Y148164D03*
D57*
X471547Y148164D03*
D151*
X485517Y148164D03*
D58*
X512606Y148164D03*
D46*
X526157Y148164D03*
X538018Y148164D03*
D56*
X542248Y148164D03*
D46*
X546477Y148164D03*
D106*
X556649Y148164D03*
D102*
X441498Y149011D03*
D53*
X450808Y149011D03*
D31*
X462657Y149011D03*
D50*
X466467Y149011D03*
X470708Y149011D03*
D40*
X485948Y149011D03*
D83*
X512187Y149011D03*
D59*
X525738Y149011D03*
D50*
X537587Y149011D03*
D31*
X541397Y149011D03*
D59*
X546058Y149011D03*
D108*
X556649Y149011D03*
D12*
X441067Y149857D03*
D50*
X450388Y149857D03*
D59*
X462238Y149857D03*
D53*
X466048Y149857D03*
D31*
X470277Y149857D03*
D43*
X486368Y149857D03*
D83*
X511348Y149857D03*
D31*
X525318Y149857D03*
D53*
X537168Y149857D03*
D31*
X541397Y149857D03*
D50*
X545207Y149857D03*
D108*
X556649Y149857D03*
D152*
X441067Y150704D03*
D46*
X449957Y150704D03*
X461818Y150704D03*
D56*
X466048Y150704D03*
D60*
X469858Y150704D03*
D153*
X499068Y150704D03*
D46*
X525318Y150704D03*
D56*
X537168Y150704D03*
D46*
X540558Y150704D03*
D56*
X544788Y150704D03*
D149*
X556218Y150704D03*
D12*
X441067Y151551D03*
D31*
X449957Y151551D03*
X461818Y151551D03*
X469438Y151551D03*
D154*
X498229Y151551D03*
D31*
X525318Y151551D03*
D50*
X536748Y151551D03*
D53*
X544788Y151551D03*
D150*
X556218Y151551D03*
D108*
X440648Y152397D03*
D31*
X449957Y152397D03*
D50*
X461387Y152397D03*
D31*
X469438Y152397D03*
D154*
X498229Y152397D03*
D53*
X524468Y152397D03*
D31*
X536317Y152397D03*
D50*
X544368Y152397D03*
D150*
X556218Y152397D03*
D106*
X440648Y153244D03*
D46*
X449957Y153244D03*
D57*
X461387Y153244D03*
D153*
X498229Y153244D03*
D56*
X524468Y153244D03*
D46*
X536317Y153244D03*
D120*
X555798Y153244D03*
D108*
X440648Y154091D03*
D31*
X449118Y154091D03*
D53*
X460968Y154091D03*
D155*
X497798Y154091D03*
D53*
X524468Y154091D03*
D31*
X536317Y154091D03*
D102*
X555798Y154091D03*
D108*
X440648Y154937D03*
D31*
X449118Y154937D03*
D53*
X460968Y154937D03*
D154*
X497366Y154937D03*
D53*
X524468Y154937D03*
D31*
X536317Y154937D03*
D109*
X555379Y154937D03*
D106*
X440648Y155784D03*
D46*
X449118Y155784D03*
D56*
X460968Y155784D03*
D23*
X496947Y155784D03*
D56*
X524468Y155784D03*
D46*
X536317Y155784D03*
D98*
X555379Y155784D03*
D108*
X440648Y156631D03*
D31*
X449118Y156631D03*
X457577Y156631D03*
D53*
X460968Y156631D03*
D156*
X496528Y156631D03*
D53*
X524468Y156631D03*
D50*
X532507Y156631D03*
D31*
X536317Y156631D03*
D123*
X554948Y156631D03*
D108*
X440648Y157477D03*
D59*
X449538Y157477D03*
D38*
X457589Y157477D03*
D50*
X461387Y157477D03*
D156*
X496528Y157477D03*
D53*
X524468Y157477D03*
D50*
X532507Y157477D03*
X536748Y157477D03*
D13*
X554528Y157477D03*
D106*
X440648Y158324D03*
D11*
X451227Y158324D03*
D57*
X456307Y158324D03*
D56*
X458428Y158324D03*
D81*
X463508Y158324D03*
D157*
X496096Y158324D03*
D11*
X526588Y158324D03*
D46*
X531237Y158324D03*
X533777Y158324D03*
D158*
X538857Y158324D03*
D48*
X554109Y158324D03*
D109*
X441918Y159171D03*
D53*
X455888Y159171D03*
D31*
X459278Y159171D03*
D42*
X466467Y159171D03*
D159*
X496959Y159171D03*
D31*
X531237Y159171D03*
X533777Y159171D03*
D42*
X541828Y159171D03*
D125*
X553678Y159171D03*
D12*
X441067Y160017D03*
D31*
X449118Y160017D03*
D53*
X455888Y160017D03*
D31*
X459278Y160017D03*
D53*
X466048Y160017D03*
D160*
X494838Y160017D03*
D53*
X524468Y160017D03*
D31*
X530398Y160017D03*
D53*
X534628Y160017D03*
D59*
X540978Y160017D03*
D54*
X552839Y160017D03*
D106*
X440648Y160864D03*
D46*
X449118Y160864D03*
X455037Y160864D03*
D60*
X459698Y160864D03*
D56*
X466048Y160864D03*
D161*
X494826Y160864D03*
D56*
X524468Y160864D03*
D46*
X530398Y160864D03*
D56*
X534628Y160864D03*
D60*
X540978Y160864D03*
D126*
X553258Y160864D03*
D101*
X440228Y161711D03*
D31*
X449118Y161711D03*
D59*
X452078Y161711D03*
D31*
X455037Y161711D03*
X460117Y161711D03*
D50*
X463088Y161711D03*
X465628Y161711D03*
D162*
X494838Y161711D03*
D53*
X524468Y161711D03*
D50*
X527427Y161711D03*
X529967Y161711D03*
D31*
X535478Y161711D03*
D50*
X537587Y161711D03*
D31*
X540558Y161711D03*
D125*
X553678Y161711D03*
D163*
X439797Y162557D03*
D42*
X450388Y162557D03*
D38*
X454186Y162557D03*
X460968Y162557D03*
X464346Y162557D03*
D24*
X495258Y162557D03*
D38*
X525306Y162557D03*
X528709Y162557D03*
X536329Y162557D03*
X539708Y162557D03*
D125*
X553678Y162557D03*
D97*
X439797Y163404D03*
D60*
X449538Y163404D03*
D46*
X455037Y163404D03*
X460117Y163404D03*
D57*
X465628Y163404D03*
D157*
X495258Y163404D03*
D56*
X524468Y163404D03*
D57*
X529967Y163404D03*
X535047Y163404D03*
D46*
X540558Y163404D03*
D164*
X553678Y163404D03*
D101*
X440228Y164251D03*
D31*
X449118Y164251D03*
D38*
X452509Y164251D03*
D50*
X455468Y164251D03*
D31*
X459278Y164251D03*
D38*
X462669Y164251D03*
D53*
X466048Y164251D03*
D162*
X494838Y164251D03*
D53*
X524468Y164251D03*
D38*
X527008Y164251D03*
D59*
X530818Y164251D03*
D50*
X534208Y164251D03*
D38*
X538006Y164251D03*
D59*
X540978Y164251D03*
D125*
X553678Y164251D03*
D108*
X440648Y165097D03*
D50*
X448687Y165097D03*
X451227Y165097D03*
D69*
X457577Y165097D03*
D50*
X461387Y165097D03*
D53*
X466048Y165097D03*
D165*
X495258Y165097D03*
D31*
X523617Y165097D03*
X526157Y165097D03*
D143*
X532519Y165097D03*
D50*
X536748Y165097D03*
D31*
X541397Y165097D03*
D54*
X552839Y165097D03*
D121*
X439378Y165944D03*
D45*
X447848Y165944D03*
D56*
X450808Y165944D03*
X455888Y165944D03*
D46*
X459278Y165944D03*
D56*
X460968Y165944D03*
D47*
X466886Y165944D03*
D166*
X494838Y165944D03*
D47*
X522766Y165944D03*
D46*
X526157Y165944D03*
D60*
X530818Y165944D03*
D56*
X534628Y165944D03*
D46*
X536317Y165944D03*
D47*
X542248Y165944D03*
D48*
X554109Y165944D03*
D163*
X439797Y166791D03*
D50*
X448687Y166791D03*
X455468Y166791D03*
D31*
X459278Y166791D03*
D53*
X466048Y166791D03*
D167*
X494838Y166791D03*
D50*
X524048Y166791D03*
D31*
X526157Y166791D03*
D59*
X530818Y166791D03*
D53*
X534628Y166791D03*
D59*
X540978Y166791D03*
D92*
X554109Y166791D03*
D163*
X439797Y167637D03*
D59*
X449538Y167637D03*
D50*
X455468Y167637D03*
D59*
X459698Y167637D03*
D31*
X465197Y167637D03*
D167*
X494838Y167637D03*
D53*
X524468Y167637D03*
D50*
X529967Y167637D03*
X535047Y167637D03*
D31*
X540558Y167637D03*
D92*
X554109Y167637D03*
D97*
X439797Y168484D03*
D47*
X450808Y168484D03*
D35*
X454618Y168484D03*
D45*
X460548Y168484D03*
D47*
X464346Y168484D03*
D157*
X495258Y168484D03*
D158*
X527858Y168484D03*
D35*
X535898Y168484D03*
D47*
X539708Y168484D03*
D164*
X553678Y168484D03*
D101*
X440228Y169331D03*
D39*
X450808Y169331D03*
D31*
X455037Y169331D03*
D59*
X459698Y169331D03*
D69*
X464358Y169331D03*
D168*
X495258Y169331D03*
D69*
X526157Y169331D03*
D31*
X530398Y169331D03*
D50*
X535047Y169331D03*
D69*
X538857Y169331D03*
D125*
X553678Y169331D03*
D109*
X441918Y170177D03*
D59*
X454618Y170177D03*
D31*
X457577Y170177D03*
X460117Y170177D03*
D169*
X494826Y170177D03*
D50*
X529967Y170177D03*
X532507Y170177D03*
D31*
X535478Y170177D03*
D40*
X551988Y170177D03*
D152*
X441067Y171024D03*
D46*
X454198Y171024D03*
D47*
X457589Y171024D03*
D57*
X460548Y171024D03*
D26*
X495258Y171024D03*
D57*
X529128Y171024D03*
D45*
X532507Y171024D03*
D60*
X535898Y171024D03*
D170*
X552408Y171024D03*
D102*
X441498Y171871D03*
D118*
X457158Y171871D03*
D169*
X494826Y171871D03*
D118*
X532519Y171871D03*
D40*
X551988Y171871D03*
D171*
X498648Y172717D03*
D172*
X498636Y173564D03*
D173*
X498636Y174411D03*
D174*
X498648Y175257D03*
D175*
X498636Y176104D03*
D176*
X498636Y176951D03*
D177*
X498648Y177797D03*
D178*
X498648Y178644D03*
D179*
X498636Y179491D03*
D180*
X498648Y180337D03*
D181*
X498648Y181184D03*
D182*
X498636Y182031D03*
D183*
X498648Y182877D03*
D184*
X498636Y183724D03*
D83*
X498648Y184571D03*
D185*
X553040Y602240D03*
X553040Y576840D03*
X527640Y576840D03*
X527640Y602240D03*
X502240Y576840D03*
X502240Y602240D03*
X476840Y576840D03*
X451440Y576840D03*
X426040Y576840D03*
X476840Y602240D03*
X451440Y602240D03*
X426040Y602240D03*
X400640Y576840D03*
X400640Y602240D03*
X375240Y576840D03*
X375240Y602240D03*
X349840Y576840D03*
X349840Y602240D03*
X324440Y576840D03*
X324440Y602240D03*
X299040Y576840D03*
X299040Y602240D03*
X273640Y576840D03*
X273640Y602240D03*
X248240Y576840D03*
X248240Y602240D03*
X222840Y576840D03*
X222840Y602240D03*
X197440Y576840D03*
X197440Y602240D03*
X172040Y576840D03*
X172040Y602240D03*
X146640Y576840D03*
X146640Y602240D03*
X121240Y576840D03*
X121240Y602240D03*
X553040Y348240D03*
X553040Y322840D03*
X527640Y322840D03*
X527640Y348240D03*
X502240Y322840D03*
X502240Y348240D03*
X476840Y322840D03*
X451440Y322840D03*
X426040Y322840D03*
X476840Y348240D03*
X451440Y348240D03*
X426040Y348240D03*
X400640Y322840D03*
X400640Y348240D03*
X375240Y322840D03*
X375240Y348240D03*
X349840Y322840D03*
X349840Y348240D03*
X324440Y322840D03*
X324440Y348240D03*
X299040Y322840D03*
X299040Y348240D03*
X273640Y322840D03*
X273640Y348240D03*
X248240Y322840D03*
X248240Y348240D03*
X222840Y322840D03*
X222840Y348240D03*
X197440Y322840D03*
X197440Y348240D03*
X172040Y322840D03*
X172040Y348240D03*
X146640Y322840D03*
X146640Y348240D03*
X121240Y322840D03*
X121240Y348240D03*
D186*
X162140Y287540D02*
X512140Y287540D01*
X514556Y287569D01*
X516971Y287657D01*
X519383Y287803D01*
X521791Y288007D01*
X524194Y288269D01*
X526589Y288589D01*
X528976Y288967D01*
X531353Y289403D01*
X533718Y289896D01*
X536072Y290446D01*
X538411Y291052D01*
X540735Y291715D01*
X543042Y292434D01*
X545331Y293209D01*
X547600Y294038D01*
X549849Y294923D01*
X552076Y295861D01*
X554280Y296853D01*
X556459Y297897D01*
X558612Y298994D01*
X560738Y300143D01*
X562836Y301343D01*
X564904Y302593D01*
X566941Y303893D01*
X568946Y305242D01*
X570919Y306638D01*
X572856Y308082D01*
X574759Y309573D01*
X576624Y311108D01*
X578452Y312689D01*
X580242Y314313D01*
X581991Y315980D01*
X583700Y317689D01*
X585367Y319438D01*
X586991Y321228D01*
X588572Y323056D01*
X590107Y324921D01*
X591598Y326824D01*
X593042Y328761D01*
X594438Y330734D01*
X595787Y332739D01*
X597087Y334776D01*
X598337Y336844D01*
X599537Y338942D01*
X600686Y341068D01*
X601783Y343221D01*
X602827Y345400D01*
X603819Y347604D01*
X604757Y349831D01*
X605642Y352080D01*
X606471Y354349D01*
X607246Y356638D01*
X607965Y358945D01*
X608628Y361269D01*
X609234Y363608D01*
X609784Y365962D01*
X610277Y368327D01*
X610713Y370704D01*
X611091Y373091D01*
X611411Y375486D01*
X611673Y377889D01*
X611877Y380297D01*
X612023Y382709D01*
X612111Y385124D01*
X612140Y387540D01*
X612140Y537540D01*
X612111Y539956D01*
X612023Y542371D01*
X611877Y544783D01*
X611673Y547191D01*
X611411Y549594D01*
X611091Y551989D01*
X610713Y554376D01*
X610277Y556753D01*
X609784Y559118D01*
X609234Y561472D01*
X608628Y563811D01*
X607965Y566135D01*
X607246Y568442D01*
X606471Y570731D01*
X605642Y573000D01*
X604757Y575249D01*
X603819Y577476D01*
X602827Y579680D01*
X601783Y581859D01*
X600686Y584012D01*
X599537Y586138D01*
X598337Y588236D01*
X597087Y590304D01*
X595787Y592341D01*
X594438Y594346D01*
X593042Y596319D01*
X591598Y598256D01*
X590107Y600159D01*
X588572Y602024D01*
X586991Y603852D01*
X585367Y605642D01*
X583700Y607391D01*
X581991Y609100D01*
X580242Y610767D01*
X578452Y612391D01*
X576624Y613972D01*
X574759Y615507D01*
X572856Y616998D01*
X570919Y618442D01*
X568946Y619838D01*
X566941Y621187D01*
X564904Y622487D01*
X562836Y623737D01*
X560738Y624937D01*
X558612Y626086D01*
X556459Y627183D01*
X554280Y628227D01*
X552076Y629219D01*
X549849Y630157D01*
X547600Y631042D01*
X545331Y631871D01*
X543042Y632646D01*
X540735Y633365D01*
X538411Y634028D01*
X536072Y634634D01*
X533718Y635184D01*
X531353Y635677D01*
X528976Y636113D01*
X526589Y636491D01*
X524194Y636811D01*
X521791Y637073D01*
X519383Y637277D01*
X516971Y637423D01*
X514556Y637511D01*
X512140Y637540D01*
X162140Y637540D01*
X159724Y637511D01*
X157309Y637423D01*
X154897Y637277D01*
X152489Y637073D01*
X150086Y636811D01*
X147691Y636491D01*
X145304Y636113D01*
X142927Y635677D01*
X140562Y635184D01*
X138208Y634634D01*
X135869Y634028D01*
X133545Y633365D01*
X131238Y632646D01*
X128949Y631871D01*
X126680Y631042D01*
X124431Y630157D01*
X122204Y629219D01*
X120000Y628227D01*
X117821Y627183D01*
X115668Y626086D01*
X113542Y624937D01*
X111444Y623737D01*
X109376Y622487D01*
X107339Y621187D01*
X105334Y619838D01*
X103361Y618442D01*
X101424Y616998D01*
X99521Y615507D01*
X97656Y613972D01*
X95828Y612391D01*
X94038Y610767D01*
X92289Y609100D01*
X90580Y607391D01*
X88913Y605642D01*
X87289Y603852D01*
X85708Y602024D01*
X84173Y600159D01*
X82682Y598256D01*
X81238Y596319D01*
X79842Y594346D01*
X78493Y592341D01*
X77193Y590304D01*
X75943Y588236D01*
X74743Y586138D01*
X73594Y584012D01*
X72497Y581859D01*
X71453Y579680D01*
X70461Y577476D01*
X69523Y575249D01*
X68638Y573000D01*
X67809Y570731D01*
X67034Y568442D01*
X66315Y566135D01*
X65652Y563811D01*
X65046Y561472D01*
X64496Y559118D01*
X64003Y556753D01*
X63567Y554376D01*
X63189Y551989D01*
X62869Y549594D01*
X62607Y547191D01*
X62403Y544783D01*
X62257Y542371D01*
X62169Y539956D01*
X62140Y537540D01*
X62140Y387540D01*
X62169Y385124D01*
X62257Y382709D01*
X62403Y380297D01*
X62607Y377889D01*
X62869Y375486D01*
X63189Y373091D01*
X63567Y370704D01*
X64003Y368327D01*
X64496Y365962D01*
X65046Y363608D01*
X65652Y361269D01*
X66315Y358945D01*
X67034Y356638D01*
X67809Y354349D01*
X68638Y352080D01*
X69523Y349831D01*
X70461Y347604D01*
X71453Y345400D01*
X72497Y343221D01*
X73594Y341068D01*
X74743Y338942D01*
X75943Y336844D01*
X77193Y334776D01*
X78493Y332739D01*
X79842Y330734D01*
X81238Y328761D01*
X82682Y326824D01*
X84173Y324921D01*
X85708Y323056D01*
X87289Y321228D01*
X88913Y319438D01*
X90580Y317689D01*
X92289Y315980D01*
X94038Y314313D01*
X95828Y312689D01*
X97656Y311108D01*
X99521Y309573D01*
X101424Y308082D01*
X103361Y306638D01*
X105334Y305242D01*
X107339Y303893D01*
X109376Y302593D01*
X111444Y301343D01*
X113542Y300143D01*
X115668Y298994D01*
X117821Y297897D01*
X120000Y296853D01*
X122204Y295861D01*
X124431Y294923D01*
X126680Y294038D01*
X128949Y293209D01*
X131238Y292434D01*
X133545Y291715D01*
X135869Y291052D01*
X138208Y290446D01*
X140562Y289896D01*
X142927Y289403D01*
X145304Y288967D01*
X147691Y288589D01*
X150086Y288269D01*
X152489Y288007D01*
X154897Y287803D01*
X157309Y287657D01*
X159724Y287569D01*
X162140Y287540D01*
D10*
X279316Y457962D02*
X279316Y469138D01*
X282420Y469138D01*
X282531Y469136D01*
X282641Y469130D01*
X282752Y469120D01*
X282862Y469106D01*
X282971Y469089D01*
X283080Y469067D01*
X283188Y469042D01*
X283294Y469012D01*
X283400Y468979D01*
X283505Y468942D01*
X283608Y468902D01*
X283709Y468857D01*
X283809Y468810D01*
X283908Y468758D01*
X284004Y468703D01*
X284098Y468645D01*
X284190Y468584D01*
X284280Y468519D01*
X284368Y468451D01*
X284453Y468380D01*
X284535Y468306D01*
X284615Y468229D01*
X284692Y468149D01*
X284766Y468067D01*
X284837Y467982D01*
X284905Y467894D01*
X284970Y467804D01*
X285031Y467712D01*
X285089Y467618D01*
X285144Y467522D01*
X285196Y467423D01*
X285243Y467323D01*
X285288Y467222D01*
X285328Y467119D01*
X285365Y467014D01*
X285398Y466908D01*
X285428Y466802D01*
X285453Y466694D01*
X285475Y466585D01*
X285492Y466476D01*
X285506Y466366D01*
X285516Y466255D01*
X285522Y466145D01*
X285524Y466034D01*
X285522Y465923D01*
X285516Y465813D01*
X285506Y465702D01*
X285492Y465592D01*
X285475Y465483D01*
X285453Y465374D01*
X285428Y465266D01*
X285398Y465160D01*
X285365Y465054D01*
X285328Y464949D01*
X285288Y464846D01*
X285243Y464745D01*
X285196Y464645D01*
X285144Y464546D01*
X285089Y464450D01*
X285031Y464356D01*
X284970Y464264D01*
X284905Y464174D01*
X284837Y464086D01*
X284766Y464001D01*
X284692Y463919D01*
X284615Y463839D01*
X284535Y463762D01*
X284453Y463688D01*
X284368Y463617D01*
X284280Y463549D01*
X284190Y463484D01*
X284098Y463423D01*
X284004Y463365D01*
X283908Y463310D01*
X283809Y463258D01*
X283709Y463211D01*
X283608Y463166D01*
X283505Y463126D01*
X283400Y463089D01*
X283294Y463056D01*
X283188Y463026D01*
X283080Y463001D01*
X282971Y462979D01*
X282862Y462962D01*
X282752Y462948D01*
X282641Y462938D01*
X282531Y462932D01*
X282420Y462930D01*
X282420Y462929D02*
X279316Y462929D01*
X290012Y462929D02*
X290012Y460446D01*
X290011Y462929D02*
X290013Y463028D01*
X290019Y463126D01*
X290029Y463225D01*
X290042Y463322D01*
X290060Y463420D01*
X290081Y463516D01*
X290107Y463612D01*
X290136Y463706D01*
X290168Y463799D01*
X290205Y463891D01*
X290245Y463981D01*
X290289Y464070D01*
X290336Y464157D01*
X290386Y464242D01*
X290440Y464324D01*
X290497Y464405D01*
X290557Y464483D01*
X290621Y464559D01*
X290687Y464632D01*
X290756Y464703D01*
X290828Y464771D01*
X290903Y464835D01*
X290980Y464897D01*
X291059Y464956D01*
X291141Y465011D01*
X291225Y465064D01*
X291310Y465112D01*
X291398Y465158D01*
X291488Y465200D01*
X291579Y465238D01*
X291671Y465272D01*
X291765Y465303D01*
X291860Y465330D01*
X291956Y465354D01*
X292053Y465373D01*
X292150Y465389D01*
X292248Y465401D01*
X292347Y465409D01*
X292446Y465413D01*
X292544Y465413D01*
X292643Y465409D01*
X292742Y465401D01*
X292840Y465389D01*
X292937Y465373D01*
X293034Y465354D01*
X293130Y465330D01*
X293225Y465303D01*
X293319Y465272D01*
X293411Y465238D01*
X293502Y465200D01*
X293592Y465158D01*
X293680Y465112D01*
X293765Y465064D01*
X293849Y465011D01*
X293931Y464956D01*
X294010Y464897D01*
X294087Y464835D01*
X294162Y464771D01*
X294234Y464703D01*
X294303Y464632D01*
X294369Y464559D01*
X294433Y464483D01*
X294493Y464405D01*
X294550Y464324D01*
X294604Y464242D01*
X294654Y464157D01*
X294701Y464070D01*
X294745Y463981D01*
X294785Y463891D01*
X294822Y463799D01*
X294854Y463706D01*
X294883Y463612D01*
X294909Y463516D01*
X294930Y463420D01*
X294948Y463322D01*
X294961Y463225D01*
X294971Y463126D01*
X294977Y463028D01*
X294979Y462929D01*
X294979Y460446D01*
X294977Y460347D01*
X294971Y460249D01*
X294961Y460150D01*
X294948Y460053D01*
X294930Y459955D01*
X294909Y459859D01*
X294883Y459763D01*
X294854Y459669D01*
X294822Y459576D01*
X294785Y459484D01*
X294745Y459394D01*
X294701Y459305D01*
X294654Y459218D01*
X294604Y459133D01*
X294550Y459051D01*
X294493Y458970D01*
X294433Y458892D01*
X294369Y458816D01*
X294303Y458743D01*
X294234Y458672D01*
X294162Y458604D01*
X294087Y458540D01*
X294010Y458478D01*
X293931Y458419D01*
X293849Y458364D01*
X293765Y458311D01*
X293680Y458263D01*
X293592Y458217D01*
X293502Y458175D01*
X293411Y458137D01*
X293319Y458103D01*
X293225Y458072D01*
X293130Y458045D01*
X293034Y458021D01*
X292937Y458002D01*
X292840Y457986D01*
X292742Y457974D01*
X292643Y457966D01*
X292544Y457962D01*
X292446Y457962D01*
X292347Y457966D01*
X292248Y457974D01*
X292150Y457986D01*
X292053Y458002D01*
X291956Y458021D01*
X291860Y458045D01*
X291765Y458072D01*
X291671Y458103D01*
X291579Y458137D01*
X291488Y458175D01*
X291398Y458217D01*
X291310Y458263D01*
X291225Y458311D01*
X291141Y458364D01*
X291059Y458419D01*
X290980Y458478D01*
X290903Y458540D01*
X290828Y458604D01*
X290756Y458672D01*
X290687Y458743D01*
X290621Y458816D01*
X290557Y458892D01*
X290497Y458970D01*
X290440Y459051D01*
X290386Y459133D01*
X290336Y459218D01*
X290289Y459305D01*
X290245Y459394D01*
X290205Y459484D01*
X290168Y459576D01*
X290136Y459669D01*
X290107Y459763D01*
X290081Y459859D01*
X290060Y459955D01*
X290042Y460053D01*
X290029Y460150D01*
X290019Y460249D01*
X290013Y460347D01*
X290011Y460446D01*
X301797Y457962D02*
X304280Y457962D01*
X301797Y457962D02*
X301713Y457964D01*
X301630Y457969D01*
X301547Y457979D01*
X301464Y457992D01*
X301382Y458009D01*
X301301Y458029D01*
X301221Y458053D01*
X301142Y458081D01*
X301065Y458112D01*
X300989Y458146D01*
X300914Y458184D01*
X300841Y458226D01*
X300771Y458270D01*
X300702Y458318D01*
X300635Y458368D01*
X300571Y458422D01*
X300510Y458478D01*
X300450Y458538D01*
X300394Y458599D01*
X300340Y458663D01*
X300290Y458730D01*
X300242Y458799D01*
X300198Y458869D01*
X300156Y458942D01*
X300118Y459017D01*
X300084Y459093D01*
X300053Y459170D01*
X300025Y459249D01*
X300001Y459329D01*
X299981Y459410D01*
X299964Y459492D01*
X299951Y459575D01*
X299941Y459658D01*
X299936Y459741D01*
X299934Y459825D01*
X299934Y463550D01*
X299936Y463634D01*
X299942Y463717D01*
X299951Y463800D01*
X299964Y463883D01*
X299981Y463965D01*
X300001Y464046D01*
X300025Y464126D01*
X300053Y464205D01*
X300084Y464282D01*
X300118Y464358D01*
X300156Y464433D01*
X300198Y464506D01*
X300242Y464576D01*
X300290Y464645D01*
X300340Y464712D01*
X300394Y464776D01*
X300450Y464837D01*
X300510Y464897D01*
X300571Y464953D01*
X300635Y465007D01*
X300702Y465057D01*
X300771Y465105D01*
X300841Y465149D01*
X300914Y465191D01*
X300989Y465229D01*
X301065Y465263D01*
X301142Y465294D01*
X301221Y465322D01*
X301301Y465346D01*
X301382Y465366D01*
X301464Y465383D01*
X301547Y465396D01*
X301630Y465406D01*
X301713Y465411D01*
X301797Y465413D01*
X304280Y465413D01*
X309231Y469138D02*
X309231Y457962D01*
X309231Y461687D02*
X314198Y465413D01*
X311404Y463240D02*
X314198Y457962D01*
X320449Y457962D02*
X323554Y457962D01*
X320449Y457962D02*
X320365Y457964D01*
X320282Y457969D01*
X320199Y457979D01*
X320116Y457992D01*
X320034Y458009D01*
X319953Y458029D01*
X319873Y458053D01*
X319794Y458081D01*
X319717Y458112D01*
X319641Y458146D01*
X319566Y458184D01*
X319493Y458226D01*
X319423Y458270D01*
X319354Y458318D01*
X319287Y458368D01*
X319223Y458422D01*
X319162Y458478D01*
X319102Y458538D01*
X319046Y458599D01*
X318992Y458663D01*
X318942Y458730D01*
X318894Y458799D01*
X318850Y458869D01*
X318808Y458942D01*
X318770Y459017D01*
X318736Y459093D01*
X318705Y459170D01*
X318677Y459249D01*
X318653Y459329D01*
X318633Y459410D01*
X318616Y459492D01*
X318603Y459575D01*
X318593Y459658D01*
X318588Y459741D01*
X318586Y459825D01*
X318587Y459825D02*
X318587Y462929D01*
X318586Y462929D02*
X318588Y463028D01*
X318594Y463126D01*
X318604Y463225D01*
X318617Y463322D01*
X318635Y463420D01*
X318656Y463516D01*
X318682Y463612D01*
X318711Y463706D01*
X318743Y463799D01*
X318780Y463891D01*
X318820Y463981D01*
X318864Y464070D01*
X318911Y464157D01*
X318961Y464242D01*
X319015Y464324D01*
X319072Y464405D01*
X319132Y464483D01*
X319196Y464559D01*
X319262Y464632D01*
X319331Y464703D01*
X319403Y464771D01*
X319478Y464835D01*
X319555Y464897D01*
X319634Y464956D01*
X319716Y465011D01*
X319800Y465064D01*
X319885Y465112D01*
X319973Y465158D01*
X320063Y465200D01*
X320154Y465238D01*
X320246Y465272D01*
X320340Y465303D01*
X320435Y465330D01*
X320531Y465354D01*
X320628Y465373D01*
X320725Y465389D01*
X320823Y465401D01*
X320922Y465409D01*
X321021Y465413D01*
X321119Y465413D01*
X321218Y465409D01*
X321317Y465401D01*
X321415Y465389D01*
X321512Y465373D01*
X321609Y465354D01*
X321705Y465330D01*
X321800Y465303D01*
X321894Y465272D01*
X321986Y465238D01*
X322077Y465200D01*
X322167Y465158D01*
X322255Y465112D01*
X322340Y465064D01*
X322424Y465011D01*
X322506Y464956D01*
X322585Y464897D01*
X322662Y464835D01*
X322737Y464771D01*
X322809Y464703D01*
X322878Y464632D01*
X322944Y464559D01*
X323008Y464483D01*
X323068Y464405D01*
X323125Y464324D01*
X323179Y464242D01*
X323229Y464157D01*
X323276Y464070D01*
X323320Y463981D01*
X323360Y463891D01*
X323397Y463799D01*
X323429Y463706D01*
X323458Y463612D01*
X323484Y463516D01*
X323505Y463420D01*
X323523Y463322D01*
X323536Y463225D01*
X323546Y463126D01*
X323552Y463028D01*
X323554Y462929D01*
X323554Y461687D01*
X318587Y461687D01*
X327474Y465413D02*
X331199Y465413D01*
X328716Y469138D02*
X328716Y459825D01*
X328715Y459825D02*
X328717Y459741D01*
X328722Y459658D01*
X328732Y459575D01*
X328745Y459492D01*
X328762Y459410D01*
X328782Y459329D01*
X328806Y459249D01*
X328834Y459170D01*
X328865Y459093D01*
X328899Y459017D01*
X328937Y458942D01*
X328979Y458869D01*
X329023Y458799D01*
X329071Y458730D01*
X329121Y458663D01*
X329175Y458599D01*
X329231Y458538D01*
X329291Y458478D01*
X329352Y458422D01*
X329416Y458368D01*
X329483Y458318D01*
X329552Y458270D01*
X329622Y458226D01*
X329695Y458184D01*
X329770Y458146D01*
X329846Y458112D01*
X329923Y458081D01*
X330002Y458053D01*
X330082Y458029D01*
X330163Y458009D01*
X330245Y457992D01*
X330328Y457979D01*
X330411Y457969D01*
X330494Y457964D01*
X330578Y457962D01*
X331199Y457962D01*
X336465Y464171D02*
X339570Y464171D01*
X339570Y464170D02*
X339681Y464168D01*
X339791Y464162D01*
X339902Y464152D01*
X340012Y464138D01*
X340121Y464121D01*
X340230Y464099D01*
X340338Y464074D01*
X340444Y464044D01*
X340550Y464011D01*
X340655Y463974D01*
X340758Y463934D01*
X340859Y463889D01*
X340959Y463842D01*
X341058Y463790D01*
X341154Y463735D01*
X341248Y463677D01*
X341340Y463616D01*
X341430Y463551D01*
X341518Y463483D01*
X341603Y463412D01*
X341685Y463338D01*
X341765Y463261D01*
X341842Y463181D01*
X341916Y463099D01*
X341987Y463014D01*
X342055Y462926D01*
X342120Y462836D01*
X342181Y462744D01*
X342239Y462650D01*
X342294Y462554D01*
X342346Y462455D01*
X342393Y462355D01*
X342438Y462254D01*
X342478Y462151D01*
X342515Y462046D01*
X342548Y461940D01*
X342578Y461834D01*
X342603Y461726D01*
X342625Y461617D01*
X342642Y461508D01*
X342656Y461398D01*
X342666Y461287D01*
X342672Y461177D01*
X342674Y461066D01*
X342672Y460955D01*
X342666Y460845D01*
X342656Y460734D01*
X342642Y460624D01*
X342625Y460515D01*
X342603Y460406D01*
X342578Y460298D01*
X342548Y460192D01*
X342515Y460086D01*
X342478Y459981D01*
X342438Y459878D01*
X342393Y459777D01*
X342346Y459677D01*
X342294Y459578D01*
X342239Y459482D01*
X342181Y459388D01*
X342120Y459296D01*
X342055Y459206D01*
X341987Y459118D01*
X341916Y459033D01*
X341842Y458951D01*
X341765Y458871D01*
X341685Y458794D01*
X341603Y458720D01*
X341518Y458649D01*
X341430Y458581D01*
X341340Y458516D01*
X341248Y458455D01*
X341154Y458397D01*
X341058Y458342D01*
X340959Y458290D01*
X340859Y458243D01*
X340758Y458198D01*
X340655Y458158D01*
X340550Y458121D01*
X340444Y458088D01*
X340338Y458058D01*
X340230Y458033D01*
X340121Y458011D01*
X340012Y457994D01*
X339902Y457980D01*
X339791Y457970D01*
X339681Y457964D01*
X339570Y457962D01*
X336465Y457962D01*
X336465Y469138D01*
X339570Y469138D01*
X339669Y469136D01*
X339767Y469130D01*
X339866Y469120D01*
X339963Y469107D01*
X340061Y469089D01*
X340157Y469068D01*
X340253Y469042D01*
X340347Y469013D01*
X340440Y468981D01*
X340532Y468944D01*
X340622Y468904D01*
X340711Y468860D01*
X340798Y468813D01*
X340883Y468763D01*
X340965Y468709D01*
X341046Y468652D01*
X341124Y468592D01*
X341200Y468528D01*
X341273Y468462D01*
X341344Y468393D01*
X341412Y468321D01*
X341476Y468246D01*
X341538Y468169D01*
X341597Y468090D01*
X341652Y468008D01*
X341705Y467924D01*
X341753Y467839D01*
X341799Y467751D01*
X341841Y467661D01*
X341879Y467570D01*
X341913Y467478D01*
X341944Y467384D01*
X341971Y467289D01*
X341995Y467193D01*
X342014Y467096D01*
X342030Y466999D01*
X342042Y466901D01*
X342050Y466802D01*
X342054Y466703D01*
X342054Y466605D01*
X342050Y466506D01*
X342042Y466407D01*
X342030Y466309D01*
X342014Y466212D01*
X341995Y466115D01*
X341971Y466019D01*
X341944Y465924D01*
X341913Y465830D01*
X341879Y465738D01*
X341841Y465647D01*
X341799Y465557D01*
X341753Y465469D01*
X341705Y465384D01*
X341652Y465300D01*
X341597Y465218D01*
X341538Y465139D01*
X341476Y465062D01*
X341412Y464987D01*
X341344Y464915D01*
X341273Y464846D01*
X341200Y464780D01*
X341124Y464716D01*
X341046Y464656D01*
X340965Y464599D01*
X340883Y464545D01*
X340798Y464495D01*
X340711Y464448D01*
X340622Y464404D01*
X340532Y464364D01*
X340440Y464327D01*
X340347Y464295D01*
X340253Y464266D01*
X340157Y464240D01*
X340061Y464219D01*
X339963Y464201D01*
X339866Y464188D01*
X339767Y464178D01*
X339669Y464172D01*
X339570Y464170D01*
X349024Y457962D02*
X352129Y457962D01*
X349024Y457962D02*
X348940Y457964D01*
X348857Y457969D01*
X348774Y457979D01*
X348691Y457992D01*
X348609Y458009D01*
X348528Y458029D01*
X348448Y458053D01*
X348369Y458081D01*
X348292Y458112D01*
X348216Y458146D01*
X348141Y458184D01*
X348068Y458226D01*
X347998Y458270D01*
X347929Y458318D01*
X347862Y458368D01*
X347798Y458422D01*
X347737Y458478D01*
X347677Y458538D01*
X347621Y458599D01*
X347567Y458663D01*
X347517Y458730D01*
X347469Y458799D01*
X347425Y458869D01*
X347383Y458942D01*
X347345Y459017D01*
X347311Y459093D01*
X347280Y459170D01*
X347252Y459249D01*
X347228Y459329D01*
X347208Y459410D01*
X347191Y459492D01*
X347178Y459575D01*
X347168Y459658D01*
X347163Y459741D01*
X347161Y459825D01*
X347162Y459825D02*
X347162Y462929D01*
X347161Y462929D02*
X347163Y463028D01*
X347169Y463126D01*
X347179Y463225D01*
X347192Y463322D01*
X347210Y463420D01*
X347231Y463516D01*
X347257Y463612D01*
X347286Y463706D01*
X347318Y463799D01*
X347355Y463891D01*
X347395Y463981D01*
X347439Y464070D01*
X347486Y464157D01*
X347536Y464242D01*
X347590Y464324D01*
X347647Y464405D01*
X347707Y464483D01*
X347771Y464559D01*
X347837Y464632D01*
X347906Y464703D01*
X347978Y464771D01*
X348053Y464835D01*
X348130Y464897D01*
X348209Y464956D01*
X348291Y465011D01*
X348375Y465064D01*
X348460Y465112D01*
X348548Y465158D01*
X348638Y465200D01*
X348729Y465238D01*
X348821Y465272D01*
X348915Y465303D01*
X349010Y465330D01*
X349106Y465354D01*
X349203Y465373D01*
X349300Y465389D01*
X349398Y465401D01*
X349497Y465409D01*
X349596Y465413D01*
X349694Y465413D01*
X349793Y465409D01*
X349892Y465401D01*
X349990Y465389D01*
X350087Y465373D01*
X350184Y465354D01*
X350280Y465330D01*
X350375Y465303D01*
X350469Y465272D01*
X350561Y465238D01*
X350652Y465200D01*
X350742Y465158D01*
X350830Y465112D01*
X350915Y465064D01*
X350999Y465011D01*
X351081Y464956D01*
X351160Y464897D01*
X351237Y464835D01*
X351312Y464771D01*
X351384Y464703D01*
X351453Y464632D01*
X351519Y464559D01*
X351583Y464483D01*
X351643Y464405D01*
X351700Y464324D01*
X351754Y464242D01*
X351804Y464157D01*
X351851Y464070D01*
X351895Y463981D01*
X351935Y463891D01*
X351972Y463799D01*
X352004Y463706D01*
X352033Y463612D01*
X352059Y463516D01*
X352080Y463420D01*
X352098Y463322D01*
X352111Y463225D01*
X352121Y463126D01*
X352127Y463028D01*
X352129Y462929D01*
X352129Y461687D01*
X347162Y461687D01*
X359167Y462308D02*
X361961Y462308D01*
X359167Y462308D02*
X359075Y462306D01*
X358983Y462300D01*
X358891Y462290D01*
X358800Y462277D01*
X358709Y462259D01*
X358619Y462238D01*
X358531Y462213D01*
X358443Y462184D01*
X358357Y462151D01*
X358272Y462115D01*
X358189Y462075D01*
X358107Y462032D01*
X358028Y461985D01*
X357950Y461935D01*
X357875Y461882D01*
X357802Y461826D01*
X357731Y461766D01*
X357663Y461704D01*
X357598Y461639D01*
X357536Y461571D01*
X357476Y461500D01*
X357420Y461427D01*
X357367Y461352D01*
X357317Y461274D01*
X357270Y461195D01*
X357227Y461113D01*
X357187Y461030D01*
X357151Y460945D01*
X357118Y460859D01*
X357089Y460771D01*
X357064Y460683D01*
X357043Y460593D01*
X357025Y460502D01*
X357012Y460411D01*
X357002Y460319D01*
X356996Y460227D01*
X356994Y460135D01*
X356996Y460043D01*
X357002Y459951D01*
X357012Y459859D01*
X357025Y459768D01*
X357043Y459677D01*
X357064Y459587D01*
X357089Y459499D01*
X357118Y459411D01*
X357151Y459325D01*
X357187Y459240D01*
X357227Y459157D01*
X357270Y459075D01*
X357317Y458996D01*
X357367Y458918D01*
X357420Y458843D01*
X357476Y458770D01*
X357536Y458699D01*
X357598Y458631D01*
X357663Y458566D01*
X357731Y458504D01*
X357802Y458444D01*
X357875Y458388D01*
X357950Y458335D01*
X358028Y458285D01*
X358107Y458238D01*
X358189Y458195D01*
X358272Y458155D01*
X358357Y458119D01*
X358443Y458086D01*
X358531Y458057D01*
X358619Y458032D01*
X358709Y458011D01*
X358800Y457993D01*
X358891Y457980D01*
X358983Y457970D01*
X359075Y457964D01*
X359167Y457962D01*
X361961Y457962D01*
X361961Y463550D01*
X361959Y463634D01*
X361954Y463717D01*
X361944Y463800D01*
X361931Y463883D01*
X361914Y463965D01*
X361894Y464046D01*
X361870Y464126D01*
X361842Y464205D01*
X361811Y464282D01*
X361777Y464358D01*
X361739Y464433D01*
X361697Y464506D01*
X361653Y464576D01*
X361605Y464645D01*
X361555Y464712D01*
X361501Y464776D01*
X361445Y464837D01*
X361385Y464897D01*
X361324Y464953D01*
X361260Y465007D01*
X361193Y465057D01*
X361124Y465105D01*
X361054Y465149D01*
X360981Y465191D01*
X360906Y465229D01*
X360830Y465263D01*
X360753Y465294D01*
X360674Y465322D01*
X360594Y465346D01*
X360513Y465366D01*
X360431Y465383D01*
X360348Y465396D01*
X360265Y465406D01*
X360182Y465411D01*
X360098Y465413D01*
X357615Y465413D01*
X369143Y457962D02*
X372248Y457962D01*
X369143Y457962D02*
X369059Y457964D01*
X368976Y457969D01*
X368893Y457979D01*
X368810Y457992D01*
X368728Y458009D01*
X368647Y458029D01*
X368567Y458053D01*
X368488Y458081D01*
X368411Y458112D01*
X368335Y458146D01*
X368260Y458184D01*
X368187Y458226D01*
X368117Y458270D01*
X368048Y458318D01*
X367981Y458368D01*
X367917Y458422D01*
X367856Y458478D01*
X367796Y458538D01*
X367740Y458599D01*
X367686Y458663D01*
X367636Y458730D01*
X367588Y458799D01*
X367544Y458869D01*
X367502Y458942D01*
X367464Y459017D01*
X367430Y459093D01*
X367399Y459170D01*
X367371Y459249D01*
X367347Y459329D01*
X367327Y459410D01*
X367310Y459492D01*
X367297Y459575D01*
X367287Y459658D01*
X367282Y459741D01*
X367280Y459825D01*
X367281Y459825D02*
X367281Y463550D01*
X367280Y463550D02*
X367282Y463634D01*
X367288Y463717D01*
X367297Y463800D01*
X367310Y463883D01*
X367327Y463965D01*
X367347Y464046D01*
X367371Y464126D01*
X367399Y464205D01*
X367430Y464282D01*
X367464Y464358D01*
X367502Y464433D01*
X367544Y464506D01*
X367588Y464576D01*
X367636Y464645D01*
X367686Y464712D01*
X367740Y464776D01*
X367796Y464837D01*
X367856Y464897D01*
X367917Y464953D01*
X367981Y465007D01*
X368048Y465057D01*
X368117Y465105D01*
X368187Y465149D01*
X368260Y465191D01*
X368335Y465229D01*
X368411Y465263D01*
X368488Y465294D01*
X368567Y465322D01*
X368647Y465346D01*
X368728Y465366D01*
X368810Y465383D01*
X368893Y465396D01*
X368976Y465406D01*
X369059Y465411D01*
X369143Y465413D01*
X372248Y465413D01*
X372248Y456099D01*
X372246Y456013D01*
X372240Y455927D01*
X372230Y455842D01*
X372216Y455757D01*
X372199Y455672D01*
X372177Y455589D01*
X372151Y455507D01*
X372122Y455426D01*
X372089Y455347D01*
X372053Y455269D01*
X372013Y455192D01*
X371969Y455118D01*
X371922Y455046D01*
X371872Y454976D01*
X371818Y454909D01*
X371762Y454844D01*
X371702Y454782D01*
X371640Y454722D01*
X371575Y454666D01*
X371508Y454612D01*
X371438Y454562D01*
X371366Y454515D01*
X371292Y454471D01*
X371215Y454431D01*
X371138Y454395D01*
X371058Y454362D01*
X370977Y454333D01*
X370895Y454307D01*
X370812Y454285D01*
X370727Y454268D01*
X370642Y454254D01*
X370557Y454244D01*
X370471Y454238D01*
X370385Y454236D01*
X370385Y454237D02*
X367902Y454237D01*
X377733Y459825D02*
X377733Y469138D01*
X377733Y459825D02*
X377735Y459741D01*
X377740Y459658D01*
X377750Y459575D01*
X377763Y459492D01*
X377780Y459410D01*
X377800Y459329D01*
X377824Y459249D01*
X377852Y459170D01*
X377883Y459093D01*
X377917Y459017D01*
X377955Y458942D01*
X377997Y458869D01*
X378041Y458799D01*
X378089Y458730D01*
X378139Y458663D01*
X378193Y458599D01*
X378249Y458538D01*
X378309Y458478D01*
X378370Y458422D01*
X378434Y458368D01*
X378501Y458318D01*
X378570Y458270D01*
X378640Y458226D01*
X378713Y458184D01*
X378788Y458146D01*
X378864Y458112D01*
X378941Y458081D01*
X379020Y458053D01*
X379100Y458029D01*
X379181Y458009D01*
X379263Y457992D01*
X379346Y457979D01*
X379429Y457969D01*
X379512Y457964D01*
X379596Y457962D01*
X385600Y457962D02*
X388704Y457962D01*
X385600Y457962D02*
X385516Y457964D01*
X385433Y457969D01*
X385350Y457979D01*
X385267Y457992D01*
X385185Y458009D01*
X385104Y458029D01*
X385024Y458053D01*
X384945Y458081D01*
X384868Y458112D01*
X384792Y458146D01*
X384717Y458184D01*
X384644Y458226D01*
X384574Y458270D01*
X384505Y458318D01*
X384438Y458368D01*
X384374Y458422D01*
X384313Y458478D01*
X384253Y458538D01*
X384197Y458599D01*
X384143Y458663D01*
X384093Y458730D01*
X384045Y458799D01*
X384001Y458869D01*
X383959Y458942D01*
X383921Y459017D01*
X383887Y459093D01*
X383856Y459170D01*
X383828Y459249D01*
X383804Y459329D01*
X383784Y459410D01*
X383767Y459492D01*
X383754Y459575D01*
X383744Y459658D01*
X383739Y459741D01*
X383737Y459825D01*
X383737Y462929D01*
X383739Y463028D01*
X383745Y463126D01*
X383755Y463225D01*
X383768Y463322D01*
X383786Y463420D01*
X383807Y463516D01*
X383833Y463612D01*
X383862Y463706D01*
X383894Y463799D01*
X383931Y463891D01*
X383971Y463981D01*
X384015Y464070D01*
X384062Y464157D01*
X384112Y464242D01*
X384166Y464324D01*
X384223Y464405D01*
X384283Y464483D01*
X384347Y464559D01*
X384413Y464632D01*
X384482Y464703D01*
X384554Y464771D01*
X384629Y464835D01*
X384706Y464897D01*
X384785Y464956D01*
X384867Y465011D01*
X384951Y465064D01*
X385036Y465112D01*
X385124Y465158D01*
X385214Y465200D01*
X385305Y465238D01*
X385397Y465272D01*
X385491Y465303D01*
X385586Y465330D01*
X385682Y465354D01*
X385779Y465373D01*
X385876Y465389D01*
X385974Y465401D01*
X386073Y465409D01*
X386172Y465413D01*
X386270Y465413D01*
X386369Y465409D01*
X386468Y465401D01*
X386566Y465389D01*
X386663Y465373D01*
X386760Y465354D01*
X386856Y465330D01*
X386951Y465303D01*
X387045Y465272D01*
X387137Y465238D01*
X387228Y465200D01*
X387318Y465158D01*
X387406Y465112D01*
X387491Y465064D01*
X387575Y465011D01*
X387657Y464956D01*
X387736Y464897D01*
X387813Y464835D01*
X387888Y464771D01*
X387960Y464703D01*
X388029Y464632D01*
X388095Y464559D01*
X388159Y464483D01*
X388219Y464405D01*
X388276Y464324D01*
X388330Y464242D01*
X388380Y464157D01*
X388427Y464070D01*
X388471Y463981D01*
X388511Y463891D01*
X388548Y463799D01*
X388580Y463706D01*
X388609Y463612D01*
X388635Y463516D01*
X388656Y463420D01*
X388674Y463322D01*
X388687Y463225D01*
X388697Y463126D01*
X388703Y463028D01*
X388705Y462929D01*
X388704Y462929D02*
X388704Y461687D01*
X383737Y461687D01*
X579797Y424251D02*
X587248Y424251D01*
X579797Y424251D02*
X579797Y429839D01*
X579799Y429923D01*
X579805Y430006D01*
X579814Y430089D01*
X579827Y430172D01*
X579844Y430254D01*
X579864Y430335D01*
X579888Y430415D01*
X579916Y430494D01*
X579947Y430571D01*
X579981Y430647D01*
X580019Y430722D01*
X580061Y430795D01*
X580105Y430865D01*
X580153Y430934D01*
X580203Y431001D01*
X580257Y431065D01*
X580313Y431126D01*
X580373Y431186D01*
X580434Y431242D01*
X580498Y431296D01*
X580565Y431346D01*
X580634Y431394D01*
X580704Y431438D01*
X580777Y431480D01*
X580852Y431518D01*
X580928Y431552D01*
X581005Y431583D01*
X581084Y431611D01*
X581164Y431635D01*
X581245Y431655D01*
X581327Y431672D01*
X581410Y431685D01*
X581493Y431695D01*
X581576Y431700D01*
X581660Y431702D01*
X581660Y431701D02*
X587248Y431701D01*
X587248Y427976D02*
X579797Y427976D01*
X579797Y437120D02*
X587248Y437120D01*
X576693Y436810D02*
X576072Y436810D01*
X576072Y437430D01*
X576693Y437430D01*
X576693Y436810D01*
X587248Y443755D02*
X587248Y446238D01*
X587248Y443755D02*
X587246Y443669D01*
X587240Y443583D01*
X587230Y443498D01*
X587216Y443413D01*
X587199Y443328D01*
X587177Y443245D01*
X587151Y443163D01*
X587122Y443082D01*
X587089Y443003D01*
X587053Y442925D01*
X587013Y442848D01*
X586969Y442774D01*
X586922Y442702D01*
X586872Y442632D01*
X586818Y442565D01*
X586762Y442500D01*
X586702Y442438D01*
X586640Y442378D01*
X586575Y442322D01*
X586508Y442268D01*
X586438Y442218D01*
X586366Y442171D01*
X586292Y442127D01*
X586215Y442087D01*
X586138Y442051D01*
X586058Y442018D01*
X585977Y441989D01*
X585895Y441963D01*
X585812Y441941D01*
X585727Y441924D01*
X585642Y441910D01*
X585557Y441900D01*
X585471Y441894D01*
X585385Y441892D01*
X581660Y441892D01*
X581576Y441894D01*
X581493Y441899D01*
X581410Y441909D01*
X581327Y441922D01*
X581245Y441939D01*
X581164Y441959D01*
X581084Y441983D01*
X581005Y442011D01*
X580928Y442042D01*
X580852Y442076D01*
X580777Y442114D01*
X580704Y442156D01*
X580634Y442200D01*
X580565Y442248D01*
X580498Y442298D01*
X580434Y442352D01*
X580373Y442408D01*
X580313Y442468D01*
X580257Y442529D01*
X580203Y442593D01*
X580153Y442660D01*
X580105Y442729D01*
X580061Y442799D01*
X580019Y442872D01*
X579981Y442947D01*
X579947Y443023D01*
X579916Y443100D01*
X579888Y443179D01*
X579864Y443259D01*
X579844Y443340D01*
X579827Y443422D01*
X579814Y443505D01*
X579804Y443588D01*
X579799Y443671D01*
X579797Y443755D01*
X579797Y446238D01*
X579797Y451102D02*
X587248Y451102D01*
X579797Y451102D02*
X579797Y454828D01*
X581039Y454828D01*
X582281Y458639D02*
X584764Y458639D01*
X582281Y458639D02*
X582182Y458641D01*
X582084Y458647D01*
X581985Y458657D01*
X581888Y458670D01*
X581790Y458688D01*
X581694Y458709D01*
X581598Y458735D01*
X581504Y458764D01*
X581411Y458796D01*
X581319Y458833D01*
X581229Y458873D01*
X581140Y458917D01*
X581053Y458964D01*
X580968Y459014D01*
X580886Y459068D01*
X580805Y459125D01*
X580727Y459185D01*
X580651Y459249D01*
X580578Y459315D01*
X580507Y459384D01*
X580439Y459456D01*
X580375Y459531D01*
X580313Y459608D01*
X580254Y459687D01*
X580199Y459769D01*
X580146Y459853D01*
X580098Y459938D01*
X580052Y460026D01*
X580010Y460116D01*
X579972Y460207D01*
X579938Y460299D01*
X579907Y460393D01*
X579880Y460488D01*
X579856Y460584D01*
X579837Y460681D01*
X579821Y460778D01*
X579809Y460876D01*
X579801Y460975D01*
X579797Y461074D01*
X579797Y461172D01*
X579801Y461271D01*
X579809Y461370D01*
X579821Y461468D01*
X579837Y461565D01*
X579856Y461662D01*
X579880Y461758D01*
X579907Y461853D01*
X579938Y461947D01*
X579972Y462039D01*
X580010Y462130D01*
X580052Y462220D01*
X580098Y462308D01*
X580146Y462393D01*
X580199Y462477D01*
X580254Y462559D01*
X580313Y462638D01*
X580375Y462715D01*
X580439Y462790D01*
X580507Y462862D01*
X580578Y462931D01*
X580651Y462997D01*
X580727Y463061D01*
X580805Y463121D01*
X580886Y463178D01*
X580968Y463232D01*
X581053Y463282D01*
X581140Y463329D01*
X581229Y463373D01*
X581319Y463413D01*
X581411Y463450D01*
X581504Y463482D01*
X581598Y463511D01*
X581694Y463537D01*
X581790Y463558D01*
X581888Y463576D01*
X581985Y463589D01*
X582084Y463599D01*
X582182Y463605D01*
X582281Y463607D01*
X582281Y463606D02*
X584764Y463606D01*
X584764Y463607D02*
X584863Y463605D01*
X584961Y463599D01*
X585060Y463589D01*
X585157Y463576D01*
X585255Y463558D01*
X585351Y463537D01*
X585447Y463511D01*
X585541Y463482D01*
X585634Y463450D01*
X585726Y463413D01*
X585816Y463373D01*
X585905Y463329D01*
X585992Y463282D01*
X586077Y463232D01*
X586159Y463178D01*
X586240Y463121D01*
X586318Y463061D01*
X586394Y462997D01*
X586467Y462931D01*
X586538Y462862D01*
X586606Y462790D01*
X586670Y462715D01*
X586732Y462638D01*
X586791Y462559D01*
X586846Y462477D01*
X586899Y462393D01*
X586947Y462308D01*
X586993Y462220D01*
X587035Y462130D01*
X587073Y462039D01*
X587107Y461947D01*
X587138Y461853D01*
X587165Y461758D01*
X587189Y461662D01*
X587208Y461565D01*
X587224Y461468D01*
X587236Y461370D01*
X587244Y461271D01*
X587248Y461172D01*
X587248Y461074D01*
X587244Y460975D01*
X587236Y460876D01*
X587224Y460778D01*
X587208Y460681D01*
X587189Y460584D01*
X587165Y460488D01*
X587138Y460393D01*
X587107Y460299D01*
X587073Y460207D01*
X587035Y460116D01*
X586993Y460026D01*
X586947Y459938D01*
X586899Y459853D01*
X586846Y459769D01*
X586791Y459687D01*
X586732Y459608D01*
X586670Y459531D01*
X586606Y459456D01*
X586538Y459384D01*
X586467Y459315D01*
X586394Y459249D01*
X586318Y459185D01*
X586240Y459125D01*
X586159Y459068D01*
X586077Y459014D01*
X585992Y458964D01*
X585905Y458917D01*
X585816Y458873D01*
X585726Y458833D01*
X585634Y458796D01*
X585541Y458764D01*
X585447Y458735D01*
X585351Y458709D01*
X585255Y458688D01*
X585157Y458670D01*
X585060Y458657D01*
X584961Y458647D01*
X584863Y458641D01*
X584764Y458639D01*
X584144Y469067D02*
X576072Y469067D01*
X584144Y469068D02*
X584255Y469070D01*
X584365Y469076D01*
X584476Y469086D01*
X584586Y469100D01*
X584695Y469117D01*
X584804Y469139D01*
X584912Y469164D01*
X585018Y469194D01*
X585124Y469227D01*
X585229Y469264D01*
X585332Y469304D01*
X585433Y469349D01*
X585533Y469396D01*
X585632Y469448D01*
X585728Y469503D01*
X585822Y469561D01*
X585914Y469622D01*
X586004Y469687D01*
X586092Y469755D01*
X586177Y469826D01*
X586259Y469900D01*
X586339Y469977D01*
X586416Y470057D01*
X586490Y470139D01*
X586561Y470224D01*
X586629Y470312D01*
X586694Y470402D01*
X586755Y470494D01*
X586813Y470588D01*
X586868Y470684D01*
X586920Y470783D01*
X586967Y470883D01*
X587012Y470984D01*
X587052Y471087D01*
X587089Y471192D01*
X587122Y471298D01*
X587152Y471404D01*
X587177Y471512D01*
X587199Y471621D01*
X587216Y471730D01*
X587230Y471840D01*
X587240Y471951D01*
X587246Y472061D01*
X587248Y472172D01*
X587246Y472283D01*
X587240Y472393D01*
X587230Y472504D01*
X587216Y472614D01*
X587199Y472723D01*
X587177Y472832D01*
X587152Y472940D01*
X587122Y473046D01*
X587089Y473152D01*
X587052Y473257D01*
X587012Y473360D01*
X586967Y473461D01*
X586920Y473561D01*
X586868Y473660D01*
X586813Y473756D01*
X586755Y473850D01*
X586694Y473942D01*
X586629Y474032D01*
X586561Y474120D01*
X586490Y474205D01*
X586416Y474287D01*
X586339Y474367D01*
X586259Y474444D01*
X586177Y474518D01*
X586092Y474589D01*
X586004Y474657D01*
X585914Y474722D01*
X585822Y474783D01*
X585728Y474841D01*
X585632Y474896D01*
X585533Y474948D01*
X585433Y474995D01*
X585332Y475040D01*
X585229Y475080D01*
X585124Y475117D01*
X585018Y475150D01*
X584912Y475180D01*
X584804Y475205D01*
X584695Y475227D01*
X584586Y475244D01*
X584476Y475258D01*
X584365Y475268D01*
X584255Y475274D01*
X584144Y475276D01*
X576072Y475276D01*
X587248Y484223D02*
X587246Y484320D01*
X587240Y484418D01*
X587231Y484515D01*
X587217Y484612D01*
X587200Y484708D01*
X587179Y484803D01*
X587155Y484897D01*
X587126Y484991D01*
X587094Y485083D01*
X587059Y485174D01*
X587020Y485263D01*
X586977Y485351D01*
X586931Y485437D01*
X586882Y485521D01*
X586829Y485603D01*
X586774Y485683D01*
X586715Y485761D01*
X586653Y485836D01*
X586588Y485909D01*
X586520Y485979D01*
X586450Y486047D01*
X586377Y486112D01*
X586302Y486174D01*
X586224Y486233D01*
X586144Y486288D01*
X586062Y486341D01*
X585978Y486390D01*
X585892Y486436D01*
X585804Y486479D01*
X585715Y486518D01*
X585624Y486553D01*
X585532Y486585D01*
X585438Y486614D01*
X585344Y486638D01*
X585249Y486659D01*
X585153Y486676D01*
X585056Y486690D01*
X584959Y486699D01*
X584862Y486705D01*
X584764Y486707D01*
X587248Y484223D02*
X587246Y484080D01*
X587240Y483937D01*
X587231Y483795D01*
X587217Y483653D01*
X587199Y483511D01*
X587178Y483370D01*
X587153Y483229D01*
X587124Y483089D01*
X587091Y482950D01*
X587055Y482812D01*
X587014Y482675D01*
X586970Y482539D01*
X586923Y482404D01*
X586871Y482271D01*
X586816Y482139D01*
X586758Y482009D01*
X586696Y481880D01*
X586630Y481753D01*
X586561Y481628D01*
X586489Y481505D01*
X586413Y481384D01*
X586335Y481265D01*
X586252Y481148D01*
X586167Y481033D01*
X586079Y480921D01*
X585987Y480811D01*
X585893Y480704D01*
X585796Y480599D01*
X585696Y480497D01*
X578556Y480807D02*
X578458Y480809D01*
X578361Y480815D01*
X578264Y480824D01*
X578167Y480838D01*
X578071Y480855D01*
X577976Y480876D01*
X577882Y480900D01*
X577788Y480929D01*
X577696Y480961D01*
X577605Y480996D01*
X577516Y481035D01*
X577428Y481078D01*
X577342Y481124D01*
X577258Y481173D01*
X577176Y481226D01*
X577096Y481281D01*
X577018Y481340D01*
X576943Y481402D01*
X576870Y481467D01*
X576800Y481535D01*
X576732Y481605D01*
X576667Y481678D01*
X576605Y481753D01*
X576546Y481831D01*
X576491Y481911D01*
X576438Y481993D01*
X576389Y482077D01*
X576343Y482163D01*
X576300Y482251D01*
X576261Y482340D01*
X576226Y482431D01*
X576194Y482523D01*
X576165Y482617D01*
X576141Y482711D01*
X576120Y482806D01*
X576103Y482902D01*
X576089Y482999D01*
X576080Y483096D01*
X576074Y483193D01*
X576072Y483291D01*
X576074Y483421D01*
X576079Y483551D01*
X576088Y483681D01*
X576101Y483811D01*
X576117Y483940D01*
X576137Y484069D01*
X576161Y484197D01*
X576188Y484325D01*
X576219Y484451D01*
X576253Y484577D01*
X576291Y484702D01*
X576332Y484825D01*
X576377Y484948D01*
X576425Y485069D01*
X576476Y485189D01*
X576531Y485307D01*
X576589Y485423D01*
X576650Y485538D01*
X576715Y485652D01*
X576782Y485763D01*
X576853Y485872D01*
X576927Y485980D01*
X577003Y486085D01*
X580729Y482050D02*
X580678Y481967D01*
X580624Y481886D01*
X580567Y481808D01*
X580507Y481732D01*
X580444Y481658D01*
X580378Y481587D01*
X580310Y481518D01*
X580239Y481452D01*
X580166Y481388D01*
X580090Y481328D01*
X580012Y481271D01*
X579931Y481216D01*
X579849Y481165D01*
X579765Y481117D01*
X579679Y481072D01*
X579591Y481030D01*
X579502Y480992D01*
X579412Y480958D01*
X579320Y480926D01*
X579227Y480899D01*
X579133Y480875D01*
X579038Y480854D01*
X578942Y480838D01*
X578846Y480825D01*
X578750Y480815D01*
X578653Y480810D01*
X578556Y480808D01*
X582591Y485464D02*
X582642Y485547D01*
X582696Y485628D01*
X582753Y485706D01*
X582813Y485782D01*
X582876Y485856D01*
X582942Y485927D01*
X583010Y485996D01*
X583081Y486062D01*
X583154Y486126D01*
X583230Y486186D01*
X583308Y486243D01*
X583389Y486298D01*
X583471Y486349D01*
X583555Y486397D01*
X583641Y486442D01*
X583729Y486484D01*
X583818Y486522D01*
X583908Y486556D01*
X584000Y486588D01*
X584093Y486615D01*
X584187Y486639D01*
X584282Y486660D01*
X584378Y486676D01*
X584474Y486689D01*
X584570Y486699D01*
X584667Y486704D01*
X584764Y486706D01*
X582591Y485465D02*
X580729Y482050D01*
X581039Y492139D02*
X581039Y495244D01*
X581040Y495244D02*
X581042Y495355D01*
X581048Y495465D01*
X581058Y495576D01*
X581072Y495686D01*
X581089Y495795D01*
X581111Y495904D01*
X581136Y496012D01*
X581166Y496118D01*
X581199Y496224D01*
X581236Y496329D01*
X581276Y496432D01*
X581321Y496533D01*
X581368Y496633D01*
X581420Y496732D01*
X581475Y496828D01*
X581533Y496922D01*
X581594Y497014D01*
X581659Y497104D01*
X581727Y497192D01*
X581798Y497277D01*
X581872Y497359D01*
X581949Y497439D01*
X582029Y497516D01*
X582111Y497590D01*
X582196Y497661D01*
X582284Y497729D01*
X582374Y497794D01*
X582466Y497855D01*
X582560Y497913D01*
X582656Y497968D01*
X582755Y498020D01*
X582855Y498067D01*
X582956Y498112D01*
X583059Y498152D01*
X583164Y498189D01*
X583270Y498222D01*
X583376Y498252D01*
X583484Y498277D01*
X583593Y498299D01*
X583702Y498316D01*
X583812Y498330D01*
X583923Y498340D01*
X584033Y498346D01*
X584144Y498348D01*
X584255Y498346D01*
X584365Y498340D01*
X584476Y498330D01*
X584586Y498316D01*
X584695Y498299D01*
X584804Y498277D01*
X584912Y498252D01*
X585018Y498222D01*
X585124Y498189D01*
X585229Y498152D01*
X585332Y498112D01*
X585433Y498067D01*
X585533Y498020D01*
X585632Y497968D01*
X585728Y497913D01*
X585822Y497855D01*
X585914Y497794D01*
X586004Y497729D01*
X586092Y497661D01*
X586177Y497590D01*
X586259Y497516D01*
X586339Y497439D01*
X586416Y497359D01*
X586490Y497277D01*
X586561Y497192D01*
X586629Y497104D01*
X586694Y497014D01*
X586755Y496922D01*
X586813Y496828D01*
X586868Y496732D01*
X586920Y496633D01*
X586967Y496533D01*
X587012Y496432D01*
X587052Y496329D01*
X587089Y496224D01*
X587122Y496118D01*
X587152Y496012D01*
X587177Y495904D01*
X587199Y495795D01*
X587216Y495686D01*
X587230Y495576D01*
X587240Y495465D01*
X587246Y495355D01*
X587248Y495244D01*
X587248Y492139D01*
X576072Y492139D01*
X576072Y495244D01*
X576074Y495343D01*
X576080Y495441D01*
X576090Y495540D01*
X576103Y495637D01*
X576121Y495735D01*
X576142Y495831D01*
X576168Y495927D01*
X576197Y496021D01*
X576229Y496114D01*
X576266Y496206D01*
X576306Y496296D01*
X576350Y496385D01*
X576397Y496472D01*
X576447Y496557D01*
X576501Y496639D01*
X576558Y496720D01*
X576618Y496798D01*
X576682Y496874D01*
X576748Y496947D01*
X576817Y497018D01*
X576889Y497086D01*
X576964Y497150D01*
X577041Y497212D01*
X577120Y497271D01*
X577202Y497326D01*
X577286Y497379D01*
X577371Y497427D01*
X577459Y497473D01*
X577549Y497515D01*
X577640Y497553D01*
X577732Y497587D01*
X577826Y497618D01*
X577921Y497645D01*
X578017Y497669D01*
X578114Y497688D01*
X578211Y497704D01*
X578309Y497716D01*
X578408Y497724D01*
X578507Y497728D01*
X578605Y497728D01*
X578704Y497724D01*
X578803Y497716D01*
X578901Y497704D01*
X578998Y497688D01*
X579095Y497669D01*
X579191Y497645D01*
X579286Y497618D01*
X579380Y497587D01*
X579472Y497553D01*
X579563Y497515D01*
X579653Y497473D01*
X579741Y497427D01*
X579826Y497379D01*
X579910Y497326D01*
X579992Y497271D01*
X580071Y497212D01*
X580148Y497150D01*
X580223Y497086D01*
X580295Y497018D01*
X580364Y496947D01*
X580430Y496874D01*
X580494Y496798D01*
X580554Y496720D01*
X580611Y496639D01*
X580665Y496557D01*
X580715Y496472D01*
X580762Y496385D01*
X580806Y496296D01*
X580846Y496206D01*
X580883Y496114D01*
X580915Y496021D01*
X580944Y495927D01*
X580970Y495831D01*
X580991Y495735D01*
X581009Y495637D01*
X581022Y495540D01*
X581032Y495441D01*
X581038Y495343D01*
X581040Y495244D01*
X100838Y429034D02*
X93387Y429034D01*
X93387Y434622D01*
X93389Y434706D01*
X93395Y434789D01*
X93404Y434872D01*
X93417Y434955D01*
X93434Y435037D01*
X93454Y435118D01*
X93478Y435198D01*
X93506Y435277D01*
X93537Y435354D01*
X93571Y435430D01*
X93609Y435505D01*
X93651Y435578D01*
X93695Y435648D01*
X93743Y435717D01*
X93793Y435784D01*
X93847Y435848D01*
X93903Y435909D01*
X93963Y435969D01*
X94024Y436025D01*
X94088Y436079D01*
X94155Y436129D01*
X94224Y436177D01*
X94294Y436221D01*
X94367Y436263D01*
X94442Y436301D01*
X94518Y436335D01*
X94595Y436366D01*
X94674Y436394D01*
X94754Y436418D01*
X94835Y436438D01*
X94917Y436455D01*
X95000Y436468D01*
X95083Y436478D01*
X95166Y436483D01*
X95250Y436485D01*
X100838Y436485D01*
X100838Y432760D02*
X93387Y432760D01*
X93387Y441904D02*
X100838Y441904D01*
X90283Y441593D02*
X89662Y441593D01*
X89662Y442214D01*
X90283Y442214D01*
X90283Y441593D01*
X100838Y448538D02*
X100838Y451022D01*
X100838Y448538D02*
X100836Y448452D01*
X100830Y448366D01*
X100820Y448281D01*
X100806Y448196D01*
X100789Y448111D01*
X100767Y448028D01*
X100741Y447946D01*
X100712Y447865D01*
X100679Y447786D01*
X100643Y447708D01*
X100603Y447631D01*
X100559Y447557D01*
X100512Y447485D01*
X100462Y447415D01*
X100408Y447348D01*
X100352Y447283D01*
X100292Y447221D01*
X100230Y447161D01*
X100165Y447105D01*
X100098Y447051D01*
X100028Y447001D01*
X99956Y446954D01*
X99882Y446910D01*
X99805Y446870D01*
X99728Y446834D01*
X99648Y446801D01*
X99567Y446772D01*
X99485Y446746D01*
X99402Y446724D01*
X99317Y446707D01*
X99232Y446693D01*
X99147Y446683D01*
X99061Y446677D01*
X98975Y446675D01*
X98975Y446676D02*
X95250Y446676D01*
X95250Y446675D02*
X95166Y446677D01*
X95083Y446682D01*
X95000Y446692D01*
X94917Y446705D01*
X94835Y446722D01*
X94754Y446742D01*
X94674Y446766D01*
X94595Y446794D01*
X94518Y446825D01*
X94442Y446859D01*
X94367Y446897D01*
X94294Y446939D01*
X94224Y446983D01*
X94155Y447031D01*
X94088Y447081D01*
X94024Y447135D01*
X93963Y447191D01*
X93903Y447251D01*
X93847Y447312D01*
X93793Y447376D01*
X93743Y447443D01*
X93695Y447512D01*
X93651Y447582D01*
X93609Y447655D01*
X93571Y447730D01*
X93537Y447806D01*
X93506Y447883D01*
X93478Y447962D01*
X93454Y448042D01*
X93434Y448123D01*
X93417Y448205D01*
X93404Y448288D01*
X93394Y448371D01*
X93389Y448454D01*
X93387Y448538D01*
X93387Y451022D01*
X93387Y455886D02*
X100838Y455886D01*
X93387Y455886D02*
X93387Y459611D01*
X94629Y459611D01*
X95871Y463423D02*
X98354Y463423D01*
X95871Y463423D02*
X95772Y463425D01*
X95674Y463431D01*
X95575Y463441D01*
X95478Y463454D01*
X95380Y463472D01*
X95284Y463493D01*
X95188Y463519D01*
X95094Y463548D01*
X95001Y463580D01*
X94909Y463617D01*
X94819Y463657D01*
X94730Y463701D01*
X94643Y463748D01*
X94558Y463798D01*
X94476Y463852D01*
X94395Y463909D01*
X94317Y463969D01*
X94241Y464033D01*
X94168Y464099D01*
X94097Y464168D01*
X94029Y464240D01*
X93965Y464315D01*
X93903Y464392D01*
X93844Y464471D01*
X93789Y464553D01*
X93736Y464637D01*
X93688Y464722D01*
X93642Y464810D01*
X93600Y464900D01*
X93562Y464991D01*
X93528Y465083D01*
X93497Y465177D01*
X93470Y465272D01*
X93446Y465368D01*
X93427Y465465D01*
X93411Y465562D01*
X93399Y465660D01*
X93391Y465759D01*
X93387Y465858D01*
X93387Y465956D01*
X93391Y466055D01*
X93399Y466154D01*
X93411Y466252D01*
X93427Y466349D01*
X93446Y466446D01*
X93470Y466542D01*
X93497Y466637D01*
X93528Y466731D01*
X93562Y466823D01*
X93600Y466914D01*
X93642Y467004D01*
X93688Y467092D01*
X93736Y467177D01*
X93789Y467261D01*
X93844Y467343D01*
X93903Y467422D01*
X93965Y467499D01*
X94029Y467574D01*
X94097Y467646D01*
X94168Y467715D01*
X94241Y467781D01*
X94317Y467845D01*
X94395Y467905D01*
X94476Y467962D01*
X94558Y468016D01*
X94643Y468066D01*
X94730Y468113D01*
X94819Y468157D01*
X94909Y468197D01*
X95001Y468234D01*
X95094Y468266D01*
X95188Y468295D01*
X95284Y468321D01*
X95380Y468342D01*
X95478Y468360D01*
X95575Y468373D01*
X95674Y468383D01*
X95772Y468389D01*
X95871Y468391D01*
X95871Y468390D02*
X98354Y468390D01*
X98354Y468391D02*
X98453Y468389D01*
X98551Y468383D01*
X98650Y468373D01*
X98747Y468360D01*
X98845Y468342D01*
X98941Y468321D01*
X99037Y468295D01*
X99131Y468266D01*
X99224Y468234D01*
X99316Y468197D01*
X99406Y468157D01*
X99495Y468113D01*
X99582Y468066D01*
X99667Y468016D01*
X99749Y467962D01*
X99830Y467905D01*
X99908Y467845D01*
X99984Y467781D01*
X100057Y467715D01*
X100128Y467646D01*
X100196Y467574D01*
X100260Y467499D01*
X100322Y467422D01*
X100381Y467343D01*
X100436Y467261D01*
X100489Y467177D01*
X100537Y467092D01*
X100583Y467004D01*
X100625Y466914D01*
X100663Y466823D01*
X100697Y466731D01*
X100728Y466637D01*
X100755Y466542D01*
X100779Y466446D01*
X100798Y466349D01*
X100814Y466252D01*
X100826Y466154D01*
X100834Y466055D01*
X100838Y465956D01*
X100838Y465858D01*
X100834Y465759D01*
X100826Y465660D01*
X100814Y465562D01*
X100798Y465465D01*
X100779Y465368D01*
X100755Y465272D01*
X100728Y465177D01*
X100697Y465083D01*
X100663Y464991D01*
X100625Y464900D01*
X100583Y464810D01*
X100537Y464722D01*
X100489Y464637D01*
X100436Y464553D01*
X100381Y464471D01*
X100322Y464392D01*
X100260Y464315D01*
X100196Y464240D01*
X100128Y464168D01*
X100057Y464099D01*
X99984Y464033D01*
X99908Y463969D01*
X99830Y463909D01*
X99749Y463852D01*
X99667Y463798D01*
X99582Y463748D01*
X99495Y463701D01*
X99406Y463657D01*
X99316Y463617D01*
X99224Y463580D01*
X99131Y463548D01*
X99037Y463519D01*
X98941Y463493D01*
X98845Y463472D01*
X98747Y463454D01*
X98650Y463441D01*
X98551Y463431D01*
X98453Y463425D01*
X98354Y463423D01*
X100838Y476814D02*
X100836Y476911D01*
X100830Y477009D01*
X100821Y477106D01*
X100807Y477203D01*
X100790Y477299D01*
X100769Y477394D01*
X100745Y477488D01*
X100716Y477582D01*
X100684Y477674D01*
X100649Y477765D01*
X100610Y477854D01*
X100567Y477942D01*
X100521Y478028D01*
X100472Y478112D01*
X100419Y478194D01*
X100364Y478274D01*
X100305Y478352D01*
X100243Y478427D01*
X100178Y478500D01*
X100110Y478570D01*
X100040Y478638D01*
X99967Y478703D01*
X99892Y478765D01*
X99814Y478824D01*
X99734Y478879D01*
X99652Y478932D01*
X99568Y478981D01*
X99482Y479027D01*
X99394Y479070D01*
X99305Y479109D01*
X99214Y479144D01*
X99122Y479176D01*
X99028Y479205D01*
X98934Y479229D01*
X98839Y479250D01*
X98743Y479267D01*
X98646Y479281D01*
X98549Y479290D01*
X98452Y479296D01*
X98354Y479298D01*
X100838Y476815D02*
X100836Y476672D01*
X100830Y476529D01*
X100821Y476387D01*
X100807Y476245D01*
X100789Y476103D01*
X100768Y475962D01*
X100743Y475821D01*
X100714Y475681D01*
X100681Y475542D01*
X100645Y475404D01*
X100604Y475267D01*
X100560Y475131D01*
X100513Y474996D01*
X100461Y474863D01*
X100406Y474731D01*
X100348Y474601D01*
X100286Y474472D01*
X100220Y474345D01*
X100151Y474220D01*
X100079Y474097D01*
X100003Y473976D01*
X99925Y473857D01*
X99842Y473740D01*
X99757Y473625D01*
X99669Y473513D01*
X99577Y473403D01*
X99483Y473296D01*
X99386Y473191D01*
X99286Y473089D01*
X92146Y473399D02*
X92048Y473401D01*
X91951Y473407D01*
X91854Y473416D01*
X91757Y473430D01*
X91661Y473447D01*
X91566Y473468D01*
X91472Y473492D01*
X91378Y473521D01*
X91286Y473553D01*
X91195Y473588D01*
X91106Y473627D01*
X91018Y473670D01*
X90932Y473716D01*
X90848Y473765D01*
X90766Y473818D01*
X90686Y473873D01*
X90608Y473932D01*
X90533Y473994D01*
X90460Y474059D01*
X90390Y474127D01*
X90322Y474197D01*
X90257Y474270D01*
X90195Y474345D01*
X90136Y474423D01*
X90081Y474503D01*
X90028Y474585D01*
X89979Y474669D01*
X89933Y474755D01*
X89890Y474843D01*
X89851Y474932D01*
X89816Y475023D01*
X89784Y475115D01*
X89755Y475209D01*
X89731Y475303D01*
X89710Y475398D01*
X89693Y475494D01*
X89679Y475591D01*
X89670Y475688D01*
X89664Y475785D01*
X89662Y475883D01*
X89664Y476013D01*
X89669Y476143D01*
X89678Y476273D01*
X89691Y476403D01*
X89707Y476532D01*
X89727Y476661D01*
X89751Y476789D01*
X89778Y476917D01*
X89809Y477043D01*
X89843Y477169D01*
X89881Y477294D01*
X89922Y477417D01*
X89967Y477540D01*
X90015Y477661D01*
X90066Y477781D01*
X90121Y477899D01*
X90179Y478015D01*
X90240Y478130D01*
X90305Y478244D01*
X90372Y478355D01*
X90443Y478464D01*
X90517Y478572D01*
X90593Y478677D01*
X94319Y474642D02*
X94268Y474559D01*
X94214Y474478D01*
X94157Y474400D01*
X94097Y474324D01*
X94034Y474250D01*
X93968Y474179D01*
X93900Y474110D01*
X93829Y474044D01*
X93756Y473980D01*
X93680Y473920D01*
X93602Y473863D01*
X93521Y473808D01*
X93439Y473757D01*
X93355Y473709D01*
X93269Y473664D01*
X93181Y473622D01*
X93092Y473584D01*
X93002Y473550D01*
X92910Y473518D01*
X92817Y473491D01*
X92723Y473467D01*
X92628Y473446D01*
X92532Y473430D01*
X92436Y473417D01*
X92340Y473407D01*
X92243Y473402D01*
X92146Y473400D01*
X96181Y478056D02*
X96232Y478139D01*
X96286Y478220D01*
X96343Y478298D01*
X96403Y478374D01*
X96466Y478448D01*
X96532Y478519D01*
X96600Y478588D01*
X96671Y478654D01*
X96744Y478718D01*
X96820Y478778D01*
X96898Y478835D01*
X96979Y478890D01*
X97061Y478941D01*
X97145Y478989D01*
X97231Y479034D01*
X97319Y479076D01*
X97408Y479114D01*
X97498Y479148D01*
X97590Y479180D01*
X97683Y479207D01*
X97777Y479231D01*
X97872Y479252D01*
X97968Y479268D01*
X98064Y479281D01*
X98160Y479291D01*
X98257Y479296D01*
X98354Y479298D01*
X96181Y478056D02*
X94319Y474641D01*
X89662Y484519D02*
X100838Y484519D01*
X89662Y484519D02*
X89662Y487624D01*
X89664Y487732D01*
X89670Y487841D01*
X89679Y487948D01*
X89692Y488056D01*
X89709Y488163D01*
X89730Y488269D01*
X89754Y488375D01*
X89782Y488480D01*
X89814Y488583D01*
X89849Y488686D01*
X89888Y488787D01*
X89930Y488887D01*
X89976Y488985D01*
X90025Y489081D01*
X90078Y489176D01*
X90134Y489269D01*
X90193Y489360D01*
X90255Y489448D01*
X90320Y489535D01*
X90388Y489619D01*
X90459Y489701D01*
X90533Y489780D01*
X90610Y489857D01*
X90689Y489931D01*
X90771Y490002D01*
X90855Y490070D01*
X90942Y490135D01*
X91030Y490197D01*
X91121Y490256D01*
X91214Y490312D01*
X91309Y490365D01*
X91405Y490414D01*
X91504Y490460D01*
X91603Y490502D01*
X91704Y490541D01*
X91807Y490576D01*
X91910Y490608D01*
X92015Y490636D01*
X92121Y490660D01*
X92227Y490681D01*
X92334Y490698D01*
X92442Y490711D01*
X92550Y490720D01*
X92658Y490726D01*
X92766Y490728D01*
X97734Y490728D01*
X97845Y490726D01*
X97955Y490720D01*
X98066Y490710D01*
X98176Y490696D01*
X98285Y490679D01*
X98394Y490657D01*
X98502Y490632D01*
X98608Y490602D01*
X98714Y490569D01*
X98819Y490532D01*
X98922Y490492D01*
X99023Y490447D01*
X99123Y490400D01*
X99222Y490348D01*
X99318Y490293D01*
X99412Y490235D01*
X99504Y490174D01*
X99594Y490109D01*
X99682Y490041D01*
X99767Y489970D01*
X99849Y489896D01*
X99929Y489819D01*
X100006Y489739D01*
X100080Y489657D01*
X100151Y489572D01*
X100219Y489484D01*
X100284Y489394D01*
X100345Y489302D01*
X100403Y489208D01*
X100458Y489112D01*
X100510Y489013D01*
X100557Y488913D01*
X100602Y488812D01*
X100642Y488709D01*
X100679Y488604D01*
X100712Y488498D01*
X100742Y488392D01*
X100767Y488284D01*
X100789Y488175D01*
X100806Y488066D01*
X100820Y487956D01*
X100830Y487845D01*
X100836Y487735D01*
X100838Y487624D01*
X100838Y484519D01*
D187*
X455600Y694250D02*
X479400Y694250D01*
X479400Y829750D02*
X455600Y829750D01*
X508400Y694250D02*
X596200Y694250D01*
X596200Y829750D01*
X508400Y829750D01*
D188*
X446670Y712340D02*
X446672Y712403D01*
X446678Y712465D01*
X446688Y712527D01*
X446701Y712589D01*
X446719Y712649D01*
X446740Y712708D01*
X446765Y712766D01*
X446794Y712822D01*
X446826Y712876D01*
X446861Y712928D01*
X446899Y712977D01*
X446941Y713025D01*
X446985Y713069D01*
X447033Y713111D01*
X447082Y713149D01*
X447134Y713184D01*
X447188Y713216D01*
X447244Y713245D01*
X447302Y713270D01*
X447361Y713291D01*
X447421Y713309D01*
X447483Y713322D01*
X447545Y713332D01*
X447607Y713338D01*
X447670Y713340D01*
X447733Y713338D01*
X447795Y713332D01*
X447857Y713322D01*
X447919Y713309D01*
X447979Y713291D01*
X448038Y713270D01*
X448096Y713245D01*
X448152Y713216D01*
X448206Y713184D01*
X448258Y713149D01*
X448307Y713111D01*
X448355Y713069D01*
X448399Y713025D01*
X448441Y712977D01*
X448479Y712928D01*
X448514Y712876D01*
X448546Y712822D01*
X448575Y712766D01*
X448600Y712708D01*
X448621Y712649D01*
X448639Y712589D01*
X448652Y712527D01*
X448662Y712465D01*
X448668Y712403D01*
X448670Y712340D01*
X448668Y712277D01*
X448662Y712215D01*
X448652Y712153D01*
X448639Y712091D01*
X448621Y712031D01*
X448600Y711972D01*
X448575Y711914D01*
X448546Y711858D01*
X448514Y711804D01*
X448479Y711752D01*
X448441Y711703D01*
X448399Y711655D01*
X448355Y711611D01*
X448307Y711569D01*
X448258Y711531D01*
X448206Y711496D01*
X448152Y711464D01*
X448096Y711435D01*
X448038Y711410D01*
X447979Y711389D01*
X447919Y711371D01*
X447857Y711358D01*
X447795Y711348D01*
X447733Y711342D01*
X447670Y711340D01*
X447607Y711342D01*
X447545Y711348D01*
X447483Y711358D01*
X447421Y711371D01*
X447361Y711389D01*
X447302Y711410D01*
X447244Y711435D01*
X447188Y711464D01*
X447134Y711496D01*
X447082Y711531D01*
X447033Y711569D01*
X446985Y711611D01*
X446941Y711655D01*
X446899Y711703D01*
X446861Y711752D01*
X446826Y711804D01*
X446794Y711858D01*
X446765Y711914D01*
X446740Y711972D01*
X446719Y712031D01*
X446701Y712091D01*
X446688Y712153D01*
X446678Y712215D01*
X446672Y712277D01*
X446670Y712340D01*
D187*
X455600Y718000D02*
X455600Y694250D01*
X455600Y806000D02*
X455600Y829750D01*
D10*
X423298Y699941D02*
X410629Y699941D01*
X423298Y699941D02*
X423416Y699939D01*
X423535Y699933D01*
X423653Y699924D01*
X423771Y699910D01*
X423888Y699893D01*
X424004Y699871D01*
X424120Y699846D01*
X424235Y699818D01*
X424349Y699785D01*
X424462Y699749D01*
X424573Y699709D01*
X424683Y699665D01*
X424792Y699618D01*
X424899Y699568D01*
X425004Y699514D01*
X425108Y699456D01*
X425210Y699395D01*
X425309Y699331D01*
X425407Y699264D01*
X425502Y699193D01*
X425595Y699119D01*
X425685Y699043D01*
X425773Y698963D01*
X425858Y698881D01*
X425940Y698796D01*
X426020Y698708D01*
X426096Y698618D01*
X426170Y698525D01*
X426241Y698430D01*
X426308Y698332D01*
X426372Y698233D01*
X426433Y698131D01*
X426491Y698027D01*
X426545Y697922D01*
X426595Y697815D01*
X426642Y697706D01*
X426686Y697596D01*
X426726Y697485D01*
X426762Y697372D01*
X426795Y697258D01*
X426823Y697143D01*
X426848Y697027D01*
X426870Y696911D01*
X426887Y696794D01*
X426901Y696676D01*
X426910Y696558D01*
X426916Y696439D01*
X426918Y696321D01*
X426918Y694511D01*
X414249Y707015D02*
X410629Y711540D01*
X426918Y711540D01*
X426918Y716064D02*
X426918Y707015D01*
D187*
X317500Y825500D02*
X292100Y825500D01*
X317500Y825500D02*
X317500Y774700D01*
X292100Y774700D01*
X292100Y825500D01*
X279400Y819150D02*
X279400Y806450D01*
X273050Y812800D02*
X285750Y812800D01*
X285750Y787400D02*
X273050Y787400D01*
D189*
X330708Y800608D02*
X330708Y807720D01*
X333869Y807720D01*
X333869Y804559D02*
X330708Y804559D01*
X337090Y807720D02*
X337090Y800608D01*
X337090Y807720D02*
X339065Y807720D01*
X339152Y807718D01*
X339240Y807712D01*
X339327Y807703D01*
X339413Y807689D01*
X339499Y807672D01*
X339583Y807651D01*
X339667Y807626D01*
X339750Y807597D01*
X339831Y807565D01*
X339911Y807530D01*
X339989Y807491D01*
X340066Y807448D01*
X340140Y807402D01*
X340212Y807353D01*
X340282Y807301D01*
X340350Y807245D01*
X340415Y807187D01*
X340478Y807126D01*
X340537Y807062D01*
X340594Y806995D01*
X340648Y806927D01*
X340699Y806855D01*
X340746Y806782D01*
X340791Y806707D01*
X340832Y806629D01*
X340869Y806550D01*
X340903Y806470D01*
X340933Y806388D01*
X340960Y806305D01*
X340983Y806220D01*
X341002Y806135D01*
X341017Y806049D01*
X341029Y805962D01*
X341037Y805875D01*
X341041Y805788D01*
X341041Y805700D01*
X341037Y805613D01*
X341029Y805526D01*
X341017Y805439D01*
X341002Y805353D01*
X340983Y805268D01*
X340960Y805183D01*
X340933Y805100D01*
X340903Y805018D01*
X340869Y804938D01*
X340832Y804859D01*
X340791Y804781D01*
X340746Y804706D01*
X340699Y804633D01*
X340648Y804561D01*
X340594Y804493D01*
X340537Y804426D01*
X340478Y804362D01*
X340415Y804301D01*
X340350Y804243D01*
X340282Y804187D01*
X340212Y804135D01*
X340140Y804086D01*
X340066Y804040D01*
X339989Y803997D01*
X339911Y803958D01*
X339831Y803923D01*
X339750Y803891D01*
X339667Y803862D01*
X339583Y803837D01*
X339499Y803816D01*
X339413Y803799D01*
X339327Y803785D01*
X339240Y803776D01*
X339152Y803770D01*
X339065Y803768D01*
X339065Y803769D02*
X337090Y803769D01*
X339460Y803769D02*
X341041Y800608D01*
X344345Y802584D02*
X344345Y805744D01*
X344344Y805744D02*
X344346Y805831D01*
X344352Y805919D01*
X344361Y806006D01*
X344375Y806092D01*
X344392Y806178D01*
X344413Y806262D01*
X344438Y806346D01*
X344467Y806429D01*
X344499Y806510D01*
X344534Y806590D01*
X344573Y806668D01*
X344616Y806745D01*
X344662Y806819D01*
X344711Y806891D01*
X344763Y806961D01*
X344819Y807029D01*
X344877Y807094D01*
X344938Y807157D01*
X345002Y807216D01*
X345069Y807273D01*
X345137Y807327D01*
X345209Y807378D01*
X345282Y807425D01*
X345357Y807470D01*
X345435Y807511D01*
X345514Y807548D01*
X345594Y807582D01*
X345676Y807612D01*
X345759Y807639D01*
X345844Y807662D01*
X345929Y807681D01*
X346015Y807696D01*
X346102Y807708D01*
X346189Y807716D01*
X346276Y807720D01*
X346364Y807720D01*
X346451Y807716D01*
X346538Y807708D01*
X346625Y807696D01*
X346711Y807681D01*
X346796Y807662D01*
X346881Y807639D01*
X346964Y807612D01*
X347046Y807582D01*
X347126Y807548D01*
X347205Y807511D01*
X347283Y807470D01*
X347358Y807425D01*
X347431Y807378D01*
X347503Y807327D01*
X347571Y807273D01*
X347638Y807216D01*
X347702Y807157D01*
X347763Y807094D01*
X347821Y807029D01*
X347877Y806961D01*
X347929Y806891D01*
X347978Y806819D01*
X348024Y806745D01*
X348067Y806668D01*
X348106Y806590D01*
X348141Y806510D01*
X348173Y806429D01*
X348202Y806346D01*
X348227Y806262D01*
X348248Y806178D01*
X348265Y806092D01*
X348279Y806006D01*
X348288Y805919D01*
X348294Y805831D01*
X348296Y805744D01*
X348296Y802584D01*
X348294Y802497D01*
X348288Y802409D01*
X348279Y802322D01*
X348265Y802236D01*
X348248Y802150D01*
X348227Y802066D01*
X348202Y801982D01*
X348173Y801899D01*
X348141Y801818D01*
X348106Y801738D01*
X348067Y801660D01*
X348024Y801583D01*
X347978Y801509D01*
X347929Y801437D01*
X347877Y801367D01*
X347821Y801299D01*
X347763Y801234D01*
X347702Y801171D01*
X347638Y801112D01*
X347571Y801055D01*
X347503Y801001D01*
X347431Y800950D01*
X347358Y800903D01*
X347283Y800858D01*
X347205Y800817D01*
X347126Y800780D01*
X347046Y800746D01*
X346964Y800716D01*
X346881Y800689D01*
X346796Y800666D01*
X346711Y800647D01*
X346625Y800632D01*
X346538Y800620D01*
X346451Y800612D01*
X346364Y800608D01*
X346276Y800608D01*
X346189Y800612D01*
X346102Y800620D01*
X346015Y800632D01*
X345929Y800647D01*
X345844Y800666D01*
X345759Y800689D01*
X345676Y800716D01*
X345594Y800746D01*
X345514Y800780D01*
X345435Y800817D01*
X345357Y800858D01*
X345282Y800903D01*
X345209Y800950D01*
X345137Y801001D01*
X345069Y801055D01*
X345002Y801112D01*
X344938Y801171D01*
X344877Y801234D01*
X344819Y801299D01*
X344763Y801367D01*
X344711Y801437D01*
X344662Y801509D01*
X344616Y801583D01*
X344573Y801660D01*
X344534Y801738D01*
X344499Y801818D01*
X344467Y801899D01*
X344438Y801982D01*
X344413Y802066D01*
X344392Y802150D01*
X344375Y802236D01*
X344361Y802322D01*
X344352Y802409D01*
X344346Y802497D01*
X344344Y802584D01*
X351904Y800608D02*
X351904Y807720D01*
X355855Y800608D01*
X355855Y807720D01*
X360950Y807720D02*
X360950Y800608D01*
X358975Y807720D02*
X362926Y807720D01*
X365466Y799818D02*
X368627Y799818D01*
X371917Y800608D02*
X371917Y807720D01*
X371917Y800608D02*
X375078Y800608D01*
X378257Y800608D02*
X381418Y800608D01*
X378257Y800608D02*
X378257Y807720D01*
X381418Y807720D01*
X380627Y804559D02*
X378257Y804559D01*
X384597Y807720D02*
X384597Y800608D01*
X384597Y807720D02*
X387757Y807720D01*
X387757Y804559D02*
X384597Y804559D01*
X392162Y807720D02*
X392162Y800608D01*
X390186Y807720D02*
X394137Y807720D01*
D187*
X139700Y114300D02*
X114300Y114300D01*
X114300Y165100D01*
X139700Y165100D01*
X139700Y114300D01*
X152400Y120650D02*
X152400Y133350D01*
X158750Y127000D02*
X146050Y127000D01*
X146050Y152400D02*
X158750Y152400D01*
D189*
X44534Y143651D02*
X42558Y143651D01*
X44534Y143652D02*
X44621Y143650D01*
X44709Y143644D01*
X44796Y143635D01*
X44882Y143621D01*
X44968Y143604D01*
X45052Y143583D01*
X45136Y143558D01*
X45219Y143529D01*
X45300Y143497D01*
X45380Y143462D01*
X45458Y143423D01*
X45535Y143380D01*
X45609Y143334D01*
X45681Y143285D01*
X45751Y143233D01*
X45819Y143177D01*
X45884Y143119D01*
X45947Y143058D01*
X46006Y142994D01*
X46063Y142927D01*
X46117Y142859D01*
X46168Y142787D01*
X46215Y142714D01*
X46260Y142639D01*
X46301Y142561D01*
X46338Y142482D01*
X46372Y142402D01*
X46402Y142320D01*
X46429Y142237D01*
X46452Y142152D01*
X46471Y142067D01*
X46486Y141981D01*
X46498Y141894D01*
X46506Y141807D01*
X46510Y141720D01*
X46510Y141632D01*
X46506Y141545D01*
X46498Y141458D01*
X46486Y141371D01*
X46471Y141285D01*
X46452Y141200D01*
X46429Y141115D01*
X46402Y141032D01*
X46372Y140950D01*
X46338Y140870D01*
X46301Y140791D01*
X46260Y140713D01*
X46215Y140638D01*
X46168Y140565D01*
X46117Y140493D01*
X46063Y140425D01*
X46006Y140358D01*
X45947Y140294D01*
X45884Y140233D01*
X45819Y140175D01*
X45751Y140119D01*
X45681Y140067D01*
X45609Y140018D01*
X45535Y139972D01*
X45458Y139929D01*
X45380Y139890D01*
X45300Y139855D01*
X45219Y139823D01*
X45136Y139794D01*
X45052Y139769D01*
X44968Y139748D01*
X44882Y139731D01*
X44796Y139717D01*
X44709Y139708D01*
X44621Y139702D01*
X44534Y139700D01*
X42558Y139700D01*
X42558Y146812D01*
X44534Y146812D01*
X44613Y146810D01*
X44691Y146804D01*
X44769Y146794D01*
X44847Y146781D01*
X44924Y146763D01*
X45000Y146742D01*
X45074Y146717D01*
X45148Y146688D01*
X45220Y146656D01*
X45290Y146620D01*
X45358Y146580D01*
X45424Y146537D01*
X45488Y146491D01*
X45550Y146442D01*
X45609Y146390D01*
X45665Y146335D01*
X45719Y146277D01*
X45769Y146217D01*
X45817Y146154D01*
X45861Y146089D01*
X45902Y146022D01*
X45940Y145953D01*
X45974Y145882D01*
X46005Y145809D01*
X46032Y145735D01*
X46055Y145660D01*
X46074Y145584D01*
X46090Y145506D01*
X46102Y145428D01*
X46110Y145350D01*
X46114Y145271D01*
X46114Y145193D01*
X46110Y145114D01*
X46102Y145036D01*
X46090Y144958D01*
X46074Y144880D01*
X46055Y144804D01*
X46032Y144729D01*
X46005Y144655D01*
X45974Y144582D01*
X45940Y144511D01*
X45902Y144442D01*
X45861Y144375D01*
X45817Y144310D01*
X45769Y144247D01*
X45719Y144187D01*
X45665Y144129D01*
X45609Y144074D01*
X45550Y144022D01*
X45488Y143973D01*
X45424Y143927D01*
X45358Y143884D01*
X45290Y143844D01*
X45220Y143808D01*
X45148Y143776D01*
X45074Y143747D01*
X45000Y143722D01*
X44924Y143701D01*
X44847Y143683D01*
X44769Y143670D01*
X44691Y143660D01*
X44613Y143654D01*
X44534Y143652D01*
X49096Y139700D02*
X51466Y146812D01*
X53837Y139700D01*
X53244Y141478D02*
X49688Y141478D01*
X58359Y139700D02*
X59940Y139700D01*
X58359Y139700D02*
X58281Y139702D01*
X58204Y139708D01*
X58127Y139717D01*
X58051Y139730D01*
X57975Y139747D01*
X57900Y139768D01*
X57827Y139792D01*
X57754Y139820D01*
X57683Y139852D01*
X57614Y139887D01*
X57547Y139925D01*
X57481Y139966D01*
X57418Y140011D01*
X57357Y140059D01*
X57298Y140109D01*
X57242Y140163D01*
X57188Y140219D01*
X57138Y140278D01*
X57090Y140339D01*
X57045Y140402D01*
X57004Y140468D01*
X56966Y140535D01*
X56931Y140604D01*
X56899Y140675D01*
X56871Y140748D01*
X56847Y140821D01*
X56826Y140896D01*
X56809Y140972D01*
X56796Y141048D01*
X56787Y141125D01*
X56781Y141202D01*
X56779Y141280D01*
X56779Y145232D01*
X56781Y145310D01*
X56787Y145387D01*
X56796Y145464D01*
X56809Y145540D01*
X56826Y145616D01*
X56847Y145691D01*
X56871Y145764D01*
X56899Y145837D01*
X56931Y145908D01*
X56966Y145977D01*
X57004Y146044D01*
X57045Y146110D01*
X57090Y146173D01*
X57138Y146234D01*
X57188Y146293D01*
X57242Y146349D01*
X57298Y146403D01*
X57357Y146453D01*
X57418Y146501D01*
X57481Y146546D01*
X57547Y146587D01*
X57614Y146625D01*
X57683Y146660D01*
X57754Y146692D01*
X57827Y146720D01*
X57900Y146744D01*
X57975Y146765D01*
X58051Y146782D01*
X58127Y146795D01*
X58204Y146804D01*
X58281Y146810D01*
X58359Y146812D01*
X59940Y146812D01*
X63285Y146812D02*
X63285Y139700D01*
X63285Y142466D02*
X67236Y146812D01*
X64865Y144046D02*
X67236Y139700D01*
X69881Y138910D02*
X73041Y138910D01*
X76332Y139700D02*
X76332Y146812D01*
X76332Y139700D02*
X79492Y139700D01*
X82671Y139700D02*
X85832Y139700D01*
X82671Y139700D02*
X82671Y146812D01*
X85832Y146812D01*
X85042Y143651D02*
X82671Y143651D01*
X89011Y146812D02*
X89011Y139700D01*
X89011Y146812D02*
X92172Y146812D01*
X92172Y143651D02*
X89011Y143651D01*
X96576Y146812D02*
X96576Y139700D01*
X94601Y146812D02*
X98552Y146812D01*
D187*
X292100Y114300D02*
X317500Y114300D01*
X292100Y114300D02*
X292100Y165100D01*
X317500Y165100D01*
X317500Y114300D01*
X330200Y120650D02*
X330200Y133350D01*
X336550Y127000D02*
X323850Y127000D01*
X323850Y152400D02*
X336550Y152400D01*
D189*
X341364Y136031D02*
X343339Y136031D01*
X343339Y136032D02*
X343426Y136030D01*
X343514Y136024D01*
X343601Y136015D01*
X343687Y136001D01*
X343773Y135984D01*
X343857Y135963D01*
X343941Y135938D01*
X344024Y135909D01*
X344105Y135877D01*
X344185Y135842D01*
X344263Y135803D01*
X344340Y135760D01*
X344414Y135714D01*
X344486Y135665D01*
X344556Y135613D01*
X344624Y135557D01*
X344689Y135499D01*
X344752Y135438D01*
X344811Y135374D01*
X344868Y135307D01*
X344922Y135239D01*
X344973Y135167D01*
X345020Y135094D01*
X345065Y135019D01*
X345106Y134941D01*
X345143Y134862D01*
X345177Y134782D01*
X345207Y134700D01*
X345234Y134617D01*
X345257Y134532D01*
X345276Y134447D01*
X345291Y134361D01*
X345303Y134274D01*
X345311Y134187D01*
X345315Y134100D01*
X345315Y134012D01*
X345311Y133925D01*
X345303Y133838D01*
X345291Y133751D01*
X345276Y133665D01*
X345257Y133580D01*
X345234Y133495D01*
X345207Y133412D01*
X345177Y133330D01*
X345143Y133250D01*
X345106Y133171D01*
X345065Y133093D01*
X345020Y133018D01*
X344973Y132945D01*
X344922Y132873D01*
X344868Y132805D01*
X344811Y132738D01*
X344752Y132674D01*
X344689Y132613D01*
X344624Y132555D01*
X344556Y132499D01*
X344486Y132447D01*
X344414Y132398D01*
X344340Y132352D01*
X344263Y132309D01*
X344185Y132270D01*
X344105Y132235D01*
X344024Y132203D01*
X343941Y132174D01*
X343857Y132149D01*
X343773Y132128D01*
X343687Y132111D01*
X343601Y132097D01*
X343514Y132088D01*
X343426Y132082D01*
X343339Y132080D01*
X341364Y132080D01*
X341364Y139192D01*
X343339Y139192D01*
X343418Y139190D01*
X343496Y139184D01*
X343574Y139174D01*
X343652Y139161D01*
X343729Y139143D01*
X343805Y139122D01*
X343879Y139097D01*
X343953Y139068D01*
X344025Y139036D01*
X344095Y139000D01*
X344163Y138960D01*
X344229Y138917D01*
X344293Y138871D01*
X344355Y138822D01*
X344414Y138770D01*
X344470Y138715D01*
X344524Y138657D01*
X344574Y138597D01*
X344622Y138534D01*
X344666Y138469D01*
X344707Y138402D01*
X344745Y138333D01*
X344779Y138262D01*
X344810Y138189D01*
X344837Y138115D01*
X344860Y138040D01*
X344879Y137964D01*
X344895Y137886D01*
X344907Y137808D01*
X344915Y137730D01*
X344919Y137651D01*
X344919Y137573D01*
X344915Y137494D01*
X344907Y137416D01*
X344895Y137338D01*
X344879Y137260D01*
X344860Y137184D01*
X344837Y137109D01*
X344810Y137035D01*
X344779Y136962D01*
X344745Y136891D01*
X344707Y136822D01*
X344666Y136755D01*
X344622Y136690D01*
X344574Y136627D01*
X344524Y136567D01*
X344470Y136509D01*
X344414Y136454D01*
X344355Y136402D01*
X344293Y136353D01*
X344229Y136307D01*
X344163Y136264D01*
X344095Y136224D01*
X344025Y136188D01*
X343953Y136156D01*
X343879Y136127D01*
X343805Y136102D01*
X343729Y136081D01*
X343652Y136063D01*
X343574Y136050D01*
X343496Y136040D01*
X343418Y136034D01*
X343339Y136032D01*
X347901Y132080D02*
X350272Y139192D01*
X352642Y132080D01*
X352050Y133858D02*
X348494Y133858D01*
X357165Y132080D02*
X358745Y132080D01*
X357165Y132080D02*
X357087Y132082D01*
X357010Y132088D01*
X356933Y132097D01*
X356857Y132110D01*
X356781Y132127D01*
X356706Y132148D01*
X356633Y132172D01*
X356560Y132200D01*
X356489Y132232D01*
X356420Y132267D01*
X356353Y132305D01*
X356287Y132346D01*
X356224Y132391D01*
X356163Y132439D01*
X356104Y132489D01*
X356048Y132543D01*
X355994Y132599D01*
X355944Y132658D01*
X355896Y132719D01*
X355851Y132782D01*
X355810Y132848D01*
X355772Y132915D01*
X355737Y132984D01*
X355705Y133055D01*
X355677Y133128D01*
X355653Y133201D01*
X355632Y133276D01*
X355615Y133352D01*
X355602Y133428D01*
X355593Y133505D01*
X355587Y133582D01*
X355585Y133660D01*
X355584Y133660D02*
X355584Y137612D01*
X355585Y137612D02*
X355587Y137690D01*
X355593Y137767D01*
X355602Y137844D01*
X355615Y137920D01*
X355632Y137996D01*
X355653Y138071D01*
X355677Y138144D01*
X355705Y138217D01*
X355737Y138288D01*
X355772Y138357D01*
X355810Y138424D01*
X355851Y138490D01*
X355896Y138553D01*
X355944Y138614D01*
X355994Y138673D01*
X356048Y138729D01*
X356104Y138783D01*
X356163Y138833D01*
X356224Y138881D01*
X356287Y138926D01*
X356353Y138967D01*
X356420Y139005D01*
X356489Y139040D01*
X356560Y139072D01*
X356633Y139100D01*
X356706Y139124D01*
X356781Y139145D01*
X356857Y139162D01*
X356933Y139175D01*
X357010Y139184D01*
X357087Y139190D01*
X357165Y139192D01*
X358745Y139192D01*
X362090Y139192D02*
X362090Y132080D01*
X362090Y134846D02*
X366041Y139192D01*
X363671Y136426D02*
X366041Y132080D01*
X368686Y131290D02*
X371847Y131290D01*
X375179Y132080D02*
X375179Y139192D01*
X377154Y139192D01*
X377241Y139190D01*
X377329Y139184D01*
X377416Y139175D01*
X377502Y139161D01*
X377588Y139144D01*
X377672Y139123D01*
X377756Y139098D01*
X377839Y139069D01*
X377920Y139037D01*
X378000Y139002D01*
X378078Y138963D01*
X378155Y138920D01*
X378229Y138874D01*
X378301Y138825D01*
X378371Y138773D01*
X378439Y138717D01*
X378504Y138659D01*
X378567Y138598D01*
X378626Y138534D01*
X378683Y138467D01*
X378737Y138399D01*
X378788Y138327D01*
X378835Y138254D01*
X378880Y138179D01*
X378921Y138101D01*
X378958Y138022D01*
X378992Y137942D01*
X379022Y137860D01*
X379049Y137777D01*
X379072Y137692D01*
X379091Y137607D01*
X379106Y137521D01*
X379118Y137434D01*
X379126Y137347D01*
X379130Y137260D01*
X379130Y137172D01*
X379126Y137085D01*
X379118Y136998D01*
X379106Y136911D01*
X379091Y136825D01*
X379072Y136740D01*
X379049Y136655D01*
X379022Y136572D01*
X378992Y136490D01*
X378958Y136410D01*
X378921Y136331D01*
X378880Y136253D01*
X378835Y136178D01*
X378788Y136105D01*
X378737Y136033D01*
X378683Y135965D01*
X378626Y135898D01*
X378567Y135834D01*
X378504Y135773D01*
X378439Y135715D01*
X378371Y135659D01*
X378301Y135607D01*
X378229Y135558D01*
X378155Y135512D01*
X378078Y135469D01*
X378000Y135430D01*
X377920Y135395D01*
X377839Y135363D01*
X377756Y135334D01*
X377672Y135309D01*
X377588Y135288D01*
X377502Y135271D01*
X377416Y135257D01*
X377329Y135248D01*
X377241Y135242D01*
X377154Y135240D01*
X377154Y135241D02*
X375179Y135241D01*
X377550Y135241D02*
X379130Y132080D01*
X382946Y132080D02*
X382946Y139192D01*
X382156Y132080D02*
X383737Y132080D01*
X383737Y139192D02*
X382156Y139192D01*
X389832Y136031D02*
X391018Y136031D01*
X391018Y132080D01*
X388647Y132080D01*
X388569Y132082D01*
X388492Y132088D01*
X388415Y132097D01*
X388339Y132110D01*
X388263Y132127D01*
X388188Y132148D01*
X388115Y132172D01*
X388042Y132200D01*
X387971Y132232D01*
X387902Y132267D01*
X387835Y132305D01*
X387769Y132346D01*
X387706Y132391D01*
X387645Y132439D01*
X387586Y132489D01*
X387530Y132543D01*
X387476Y132599D01*
X387426Y132658D01*
X387378Y132719D01*
X387333Y132782D01*
X387292Y132848D01*
X387254Y132915D01*
X387219Y132984D01*
X387187Y133055D01*
X387159Y133128D01*
X387135Y133201D01*
X387114Y133276D01*
X387097Y133352D01*
X387084Y133428D01*
X387075Y133505D01*
X387069Y133582D01*
X387067Y133660D01*
X387067Y137612D01*
X387069Y137690D01*
X387075Y137767D01*
X387084Y137844D01*
X387097Y137920D01*
X387114Y137996D01*
X387135Y138071D01*
X387159Y138144D01*
X387187Y138217D01*
X387219Y138288D01*
X387254Y138357D01*
X387292Y138424D01*
X387333Y138490D01*
X387378Y138553D01*
X387426Y138614D01*
X387476Y138673D01*
X387530Y138729D01*
X387586Y138783D01*
X387645Y138833D01*
X387706Y138881D01*
X387769Y138926D01*
X387835Y138967D01*
X387902Y139005D01*
X387971Y139040D01*
X388042Y139072D01*
X388115Y139100D01*
X388188Y139124D01*
X388263Y139145D01*
X388339Y139162D01*
X388415Y139175D01*
X388492Y139184D01*
X388569Y139190D01*
X388647Y139192D01*
X391018Y139192D01*
X394870Y139192D02*
X394870Y132080D01*
X394870Y136031D02*
X398821Y136031D01*
X398821Y139192D02*
X398821Y132080D01*
X403916Y132080D02*
X403916Y139192D01*
X401941Y139192D02*
X405892Y139192D01*
D187*
X139700Y825500D02*
X114300Y825500D01*
X139700Y825500D02*
X139700Y774700D01*
X114300Y774700D01*
X114300Y825500D01*
X101600Y819150D02*
X101600Y806450D01*
X95250Y812800D02*
X107950Y812800D01*
X107950Y787400D02*
X95250Y787400D01*
D189*
X18288Y805688D02*
X18288Y812800D01*
X21449Y812800D01*
X21449Y809639D02*
X18288Y809639D01*
X24670Y812800D02*
X24670Y805688D01*
X24670Y812800D02*
X26645Y812800D01*
X26732Y812798D01*
X26820Y812792D01*
X26907Y812783D01*
X26993Y812769D01*
X27079Y812752D01*
X27163Y812731D01*
X27247Y812706D01*
X27330Y812677D01*
X27411Y812645D01*
X27491Y812610D01*
X27569Y812571D01*
X27646Y812528D01*
X27720Y812482D01*
X27792Y812433D01*
X27862Y812381D01*
X27930Y812325D01*
X27995Y812267D01*
X28058Y812206D01*
X28117Y812142D01*
X28174Y812075D01*
X28228Y812007D01*
X28279Y811935D01*
X28326Y811862D01*
X28371Y811787D01*
X28412Y811709D01*
X28449Y811630D01*
X28483Y811550D01*
X28513Y811468D01*
X28540Y811385D01*
X28563Y811300D01*
X28582Y811215D01*
X28597Y811129D01*
X28609Y811042D01*
X28617Y810955D01*
X28621Y810868D01*
X28621Y810780D01*
X28617Y810693D01*
X28609Y810606D01*
X28597Y810519D01*
X28582Y810433D01*
X28563Y810348D01*
X28540Y810263D01*
X28513Y810180D01*
X28483Y810098D01*
X28449Y810018D01*
X28412Y809939D01*
X28371Y809861D01*
X28326Y809786D01*
X28279Y809713D01*
X28228Y809641D01*
X28174Y809573D01*
X28117Y809506D01*
X28058Y809442D01*
X27995Y809381D01*
X27930Y809323D01*
X27862Y809267D01*
X27792Y809215D01*
X27720Y809166D01*
X27646Y809120D01*
X27569Y809077D01*
X27491Y809038D01*
X27411Y809003D01*
X27330Y808971D01*
X27247Y808942D01*
X27163Y808917D01*
X27079Y808896D01*
X26993Y808879D01*
X26907Y808865D01*
X26820Y808856D01*
X26732Y808850D01*
X26645Y808848D01*
X26645Y808849D02*
X24670Y808849D01*
X27040Y808849D02*
X28621Y805688D01*
X31925Y807664D02*
X31925Y810824D01*
X31924Y810824D02*
X31926Y810911D01*
X31932Y810999D01*
X31941Y811086D01*
X31955Y811172D01*
X31972Y811258D01*
X31993Y811342D01*
X32018Y811426D01*
X32047Y811509D01*
X32079Y811590D01*
X32114Y811670D01*
X32153Y811748D01*
X32196Y811825D01*
X32242Y811899D01*
X32291Y811971D01*
X32343Y812041D01*
X32399Y812109D01*
X32457Y812174D01*
X32518Y812237D01*
X32582Y812296D01*
X32649Y812353D01*
X32717Y812407D01*
X32789Y812458D01*
X32862Y812505D01*
X32937Y812550D01*
X33015Y812591D01*
X33094Y812628D01*
X33174Y812662D01*
X33256Y812692D01*
X33339Y812719D01*
X33424Y812742D01*
X33509Y812761D01*
X33595Y812776D01*
X33682Y812788D01*
X33769Y812796D01*
X33856Y812800D01*
X33944Y812800D01*
X34031Y812796D01*
X34118Y812788D01*
X34205Y812776D01*
X34291Y812761D01*
X34376Y812742D01*
X34461Y812719D01*
X34544Y812692D01*
X34626Y812662D01*
X34706Y812628D01*
X34785Y812591D01*
X34863Y812550D01*
X34938Y812505D01*
X35011Y812458D01*
X35083Y812407D01*
X35151Y812353D01*
X35218Y812296D01*
X35282Y812237D01*
X35343Y812174D01*
X35401Y812109D01*
X35457Y812041D01*
X35509Y811971D01*
X35558Y811899D01*
X35604Y811825D01*
X35647Y811748D01*
X35686Y811670D01*
X35721Y811590D01*
X35753Y811509D01*
X35782Y811426D01*
X35807Y811342D01*
X35828Y811258D01*
X35845Y811172D01*
X35859Y811086D01*
X35868Y810999D01*
X35874Y810911D01*
X35876Y810824D01*
X35876Y807664D01*
X35874Y807577D01*
X35868Y807489D01*
X35859Y807402D01*
X35845Y807316D01*
X35828Y807230D01*
X35807Y807146D01*
X35782Y807062D01*
X35753Y806979D01*
X35721Y806898D01*
X35686Y806818D01*
X35647Y806740D01*
X35604Y806663D01*
X35558Y806589D01*
X35509Y806517D01*
X35457Y806447D01*
X35401Y806379D01*
X35343Y806314D01*
X35282Y806251D01*
X35218Y806192D01*
X35151Y806135D01*
X35083Y806081D01*
X35011Y806030D01*
X34938Y805983D01*
X34863Y805938D01*
X34785Y805897D01*
X34706Y805860D01*
X34626Y805826D01*
X34544Y805796D01*
X34461Y805769D01*
X34376Y805746D01*
X34291Y805727D01*
X34205Y805712D01*
X34118Y805700D01*
X34031Y805692D01*
X33944Y805688D01*
X33856Y805688D01*
X33769Y805692D01*
X33682Y805700D01*
X33595Y805712D01*
X33509Y805727D01*
X33424Y805746D01*
X33339Y805769D01*
X33256Y805796D01*
X33174Y805826D01*
X33094Y805860D01*
X33015Y805897D01*
X32937Y805938D01*
X32862Y805983D01*
X32789Y806030D01*
X32717Y806081D01*
X32649Y806135D01*
X32582Y806192D01*
X32518Y806251D01*
X32457Y806314D01*
X32399Y806379D01*
X32343Y806447D01*
X32291Y806517D01*
X32242Y806589D01*
X32196Y806663D01*
X32153Y806740D01*
X32114Y806818D01*
X32079Y806898D01*
X32047Y806979D01*
X32018Y807062D01*
X31993Y807146D01*
X31972Y807230D01*
X31955Y807316D01*
X31941Y807402D01*
X31932Y807489D01*
X31926Y807577D01*
X31924Y807664D01*
X39484Y805688D02*
X39484Y812800D01*
X43435Y805688D01*
X43435Y812800D01*
X48530Y812800D02*
X48530Y805688D01*
X46555Y812800D02*
X50506Y812800D01*
X53046Y804898D02*
X56207Y804898D01*
X59539Y805688D02*
X59539Y812800D01*
X61514Y812800D01*
X61601Y812798D01*
X61689Y812792D01*
X61776Y812783D01*
X61862Y812769D01*
X61948Y812752D01*
X62032Y812731D01*
X62116Y812706D01*
X62199Y812677D01*
X62280Y812645D01*
X62360Y812610D01*
X62438Y812571D01*
X62515Y812528D01*
X62589Y812482D01*
X62661Y812433D01*
X62731Y812381D01*
X62799Y812325D01*
X62864Y812267D01*
X62927Y812206D01*
X62986Y812142D01*
X63043Y812075D01*
X63097Y812007D01*
X63148Y811935D01*
X63195Y811862D01*
X63240Y811787D01*
X63281Y811709D01*
X63318Y811630D01*
X63352Y811550D01*
X63382Y811468D01*
X63409Y811385D01*
X63432Y811300D01*
X63451Y811215D01*
X63466Y811129D01*
X63478Y811042D01*
X63486Y810955D01*
X63490Y810868D01*
X63490Y810780D01*
X63486Y810693D01*
X63478Y810606D01*
X63466Y810519D01*
X63451Y810433D01*
X63432Y810348D01*
X63409Y810263D01*
X63382Y810180D01*
X63352Y810098D01*
X63318Y810018D01*
X63281Y809939D01*
X63240Y809861D01*
X63195Y809786D01*
X63148Y809713D01*
X63097Y809641D01*
X63043Y809573D01*
X62986Y809506D01*
X62927Y809442D01*
X62864Y809381D01*
X62799Y809323D01*
X62731Y809267D01*
X62661Y809215D01*
X62589Y809166D01*
X62515Y809120D01*
X62438Y809077D01*
X62360Y809038D01*
X62280Y809003D01*
X62199Y808971D01*
X62116Y808942D01*
X62032Y808917D01*
X61948Y808896D01*
X61862Y808879D01*
X61776Y808865D01*
X61689Y808856D01*
X61601Y808850D01*
X61514Y808848D01*
X61514Y808849D02*
X59539Y808849D01*
X61909Y808849D02*
X63490Y805688D01*
X67306Y805688D02*
X67306Y812800D01*
X66516Y805688D02*
X68096Y805688D01*
X68096Y812800D02*
X66516Y812800D01*
X74192Y809639D02*
X75378Y809639D01*
X75378Y805688D01*
X73007Y805688D01*
X72929Y805690D01*
X72852Y805696D01*
X72775Y805705D01*
X72699Y805718D01*
X72623Y805735D01*
X72548Y805756D01*
X72475Y805780D01*
X72402Y805808D01*
X72331Y805840D01*
X72262Y805875D01*
X72195Y805913D01*
X72129Y805954D01*
X72066Y805999D01*
X72005Y806047D01*
X71946Y806097D01*
X71890Y806151D01*
X71836Y806207D01*
X71786Y806266D01*
X71738Y806327D01*
X71693Y806390D01*
X71652Y806456D01*
X71614Y806523D01*
X71579Y806592D01*
X71547Y806663D01*
X71519Y806736D01*
X71495Y806809D01*
X71474Y806884D01*
X71457Y806960D01*
X71444Y807036D01*
X71435Y807113D01*
X71429Y807190D01*
X71427Y807268D01*
X71427Y811220D01*
X71429Y811298D01*
X71435Y811375D01*
X71444Y811452D01*
X71457Y811528D01*
X71474Y811604D01*
X71495Y811679D01*
X71519Y811752D01*
X71547Y811825D01*
X71579Y811896D01*
X71614Y811965D01*
X71652Y812032D01*
X71693Y812098D01*
X71738Y812161D01*
X71786Y812222D01*
X71836Y812281D01*
X71890Y812337D01*
X71946Y812391D01*
X72005Y812441D01*
X72066Y812489D01*
X72129Y812534D01*
X72195Y812575D01*
X72262Y812613D01*
X72331Y812648D01*
X72402Y812680D01*
X72475Y812708D01*
X72548Y812732D01*
X72623Y812753D01*
X72699Y812770D01*
X72775Y812783D01*
X72852Y812792D01*
X72929Y812798D01*
X73007Y812800D01*
X75378Y812800D01*
X79229Y812800D02*
X79229Y805688D01*
X79229Y809639D02*
X83180Y809639D01*
X83180Y812800D02*
X83180Y805688D01*
X88276Y805688D02*
X88276Y812800D01*
X86301Y812800D02*
X90252Y812800D01*
D10*
X185420Y238760D02*
X246380Y238760D01*
X185420Y238760D02*
X185420Y234696D01*
X185420Y40640D02*
X212852Y40640D01*
X218948Y40640D01*
X246380Y40640D01*
X246380Y60452D02*
X246380Y70104D01*
X246380Y82296D02*
X246380Y95504D01*
X246380Y107696D02*
X246380Y120904D01*
X246380Y133096D02*
X246380Y146304D01*
X246380Y158496D02*
X246380Y171704D01*
X246380Y183896D02*
X246380Y197104D01*
X246380Y209296D02*
X246380Y222504D01*
X246380Y234696D02*
X246380Y238760D01*
X185420Y222504D02*
X185420Y209296D01*
X185420Y197104D02*
X185420Y183896D01*
X185420Y171704D02*
X185420Y158496D01*
X185420Y146304D02*
X185420Y133096D01*
X185420Y120904D02*
X185420Y107696D01*
X185420Y95504D02*
X185420Y82296D01*
X185420Y70104D02*
X185420Y56896D01*
X185420Y44704D02*
X185420Y40640D01*
X212852Y40640D02*
X212854Y40749D01*
X212860Y40857D01*
X212869Y40966D01*
X212883Y41074D01*
X212900Y41181D01*
X212922Y41288D01*
X212947Y41394D01*
X212975Y41499D01*
X213008Y41603D01*
X213044Y41705D01*
X213084Y41806D01*
X213127Y41906D01*
X213174Y42004D01*
X213225Y42101D01*
X213279Y42195D01*
X213336Y42288D01*
X213396Y42378D01*
X213460Y42467D01*
X213527Y42553D01*
X213596Y42636D01*
X213669Y42717D01*
X213745Y42795D01*
X213823Y42871D01*
X213904Y42944D01*
X213987Y43013D01*
X214073Y43080D01*
X214162Y43144D01*
X214252Y43204D01*
X214345Y43261D01*
X214439Y43315D01*
X214536Y43366D01*
X214634Y43413D01*
X214734Y43456D01*
X214835Y43496D01*
X214937Y43532D01*
X215041Y43565D01*
X215146Y43593D01*
X215252Y43618D01*
X215359Y43640D01*
X215466Y43657D01*
X215574Y43671D01*
X215683Y43680D01*
X215791Y43686D01*
X215900Y43688D01*
X216009Y43686D01*
X216117Y43680D01*
X216226Y43671D01*
X216334Y43657D01*
X216441Y43640D01*
X216548Y43618D01*
X216654Y43593D01*
X216759Y43565D01*
X216863Y43532D01*
X216965Y43496D01*
X217066Y43456D01*
X217166Y43413D01*
X217264Y43366D01*
X217361Y43315D01*
X217455Y43261D01*
X217548Y43204D01*
X217638Y43144D01*
X217727Y43080D01*
X217813Y43013D01*
X217896Y42944D01*
X217977Y42871D01*
X218055Y42795D01*
X218131Y42717D01*
X218204Y42636D01*
X218273Y42553D01*
X218340Y42467D01*
X218404Y42378D01*
X218464Y42288D01*
X218521Y42195D01*
X218575Y42101D01*
X218626Y42004D01*
X218673Y41906D01*
X218716Y41806D01*
X218756Y41705D01*
X218792Y41603D01*
X218825Y41499D01*
X218853Y41394D01*
X218878Y41288D01*
X218900Y41181D01*
X218917Y41074D01*
X218931Y40966D01*
X218940Y40857D01*
X218946Y40749D01*
X218948Y40640D01*
D190*
X255813Y38156D02*
X255813Y34177D01*
X255813Y38156D02*
X253492Y41141D01*
X255813Y38156D02*
X258135Y41141D01*
X255813Y38156D02*
X252166Y36830D01*
X255813Y38156D02*
X259461Y36830D01*
X272161Y235613D02*
X275477Y235613D01*
X275591Y235611D01*
X275706Y235605D01*
X275820Y235595D01*
X275933Y235581D01*
X276047Y235564D01*
X276159Y235542D01*
X276271Y235517D01*
X276381Y235487D01*
X276491Y235454D01*
X276599Y235417D01*
X276706Y235377D01*
X276812Y235332D01*
X276916Y235285D01*
X277018Y235233D01*
X277118Y235178D01*
X277217Y235120D01*
X277313Y235058D01*
X277408Y234993D01*
X277499Y234925D01*
X277589Y234853D01*
X277676Y234779D01*
X277760Y234702D01*
X277842Y234621D01*
X277921Y234538D01*
X277997Y234453D01*
X278070Y234364D01*
X278139Y234274D01*
X278206Y234181D01*
X278269Y234085D01*
X278329Y233988D01*
X278386Y233888D01*
X278439Y233787D01*
X278489Y233684D01*
X278535Y233579D01*
X278578Y233473D01*
X278616Y233365D01*
X278651Y233256D01*
X278682Y233146D01*
X278710Y233035D01*
X278733Y232923D01*
X278753Y232810D01*
X278769Y232697D01*
X278781Y232583D01*
X278789Y232469D01*
X278793Y232354D01*
X278793Y232240D01*
X278789Y232125D01*
X278781Y232011D01*
X278769Y231897D01*
X278753Y231784D01*
X278733Y231671D01*
X278710Y231559D01*
X278682Y231448D01*
X278651Y231338D01*
X278616Y231229D01*
X278578Y231121D01*
X278535Y231015D01*
X278489Y230910D01*
X278439Y230807D01*
X278386Y230706D01*
X278329Y230606D01*
X278269Y230509D01*
X278206Y230413D01*
X278139Y230320D01*
X278070Y230230D01*
X277997Y230141D01*
X277921Y230056D01*
X277842Y229973D01*
X277760Y229892D01*
X277676Y229815D01*
X277589Y229741D01*
X277499Y229669D01*
X277408Y229601D01*
X277313Y229536D01*
X277217Y229474D01*
X277118Y229416D01*
X277018Y229361D01*
X276916Y229309D01*
X276812Y229262D01*
X276706Y229217D01*
X276599Y229177D01*
X276491Y229140D01*
X276381Y229107D01*
X276271Y229077D01*
X276159Y229052D01*
X276047Y229030D01*
X275933Y229013D01*
X275820Y228999D01*
X275706Y228989D01*
X275591Y228983D01*
X275477Y228981D01*
X272161Y228981D01*
X272161Y240919D01*
X275477Y240919D01*
X275579Y240917D01*
X275680Y240911D01*
X275781Y240901D01*
X275882Y240888D01*
X275982Y240870D01*
X276081Y240849D01*
X276180Y240824D01*
X276277Y240795D01*
X276374Y240763D01*
X276469Y240727D01*
X276562Y240687D01*
X276654Y240644D01*
X276744Y240597D01*
X276833Y240546D01*
X276919Y240493D01*
X277003Y240436D01*
X277085Y240376D01*
X277165Y240313D01*
X277242Y240247D01*
X277317Y240178D01*
X277389Y240106D01*
X277458Y240031D01*
X277524Y239954D01*
X277587Y239874D01*
X277647Y239792D01*
X277704Y239708D01*
X277757Y239622D01*
X277808Y239533D01*
X277855Y239443D01*
X277898Y239351D01*
X277938Y239258D01*
X277974Y239163D01*
X278006Y239066D01*
X278035Y238969D01*
X278060Y238870D01*
X278081Y238771D01*
X278099Y238671D01*
X278112Y238570D01*
X278122Y238469D01*
X278128Y238368D01*
X278130Y238266D01*
X278128Y238164D01*
X278122Y238063D01*
X278112Y237962D01*
X278099Y237861D01*
X278081Y237761D01*
X278060Y237662D01*
X278035Y237563D01*
X278006Y237466D01*
X277974Y237369D01*
X277938Y237274D01*
X277898Y237181D01*
X277855Y237089D01*
X277808Y236999D01*
X277757Y236910D01*
X277704Y236824D01*
X277647Y236740D01*
X277587Y236658D01*
X277524Y236578D01*
X277458Y236501D01*
X277389Y236426D01*
X277317Y236354D01*
X277242Y236285D01*
X277165Y236219D01*
X277085Y236156D01*
X277003Y236096D01*
X276919Y236039D01*
X276833Y235986D01*
X276744Y235935D01*
X276654Y235888D01*
X276562Y235845D01*
X276469Y235805D01*
X276374Y235769D01*
X276277Y235737D01*
X276180Y235708D01*
X276081Y235683D01*
X275982Y235662D01*
X275882Y235644D01*
X275781Y235631D01*
X275680Y235621D01*
X275579Y235615D01*
X275477Y235613D01*
X282399Y228981D02*
X286378Y240919D01*
X290357Y228981D01*
X289362Y231966D02*
X283393Y231966D01*
X297116Y228981D02*
X299769Y228981D01*
X297116Y228981D02*
X297014Y228983D01*
X296913Y228989D01*
X296812Y228999D01*
X296711Y229012D01*
X296611Y229030D01*
X296512Y229051D01*
X296413Y229076D01*
X296316Y229105D01*
X296219Y229137D01*
X296124Y229173D01*
X296031Y229213D01*
X295939Y229256D01*
X295849Y229303D01*
X295760Y229354D01*
X295674Y229407D01*
X295590Y229464D01*
X295508Y229524D01*
X295428Y229587D01*
X295351Y229653D01*
X295276Y229722D01*
X295204Y229794D01*
X295135Y229869D01*
X295069Y229946D01*
X295006Y230026D01*
X294946Y230108D01*
X294889Y230192D01*
X294836Y230278D01*
X294785Y230367D01*
X294738Y230457D01*
X294695Y230549D01*
X294655Y230642D01*
X294619Y230737D01*
X294587Y230834D01*
X294558Y230931D01*
X294533Y231030D01*
X294512Y231129D01*
X294494Y231229D01*
X294481Y231330D01*
X294471Y231431D01*
X294465Y231532D01*
X294463Y231634D01*
X294463Y238266D01*
X294465Y238368D01*
X294471Y238469D01*
X294481Y238570D01*
X294494Y238671D01*
X294512Y238771D01*
X294533Y238870D01*
X294558Y238969D01*
X294587Y239066D01*
X294619Y239163D01*
X294655Y239258D01*
X294695Y239351D01*
X294738Y239443D01*
X294785Y239533D01*
X294836Y239622D01*
X294889Y239708D01*
X294946Y239792D01*
X295006Y239874D01*
X295069Y239954D01*
X295135Y240031D01*
X295204Y240106D01*
X295276Y240178D01*
X295351Y240247D01*
X295428Y240313D01*
X295508Y240376D01*
X295590Y240436D01*
X295674Y240493D01*
X295760Y240546D01*
X295849Y240597D01*
X295939Y240644D01*
X296031Y240687D01*
X296124Y240727D01*
X296219Y240763D01*
X296316Y240795D01*
X296413Y240824D01*
X296511Y240849D01*
X296611Y240870D01*
X296711Y240888D01*
X296812Y240901D01*
X296913Y240911D01*
X297014Y240917D01*
X297116Y240919D01*
X299769Y240919D01*
X304546Y240919D02*
X304546Y228981D01*
X304546Y233624D02*
X311178Y240919D01*
X307199Y236276D02*
X311178Y228981D01*
X272161Y225679D02*
X272161Y213741D01*
X276140Y219047D02*
X272161Y225679D01*
X276140Y219047D02*
X280120Y225679D01*
X280120Y213741D01*
X285397Y217057D02*
X285397Y222363D01*
X285399Y222477D01*
X285405Y222592D01*
X285415Y222706D01*
X285429Y222819D01*
X285446Y222933D01*
X285468Y223045D01*
X285493Y223157D01*
X285523Y223267D01*
X285556Y223377D01*
X285593Y223485D01*
X285633Y223592D01*
X285678Y223698D01*
X285725Y223802D01*
X285777Y223904D01*
X285832Y224004D01*
X285890Y224103D01*
X285952Y224199D01*
X286017Y224294D01*
X286085Y224385D01*
X286157Y224475D01*
X286231Y224562D01*
X286308Y224646D01*
X286389Y224728D01*
X286472Y224807D01*
X286557Y224883D01*
X286646Y224956D01*
X286736Y225025D01*
X286829Y225092D01*
X286925Y225155D01*
X287022Y225215D01*
X287122Y225272D01*
X287223Y225325D01*
X287326Y225375D01*
X287431Y225421D01*
X287537Y225464D01*
X287645Y225502D01*
X287754Y225537D01*
X287864Y225568D01*
X287975Y225596D01*
X288087Y225619D01*
X288200Y225639D01*
X288313Y225655D01*
X288427Y225667D01*
X288541Y225675D01*
X288656Y225679D01*
X288770Y225679D01*
X288885Y225675D01*
X288999Y225667D01*
X289113Y225655D01*
X289226Y225639D01*
X289339Y225619D01*
X289451Y225596D01*
X289562Y225568D01*
X289672Y225537D01*
X289781Y225502D01*
X289889Y225464D01*
X289995Y225421D01*
X290100Y225375D01*
X290203Y225325D01*
X290304Y225272D01*
X290404Y225215D01*
X290501Y225155D01*
X290597Y225092D01*
X290690Y225025D01*
X290780Y224956D01*
X290869Y224883D01*
X290954Y224807D01*
X291037Y224728D01*
X291118Y224646D01*
X291195Y224562D01*
X291269Y224475D01*
X291341Y224385D01*
X291409Y224294D01*
X291474Y224199D01*
X291536Y224103D01*
X291594Y224004D01*
X291649Y223904D01*
X291701Y223802D01*
X291748Y223698D01*
X291793Y223592D01*
X291833Y223485D01*
X291870Y223377D01*
X291903Y223267D01*
X291933Y223157D01*
X291958Y223045D01*
X291980Y222933D01*
X291997Y222819D01*
X292011Y222706D01*
X292021Y222592D01*
X292027Y222477D01*
X292029Y222363D01*
X292029Y217057D01*
X292027Y216943D01*
X292021Y216828D01*
X292011Y216714D01*
X291997Y216601D01*
X291980Y216487D01*
X291958Y216375D01*
X291933Y216263D01*
X291903Y216153D01*
X291870Y216043D01*
X291833Y215935D01*
X291793Y215828D01*
X291748Y215722D01*
X291701Y215618D01*
X291649Y215516D01*
X291594Y215416D01*
X291536Y215317D01*
X291474Y215221D01*
X291409Y215126D01*
X291341Y215035D01*
X291269Y214945D01*
X291195Y214858D01*
X291118Y214774D01*
X291037Y214692D01*
X290954Y214613D01*
X290869Y214537D01*
X290780Y214464D01*
X290690Y214395D01*
X290597Y214328D01*
X290501Y214265D01*
X290404Y214205D01*
X290304Y214148D01*
X290203Y214095D01*
X290100Y214045D01*
X289995Y213999D01*
X289889Y213956D01*
X289781Y213918D01*
X289672Y213883D01*
X289562Y213852D01*
X289451Y213824D01*
X289339Y213801D01*
X289226Y213781D01*
X289113Y213765D01*
X288999Y213753D01*
X288885Y213745D01*
X288770Y213741D01*
X288656Y213741D01*
X288541Y213745D01*
X288427Y213753D01*
X288313Y213765D01*
X288200Y213781D01*
X288087Y213801D01*
X287975Y213824D01*
X287864Y213852D01*
X287754Y213883D01*
X287645Y213918D01*
X287537Y213956D01*
X287431Y213999D01*
X287326Y214045D01*
X287223Y214095D01*
X287122Y214148D01*
X287022Y214205D01*
X286925Y214265D01*
X286829Y214328D01*
X286736Y214395D01*
X286646Y214464D01*
X286557Y214537D01*
X286472Y214613D01*
X286389Y214692D01*
X286308Y214774D01*
X286231Y214858D01*
X286157Y214945D01*
X286085Y215035D01*
X286017Y215126D01*
X285952Y215221D01*
X285890Y215317D01*
X285832Y215416D01*
X285777Y215516D01*
X285725Y215618D01*
X285678Y215722D01*
X285633Y215828D01*
X285593Y215935D01*
X285556Y216043D01*
X285523Y216153D01*
X285493Y216263D01*
X285468Y216375D01*
X285446Y216487D01*
X285429Y216601D01*
X285415Y216714D01*
X285405Y216828D01*
X285399Y216943D01*
X285397Y217057D01*
X299381Y213741D02*
X299381Y225679D01*
X296065Y225679D02*
X302697Y225679D01*
X306733Y222363D02*
X306733Y217057D01*
X306733Y222363D02*
X306735Y222477D01*
X306741Y222592D01*
X306751Y222706D01*
X306765Y222819D01*
X306782Y222933D01*
X306804Y223045D01*
X306829Y223157D01*
X306859Y223267D01*
X306892Y223377D01*
X306929Y223485D01*
X306969Y223592D01*
X307014Y223698D01*
X307061Y223802D01*
X307113Y223904D01*
X307168Y224004D01*
X307226Y224103D01*
X307288Y224199D01*
X307353Y224294D01*
X307421Y224385D01*
X307493Y224475D01*
X307567Y224562D01*
X307644Y224646D01*
X307725Y224728D01*
X307808Y224807D01*
X307893Y224883D01*
X307982Y224956D01*
X308072Y225025D01*
X308165Y225092D01*
X308261Y225155D01*
X308358Y225215D01*
X308458Y225272D01*
X308559Y225325D01*
X308662Y225375D01*
X308767Y225421D01*
X308873Y225464D01*
X308981Y225502D01*
X309090Y225537D01*
X309200Y225568D01*
X309311Y225596D01*
X309423Y225619D01*
X309536Y225639D01*
X309649Y225655D01*
X309763Y225667D01*
X309877Y225675D01*
X309992Y225679D01*
X310106Y225679D01*
X310221Y225675D01*
X310335Y225667D01*
X310449Y225655D01*
X310562Y225639D01*
X310675Y225619D01*
X310787Y225596D01*
X310898Y225568D01*
X311008Y225537D01*
X311117Y225502D01*
X311225Y225464D01*
X311331Y225421D01*
X311436Y225375D01*
X311539Y225325D01*
X311640Y225272D01*
X311740Y225215D01*
X311837Y225155D01*
X311933Y225092D01*
X312026Y225025D01*
X312116Y224956D01*
X312205Y224883D01*
X312290Y224807D01*
X312373Y224728D01*
X312454Y224646D01*
X312531Y224562D01*
X312605Y224475D01*
X312677Y224385D01*
X312745Y224294D01*
X312810Y224199D01*
X312872Y224103D01*
X312930Y224004D01*
X312985Y223904D01*
X313037Y223802D01*
X313084Y223698D01*
X313129Y223592D01*
X313169Y223485D01*
X313206Y223377D01*
X313239Y223267D01*
X313269Y223157D01*
X313294Y223045D01*
X313316Y222933D01*
X313333Y222819D01*
X313347Y222706D01*
X313357Y222592D01*
X313363Y222477D01*
X313365Y222363D01*
X313365Y217057D01*
X313363Y216943D01*
X313357Y216828D01*
X313347Y216714D01*
X313333Y216601D01*
X313316Y216487D01*
X313294Y216375D01*
X313269Y216263D01*
X313239Y216153D01*
X313206Y216043D01*
X313169Y215935D01*
X313129Y215828D01*
X313084Y215722D01*
X313037Y215618D01*
X312985Y215516D01*
X312930Y215416D01*
X312872Y215317D01*
X312810Y215221D01*
X312745Y215126D01*
X312677Y215035D01*
X312605Y214945D01*
X312531Y214858D01*
X312454Y214774D01*
X312373Y214692D01*
X312290Y214613D01*
X312205Y214537D01*
X312116Y214464D01*
X312026Y214395D01*
X311933Y214328D01*
X311837Y214265D01*
X311740Y214205D01*
X311640Y214148D01*
X311539Y214095D01*
X311436Y214045D01*
X311331Y213999D01*
X311225Y213956D01*
X311117Y213918D01*
X311008Y213883D01*
X310898Y213852D01*
X310787Y213824D01*
X310675Y213801D01*
X310562Y213781D01*
X310449Y213765D01*
X310335Y213753D01*
X310221Y213745D01*
X310106Y213741D01*
X309992Y213741D01*
X309877Y213745D01*
X309763Y213753D01*
X309649Y213765D01*
X309536Y213781D01*
X309423Y213801D01*
X309311Y213824D01*
X309200Y213852D01*
X309090Y213883D01*
X308981Y213918D01*
X308873Y213956D01*
X308767Y213999D01*
X308662Y214045D01*
X308559Y214095D01*
X308458Y214148D01*
X308358Y214205D01*
X308261Y214265D01*
X308165Y214328D01*
X308072Y214395D01*
X307982Y214464D01*
X307893Y214537D01*
X307808Y214613D01*
X307725Y214692D01*
X307644Y214774D01*
X307567Y214858D01*
X307493Y214945D01*
X307421Y215035D01*
X307353Y215126D01*
X307288Y215221D01*
X307226Y215317D01*
X307168Y215416D01*
X307113Y215516D01*
X307061Y215618D01*
X307014Y215722D01*
X306969Y215828D01*
X306929Y215935D01*
X306892Y216043D01*
X306859Y216153D01*
X306829Y216263D01*
X306804Y216375D01*
X306782Y216487D01*
X306765Y216601D01*
X306751Y216714D01*
X306741Y216828D01*
X306735Y216943D01*
X306733Y217057D01*
X318609Y213741D02*
X318609Y225679D01*
X321925Y225679D01*
X322039Y225677D01*
X322154Y225671D01*
X322268Y225661D01*
X322381Y225647D01*
X322495Y225630D01*
X322607Y225608D01*
X322719Y225583D01*
X322829Y225553D01*
X322939Y225520D01*
X323047Y225483D01*
X323154Y225443D01*
X323260Y225398D01*
X323364Y225351D01*
X323466Y225299D01*
X323566Y225244D01*
X323665Y225186D01*
X323761Y225124D01*
X323856Y225059D01*
X323947Y224991D01*
X324037Y224919D01*
X324124Y224845D01*
X324208Y224768D01*
X324290Y224687D01*
X324369Y224604D01*
X324445Y224519D01*
X324518Y224430D01*
X324587Y224340D01*
X324654Y224247D01*
X324717Y224151D01*
X324777Y224054D01*
X324834Y223954D01*
X324887Y223853D01*
X324937Y223750D01*
X324983Y223645D01*
X325026Y223539D01*
X325064Y223431D01*
X325099Y223322D01*
X325130Y223212D01*
X325158Y223101D01*
X325181Y222989D01*
X325201Y222876D01*
X325217Y222763D01*
X325229Y222649D01*
X325237Y222535D01*
X325241Y222420D01*
X325241Y222306D01*
X325237Y222191D01*
X325229Y222077D01*
X325217Y221963D01*
X325201Y221850D01*
X325181Y221737D01*
X325158Y221625D01*
X325130Y221514D01*
X325099Y221404D01*
X325064Y221295D01*
X325026Y221187D01*
X324983Y221081D01*
X324937Y220976D01*
X324887Y220873D01*
X324834Y220772D01*
X324777Y220672D01*
X324717Y220575D01*
X324654Y220479D01*
X324587Y220386D01*
X324518Y220296D01*
X324445Y220207D01*
X324369Y220122D01*
X324290Y220039D01*
X324208Y219958D01*
X324124Y219881D01*
X324037Y219807D01*
X323947Y219735D01*
X323856Y219667D01*
X323761Y219602D01*
X323665Y219540D01*
X323566Y219482D01*
X323466Y219427D01*
X323364Y219375D01*
X323260Y219328D01*
X323154Y219283D01*
X323047Y219243D01*
X322939Y219206D01*
X322829Y219173D01*
X322719Y219143D01*
X322607Y219118D01*
X322495Y219096D01*
X322381Y219079D01*
X322268Y219065D01*
X322154Y219055D01*
X322039Y219049D01*
X321925Y219047D01*
X318609Y219047D01*
X322588Y219047D02*
X325241Y213741D01*
X329494Y212415D02*
X334800Y212415D01*
X339499Y213741D02*
X339499Y225679D01*
X342815Y225679D01*
X342928Y225677D01*
X343041Y225671D01*
X343154Y225662D01*
X343267Y225648D01*
X343378Y225631D01*
X343490Y225610D01*
X343600Y225585D01*
X343710Y225556D01*
X343818Y225524D01*
X343925Y225488D01*
X344031Y225448D01*
X344136Y225404D01*
X344239Y225358D01*
X344341Y225307D01*
X344440Y225253D01*
X344538Y225196D01*
X344634Y225136D01*
X344727Y225072D01*
X344819Y225005D01*
X344908Y224935D01*
X344994Y224862D01*
X345078Y224786D01*
X345160Y224708D01*
X345238Y224626D01*
X345314Y224542D01*
X345387Y224456D01*
X345457Y224367D01*
X345524Y224275D01*
X345588Y224182D01*
X345648Y224086D01*
X345705Y223988D01*
X345759Y223889D01*
X345810Y223787D01*
X345856Y223684D01*
X345900Y223579D01*
X345940Y223473D01*
X345976Y223366D01*
X346008Y223258D01*
X346037Y223148D01*
X346062Y223038D01*
X346083Y222926D01*
X346100Y222815D01*
X346114Y222702D01*
X346123Y222589D01*
X346129Y222476D01*
X346131Y222363D01*
X346131Y217057D01*
X346129Y216944D01*
X346123Y216831D01*
X346114Y216718D01*
X346100Y216605D01*
X346083Y216494D01*
X346062Y216382D01*
X346037Y216272D01*
X346008Y216162D01*
X345976Y216054D01*
X345940Y215947D01*
X345900Y215841D01*
X345856Y215736D01*
X345810Y215633D01*
X345759Y215531D01*
X345705Y215432D01*
X345648Y215334D01*
X345588Y215238D01*
X345524Y215145D01*
X345457Y215053D01*
X345387Y214964D01*
X345314Y214878D01*
X345238Y214794D01*
X345160Y214712D01*
X345078Y214634D01*
X344994Y214558D01*
X344908Y214485D01*
X344819Y214415D01*
X344727Y214348D01*
X344634Y214284D01*
X344538Y214224D01*
X344440Y214167D01*
X344341Y214113D01*
X344239Y214062D01*
X344136Y214016D01*
X344031Y213972D01*
X343925Y213932D01*
X343818Y213896D01*
X343710Y213864D01*
X343600Y213835D01*
X343490Y213810D01*
X343378Y213789D01*
X343267Y213772D01*
X343154Y213758D01*
X343041Y213749D01*
X342928Y213743D01*
X342815Y213741D01*
X339499Y213741D01*
X351755Y213741D02*
X351755Y225679D01*
X355072Y225679D01*
X355186Y225677D01*
X355301Y225671D01*
X355415Y225661D01*
X355528Y225647D01*
X355642Y225630D01*
X355754Y225608D01*
X355866Y225583D01*
X355976Y225553D01*
X356086Y225520D01*
X356194Y225483D01*
X356301Y225443D01*
X356407Y225398D01*
X356511Y225351D01*
X356613Y225299D01*
X356713Y225244D01*
X356812Y225186D01*
X356908Y225124D01*
X357003Y225059D01*
X357094Y224991D01*
X357184Y224919D01*
X357271Y224845D01*
X357355Y224768D01*
X357437Y224687D01*
X357516Y224604D01*
X357592Y224519D01*
X357665Y224430D01*
X357734Y224340D01*
X357801Y224247D01*
X357864Y224151D01*
X357924Y224054D01*
X357981Y223954D01*
X358034Y223853D01*
X358084Y223750D01*
X358130Y223645D01*
X358173Y223539D01*
X358211Y223431D01*
X358246Y223322D01*
X358277Y223212D01*
X358305Y223101D01*
X358328Y222989D01*
X358348Y222876D01*
X358364Y222763D01*
X358376Y222649D01*
X358384Y222535D01*
X358388Y222420D01*
X358388Y222306D01*
X358384Y222191D01*
X358376Y222077D01*
X358364Y221963D01*
X358348Y221850D01*
X358328Y221737D01*
X358305Y221625D01*
X358277Y221514D01*
X358246Y221404D01*
X358211Y221295D01*
X358173Y221187D01*
X358130Y221081D01*
X358084Y220976D01*
X358034Y220873D01*
X357981Y220772D01*
X357924Y220672D01*
X357864Y220575D01*
X357801Y220479D01*
X357734Y220386D01*
X357665Y220296D01*
X357592Y220207D01*
X357516Y220122D01*
X357437Y220039D01*
X357355Y219958D01*
X357271Y219881D01*
X357184Y219807D01*
X357094Y219735D01*
X357003Y219667D01*
X356908Y219602D01*
X356812Y219540D01*
X356713Y219482D01*
X356613Y219427D01*
X356511Y219375D01*
X356407Y219328D01*
X356301Y219283D01*
X356194Y219243D01*
X356086Y219206D01*
X355976Y219173D01*
X355866Y219143D01*
X355754Y219118D01*
X355642Y219096D01*
X355528Y219079D01*
X355415Y219065D01*
X355301Y219055D01*
X355186Y219049D01*
X355072Y219047D01*
X351755Y219047D01*
X355735Y219047D02*
X358388Y213741D01*
X364151Y213741D02*
X364151Y225679D01*
X362825Y213741D02*
X365478Y213741D01*
X365478Y225679D02*
X362825Y225679D01*
X369316Y225679D02*
X373295Y213741D01*
X377274Y225679D01*
X381810Y213741D02*
X387116Y213741D01*
X381810Y213741D02*
X381810Y225679D01*
X387116Y225679D01*
X385789Y220373D02*
X381810Y220373D01*
X391760Y225679D02*
X391760Y213741D01*
X391760Y225679D02*
X395076Y225679D01*
X395190Y225677D01*
X395305Y225671D01*
X395419Y225661D01*
X395532Y225647D01*
X395646Y225630D01*
X395758Y225608D01*
X395870Y225583D01*
X395980Y225553D01*
X396090Y225520D01*
X396198Y225483D01*
X396305Y225443D01*
X396411Y225398D01*
X396515Y225351D01*
X396617Y225299D01*
X396717Y225244D01*
X396816Y225186D01*
X396912Y225124D01*
X397007Y225059D01*
X397098Y224991D01*
X397188Y224919D01*
X397275Y224845D01*
X397359Y224768D01*
X397441Y224687D01*
X397520Y224604D01*
X397596Y224519D01*
X397669Y224430D01*
X397738Y224340D01*
X397805Y224247D01*
X397868Y224151D01*
X397928Y224054D01*
X397985Y223954D01*
X398038Y223853D01*
X398088Y223750D01*
X398134Y223645D01*
X398177Y223539D01*
X398215Y223431D01*
X398250Y223322D01*
X398281Y223212D01*
X398309Y223101D01*
X398332Y222989D01*
X398352Y222876D01*
X398368Y222763D01*
X398380Y222649D01*
X398388Y222535D01*
X398392Y222420D01*
X398392Y222306D01*
X398388Y222191D01*
X398380Y222077D01*
X398368Y221963D01*
X398352Y221850D01*
X398332Y221737D01*
X398309Y221625D01*
X398281Y221514D01*
X398250Y221404D01*
X398215Y221295D01*
X398177Y221187D01*
X398134Y221081D01*
X398088Y220976D01*
X398038Y220873D01*
X397985Y220772D01*
X397928Y220672D01*
X397868Y220575D01*
X397805Y220479D01*
X397738Y220386D01*
X397669Y220296D01*
X397596Y220207D01*
X397520Y220122D01*
X397441Y220039D01*
X397359Y219958D01*
X397275Y219881D01*
X397188Y219807D01*
X397098Y219735D01*
X397007Y219667D01*
X396912Y219602D01*
X396816Y219540D01*
X396717Y219482D01*
X396617Y219427D01*
X396515Y219375D01*
X396411Y219328D01*
X396305Y219283D01*
X396198Y219243D01*
X396090Y219206D01*
X395980Y219173D01*
X395870Y219143D01*
X395758Y219118D01*
X395646Y219096D01*
X395532Y219079D01*
X395419Y219065D01*
X395305Y219055D01*
X395190Y219049D01*
X395076Y219047D01*
X391760Y219047D01*
X395740Y219047D02*
X398393Y213741D01*
D10*
X246380Y701040D02*
X185420Y701040D01*
X246380Y701040D02*
X246380Y705104D01*
X246380Y899160D02*
X218948Y899160D01*
X212852Y899160D01*
X185420Y899160D01*
X185420Y879348D02*
X185420Y869696D01*
X185420Y857504D02*
X185420Y844296D01*
X185420Y832104D02*
X185420Y818896D01*
X185420Y806704D02*
X185420Y793496D01*
X185420Y781304D02*
X185420Y768096D01*
X185420Y755904D02*
X185420Y742696D01*
X185420Y730504D02*
X185420Y717296D01*
X185420Y705104D02*
X185420Y701040D01*
X246380Y717296D02*
X246380Y730504D01*
X246380Y742696D02*
X246380Y755904D01*
X246380Y768096D02*
X246380Y781304D01*
X246380Y793496D02*
X246380Y806704D01*
X246380Y818896D02*
X246380Y832104D01*
X246380Y844296D02*
X246380Y857504D01*
X246380Y869696D02*
X246380Y882904D01*
X246380Y895096D02*
X246380Y899160D01*
X218948Y899160D02*
X218946Y899051D01*
X218940Y898943D01*
X218931Y898834D01*
X218917Y898726D01*
X218900Y898619D01*
X218878Y898512D01*
X218853Y898406D01*
X218825Y898301D01*
X218792Y898197D01*
X218756Y898095D01*
X218716Y897994D01*
X218673Y897894D01*
X218626Y897796D01*
X218575Y897699D01*
X218521Y897605D01*
X218464Y897512D01*
X218404Y897422D01*
X218340Y897333D01*
X218273Y897247D01*
X218204Y897164D01*
X218131Y897083D01*
X218055Y897005D01*
X217977Y896929D01*
X217896Y896856D01*
X217813Y896787D01*
X217727Y896720D01*
X217638Y896656D01*
X217548Y896596D01*
X217455Y896539D01*
X217361Y896485D01*
X217264Y896434D01*
X217166Y896387D01*
X217066Y896344D01*
X216965Y896304D01*
X216863Y896268D01*
X216759Y896235D01*
X216654Y896207D01*
X216548Y896182D01*
X216441Y896160D01*
X216334Y896143D01*
X216226Y896129D01*
X216117Y896120D01*
X216009Y896114D01*
X215900Y896112D01*
X215791Y896114D01*
X215683Y896120D01*
X215574Y896129D01*
X215466Y896143D01*
X215359Y896160D01*
X215252Y896182D01*
X215146Y896207D01*
X215041Y896235D01*
X214937Y896268D01*
X214835Y896304D01*
X214734Y896344D01*
X214634Y896387D01*
X214536Y896434D01*
X214439Y896485D01*
X214345Y896539D01*
X214252Y896596D01*
X214162Y896656D01*
X214073Y896720D01*
X213987Y896787D01*
X213904Y896856D01*
X213823Y896929D01*
X213745Y897005D01*
X213669Y897083D01*
X213596Y897164D01*
X213527Y897247D01*
X213460Y897333D01*
X213396Y897422D01*
X213336Y897512D01*
X213279Y897605D01*
X213225Y897699D01*
X213174Y897796D01*
X213127Y897894D01*
X213084Y897994D01*
X213044Y898095D01*
X213008Y898197D01*
X212975Y898301D01*
X212947Y898406D01*
X212922Y898512D01*
X212900Y898619D01*
X212883Y898726D01*
X212869Y898834D01*
X212860Y898943D01*
X212854Y899051D01*
X212852Y899160D01*
D190*
X175987Y901644D02*
X175987Y905623D01*
X175987Y901644D02*
X178308Y898659D01*
X175987Y901644D02*
X173665Y898659D01*
X175987Y901644D02*
X179634Y902970D01*
X175987Y901644D02*
X172339Y902970D01*
X274701Y897001D02*
X274701Y908939D01*
X280007Y908939D01*
X280007Y903633D02*
X274701Y903633D01*
X284652Y908939D02*
X284652Y897001D01*
X284652Y908939D02*
X287968Y908939D01*
X288082Y908937D01*
X288197Y908931D01*
X288311Y908921D01*
X288424Y908907D01*
X288538Y908890D01*
X288650Y908868D01*
X288762Y908843D01*
X288872Y908813D01*
X288982Y908780D01*
X289090Y908743D01*
X289197Y908703D01*
X289303Y908658D01*
X289407Y908611D01*
X289509Y908559D01*
X289609Y908504D01*
X289708Y908446D01*
X289804Y908384D01*
X289899Y908319D01*
X289990Y908251D01*
X290080Y908179D01*
X290167Y908105D01*
X290251Y908028D01*
X290333Y907947D01*
X290412Y907864D01*
X290488Y907779D01*
X290561Y907690D01*
X290630Y907600D01*
X290697Y907507D01*
X290760Y907411D01*
X290820Y907314D01*
X290877Y907214D01*
X290930Y907113D01*
X290980Y907010D01*
X291026Y906905D01*
X291069Y906799D01*
X291107Y906691D01*
X291142Y906582D01*
X291173Y906472D01*
X291201Y906361D01*
X291224Y906249D01*
X291244Y906136D01*
X291260Y906023D01*
X291272Y905909D01*
X291280Y905795D01*
X291284Y905680D01*
X291284Y905566D01*
X291280Y905451D01*
X291272Y905337D01*
X291260Y905223D01*
X291244Y905110D01*
X291224Y904997D01*
X291201Y904885D01*
X291173Y904774D01*
X291142Y904664D01*
X291107Y904555D01*
X291069Y904447D01*
X291026Y904341D01*
X290980Y904236D01*
X290930Y904133D01*
X290877Y904032D01*
X290820Y903932D01*
X290760Y903835D01*
X290697Y903739D01*
X290630Y903646D01*
X290561Y903556D01*
X290488Y903467D01*
X290412Y903382D01*
X290333Y903299D01*
X290251Y903218D01*
X290167Y903141D01*
X290080Y903067D01*
X289990Y902995D01*
X289899Y902927D01*
X289804Y902862D01*
X289708Y902800D01*
X289609Y902742D01*
X289509Y902687D01*
X289407Y902635D01*
X289303Y902588D01*
X289197Y902543D01*
X289090Y902503D01*
X288982Y902466D01*
X288872Y902433D01*
X288762Y902403D01*
X288650Y902378D01*
X288538Y902356D01*
X288424Y902339D01*
X288311Y902325D01*
X288197Y902315D01*
X288082Y902309D01*
X287968Y902307D01*
X284652Y902307D01*
X288631Y902307D02*
X291284Y897001D01*
X296017Y900317D02*
X296017Y905623D01*
X296019Y905737D01*
X296025Y905852D01*
X296035Y905966D01*
X296049Y906079D01*
X296066Y906193D01*
X296088Y906305D01*
X296113Y906417D01*
X296143Y906527D01*
X296176Y906637D01*
X296213Y906745D01*
X296253Y906852D01*
X296298Y906958D01*
X296345Y907062D01*
X296397Y907164D01*
X296452Y907264D01*
X296510Y907363D01*
X296572Y907459D01*
X296637Y907554D01*
X296705Y907645D01*
X296777Y907735D01*
X296851Y907822D01*
X296928Y907906D01*
X297009Y907988D01*
X297092Y908067D01*
X297177Y908143D01*
X297266Y908216D01*
X297356Y908285D01*
X297449Y908352D01*
X297545Y908415D01*
X297642Y908475D01*
X297742Y908532D01*
X297843Y908585D01*
X297946Y908635D01*
X298051Y908681D01*
X298157Y908724D01*
X298265Y908762D01*
X298374Y908797D01*
X298484Y908828D01*
X298595Y908856D01*
X298707Y908879D01*
X298820Y908899D01*
X298933Y908915D01*
X299047Y908927D01*
X299161Y908935D01*
X299276Y908939D01*
X299390Y908939D01*
X299505Y908935D01*
X299619Y908927D01*
X299733Y908915D01*
X299846Y908899D01*
X299959Y908879D01*
X300071Y908856D01*
X300182Y908828D01*
X300292Y908797D01*
X300401Y908762D01*
X300509Y908724D01*
X300615Y908681D01*
X300720Y908635D01*
X300823Y908585D01*
X300924Y908532D01*
X301024Y908475D01*
X301121Y908415D01*
X301217Y908352D01*
X301310Y908285D01*
X301400Y908216D01*
X301489Y908143D01*
X301574Y908067D01*
X301657Y907988D01*
X301738Y907906D01*
X301815Y907822D01*
X301889Y907735D01*
X301961Y907645D01*
X302029Y907554D01*
X302094Y907459D01*
X302156Y907363D01*
X302214Y907264D01*
X302269Y907164D01*
X302321Y907062D01*
X302368Y906958D01*
X302413Y906852D01*
X302453Y906745D01*
X302490Y906637D01*
X302523Y906527D01*
X302553Y906417D01*
X302578Y906305D01*
X302600Y906193D01*
X302617Y906079D01*
X302631Y905966D01*
X302641Y905852D01*
X302647Y905737D01*
X302649Y905623D01*
X302649Y900317D01*
X302647Y900203D01*
X302641Y900088D01*
X302631Y899974D01*
X302617Y899861D01*
X302600Y899747D01*
X302578Y899635D01*
X302553Y899523D01*
X302523Y899413D01*
X302490Y899303D01*
X302453Y899195D01*
X302413Y899088D01*
X302368Y898982D01*
X302321Y898878D01*
X302269Y898776D01*
X302214Y898676D01*
X302156Y898577D01*
X302094Y898481D01*
X302029Y898386D01*
X301961Y898295D01*
X301889Y898205D01*
X301815Y898118D01*
X301738Y898034D01*
X301657Y897952D01*
X301574Y897873D01*
X301489Y897797D01*
X301400Y897724D01*
X301310Y897655D01*
X301217Y897588D01*
X301121Y897525D01*
X301024Y897465D01*
X300924Y897408D01*
X300823Y897355D01*
X300720Y897305D01*
X300615Y897259D01*
X300509Y897216D01*
X300401Y897178D01*
X300292Y897143D01*
X300182Y897112D01*
X300071Y897084D01*
X299959Y897061D01*
X299846Y897041D01*
X299733Y897025D01*
X299619Y897013D01*
X299505Y897005D01*
X299390Y897001D01*
X299276Y897001D01*
X299161Y897005D01*
X299047Y897013D01*
X298933Y897025D01*
X298820Y897041D01*
X298707Y897061D01*
X298595Y897084D01*
X298484Y897112D01*
X298374Y897143D01*
X298265Y897178D01*
X298157Y897216D01*
X298051Y897259D01*
X297946Y897305D01*
X297843Y897355D01*
X297742Y897408D01*
X297642Y897465D01*
X297545Y897525D01*
X297449Y897588D01*
X297356Y897655D01*
X297266Y897724D01*
X297177Y897797D01*
X297092Y897873D01*
X297009Y897952D01*
X296928Y898034D01*
X296851Y898118D01*
X296777Y898205D01*
X296705Y898295D01*
X296637Y898386D01*
X296572Y898481D01*
X296510Y898577D01*
X296452Y898676D01*
X296397Y898776D01*
X296345Y898878D01*
X296298Y898982D01*
X296253Y899088D01*
X296213Y899195D01*
X296176Y899303D01*
X296143Y899413D01*
X296113Y899523D01*
X296088Y899635D01*
X296066Y899747D01*
X296049Y899861D01*
X296035Y899974D01*
X296025Y900088D01*
X296019Y900203D01*
X296017Y900317D01*
X307828Y897001D02*
X307828Y908939D01*
X314460Y897001D01*
X314460Y908939D01*
X322193Y908939D02*
X322193Y897001D01*
X318877Y908939D02*
X325509Y908939D01*
X274701Y893699D02*
X274701Y881761D01*
X278680Y887067D02*
X274701Y893699D01*
X278680Y887067D02*
X282660Y893699D01*
X282660Y881761D01*
X287937Y885077D02*
X287937Y890383D01*
X287939Y890497D01*
X287945Y890612D01*
X287955Y890726D01*
X287969Y890839D01*
X287986Y890953D01*
X288008Y891065D01*
X288033Y891177D01*
X288063Y891287D01*
X288096Y891397D01*
X288133Y891505D01*
X288173Y891612D01*
X288218Y891718D01*
X288265Y891822D01*
X288317Y891924D01*
X288372Y892024D01*
X288430Y892123D01*
X288492Y892219D01*
X288557Y892314D01*
X288625Y892405D01*
X288697Y892495D01*
X288771Y892582D01*
X288848Y892666D01*
X288929Y892748D01*
X289012Y892827D01*
X289097Y892903D01*
X289186Y892976D01*
X289276Y893045D01*
X289369Y893112D01*
X289465Y893175D01*
X289562Y893235D01*
X289662Y893292D01*
X289763Y893345D01*
X289866Y893395D01*
X289971Y893441D01*
X290077Y893484D01*
X290185Y893522D01*
X290294Y893557D01*
X290404Y893588D01*
X290515Y893616D01*
X290627Y893639D01*
X290740Y893659D01*
X290853Y893675D01*
X290967Y893687D01*
X291081Y893695D01*
X291196Y893699D01*
X291310Y893699D01*
X291425Y893695D01*
X291539Y893687D01*
X291653Y893675D01*
X291766Y893659D01*
X291879Y893639D01*
X291991Y893616D01*
X292102Y893588D01*
X292212Y893557D01*
X292321Y893522D01*
X292429Y893484D01*
X292535Y893441D01*
X292640Y893395D01*
X292743Y893345D01*
X292844Y893292D01*
X292944Y893235D01*
X293041Y893175D01*
X293137Y893112D01*
X293230Y893045D01*
X293320Y892976D01*
X293409Y892903D01*
X293494Y892827D01*
X293577Y892748D01*
X293658Y892666D01*
X293735Y892582D01*
X293809Y892495D01*
X293881Y892405D01*
X293949Y892314D01*
X294014Y892219D01*
X294076Y892123D01*
X294134Y892024D01*
X294189Y891924D01*
X294241Y891822D01*
X294288Y891718D01*
X294333Y891612D01*
X294373Y891505D01*
X294410Y891397D01*
X294443Y891287D01*
X294473Y891177D01*
X294498Y891065D01*
X294520Y890953D01*
X294537Y890839D01*
X294551Y890726D01*
X294561Y890612D01*
X294567Y890497D01*
X294569Y890383D01*
X294569Y885077D01*
X294567Y884963D01*
X294561Y884848D01*
X294551Y884734D01*
X294537Y884621D01*
X294520Y884507D01*
X294498Y884395D01*
X294473Y884283D01*
X294443Y884173D01*
X294410Y884063D01*
X294373Y883955D01*
X294333Y883848D01*
X294288Y883742D01*
X294241Y883638D01*
X294189Y883536D01*
X294134Y883436D01*
X294076Y883337D01*
X294014Y883241D01*
X293949Y883146D01*
X293881Y883055D01*
X293809Y882965D01*
X293735Y882878D01*
X293658Y882794D01*
X293577Y882712D01*
X293494Y882633D01*
X293409Y882557D01*
X293320Y882484D01*
X293230Y882415D01*
X293137Y882348D01*
X293041Y882285D01*
X292944Y882225D01*
X292844Y882168D01*
X292743Y882115D01*
X292640Y882065D01*
X292535Y882019D01*
X292429Y881976D01*
X292321Y881938D01*
X292212Y881903D01*
X292102Y881872D01*
X291991Y881844D01*
X291879Y881821D01*
X291766Y881801D01*
X291653Y881785D01*
X291539Y881773D01*
X291425Y881765D01*
X291310Y881761D01*
X291196Y881761D01*
X291081Y881765D01*
X290967Y881773D01*
X290853Y881785D01*
X290740Y881801D01*
X290627Y881821D01*
X290515Y881844D01*
X290404Y881872D01*
X290294Y881903D01*
X290185Y881938D01*
X290077Y881976D01*
X289971Y882019D01*
X289866Y882065D01*
X289763Y882115D01*
X289662Y882168D01*
X289562Y882225D01*
X289465Y882285D01*
X289369Y882348D01*
X289276Y882415D01*
X289186Y882484D01*
X289097Y882557D01*
X289012Y882633D01*
X288929Y882712D01*
X288848Y882794D01*
X288771Y882878D01*
X288697Y882965D01*
X288625Y883055D01*
X288557Y883146D01*
X288492Y883241D01*
X288430Y883337D01*
X288372Y883436D01*
X288317Y883536D01*
X288265Y883638D01*
X288218Y883742D01*
X288173Y883848D01*
X288133Y883955D01*
X288096Y884063D01*
X288063Y884173D01*
X288033Y884283D01*
X288008Y884395D01*
X287986Y884507D01*
X287969Y884621D01*
X287955Y884734D01*
X287945Y884848D01*
X287939Y884963D01*
X287937Y885077D01*
X301921Y881761D02*
X301921Y893699D01*
X298605Y893699D02*
X305237Y893699D01*
X309273Y890383D02*
X309273Y885077D01*
X309273Y890383D02*
X309275Y890497D01*
X309281Y890612D01*
X309291Y890726D01*
X309305Y890839D01*
X309322Y890953D01*
X309344Y891065D01*
X309369Y891177D01*
X309399Y891287D01*
X309432Y891397D01*
X309469Y891505D01*
X309509Y891612D01*
X309554Y891718D01*
X309601Y891822D01*
X309653Y891924D01*
X309708Y892024D01*
X309766Y892123D01*
X309828Y892219D01*
X309893Y892314D01*
X309961Y892405D01*
X310033Y892495D01*
X310107Y892582D01*
X310184Y892666D01*
X310265Y892748D01*
X310348Y892827D01*
X310433Y892903D01*
X310522Y892976D01*
X310612Y893045D01*
X310705Y893112D01*
X310801Y893175D01*
X310898Y893235D01*
X310998Y893292D01*
X311099Y893345D01*
X311202Y893395D01*
X311307Y893441D01*
X311413Y893484D01*
X311521Y893522D01*
X311630Y893557D01*
X311740Y893588D01*
X311851Y893616D01*
X311963Y893639D01*
X312076Y893659D01*
X312189Y893675D01*
X312303Y893687D01*
X312417Y893695D01*
X312532Y893699D01*
X312646Y893699D01*
X312761Y893695D01*
X312875Y893687D01*
X312989Y893675D01*
X313102Y893659D01*
X313215Y893639D01*
X313327Y893616D01*
X313438Y893588D01*
X313548Y893557D01*
X313657Y893522D01*
X313765Y893484D01*
X313871Y893441D01*
X313976Y893395D01*
X314079Y893345D01*
X314180Y893292D01*
X314280Y893235D01*
X314377Y893175D01*
X314473Y893112D01*
X314566Y893045D01*
X314656Y892976D01*
X314745Y892903D01*
X314830Y892827D01*
X314913Y892748D01*
X314994Y892666D01*
X315071Y892582D01*
X315145Y892495D01*
X315217Y892405D01*
X315285Y892314D01*
X315350Y892219D01*
X315412Y892123D01*
X315470Y892024D01*
X315525Y891924D01*
X315577Y891822D01*
X315624Y891718D01*
X315669Y891612D01*
X315709Y891505D01*
X315746Y891397D01*
X315779Y891287D01*
X315809Y891177D01*
X315834Y891065D01*
X315856Y890953D01*
X315873Y890839D01*
X315887Y890726D01*
X315897Y890612D01*
X315903Y890497D01*
X315905Y890383D01*
X315905Y885077D01*
X315903Y884963D01*
X315897Y884848D01*
X315887Y884734D01*
X315873Y884621D01*
X315856Y884507D01*
X315834Y884395D01*
X315809Y884283D01*
X315779Y884173D01*
X315746Y884063D01*
X315709Y883955D01*
X315669Y883848D01*
X315624Y883742D01*
X315577Y883638D01*
X315525Y883536D01*
X315470Y883436D01*
X315412Y883337D01*
X315350Y883241D01*
X315285Y883146D01*
X315217Y883055D01*
X315145Y882965D01*
X315071Y882878D01*
X314994Y882794D01*
X314913Y882712D01*
X314830Y882633D01*
X314745Y882557D01*
X314656Y882484D01*
X314566Y882415D01*
X314473Y882348D01*
X314377Y882285D01*
X314280Y882225D01*
X314180Y882168D01*
X314079Y882115D01*
X313976Y882065D01*
X313871Y882019D01*
X313765Y881976D01*
X313657Y881938D01*
X313548Y881903D01*
X313438Y881872D01*
X313327Y881844D01*
X313215Y881821D01*
X313102Y881801D01*
X312989Y881785D01*
X312875Y881773D01*
X312761Y881765D01*
X312646Y881761D01*
X312532Y881761D01*
X312417Y881765D01*
X312303Y881773D01*
X312189Y881785D01*
X312076Y881801D01*
X311963Y881821D01*
X311851Y881844D01*
X311740Y881872D01*
X311630Y881903D01*
X311521Y881938D01*
X311413Y881976D01*
X311307Y882019D01*
X311202Y882065D01*
X311099Y882115D01*
X310998Y882168D01*
X310898Y882225D01*
X310801Y882285D01*
X310705Y882348D01*
X310612Y882415D01*
X310522Y882484D01*
X310433Y882557D01*
X310348Y882633D01*
X310265Y882712D01*
X310184Y882794D01*
X310107Y882878D01*
X310033Y882965D01*
X309961Y883055D01*
X309893Y883146D01*
X309828Y883241D01*
X309766Y883337D01*
X309708Y883436D01*
X309653Y883536D01*
X309601Y883638D01*
X309554Y883742D01*
X309509Y883848D01*
X309469Y883955D01*
X309432Y884063D01*
X309399Y884173D01*
X309369Y884283D01*
X309344Y884395D01*
X309322Y884507D01*
X309305Y884621D01*
X309291Y884734D01*
X309281Y884848D01*
X309275Y884963D01*
X309273Y885077D01*
X321149Y881761D02*
X321149Y893699D01*
X324465Y893699D01*
X324579Y893697D01*
X324694Y893691D01*
X324808Y893681D01*
X324921Y893667D01*
X325035Y893650D01*
X325147Y893628D01*
X325259Y893603D01*
X325369Y893573D01*
X325479Y893540D01*
X325587Y893503D01*
X325694Y893463D01*
X325800Y893418D01*
X325904Y893371D01*
X326006Y893319D01*
X326106Y893264D01*
X326205Y893206D01*
X326301Y893144D01*
X326396Y893079D01*
X326487Y893011D01*
X326577Y892939D01*
X326664Y892865D01*
X326748Y892788D01*
X326830Y892707D01*
X326909Y892624D01*
X326985Y892539D01*
X327058Y892450D01*
X327127Y892360D01*
X327194Y892267D01*
X327257Y892171D01*
X327317Y892074D01*
X327374Y891974D01*
X327427Y891873D01*
X327477Y891770D01*
X327523Y891665D01*
X327566Y891559D01*
X327604Y891451D01*
X327639Y891342D01*
X327670Y891232D01*
X327698Y891121D01*
X327721Y891009D01*
X327741Y890896D01*
X327757Y890783D01*
X327769Y890669D01*
X327777Y890555D01*
X327781Y890440D01*
X327781Y890326D01*
X327777Y890211D01*
X327769Y890097D01*
X327757Y889983D01*
X327741Y889870D01*
X327721Y889757D01*
X327698Y889645D01*
X327670Y889534D01*
X327639Y889424D01*
X327604Y889315D01*
X327566Y889207D01*
X327523Y889101D01*
X327477Y888996D01*
X327427Y888893D01*
X327374Y888792D01*
X327317Y888692D01*
X327257Y888595D01*
X327194Y888499D01*
X327127Y888406D01*
X327058Y888316D01*
X326985Y888227D01*
X326909Y888142D01*
X326830Y888059D01*
X326748Y887978D01*
X326664Y887901D01*
X326577Y887827D01*
X326487Y887755D01*
X326396Y887687D01*
X326301Y887622D01*
X326205Y887560D01*
X326106Y887502D01*
X326006Y887447D01*
X325904Y887395D01*
X325800Y887348D01*
X325694Y887303D01*
X325587Y887263D01*
X325479Y887226D01*
X325369Y887193D01*
X325259Y887163D01*
X325147Y887138D01*
X325035Y887116D01*
X324921Y887099D01*
X324808Y887085D01*
X324694Y887075D01*
X324579Y887069D01*
X324465Y887067D01*
X321149Y887067D01*
X325128Y887067D02*
X327781Y881761D01*
X332034Y880435D02*
X337340Y880435D01*
X342039Y881761D02*
X342039Y893699D01*
X345355Y893699D01*
X345468Y893697D01*
X345581Y893691D01*
X345694Y893682D01*
X345807Y893668D01*
X345918Y893651D01*
X346030Y893630D01*
X346140Y893605D01*
X346250Y893576D01*
X346358Y893544D01*
X346465Y893508D01*
X346571Y893468D01*
X346676Y893424D01*
X346779Y893378D01*
X346881Y893327D01*
X346980Y893273D01*
X347078Y893216D01*
X347174Y893156D01*
X347267Y893092D01*
X347359Y893025D01*
X347448Y892955D01*
X347534Y892882D01*
X347618Y892806D01*
X347700Y892728D01*
X347778Y892646D01*
X347854Y892562D01*
X347927Y892476D01*
X347997Y892387D01*
X348064Y892295D01*
X348128Y892202D01*
X348188Y892106D01*
X348245Y892008D01*
X348299Y891909D01*
X348350Y891807D01*
X348396Y891704D01*
X348440Y891599D01*
X348480Y891493D01*
X348516Y891386D01*
X348548Y891278D01*
X348577Y891168D01*
X348602Y891058D01*
X348623Y890946D01*
X348640Y890835D01*
X348654Y890722D01*
X348663Y890609D01*
X348669Y890496D01*
X348671Y890383D01*
X348671Y885077D01*
X348669Y884964D01*
X348663Y884851D01*
X348654Y884738D01*
X348640Y884625D01*
X348623Y884514D01*
X348602Y884402D01*
X348577Y884292D01*
X348548Y884182D01*
X348516Y884074D01*
X348480Y883967D01*
X348440Y883861D01*
X348396Y883756D01*
X348350Y883653D01*
X348299Y883551D01*
X348245Y883452D01*
X348188Y883354D01*
X348128Y883258D01*
X348064Y883165D01*
X347997Y883073D01*
X347927Y882984D01*
X347854Y882898D01*
X347778Y882814D01*
X347700Y882732D01*
X347618Y882654D01*
X347534Y882578D01*
X347448Y882505D01*
X347359Y882435D01*
X347267Y882368D01*
X347174Y882304D01*
X347078Y882244D01*
X346980Y882187D01*
X346881Y882133D01*
X346779Y882082D01*
X346676Y882036D01*
X346571Y881992D01*
X346465Y881952D01*
X346358Y881916D01*
X346250Y881884D01*
X346140Y881855D01*
X346030Y881830D01*
X345918Y881809D01*
X345807Y881792D01*
X345694Y881778D01*
X345581Y881769D01*
X345468Y881763D01*
X345355Y881761D01*
X342039Y881761D01*
X354295Y881761D02*
X354295Y893699D01*
X357612Y893699D01*
X357726Y893697D01*
X357841Y893691D01*
X357955Y893681D01*
X358068Y893667D01*
X358182Y893650D01*
X358294Y893628D01*
X358406Y893603D01*
X358516Y893573D01*
X358626Y893540D01*
X358734Y893503D01*
X358841Y893463D01*
X358947Y893418D01*
X359051Y893371D01*
X359153Y893319D01*
X359253Y893264D01*
X359352Y893206D01*
X359448Y893144D01*
X359543Y893079D01*
X359634Y893011D01*
X359724Y892939D01*
X359811Y892865D01*
X359895Y892788D01*
X359977Y892707D01*
X360056Y892624D01*
X360132Y892539D01*
X360205Y892450D01*
X360274Y892360D01*
X360341Y892267D01*
X360404Y892171D01*
X360464Y892074D01*
X360521Y891974D01*
X360574Y891873D01*
X360624Y891770D01*
X360670Y891665D01*
X360713Y891559D01*
X360751Y891451D01*
X360786Y891342D01*
X360817Y891232D01*
X360845Y891121D01*
X360868Y891009D01*
X360888Y890896D01*
X360904Y890783D01*
X360916Y890669D01*
X360924Y890555D01*
X360928Y890440D01*
X360928Y890326D01*
X360924Y890211D01*
X360916Y890097D01*
X360904Y889983D01*
X360888Y889870D01*
X360868Y889757D01*
X360845Y889645D01*
X360817Y889534D01*
X360786Y889424D01*
X360751Y889315D01*
X360713Y889207D01*
X360670Y889101D01*
X360624Y888996D01*
X360574Y888893D01*
X360521Y888792D01*
X360464Y888692D01*
X360404Y888595D01*
X360341Y888499D01*
X360274Y888406D01*
X360205Y888316D01*
X360132Y888227D01*
X360056Y888142D01*
X359977Y888059D01*
X359895Y887978D01*
X359811Y887901D01*
X359724Y887827D01*
X359634Y887755D01*
X359543Y887687D01*
X359448Y887622D01*
X359352Y887560D01*
X359253Y887502D01*
X359153Y887447D01*
X359051Y887395D01*
X358947Y887348D01*
X358841Y887303D01*
X358734Y887263D01*
X358626Y887226D01*
X358516Y887193D01*
X358406Y887163D01*
X358294Y887138D01*
X358182Y887116D01*
X358068Y887099D01*
X357955Y887085D01*
X357841Y887075D01*
X357726Y887069D01*
X357612Y887067D01*
X354295Y887067D01*
X358275Y887067D02*
X360928Y881761D01*
X366691Y881761D02*
X366691Y893699D01*
X365365Y881761D02*
X368018Y881761D01*
X368018Y893699D02*
X365365Y893699D01*
X371856Y893699D02*
X375835Y881761D01*
X379814Y893699D01*
X384350Y881761D02*
X389656Y881761D01*
X384350Y881761D02*
X384350Y893699D01*
X389656Y893699D01*
X388329Y888393D02*
X384350Y888393D01*
X394300Y893699D02*
X394300Y881761D01*
X394300Y893699D02*
X397616Y893699D01*
X397730Y893697D01*
X397845Y893691D01*
X397959Y893681D01*
X398072Y893667D01*
X398186Y893650D01*
X398298Y893628D01*
X398410Y893603D01*
X398520Y893573D01*
X398630Y893540D01*
X398738Y893503D01*
X398845Y893463D01*
X398951Y893418D01*
X399055Y893371D01*
X399157Y893319D01*
X399257Y893264D01*
X399356Y893206D01*
X399452Y893144D01*
X399547Y893079D01*
X399638Y893011D01*
X399728Y892939D01*
X399815Y892865D01*
X399899Y892788D01*
X399981Y892707D01*
X400060Y892624D01*
X400136Y892539D01*
X400209Y892450D01*
X400278Y892360D01*
X400345Y892267D01*
X400408Y892171D01*
X400468Y892074D01*
X400525Y891974D01*
X400578Y891873D01*
X400628Y891770D01*
X400674Y891665D01*
X400717Y891559D01*
X400755Y891451D01*
X400790Y891342D01*
X400821Y891232D01*
X400849Y891121D01*
X400872Y891009D01*
X400892Y890896D01*
X400908Y890783D01*
X400920Y890669D01*
X400928Y890555D01*
X400932Y890440D01*
X400932Y890326D01*
X400928Y890211D01*
X400920Y890097D01*
X400908Y889983D01*
X400892Y889870D01*
X400872Y889757D01*
X400849Y889645D01*
X400821Y889534D01*
X400790Y889424D01*
X400755Y889315D01*
X400717Y889207D01*
X400674Y889101D01*
X400628Y888996D01*
X400578Y888893D01*
X400525Y888792D01*
X400468Y888692D01*
X400408Y888595D01*
X400345Y888499D01*
X400278Y888406D01*
X400209Y888316D01*
X400136Y888227D01*
X400060Y888142D01*
X399981Y888059D01*
X399899Y887978D01*
X399815Y887901D01*
X399728Y887827D01*
X399638Y887755D01*
X399547Y887687D01*
X399452Y887622D01*
X399356Y887560D01*
X399257Y887502D01*
X399157Y887447D01*
X399055Y887395D01*
X398951Y887348D01*
X398845Y887303D01*
X398738Y887263D01*
X398630Y887226D01*
X398520Y887193D01*
X398410Y887163D01*
X398298Y887138D01*
X398186Y887116D01*
X398072Y887099D01*
X397959Y887085D01*
X397845Y887075D01*
X397730Y887069D01*
X397616Y887067D01*
X394300Y887067D01*
X398280Y887067D02*
X400933Y881761D01*
M02*
