G04 EAGLE Gerber RS-274X export*
G75*
%MOMM*%
%FSLAX34Y34*%
%LPD*%
%INSoldermask Top*%
%IPPOS*%
%AMOC8*
5,1,8,0,0,1.08239X$1,22.5*%
G01*
%ADD10R,1.676400X1.676400*%
%ADD11P,1.814519X8X202.500000*%
%ADD12R,0.652400X0.752400*%
%ADD13R,3.542400X1.272400*%
%ADD14C,1.252400*%
%ADD15R,2.372400X2.592400*%
%ADD16C,1.803400*%
%ADD17R,1.447800X1.447800*%
%ADD18C,1.447800*%
%ADD19C,4.597400*%
%ADD20C,0.609600*%
%ADD21C,1.168400*%


D10*
X553040Y602240D03*
D11*
X553040Y576840D03*
X527640Y602240D03*
X527640Y576840D03*
X502240Y602240D03*
X502240Y576840D03*
X476840Y602240D03*
X476840Y576840D03*
X451440Y602240D03*
X451440Y576840D03*
X426040Y602240D03*
X426040Y576840D03*
X400640Y602240D03*
X400640Y576840D03*
X375240Y602240D03*
X375240Y576840D03*
X349840Y602240D03*
X349840Y576840D03*
X324440Y602240D03*
X324440Y576840D03*
X299040Y602240D03*
X299040Y576840D03*
X273640Y602240D03*
X273640Y576840D03*
X248240Y602240D03*
X248240Y576840D03*
X222840Y602240D03*
X222840Y576840D03*
X197440Y602240D03*
X197440Y576840D03*
X172040Y602240D03*
X172040Y576840D03*
X146640Y602240D03*
X146640Y576840D03*
X121240Y602240D03*
X121240Y576840D03*
D10*
X553040Y348240D03*
D11*
X553040Y322840D03*
X527640Y348240D03*
X527640Y322840D03*
X502240Y348240D03*
X502240Y322840D03*
X476840Y348240D03*
X476840Y322840D03*
X451440Y348240D03*
X451440Y322840D03*
X426040Y348240D03*
X426040Y322840D03*
X400640Y348240D03*
X400640Y322840D03*
X375240Y348240D03*
X375240Y322840D03*
X349840Y348240D03*
X349840Y322840D03*
X324440Y348240D03*
X324440Y322840D03*
X299040Y348240D03*
X299040Y322840D03*
X273640Y348240D03*
X273640Y322840D03*
X248240Y348240D03*
X248240Y322840D03*
X222840Y348240D03*
X222840Y322840D03*
X197440Y348240D03*
X197440Y322840D03*
X172040Y348240D03*
X172040Y322840D03*
X146640Y348240D03*
X146640Y322840D03*
X121240Y348240D03*
X121240Y322840D03*
D12*
X333930Y402590D03*
X323930Y402590D03*
D13*
X456600Y727000D03*
X456600Y797000D03*
X456600Y752000D03*
X456600Y772000D03*
D14*
X533400Y721400D03*
X533400Y802600D03*
D15*
X493400Y685300D03*
X493400Y838700D03*
D16*
X304800Y812800D03*
X304800Y787400D03*
X127000Y127000D03*
X127000Y152400D03*
X304800Y127000D03*
X304800Y152400D03*
X127000Y812800D03*
X127000Y787400D03*
D17*
X254000Y50800D03*
D18*
X254000Y76200D03*
X254000Y101600D03*
X254000Y127000D03*
X254000Y152400D03*
X254000Y177800D03*
X254000Y203200D03*
X254000Y228600D03*
X177800Y228600D03*
X177800Y203200D03*
X177800Y177800D03*
X177800Y152400D03*
X177800Y127000D03*
X177800Y101600D03*
X177800Y76200D03*
X177800Y50800D03*
D17*
X177800Y889000D03*
D18*
X177800Y863600D03*
X177800Y838200D03*
X177800Y812800D03*
X177800Y787400D03*
X177800Y762000D03*
X177800Y736600D03*
X177800Y711200D03*
X254000Y711200D03*
X254000Y736600D03*
X254000Y762000D03*
X254000Y787400D03*
X254000Y812800D03*
X254000Y838200D03*
X254000Y863600D03*
X254000Y889000D03*
D19*
X38100Y38100D03*
X596900Y38100D03*
X596900Y901700D03*
X38100Y901700D03*
D20*
X30480Y88900D02*
X30482Y89087D01*
X30489Y89274D01*
X30501Y89461D01*
X30517Y89647D01*
X30537Y89833D01*
X30562Y90018D01*
X30592Y90203D01*
X30626Y90387D01*
X30665Y90570D01*
X30708Y90752D01*
X30756Y90932D01*
X30808Y91112D01*
X30865Y91290D01*
X30925Y91467D01*
X30991Y91642D01*
X31060Y91816D01*
X31134Y91988D01*
X31212Y92158D01*
X31294Y92326D01*
X31380Y92492D01*
X31470Y92656D01*
X31564Y92817D01*
X31662Y92977D01*
X31764Y93133D01*
X31870Y93288D01*
X31980Y93439D01*
X32093Y93588D01*
X32210Y93734D01*
X32330Y93877D01*
X32454Y94017D01*
X32581Y94154D01*
X32712Y94288D01*
X32846Y94419D01*
X32983Y94546D01*
X33123Y94670D01*
X33266Y94790D01*
X33412Y94907D01*
X33561Y95020D01*
X33712Y95130D01*
X33867Y95236D01*
X34023Y95338D01*
X34183Y95436D01*
X34344Y95530D01*
X34508Y95620D01*
X34674Y95706D01*
X34842Y95788D01*
X35012Y95866D01*
X35184Y95940D01*
X35358Y96009D01*
X35533Y96075D01*
X35710Y96135D01*
X35888Y96192D01*
X36068Y96244D01*
X36248Y96292D01*
X36430Y96335D01*
X36613Y96374D01*
X36797Y96408D01*
X36982Y96438D01*
X37167Y96463D01*
X37353Y96483D01*
X37539Y96499D01*
X37726Y96511D01*
X37913Y96518D01*
X38100Y96520D01*
X38287Y96518D01*
X38474Y96511D01*
X38661Y96499D01*
X38847Y96483D01*
X39033Y96463D01*
X39218Y96438D01*
X39403Y96408D01*
X39587Y96374D01*
X39770Y96335D01*
X39952Y96292D01*
X40132Y96244D01*
X40312Y96192D01*
X40490Y96135D01*
X40667Y96075D01*
X40842Y96009D01*
X41016Y95940D01*
X41188Y95866D01*
X41358Y95788D01*
X41526Y95706D01*
X41692Y95620D01*
X41856Y95530D01*
X42017Y95436D01*
X42177Y95338D01*
X42333Y95236D01*
X42488Y95130D01*
X42639Y95020D01*
X42788Y94907D01*
X42934Y94790D01*
X43077Y94670D01*
X43217Y94546D01*
X43354Y94419D01*
X43488Y94288D01*
X43619Y94154D01*
X43746Y94017D01*
X43870Y93877D01*
X43990Y93734D01*
X44107Y93588D01*
X44220Y93439D01*
X44330Y93288D01*
X44436Y93133D01*
X44538Y92977D01*
X44636Y92817D01*
X44730Y92656D01*
X44820Y92492D01*
X44906Y92326D01*
X44988Y92158D01*
X45066Y91988D01*
X45140Y91816D01*
X45209Y91642D01*
X45275Y91467D01*
X45335Y91290D01*
X45392Y91112D01*
X45444Y90932D01*
X45492Y90752D01*
X45535Y90570D01*
X45574Y90387D01*
X45608Y90203D01*
X45638Y90018D01*
X45663Y89833D01*
X45683Y89647D01*
X45699Y89461D01*
X45711Y89274D01*
X45718Y89087D01*
X45720Y88900D01*
X45718Y88713D01*
X45711Y88526D01*
X45699Y88339D01*
X45683Y88153D01*
X45663Y87967D01*
X45638Y87782D01*
X45608Y87597D01*
X45574Y87413D01*
X45535Y87230D01*
X45492Y87048D01*
X45444Y86868D01*
X45392Y86688D01*
X45335Y86510D01*
X45275Y86333D01*
X45209Y86158D01*
X45140Y85984D01*
X45066Y85812D01*
X44988Y85642D01*
X44906Y85474D01*
X44820Y85308D01*
X44730Y85144D01*
X44636Y84983D01*
X44538Y84823D01*
X44436Y84667D01*
X44330Y84512D01*
X44220Y84361D01*
X44107Y84212D01*
X43990Y84066D01*
X43870Y83923D01*
X43746Y83783D01*
X43619Y83646D01*
X43488Y83512D01*
X43354Y83381D01*
X43217Y83254D01*
X43077Y83130D01*
X42934Y83010D01*
X42788Y82893D01*
X42639Y82780D01*
X42488Y82670D01*
X42333Y82564D01*
X42177Y82462D01*
X42017Y82364D01*
X41856Y82270D01*
X41692Y82180D01*
X41526Y82094D01*
X41358Y82012D01*
X41188Y81934D01*
X41016Y81860D01*
X40842Y81791D01*
X40667Y81725D01*
X40490Y81665D01*
X40312Y81608D01*
X40132Y81556D01*
X39952Y81508D01*
X39770Y81465D01*
X39587Y81426D01*
X39403Y81392D01*
X39218Y81362D01*
X39033Y81337D01*
X38847Y81317D01*
X38661Y81301D01*
X38474Y81289D01*
X38287Y81282D01*
X38100Y81280D01*
X37913Y81282D01*
X37726Y81289D01*
X37539Y81301D01*
X37353Y81317D01*
X37167Y81337D01*
X36982Y81362D01*
X36797Y81392D01*
X36613Y81426D01*
X36430Y81465D01*
X36248Y81508D01*
X36068Y81556D01*
X35888Y81608D01*
X35710Y81665D01*
X35533Y81725D01*
X35358Y81791D01*
X35184Y81860D01*
X35012Y81934D01*
X34842Y82012D01*
X34674Y82094D01*
X34508Y82180D01*
X34344Y82270D01*
X34183Y82364D01*
X34023Y82462D01*
X33867Y82564D01*
X33712Y82670D01*
X33561Y82780D01*
X33412Y82893D01*
X33266Y83010D01*
X33123Y83130D01*
X32983Y83254D01*
X32846Y83381D01*
X32712Y83512D01*
X32581Y83646D01*
X32454Y83783D01*
X32330Y83923D01*
X32210Y84066D01*
X32093Y84212D01*
X31980Y84361D01*
X31870Y84512D01*
X31764Y84667D01*
X31662Y84823D01*
X31564Y84983D01*
X31470Y85144D01*
X31380Y85308D01*
X31294Y85474D01*
X31212Y85642D01*
X31134Y85812D01*
X31060Y85984D01*
X30991Y86158D01*
X30925Y86333D01*
X30865Y86510D01*
X30808Y86688D01*
X30756Y86868D01*
X30708Y87048D01*
X30665Y87230D01*
X30626Y87413D01*
X30592Y87597D01*
X30562Y87782D01*
X30537Y87967D01*
X30517Y88153D01*
X30501Y88339D01*
X30489Y88526D01*
X30482Y88713D01*
X30480Y88900D01*
D21*
X38100Y88900D03*
D20*
X589280Y88900D02*
X589282Y89087D01*
X589289Y89274D01*
X589301Y89461D01*
X589317Y89647D01*
X589337Y89833D01*
X589362Y90018D01*
X589392Y90203D01*
X589426Y90387D01*
X589465Y90570D01*
X589508Y90752D01*
X589556Y90932D01*
X589608Y91112D01*
X589665Y91290D01*
X589725Y91467D01*
X589791Y91642D01*
X589860Y91816D01*
X589934Y91988D01*
X590012Y92158D01*
X590094Y92326D01*
X590180Y92492D01*
X590270Y92656D01*
X590364Y92817D01*
X590462Y92977D01*
X590564Y93133D01*
X590670Y93288D01*
X590780Y93439D01*
X590893Y93588D01*
X591010Y93734D01*
X591130Y93877D01*
X591254Y94017D01*
X591381Y94154D01*
X591512Y94288D01*
X591646Y94419D01*
X591783Y94546D01*
X591923Y94670D01*
X592066Y94790D01*
X592212Y94907D01*
X592361Y95020D01*
X592512Y95130D01*
X592667Y95236D01*
X592823Y95338D01*
X592983Y95436D01*
X593144Y95530D01*
X593308Y95620D01*
X593474Y95706D01*
X593642Y95788D01*
X593812Y95866D01*
X593984Y95940D01*
X594158Y96009D01*
X594333Y96075D01*
X594510Y96135D01*
X594688Y96192D01*
X594868Y96244D01*
X595048Y96292D01*
X595230Y96335D01*
X595413Y96374D01*
X595597Y96408D01*
X595782Y96438D01*
X595967Y96463D01*
X596153Y96483D01*
X596339Y96499D01*
X596526Y96511D01*
X596713Y96518D01*
X596900Y96520D01*
X597087Y96518D01*
X597274Y96511D01*
X597461Y96499D01*
X597647Y96483D01*
X597833Y96463D01*
X598018Y96438D01*
X598203Y96408D01*
X598387Y96374D01*
X598570Y96335D01*
X598752Y96292D01*
X598932Y96244D01*
X599112Y96192D01*
X599290Y96135D01*
X599467Y96075D01*
X599642Y96009D01*
X599816Y95940D01*
X599988Y95866D01*
X600158Y95788D01*
X600326Y95706D01*
X600492Y95620D01*
X600656Y95530D01*
X600817Y95436D01*
X600977Y95338D01*
X601133Y95236D01*
X601288Y95130D01*
X601439Y95020D01*
X601588Y94907D01*
X601734Y94790D01*
X601877Y94670D01*
X602017Y94546D01*
X602154Y94419D01*
X602288Y94288D01*
X602419Y94154D01*
X602546Y94017D01*
X602670Y93877D01*
X602790Y93734D01*
X602907Y93588D01*
X603020Y93439D01*
X603130Y93288D01*
X603236Y93133D01*
X603338Y92977D01*
X603436Y92817D01*
X603530Y92656D01*
X603620Y92492D01*
X603706Y92326D01*
X603788Y92158D01*
X603866Y91988D01*
X603940Y91816D01*
X604009Y91642D01*
X604075Y91467D01*
X604135Y91290D01*
X604192Y91112D01*
X604244Y90932D01*
X604292Y90752D01*
X604335Y90570D01*
X604374Y90387D01*
X604408Y90203D01*
X604438Y90018D01*
X604463Y89833D01*
X604483Y89647D01*
X604499Y89461D01*
X604511Y89274D01*
X604518Y89087D01*
X604520Y88900D01*
X604518Y88713D01*
X604511Y88526D01*
X604499Y88339D01*
X604483Y88153D01*
X604463Y87967D01*
X604438Y87782D01*
X604408Y87597D01*
X604374Y87413D01*
X604335Y87230D01*
X604292Y87048D01*
X604244Y86868D01*
X604192Y86688D01*
X604135Y86510D01*
X604075Y86333D01*
X604009Y86158D01*
X603940Y85984D01*
X603866Y85812D01*
X603788Y85642D01*
X603706Y85474D01*
X603620Y85308D01*
X603530Y85144D01*
X603436Y84983D01*
X603338Y84823D01*
X603236Y84667D01*
X603130Y84512D01*
X603020Y84361D01*
X602907Y84212D01*
X602790Y84066D01*
X602670Y83923D01*
X602546Y83783D01*
X602419Y83646D01*
X602288Y83512D01*
X602154Y83381D01*
X602017Y83254D01*
X601877Y83130D01*
X601734Y83010D01*
X601588Y82893D01*
X601439Y82780D01*
X601288Y82670D01*
X601133Y82564D01*
X600977Y82462D01*
X600817Y82364D01*
X600656Y82270D01*
X600492Y82180D01*
X600326Y82094D01*
X600158Y82012D01*
X599988Y81934D01*
X599816Y81860D01*
X599642Y81791D01*
X599467Y81725D01*
X599290Y81665D01*
X599112Y81608D01*
X598932Y81556D01*
X598752Y81508D01*
X598570Y81465D01*
X598387Y81426D01*
X598203Y81392D01*
X598018Y81362D01*
X597833Y81337D01*
X597647Y81317D01*
X597461Y81301D01*
X597274Y81289D01*
X597087Y81282D01*
X596900Y81280D01*
X596713Y81282D01*
X596526Y81289D01*
X596339Y81301D01*
X596153Y81317D01*
X595967Y81337D01*
X595782Y81362D01*
X595597Y81392D01*
X595413Y81426D01*
X595230Y81465D01*
X595048Y81508D01*
X594868Y81556D01*
X594688Y81608D01*
X594510Y81665D01*
X594333Y81725D01*
X594158Y81791D01*
X593984Y81860D01*
X593812Y81934D01*
X593642Y82012D01*
X593474Y82094D01*
X593308Y82180D01*
X593144Y82270D01*
X592983Y82364D01*
X592823Y82462D01*
X592667Y82564D01*
X592512Y82670D01*
X592361Y82780D01*
X592212Y82893D01*
X592066Y83010D01*
X591923Y83130D01*
X591783Y83254D01*
X591646Y83381D01*
X591512Y83512D01*
X591381Y83646D01*
X591254Y83783D01*
X591130Y83923D01*
X591010Y84066D01*
X590893Y84212D01*
X590780Y84361D01*
X590670Y84512D01*
X590564Y84667D01*
X590462Y84823D01*
X590364Y84983D01*
X590270Y85144D01*
X590180Y85308D01*
X590094Y85474D01*
X590012Y85642D01*
X589934Y85812D01*
X589860Y85984D01*
X589791Y86158D01*
X589725Y86333D01*
X589665Y86510D01*
X589608Y86688D01*
X589556Y86868D01*
X589508Y87048D01*
X589465Y87230D01*
X589426Y87413D01*
X589392Y87597D01*
X589362Y87782D01*
X589337Y87967D01*
X589317Y88153D01*
X589301Y88339D01*
X589289Y88526D01*
X589282Y88713D01*
X589280Y88900D01*
D21*
X596900Y88900D03*
D20*
X30480Y850900D02*
X30482Y851087D01*
X30489Y851274D01*
X30501Y851461D01*
X30517Y851647D01*
X30537Y851833D01*
X30562Y852018D01*
X30592Y852203D01*
X30626Y852387D01*
X30665Y852570D01*
X30708Y852752D01*
X30756Y852932D01*
X30808Y853112D01*
X30865Y853290D01*
X30925Y853467D01*
X30991Y853642D01*
X31060Y853816D01*
X31134Y853988D01*
X31212Y854158D01*
X31294Y854326D01*
X31380Y854492D01*
X31470Y854656D01*
X31564Y854817D01*
X31662Y854977D01*
X31764Y855133D01*
X31870Y855288D01*
X31980Y855439D01*
X32093Y855588D01*
X32210Y855734D01*
X32330Y855877D01*
X32454Y856017D01*
X32581Y856154D01*
X32712Y856288D01*
X32846Y856419D01*
X32983Y856546D01*
X33123Y856670D01*
X33266Y856790D01*
X33412Y856907D01*
X33561Y857020D01*
X33712Y857130D01*
X33867Y857236D01*
X34023Y857338D01*
X34183Y857436D01*
X34344Y857530D01*
X34508Y857620D01*
X34674Y857706D01*
X34842Y857788D01*
X35012Y857866D01*
X35184Y857940D01*
X35358Y858009D01*
X35533Y858075D01*
X35710Y858135D01*
X35888Y858192D01*
X36068Y858244D01*
X36248Y858292D01*
X36430Y858335D01*
X36613Y858374D01*
X36797Y858408D01*
X36982Y858438D01*
X37167Y858463D01*
X37353Y858483D01*
X37539Y858499D01*
X37726Y858511D01*
X37913Y858518D01*
X38100Y858520D01*
X38287Y858518D01*
X38474Y858511D01*
X38661Y858499D01*
X38847Y858483D01*
X39033Y858463D01*
X39218Y858438D01*
X39403Y858408D01*
X39587Y858374D01*
X39770Y858335D01*
X39952Y858292D01*
X40132Y858244D01*
X40312Y858192D01*
X40490Y858135D01*
X40667Y858075D01*
X40842Y858009D01*
X41016Y857940D01*
X41188Y857866D01*
X41358Y857788D01*
X41526Y857706D01*
X41692Y857620D01*
X41856Y857530D01*
X42017Y857436D01*
X42177Y857338D01*
X42333Y857236D01*
X42488Y857130D01*
X42639Y857020D01*
X42788Y856907D01*
X42934Y856790D01*
X43077Y856670D01*
X43217Y856546D01*
X43354Y856419D01*
X43488Y856288D01*
X43619Y856154D01*
X43746Y856017D01*
X43870Y855877D01*
X43990Y855734D01*
X44107Y855588D01*
X44220Y855439D01*
X44330Y855288D01*
X44436Y855133D01*
X44538Y854977D01*
X44636Y854817D01*
X44730Y854656D01*
X44820Y854492D01*
X44906Y854326D01*
X44988Y854158D01*
X45066Y853988D01*
X45140Y853816D01*
X45209Y853642D01*
X45275Y853467D01*
X45335Y853290D01*
X45392Y853112D01*
X45444Y852932D01*
X45492Y852752D01*
X45535Y852570D01*
X45574Y852387D01*
X45608Y852203D01*
X45638Y852018D01*
X45663Y851833D01*
X45683Y851647D01*
X45699Y851461D01*
X45711Y851274D01*
X45718Y851087D01*
X45720Y850900D01*
X45718Y850713D01*
X45711Y850526D01*
X45699Y850339D01*
X45683Y850153D01*
X45663Y849967D01*
X45638Y849782D01*
X45608Y849597D01*
X45574Y849413D01*
X45535Y849230D01*
X45492Y849048D01*
X45444Y848868D01*
X45392Y848688D01*
X45335Y848510D01*
X45275Y848333D01*
X45209Y848158D01*
X45140Y847984D01*
X45066Y847812D01*
X44988Y847642D01*
X44906Y847474D01*
X44820Y847308D01*
X44730Y847144D01*
X44636Y846983D01*
X44538Y846823D01*
X44436Y846667D01*
X44330Y846512D01*
X44220Y846361D01*
X44107Y846212D01*
X43990Y846066D01*
X43870Y845923D01*
X43746Y845783D01*
X43619Y845646D01*
X43488Y845512D01*
X43354Y845381D01*
X43217Y845254D01*
X43077Y845130D01*
X42934Y845010D01*
X42788Y844893D01*
X42639Y844780D01*
X42488Y844670D01*
X42333Y844564D01*
X42177Y844462D01*
X42017Y844364D01*
X41856Y844270D01*
X41692Y844180D01*
X41526Y844094D01*
X41358Y844012D01*
X41188Y843934D01*
X41016Y843860D01*
X40842Y843791D01*
X40667Y843725D01*
X40490Y843665D01*
X40312Y843608D01*
X40132Y843556D01*
X39952Y843508D01*
X39770Y843465D01*
X39587Y843426D01*
X39403Y843392D01*
X39218Y843362D01*
X39033Y843337D01*
X38847Y843317D01*
X38661Y843301D01*
X38474Y843289D01*
X38287Y843282D01*
X38100Y843280D01*
X37913Y843282D01*
X37726Y843289D01*
X37539Y843301D01*
X37353Y843317D01*
X37167Y843337D01*
X36982Y843362D01*
X36797Y843392D01*
X36613Y843426D01*
X36430Y843465D01*
X36248Y843508D01*
X36068Y843556D01*
X35888Y843608D01*
X35710Y843665D01*
X35533Y843725D01*
X35358Y843791D01*
X35184Y843860D01*
X35012Y843934D01*
X34842Y844012D01*
X34674Y844094D01*
X34508Y844180D01*
X34344Y844270D01*
X34183Y844364D01*
X34023Y844462D01*
X33867Y844564D01*
X33712Y844670D01*
X33561Y844780D01*
X33412Y844893D01*
X33266Y845010D01*
X33123Y845130D01*
X32983Y845254D01*
X32846Y845381D01*
X32712Y845512D01*
X32581Y845646D01*
X32454Y845783D01*
X32330Y845923D01*
X32210Y846066D01*
X32093Y846212D01*
X31980Y846361D01*
X31870Y846512D01*
X31764Y846667D01*
X31662Y846823D01*
X31564Y846983D01*
X31470Y847144D01*
X31380Y847308D01*
X31294Y847474D01*
X31212Y847642D01*
X31134Y847812D01*
X31060Y847984D01*
X30991Y848158D01*
X30925Y848333D01*
X30865Y848510D01*
X30808Y848688D01*
X30756Y848868D01*
X30708Y849048D01*
X30665Y849230D01*
X30626Y849413D01*
X30592Y849597D01*
X30562Y849782D01*
X30537Y849967D01*
X30517Y850153D01*
X30501Y850339D01*
X30489Y850526D01*
X30482Y850713D01*
X30480Y850900D01*
D21*
X38100Y850900D03*
M02*
